<?xml version="1.0" encoding="UTF-8"?>
<svg xmlns="http://www.w3.org/2000/svg" version="1.1" viewBox="0 0 24 24">
  <defs>
    <style>
      .cls-1 {
        fill: #000;
      }

      .cls-1, .cls-2 {
        stroke-width: 0px;
      }

      .cls-2 {
        fill: #fff;
      }
    </style>
  </defs>
  <g id="Layer_2" data-name="Layer 2">
    <rect class="cls-1" width="24" height="24"/>
  </g>
  <g id="Layer_1" data-name="Layer 1">
    <g id="SVGRepo_iconCarrier" data-name="SVGRepo iconCarrier">
      <path class="cls-2" d="M23.2,7.9c0-5.2-3.4-6.7-3.4-6.7C18.1.4,15.1,0,12,0h0c-3.1,0-6,.4-7.7,1.1,0,0-3.4,1.5-3.4,6.7s0,2.6,0,4.1c.1,5.1.9,10.1,5.6,11.4,2.2.6,4,.7,5.5.6,2.7-.2,4.2-1,4.2-1v-2c0,0-2,.6-4.2.5-2.2,0-4.4-.2-4.8-2.9,0-.2,0-.5,0-.7,0,0,2.1.5,4.8.6,1.6,0,3.2,0,4.8-.3,3-.4,5.6-2.2,6-3.9.5-2.7.5-6.5.5-6.5ZM19.2,14.6h-2.5v-6.1c0-1.3-.5-1.9-1.6-1.9s-1.8.8-1.8,2.3v3.3h-2.5v-3.3c0-1.5-.6-2.3-1.8-2.3s-1.6.7-1.6,1.9v6.1h-2.5v-6.3c0-1.3.3-2.3,1-3.1.7-.8,1.6-1.1,2.7-1.1s2.2.5,2.9,1.5l.6,1,.6-1c.6-1,1.6-1.5,2.9-1.5s2,.4,2.7,1.1c.7.8,1,1.8,1,3.1v6.3Z"/>
    </g>
  </g>
</svg>