<?xml version="1.0" encoding="utf-8"?>
<!-- Generator: Adobe Illustrator 26.5.0, SVG Export Plug-In . SVG Version: 6.00 Build 0)  -->
<svg version="1.1" id="Layer_1" xmlns="http://www.w3.org/2000/svg" xmlns:xlink="http://www.w3.org/1999/xlink" x="0px" y="0px"
	 viewBox="0 0 1920 1080" style="enable-background:new 0 0 1920 1080;" xml:space="preserve">
<g>
	<path d="M1450,787c-0.8,4.1-1.4,8.1-2.3,12.2c-5.5,24.8-20.9,39.5-47.2,43.7c-10.3,1.6-20.9,2.4-31.3,2.4
		c-211.8,0.1-423.6,0.2-635.5,0c-11.7,0-23.7-1-35.2-3.3c-25.8-5.3-40.3-22-43.5-48.2c-0.8-6.9-1.2-13.9-1.2-20.9
		c-0.1-214.7-0.1-429.3,0.1-644c0-10.9,1-22.1,3.6-32.6c6.4-26.1,24.4-40.3,50.3-45.2c3.7-0.7,7.5-1.3,11.2-2c60,0,120,0,180,0
		c0,20.1,0,40.3,0,61.1c-61.5,0-122.5,0-183.8,0c0,224.9,0,449.2,0,673.6c224.4,0,448.6,0,673.4,0c0-61,0-121.9,0-183.7
		c20.8,0,41.1,0,61.3,0C1450,662.4,1450,724.7,1450,787z"/>
	<path d="M470,233c8.8-0.1,17.7-0.2,26.5-0.2c29.8,0,59.7,0,89.5,0c2,0,4,0,6.3,0c0,20.5,0,40.5,0,61c-20.1,0-40.2,0-60.7,0
		c0,224.8,0,449.2,0,673.8c224.4,0,448.6,0,673.4,0c0-20.3,0-40.3,0-60.7c20.6,0,40.6,0,61,0c0,40.7,0,81.1,0,122.2
		c-1.8,0-3.6,0-5.4,0c-230.6,0-461.3,0.1-691.9-0.2c-15.2,0-30.7-1.1-45.6-4.1c-30.4-6.1-46.5-24.4-51-55.1c-0.6-4.3-1.3-8.5-2-12.7
		C470,715.7,470,474.4,470,233z"/>
	<path d="M1450,478c-20.1,0-40.3,0-61,0c0-106,0-211.6,0-317.3c-146.9,147-293.5,293.5-439.8,439.8c-17.2-17.2-33.3-33.3-49.6-49.6
		c146.1-146.2,292.6-292.8,440.3-440.6c-107,0-212.5,0-318.9,0c0-20.9,0-41.1,0-61.4c143,0,286,0,429,0C1450,192,1450,335,1450,478z
		"/>
</g>
</svg>
