<svg width="127" height="46" viewBox="0 0 127 46" fill="none" xmlns="http://www.w3.org/2000/svg">
<path d="M23.9 1.3895C24.2 1.02469 24.5 0.842285 25 0.842285C25.5 0.842285 25.7 0.933488 26.1 1.3895L37.95 17.35H32.74C31.44 17.35 30.54 17.806 29.84 18.7181L18.8 33.5842H0L23.9 1.3895Z" fill="#48206E"/>
<path d="M48.7901 45.0668H46.6501C46.1901 45.0668 45.8101 44.7294 45.8101 44.3098V27.793C45.8101 27.3734 46.1801 27.0269 46.6401 27.0269H54.8001C55.7501 27.0269 56.6901 27.1728 57.5801 27.4738C58.3701 27.7838 59.0901 28.2125 59.7201 28.7597C60.0201 29.0333 60.3001 29.3434 60.5301 29.6717C60.7701 30.0092 60.9701 30.3649 61.1301 30.7297C61.4601 31.5323 61.6201 32.3896 61.6201 33.2469C61.6201 34.6423 61.2501 35.8371 60.5101 36.8221C59.9401 37.6064 59.1701 38.2539 58.2701 38.7008C58.0901 38.7829 57.9501 38.9288 57.8901 39.1113C57.8401 39.2937 57.8901 39.4852 58.0201 39.6129C58.6901 40.4337 59.3201 41.2089 59.9201 41.9477C60.5201 42.6773 61.1501 43.4525 61.8001 44.2825C61.9401 44.4375 61.9801 44.6382 61.9201 44.8206C61.8601 44.9939 61.6701 45.1124 61.4701 45.0942H58.7401C58.4901 45.0942 58.2401 45.0303 58.0101 44.9209C57.7801 44.8206 57.5801 44.6838 57.4201 44.5014C57.1101 44.1274 56.8101 43.7535 56.5101 43.3796L55.6001 42.2578L53.8201 39.9686C53.6601 39.777 53.4601 39.6311 53.2201 39.5217C52.9901 39.4122 52.7501 39.3575 52.4901 39.3484H50.4101C49.9501 39.3484 49.5801 39.6767 49.5701 40.0962C49.5701 40.0962 49.5701 40.1054 49.5701 40.1145V44.3281C49.5701 44.5287 49.4901 44.7202 49.3401 44.8662C49.1901 45.0121 48.9801 45.0851 48.7601 45.0851L48.7901 45.0668ZM50.4401 36.2657H54.8201C55.1801 36.2657 55.5401 36.1928 55.8701 36.0651C56.2401 35.9465 56.5901 35.755 56.8701 35.4996C57.1601 35.226 57.4001 34.9068 57.5701 34.5602C57.7701 34.1407 57.8601 33.6847 57.8401 33.2287C57.8401 32.9094 57.8001 32.5994 57.7301 32.2893C57.7001 32.1069 57.6401 31.9336 57.5701 31.7603C57.5001 31.587 57.4201 31.4228 57.3301 31.2587C57.1001 30.9212 56.7901 30.6294 56.4101 30.4196C55.9201 30.1734 55.3701 30.0548 54.8201 30.073H50.4401C49.9801 30.073 49.6101 30.4014 49.6001 30.8209C49.6001 30.8209 49.6001 30.83 49.6001 30.8391V35.4996C49.6001 35.9192 49.9601 36.2566 50.4201 36.2657C50.4201 36.2657 50.4301 36.2657 50.4401 36.2657Z" fill="#231F20"/>
<path d="M102.39 42.0843L103.52 40.5521C103.63 40.3788 103.82 40.2603 104.04 40.2329C104.26 40.1964 104.48 40.242 104.66 40.3515C105.43 40.7892 106.22 41.1814 107.04 41.5371C108.08 42.0022 109.22 42.2394 110.37 42.2303C110.92 42.2394 111.47 42.1664 112 42.0114C112.43 41.8928 112.83 41.7104 113.19 41.4642C113.49 41.2635 113.74 40.999 113.92 40.698C114.08 40.4427 114.16 40.1508 114.16 39.859C114.16 39.5124 114.03 39.1841 113.78 38.9196C113.5 38.6642 113.17 38.4545 112.81 38.2994C112.6 38.2173 112.38 38.1352 112.16 38.0805C111.93 38.0167 111.66 37.9528 111.37 37.8799C111.1 37.816 110.82 37.7613 110.55 37.7066C110.28 37.6519 109.98 37.6063 109.67 37.5607L109.02 37.4512C108.79 37.4147 108.54 37.36 108.29 37.3144C107.27 37.1046 105.87 36.7034 105.03 36.3203C104.49 36.0741 104 35.7457 103.57 35.3627C103.12 34.9705 102.76 34.5054 102.52 33.9855C102.26 33.3927 102.13 32.7451 102.14 32.1067C102.14 31.067 102.37 30.1915 102.84 29.471C103.29 28.8052 103.9 28.2397 104.62 27.8202C105.38 27.428 106.2 27.1453 107.05 26.9811C107.9 26.8169 108.77 26.7349 109.65 26.7349C110.39 26.7349 111.13 26.7805 111.87 26.8808C112.18 26.9264 112.49 26.9902 112.8 27.0632C113.31 27.1909 114.1 27.4462 114.52 27.6287C114.79 27.7563 115.05 27.884 115.3 28.0117C115.48 28.112 116.14 28.4677 116.35 28.5954C116.56 28.7231 116.66 28.8873 116.7 29.0879C116.74 29.2885 116.68 29.4983 116.54 29.6534L115.4 31.1308C115.27 31.3041 115.07 31.4136 114.85 31.4501C114.63 31.4865 114.4 31.4409 114.22 31.3315C113.59 30.9576 112.92 30.6384 112.22 30.3921C111.35 30.0729 110.43 29.9178 109.49 29.927C109.33 29.927 109.15 29.927 108.96 29.9543C108.77 29.9817 108.58 29.9908 108.38 30.0273C107.97 30.1094 107.57 30.2279 107.19 30.4012C107.02 30.4833 106.85 30.5745 106.69 30.6748C106.54 30.7752 106.4 30.8937 106.27 31.0214C106.04 31.2859 105.91 31.6142 105.92 31.9608C105.92 32.3074 106.07 32.6357 106.35 32.8728C106.67 33.1373 107.05 33.3471 107.46 33.493C107.69 33.5751 107.93 33.6481 108.18 33.7119C108.42 33.7757 108.68 33.8396 108.95 33.9125C109.22 33.9855 109.49 34.0311 109.74 34.0858C109.99 34.1405 112.35 34.5874 112.63 34.6422C112.91 34.6969 113.17 34.7699 113.44 34.8519C113.58 34.8884 113.73 34.9249 113.89 34.9705L114.34 35.1164C114.56 35.1985 114.8 35.3079 115.08 35.4356C115.33 35.5542 115.57 35.6819 115.8 35.8278C115.94 35.9099 116.07 35.992 116.19 36.0832C116.31 36.1744 116.42 36.2656 116.53 36.375C116.98 36.7854 117.33 37.2688 117.56 37.8069C117.85 38.4636 117.98 39.1658 117.97 39.8772C117.99 40.7163 117.8 41.5462 117.43 42.3215C117.08 42.9964 116.55 43.5801 115.89 44.027C115.18 44.5103 114.37 44.866 113.51 45.0667C112.51 45.3038 111.49 45.4132 110.46 45.4132C109.54 45.4315 108.61 45.3676 107.71 45.2126C106.98 45.094 106.26 44.9025 105.57 44.638C105.25 44.5286 104.93 44.4009 104.62 44.255C104.31 44.109 104.01 43.9631 103.73 43.7989C103.55 43.6986 103.37 43.5983 103.19 43.4889C103.01 43.3794 102.82 43.2608 102.62 43.1332C102.43 43.0328 102.3 42.8596 102.27 42.668C102.24 42.4674 102.29 42.2667 102.41 42.1026L102.39 42.0843Z" fill="#231F20"/>
<path d="M121.63 42.9961C121.63 42.7772 121.66 42.5675 121.72 42.3577C121.78 42.1571 121.86 41.9655 121.98 41.7922C122.09 41.619 122.22 41.4548 122.38 41.3089C122.53 41.1629 122.71 41.0353 122.9 40.9349C123.09 40.8255 123.3 40.7525 123.51 40.6978C123.73 40.6431 123.96 40.6157 124.19 40.6157C124.42 40.6157 124.65 40.6431 124.88 40.6978C125.31 40.8072 125.71 41.017 126.02 41.3089C126.18 41.4548 126.31 41.619 126.42 41.7922C126.53 41.9746 126.62 42.1662 126.68 42.3577C126.74 42.5675 126.77 42.7772 126.77 42.9961C126.77 43.3153 126.7 43.6345 126.57 43.9264C126.31 44.501 125.82 44.957 125.2 45.2032C124.88 45.3309 124.54 45.3948 124.19 45.3948C123.96 45.3948 123.73 45.3674 123.51 45.3036C123.3 45.2488 123.09 45.1668 122.9 45.0664C122.71 44.9661 122.53 44.8384 122.38 44.6925C122.22 44.5466 122.09 44.3824 121.98 44.2091C121.86 44.0358 121.78 43.8352 121.72 43.6437C121.66 43.4339 121.62 43.2241 121.62 43.0052L121.63 42.9961ZM122.26 42.9961C122.26 43.2424 122.31 43.4977 122.41 43.7257C122.5 43.9446 122.64 44.1453 122.82 44.3186C122.99 44.4827 123.2 44.6195 123.43 44.7199C123.67 44.8202 123.92 44.8658 124.18 44.8658C124.44 44.8658 124.71 44.8202 124.95 44.7199C125.43 44.5283 125.8 44.1726 125.98 43.7257C126.18 43.2606 126.18 42.7408 125.98 42.2665C125.89 42.0476 125.74 41.847 125.57 41.6737C125.39 41.5095 125.18 41.3727 124.95 41.2815C124.71 41.1812 124.45 41.1356 124.18 41.1356C123.92 41.1356 123.66 41.1812 123.43 41.2815C123.2 41.3727 122.99 41.5095 122.82 41.6737C122.65 41.847 122.51 42.0476 122.41 42.2665C122.31 42.4945 122.26 42.7408 122.26 42.9961ZM123.29 41.7831H124.38C124.5 41.7831 124.62 41.8014 124.73 41.8378C124.83 41.8743 124.92 41.929 125 41.9929C125.08 42.0567 125.14 42.1388 125.18 42.23C125.22 42.3303 125.24 42.4307 125.24 42.5401C125.24 42.6222 125.23 42.7134 125.19 42.7864C125.16 42.8502 125.12 42.914 125.07 42.9688C125.03 43.0144 124.98 43.06 124.92 43.0873C124.87 43.1147 124.82 43.1329 124.77 43.1512V43.1694L124.8 43.215C124.8 43.215 124.83 43.2606 124.84 43.288L125.32 44.1635H124.64L124.2 43.288H123.85V44.1635H123.24L123.28 41.774L123.29 41.7831ZM124.25 42.8958C124.35 42.8958 124.46 42.8684 124.53 42.7955C124.6 42.7225 124.64 42.6313 124.64 42.531C124.64 42.4307 124.61 42.3395 124.54 42.2665C124.47 42.2027 124.37 42.1662 124.27 42.1753H123.92V42.8867H124.26L124.25 42.8958Z" fill="#231F20"/>
<path d="M29.7001 42.2304C29.4501 42.2304 29.2101 42.3034 29.0101 42.431C28.8001 42.5496 28.6301 42.7047 28.5101 42.9053L27.7001 44.3828C27.4501 44.8479 26.9301 45.0759 26.5101 45.0759H24.0401C23.5801 45.0759 23.4301 44.7476 23.6201 44.4102L33.0001 27.3278C33.1101 27.1272 33.3401 27.0269 33.5401 27.0269C33.7401 27.0269 33.9701 27.1272 34.0801 27.3278L43.4601 44.4102C43.6501 44.7476 43.5001 45.0759 43.0401 45.0759H40.5701C40.1501 45.0759 39.6301 44.8479 39.3801 44.3828L38.5701 42.9053C38.4501 42.7138 38.2801 42.5496 38.0701 42.431C37.8701 42.3034 37.6301 42.2395 37.3801 42.2304H29.7101H29.7001ZM33.1801 34.469L31.0701 38.5367C30.9801 38.6826 30.9701 38.865 31.0601 39.0201C31.1601 39.166 31.3501 39.2481 31.5401 39.2298H35.5401C35.7301 39.2481 35.9201 39.166 36.0201 39.0201C36.1001 38.865 36.1001 38.6917 36.0101 38.5367L33.9001 34.469C33.8101 34.2684 33.6901 34.1772 33.5501 34.1772C33.4101 34.1772 33.2901 34.2775 33.2001 34.469H33.1801Z" fill="#231F20"/>
<path d="M86.75 27.4186V44.3094C86.75 44.5101 86.67 44.7016 86.51 44.8475C86.37 44.9935 86.16 45.0755 85.94 45.0755H83.8C83.58 45.0755 83.36 44.9935 83.21 44.8475C83.05 44.7107 82.96 44.5101 82.96 44.3094V36.7213C82.96 36.5025 82.91 36.3748 82.82 36.3383C82.73 36.3018 82.59 36.3383 82.45 36.5481L77.35 42.1388C77.23 42.303 77.03 42.3942 76.82 42.3942C76.61 42.3942 76.41 42.2938 76.29 42.1388L71.15 36.5298C71.01 36.3657 70.88 36.3018 70.78 36.3292C70.68 36.3565 70.61 36.4842 70.61 36.7031V44.2912C70.61 44.4918 70.53 44.6834 70.37 44.8293C70.22 44.9843 70 45.0664 69.77 45.0573H67.66C67.2 45.0573 66.83 44.7107 66.82 44.2912V27.4186C66.81 27.3274 66.84 27.2362 66.9 27.1724C66.96 27.0994 67.05 27.0538 67.15 27.0447C67.36 27.0173 67.56 27.0903 67.69 27.2454L76.22 36.8855C76.36 37.0223 76.56 37.1044 76.76 37.1044C76.96 37.1044 77.16 37.0223 77.3 36.8855L85.86 27.2727C85.98 27.1177 86.19 27.0356 86.4 27.0721C86.59 27.0903 86.73 27.2454 86.72 27.4186H86.75Z" fill="#231F20"/>
<path d="M95.8599 45.0664H93.7199C93.4999 45.0664 93.2899 44.9934 93.1399 44.8383C92.9899 44.6924 92.8999 44.5009 92.9099 44.3002V27.8107C92.9099 27.6101 92.9799 27.4094 93.1399 27.2635C93.2899 27.1176 93.4999 27.0355 93.7199 27.0446H95.8599C96.0799 27.0446 96.2899 27.1176 96.4499 27.2635C96.6099 27.4094 96.6999 27.601 96.6999 27.8107V44.3002C96.6999 44.5009 96.6099 44.6924 96.4499 44.8383C96.2999 44.9843 96.0799 45.0664 95.8599 45.0664Z" fill="#231F20"/>
</svg>
