<?xml version="1.0" encoding="UTF-8"?><svg id="Layer_1" xmlns="http://www.w3.org/2000/svg" viewBox="0 0 572.87 301.94"><defs><style>.cls-1{fill:#049fd9;stroke-width:0px;}</style></defs><g id="Cisco"><path class="cls-1" d="m468.71,198.86c-30.62,0-52.57,23.09-52.57,51.52s21.96,51.55,52.57,51.55,52.6-23.08,52.6-51.55-21.99-51.52-52.6-51.52Zm0,77.72c-14.9,0-25.97-11.72-25.97-26.2s11.06-26.18,25.97-26.18,25.98,11.72,25.98,26.18-11.09,26.2-25.98,26.2Z"/><path class="cls-1" d="m265.67,240.06l-6.93-2.21c-4.13-1.3-11.52-3.42-11.52-9.48,0-4.79,5.47-8.16,15.54-8.16,8.69,0,19.26,2.92,19.64,3.04v-21.25c-.75-.2-12.26-3.17-24.48-3.17-23.15,0-37.09,12.5-37.09,31.12,0,16.48,11.66,24.7,25.66,29.12,1.55.51,3.84,1.23,5.36,1.73,6.23,1.96,11.2,4.87,11.2,9.92,0,5.64-5.75,9.29-18.24,9.29-10.98,0-21.51-3.14-23.72-3.7v22.91c1.24.26,13.75,2.72,27.11,2.72,19.22,0,41.21-8.4,41.21-33.4,0-12.13-7.43-23.29-23.73-28.48Z"/><rect class="cls-1" x="162.02" y="200.62" width="25.12" height="99.54"/><path class="cls-1" d="m51.58,250.38c0,32.07,24.77,51.55,53.01,51.55,11.22,0,19.78-2.66,22.9-3.54v-26.72c-1.08.6-9.29,5.28-21.1,5.28-16.74,0-27.53-11.78-27.53-26.57s11.26-26.55,27.53-26.55c12.01,0,20.09,4.79,21.1,5.31v-26.72c-2.36-.7-11.09-3.57-22.9-3.57-30.57,0-53.01,21.8-53.01,51.52Z"/><path class="cls-1" d="m313.77,250.38c0,32.07,24.77,51.55,53.01,51.55,11.22,0,19.78-2.66,22.9-3.54v-26.72c-1.08.6-9.29,5.28-21.1,5.28-16.74,0-27.53-11.78-27.53-26.57s11.26-26.55,27.53-26.55c12.01,0,20.09,4.79,21.1,5.31v-26.72c-2.36-.7-11.09-3.57-22.9-3.57-30.57,0-53.01,21.8-53.01,51.52Z"/><path class="cls-1" d="m12.47,81.22c-6.86,0-12.47,5.56-12.47,12.42v26.13c0,6.9,5.61,12.46,12.47,12.46s12.47-5.56,12.47-12.46v-26.13c0-6.86-5.6-12.42-12.47-12.42Z"/><path class="cls-1" d="m80.97,132.24c6.87,0,12.47-5.56,12.47-12.46v-60.43c0-6.86-5.6-12.43-12.47-12.43s-12.47,5.57-12.47,12.43v60.43c0,6.9,5.6,12.46,12.47,12.46Z"/><path class="cls-1" d="m149.47,0s0,0,0,0,0,0,0,0c-6.01,0-11.05,4.26-12.22,9.92-.17.81-.25,1.65-.25,2.5v132.18c0,.86.09,1.7.25,2.52,1.17,5.69,6.21,9.95,12.22,9.95,0,0,0,0,0,0s0,0,0,0c6.01,0,11.05-4.26,12.22-9.95.17-.81.25-1.65.25-2.52V12.43c0-.86-.09-1.7-.25-2.5-1.17-5.66-6.21-9.92-12.22-9.92Z"/><path class="cls-1" d="m230.45,119.78v-60.43c0-6.86-5.6-12.43-12.47-12.43s-12.47,5.57-12.47,12.43v60.43c0,6.9,5.6,12.46,12.47,12.46s12.47-5.56,12.47-12.46Z"/><path class="cls-1" d="m286.48,81.22s-.03,0-.04,0-.03,0-.04,0c-6.86,0-12.47,5.56-12.47,12.42v26.13c0,6.9,5.61,12.46,12.47,12.46.01,0,.03,0,.04,0s.03,0,.04,0c6.86,0,12.47-5.56,12.47-12.46v-26.13c0-6.86-5.61-12.42-12.47-12.42Z"/><path class="cls-1" d="m491.9,132.24c6.87,0,12.47-5.56,12.47-12.46v-60.43c0-6.86-5.6-12.43-12.47-12.43s-12.47,5.57-12.47,12.43v60.43c0,6.9,5.6,12.46,12.47,12.46Z"/><path class="cls-1" d="m560.4,81.22c-6.87,0-12.47,5.56-12.47,12.42v26.13c0,6.9,5.6,12.46,12.47,12.46s12.47-5.56,12.47-12.46v-26.13c0-6.86-5.61-12.42-12.47-12.42Z"/><path class="cls-1" d="m423.4,157.07s0,0,0,0c6.01,0,11.05-4.26,12.22-9.95.17-.81.25-1.65.25-2.52V12.43c0-.86-.09-1.7-.25-2.5-1.17-5.66-6.21-9.92-12.22-9.92,0,0,0,0,0,0s0,0,0,0c-6.01,0-11.05,4.26-12.22,9.92-.17.81-.25,1.65-.25,2.5v132.18c0,.86.09,1.7.25,2.52,1.17,5.69,6.21,9.95,12.22,9.95,0,0,0,0,0,0Z"/><path class="cls-1" d="m354.9,132.24c6.87,0,12.47-5.56,12.47-12.46v-60.43c0-6.86-5.6-12.43-12.47-12.43s-12.47,5.57-12.47,12.43v60.43c0,6.9,5.6,12.46,12.47,12.46Z"/></g></svg>