<?xml version="1.0" encoding="utf-8"?>
<!-- Generator: Adobe Illustrator 16.0.3, SVG Export Plug-In . SVG Version: 6.00 Build 0)  -->
<!DOCTYPE svg PUBLIC "-//W3C//DTD SVG 1.1//EN" "http://www.w3.org/Graphics/SVG/1.1/DTD/svg11.dtd" [
	<!ENTITY st0 "clip-path:url(#SVGID_2_);fill:#7C7C7C;">
	<!ENTITY st1 "display:inline;clip-path:url(#SVGID_4_);fill:url(#SVGID_5_);">
	<!ENTITY st2 "clip-path:url(#SVGID_2_);fill:#231F20;">
	<!ENTITY st3 "display:inline;">
	<!ENTITY st4 "fill:#3333FF;">
	<!ENTITY st5 "display:inline;clip-path:url(#SVGID_9_);fill:url(#SVGID_10_);">
	<!ENTITY st6 "display:inline;clip-path:url(#SVGID_7_);fill:#3333FF;">
	<!ENTITY st7 "fill:url(#SVGID_11_);">
	<!ENTITY st8 "fill:url(#SVGID_12_);">
	<!ENTITY st9 "display:none;">
]>
<svg version="1.1" id="Layer_1" xmlns="http://www.w3.org/2000/svg" xmlns:xlink="http://www.w3.org/1999/xlink" x="0px" y="0px"
	 width="1115px" height="250px" viewBox="0 0 1115 250" style="enable-background:new 0 0 1115 250;" xml:space="preserve">
<g>
	<defs>
		<rect id="SVGID_1_" width="1115" height="250"/>
	</defs>
	<clipPath id="SVGID_2_">
		<use xlink:href="#SVGID_1_"  style="overflow:visible;"/>
	</clipPath>
	<path style="&st2;" d="M353.009,139.353c-12.226,0-21.36-2.73-27.402-8.193c-6.043-5.464-9.062-12.933-9.062-22.411V81.4
		c0-9.551,2.947-17.111,8.844-22.683c5.898-5.571,14.925-8.356,27.078-8.356c11.575,0,20.113,2.116,25.611,6.349
		c5.498,4.233,8.503,11.196,9.01,20.892l-16.28,1.085c-0.507-5.428-1.954-9.334-4.342-11.722c-2.386-2.386-7.018-3.581-13.891-3.581
		c-7.742,0-12.967,1.612-15.68,4.829c-2.713,3.222-4.071,7.979-4.071,14.273v25.176c0,6.224,1.5,10.891,4.505,14.001
		c2.999,3.112,8.555,4.667,16.659,4.667c7.304,0,12.136-1.63,14.487-4.885c2.35-3.257,3.489-8.248,3.419-14.976h-20.078V93.447
		h36.354v14.759c0,9.479-2.84,17.038-8.517,22.681C373.974,136.529,365.091,139.353,353.009,139.353"/>
	<path style="&st2;" d="M446.232,139.353c-12.443,0-21.433-2.695-26.968-8.086c-5.535-5.389-8.303-13.436-8.303-24.145V51.447
		h16.279v54.588c0,6.873,1.303,11.884,3.909,15.031c2.602,3.147,7.631,4.719,15.083,4.719c7.524,0,12.571-1.572,15.139-4.719
		s3.853-8.158,3.853-15.031V51.447h16.279v55.674c0,10.709-2.767,18.756-8.303,24.145
		C467.666,136.657,458.675,139.353,446.232,139.353"/>
	<rect x="509.295" y="51.827" style="&st2;" width="16.279" height="86.061"/>
	<rect x="909.518" y="51.827" style="&st2;" width="16.279" height="86.061"/>
	<path style="&st2;" d="M553.365,138.267V51.447h33.75c11.575,0,20.603,2.875,27.078,8.628c6.474,5.752,9.713,13.401,9.713,22.952
		v24.093c0,9.479-3.257,17.038-9.768,22.681c-6.511,5.642-15.556,8.465-27.13,8.465H553.365z M569.644,125.244h16.279
		c7.959,0,13.566-1.665,16.82-4.994c3.258-3.327,4.885-8.066,4.885-14.215V84.113c0-6.15-1.627-10.961-4.885-14.435
		c-3.254-3.472-8.861-5.209-16.82-5.209h-16.279V125.244z"/>
	<polygon style="&st2;" points="647.78,138.267 647.78,51.447 708.555,51.447 708.555,64.47 664.06,64.47 664.06,85.088 
		703.129,85.088 703.129,98.114 664.06,98.114 664.06,125.244 708.555,125.244 708.555,138.267 	"/>
	<path style="&st2;" d="M731.346,138.267V51.448h33.861c9.259,0,16.421,2.084,21.487,6.25c5.063,4.169,7.598,10.096,7.598,17.776
		v11.309c0,7.466-2.534,13.23-7.598,17.29c-5.066,4.059-12.229,6.085-21.487,6.085h-17.582v28.109H731.346z M747.625,97.136h15.734
		c5.211,0,8.955-0.921,11.233-2.768c2.278-1.844,3.419-4.936,3.419-9.279v-8.355c0-4.34-1.141-7.47-3.419-9.386
		c-2.278-1.917-6.022-2.878-11.233-2.878h-15.734V97.136z"/>
	<path style="&st2;" d="M850.179,139.352c-11.578,0-20.347-2.623-26.316-7.868c-5.971-5.243-8.954-12.822-8.954-22.735V81.4
		c0-10.054,3.002-17.744,9.009-23.062c6.005-5.319,14.795-7.976,26.369-7.976s20.329,2.657,26.265,7.976
		c5.932,5.318,8.899,13.008,8.899,23.062v27.348c0,9.913-2.984,17.492-8.954,22.735
		C870.525,136.729,861.754,139.352,850.179,139.352 M850.179,126.33c6.945,0,11.847-1.43,14.705-4.288
		c2.856-2.857,4.287-7.651,4.287-14.38V82.486c0-6.946-1.431-11.864-4.287-14.76c-2.858-2.892-7.76-4.342-14.705-4.342
		s-11.847,1.45-14.704,4.342c-2.859,2.896-4.288,7.814-4.288,14.76v25.176c0,6.729,1.429,11.523,4.288,14.38
		C838.332,124.9,843.233,126.33,850.179,126.33"/>
	<polygon style="&st2;" points="1002.315,138.267 968.781,69.354 968.781,138.267 954.346,138.267 954.346,51.447 976.812,51.447 
		1010.564,121.119 1010.564,51.447 1024.889,51.447 1024.889,138.267 	"/>
	<polygon style="&st2;" points="1070.467,138.267 1070.467,64.47 1043.337,64.47 1043.337,51.447 1113.876,51.447 1113.876,64.47 
		1086.746,64.47 1086.746,138.267 	"/>
	<path style="&st0;" d="M337.219,223.781c-3.829,0-7.333-0.624-10.518-1.875c-3.182-1.251-5.862-3.332-8.031-6.239l3.809-5.136
		c1.987,2.319,4.214,4.003,6.68,5.053c2.464,1.049,5.466,1.572,8.998,1.572c2.908,0,5.152-0.532,6.736-1.601
		c1.581-1.065,2.375-2.649,2.375-4.747c0-1.878-0.849-3.237-2.541-4.087c-1.693-0.846-5.116-1.692-10.268-2.538
		c-5.338-0.81-9.092-2.125-11.261-3.948c-2.173-1.819-3.258-4.553-3.258-8.197c0-3.901,1.443-7.083,4.334-9.55
		c2.888-2.467,7.039-3.702,12.448-3.702c3.643,0,6.976,0.608,9.994,1.823c3.016,1.215,5.371,3.074,7.066,5.577l-3.534,4.913
		c-1.84-1.934-3.921-3.362-6.237-4.292c-2.319-0.929-4.822-1.395-7.51-1.395c-2.539,0-4.553,0.453-6.046,1.358
		c-1.489,0.907-2.236,2.358-2.236,4.354c0,1.886,0.874,3.234,2.625,4.048c1.748,0.815,5.271,1.665,10.57,2.552
		c5.191,0.883,8.842,2.245,10.959,4.084c2.117,1.843,3.174,4.583,3.174,8.226c0,4.307-1.618,7.675-4.858,10.104
		C347.451,222.566,342.959,223.781,337.219,223.781"/>
	<polygon style="&st0;" points="391.544,223.341 391.544,179.176 422.459,179.176 422.459,185.801 399.825,185.801 399.825,196.288 
		419.698,196.288 419.698,202.913 399.825,202.913 399.825,216.716 422.459,216.716 422.459,223.341 	"/>
	<path style="&st0;" d="M477.117,223.893c-6.331,0-11.042-1.354-14.135-4.059c-3.091-2.705-4.636-6.542-4.636-11.511v-13.91
		c0-5.041,1.553-8.935,4.663-11.678c3.11-2.741,7.832-4.112,14.161-4.112c6.001,0,10.509,1.231,13.528,3.699
		c3.015,2.466,4.655,6.402,4.913,11.813l-8.282,0.552c-0.257-3.606-1.168-6.081-2.733-7.424c-1.564-1.343-4.058-2.015-7.479-2.015
		c-3.829,0-6.534,0.736-8.118,2.209c-1.581,1.471-2.372,3.973-2.372,7.507v12.807c0,3.462,0.791,5.91,2.372,7.345
		c1.584,1.434,4.289,2.152,8.118,2.152c3.568,0,6.126-0.698,7.674-2.098c1.545-1.398,2.391-3.773,2.538-7.122l8.282,0.553
		c-0.111,5.188-1.676,9.036-4.694,11.538C487.898,222.642,483.298,223.893,477.117,223.893"/>
	<path style="&st0;" d="M548.606,223.893c-6.331,0-10.903-1.371-13.719-4.111c-2.816-2.743-4.223-6.839-4.223-12.284v-28.321h8.282
		v27.769c0,3.495,0.663,6.046,1.986,7.646c1.326,1.601,3.884,2.403,7.674,2.403c3.829,0,6.395-0.803,7.702-2.403
		c1.307-1.6,1.959-4.15,1.959-7.646v-27.769h8.281v28.321c0,5.445-1.406,9.541-4.224,12.284
		C559.51,222.521,554.938,223.893,548.606,223.893"/>
	<path style="&st0;" d="M611.269,223.34h-8.281v-44.165h21.31c4.563,0,8.041,1.024,10.435,3.069
		c2.392,2.047,3.587,5.008,3.587,8.878v3.706c0,3.319-0.846,5.982-2.538,7.993c-1.692,2.009-4.179,3.307-7.452,3.897l11.039,16.621
		h-9.438l-10.769-16.229h-7.893V223.34z M611.269,200.485h11.594c2.65,0,4.506-0.434,5.574-1.298
		c1.068-0.863,1.601-2.349,1.601-4.445v-3.421c0-2.025-0.532-3.451-1.601-4.28c-1.068-0.827-2.924-1.241-5.574-1.241h-11.594
		V200.485z"/>
	<rect x="672.146" y="179.104" style="&st0;" width="8.281" height="44.178"/>
	<polygon style="&st0;" points="727.584,223.27 727.584,185.729 713.782,185.729 713.782,179.104 749.666,179.104 749.666,185.729 
		735.866,185.729 735.866,223.27 	"/>
	<polygon style="&st0;" points="799.823,223.341 791.541,223.341 791.541,206.777 775.642,179.176 784.531,179.176 795.958,199.878 
		807.22,179.176 815.721,179.176 799.823,206.777 	"/>
</g>
<g style="&st9;">
	<defs>
		<path id="SVGID_3_" d="M1.123,125c0,67.404,54.84,122.243,122.245,122.243c67.404,0,122.243-54.839,122.243-122.243
			c0-15.529-2.941-30.376-8.246-44.054l-25.534,33.276c0.429,3.536,0.675,7.128,0.675,10.778c0,49.152-39.987,89.139-89.138,89.139
			c-49.153,0-89.14-39.986-89.14-89.139c0-49.153,39.987-89.14,89.14-89.14c16.138,0,31.275,4.334,44.347,11.865l32.211-17.927
			c-20.969-16.897-47.595-27.041-76.558-27.041C55.963,2.757,1.123,57.595,1.123,125"/>
	</defs>
	<clipPath id="SVGID_4_" style="&st3;">
		<use xlink:href="#SVGID_3_"  style="overflow:visible;"/>
	</clipPath>
	
		<linearGradient id="SVGID_5_" gradientUnits="userSpaceOnUse" x1="0" y1="250" x2="1" y2="250" gradientTransform="matrix(127.2039 -99.8482 -99.8482 -127.2039 25042.252 31959.8633)">
		<stop  offset="0" style="stop-color:#3333FF"/>
		<stop  offset="1" style="stop-color:#00CCFF"/>
	</linearGradient>
	<polygon style="&st1;" points="-117.622,95.965 152.402,-115.989 364.356,154.035 94.332,365.989 	"/>
</g>
<g style="&st9;">
	<defs>
		<rect id="SVGID_6_" width="1115" height="250"/>
	</defs>
	<clipPath id="SVGID_7_" style="&st3;">
		<use xlink:href="#SVGID_6_"  style="overflow:visible;"/>
	</clipPath>
	<polygon style="&st6;" points="255.408,22.944 208.104,85.083 156.385,154.946 76.794,169.996 	"/>
</g>
<g style="&st9;">
	<defs>
		<polygon id="SVGID_8_" points="104.413,98.028 76.794,169.996 255.408,22.944 		"/>
	</defs>
	<clipPath id="SVGID_9_" style="&st3;">
		<use xlink:href="#SVGID_8_"  style="overflow:visible;"/>
	</clipPath>
	
		<linearGradient id="SVGID_10_" gradientUnits="userSpaceOnUse" x1="0" y1="249.9199" x2="1" y2="249.9199" gradientTransform="matrix(177.2237 -148.7084 -148.7084 -177.2237 37242.5742 44462.5313)">
		<stop  offset="0" style="stop-color:#1E84FD"/>
		<stop  offset="0.1087" style="stop-color:#1995FD"/>
		<stop  offset="0.2938" style="stop-color:#12ADFD"/>
		<stop  offset="0.4925" style="stop-color:#0DBDFD"/>
		<stop  offset="0.7123" style="stop-color:#0AC7FD"/>
		<stop  offset="0.9948" style="stop-color:#09CAFD"/>
		<stop  offset="1" style="stop-color:#09CAFD"/>
	</linearGradient>
	<polygon style="&st5;" points="4.385,83.702 181.609,-65.006 327.817,109.238 150.593,257.946 	"/>
</g>
<linearGradient id="SVGID_11_" gradientUnits="userSpaceOnUse" x1="84.25" y1="125" x2="199.4356" y2="125">
	<stop  offset="0" style="stop-color:#3333FF"/>
	<stop  offset="1" style="stop-color:#00CCFF"/>
</linearGradient>
<path style="&st7;" d="M245.611,125c0-15.529-2.941-30.376-8.246-44.054l-25.534,33.277c0.429,3.535,0.675,7.127,0.675,10.777
	c0,49.152-39.986,89.139-89.138,89.139c-49.153,0-89.14-39.986-89.14-89.139c0-49.153,39.987-89.14,89.14-89.14
	c16.138,0,31.274,4.334,44.347,11.865l32.211-17.927c-20.969-16.897-47.595-27.041-76.558-27.041
	C55.963,2.757,1.123,57.595,1.123,125c0,67.404,54.84,122.243,122.245,122.243C190.771,247.243,245.611,192.404,245.611,125z"/>
<linearGradient id="SVGID_12_" gradientUnits="userSpaceOnUse" x1="76.7939" y1="96.4702" x2="255.4082" y2="96.4702">
	<stop  offset="0" style="stop-color:#1E84FD"/>
	<stop  offset="0.1087" style="stop-color:#1995FD"/>
	<stop  offset="0.2938" style="stop-color:#12ADFD"/>
	<stop  offset="0.4925" style="stop-color:#0DBDFD"/>
	<stop  offset="0.7123" style="stop-color:#0AC7FD"/>
	<stop  offset="0.9948" style="stop-color:#09CAFD"/>
	<stop  offset="1" style="stop-color:#09CAFD"/>
</linearGradient>
<polygon style="&st8;" points="76.794,169.996 76.794,169.996 255.408,22.944 255.408,22.944 104.413,98.027 "/>
<polygon style="&st4;" points="156.385,154.946 208.104,85.083 255.408,22.944 76.794,169.996 "/>
</svg>
