<?xml version="1.0" encoding="utf-8"?>
<!-- Generator: Adobe Illustrator 28.5.0, SVG Export Plug-In . SVG Version: 9.03 Build 54727)  -->
<svg version="1.1" xmlns="http://www.w3.org/2000/svg" xmlns:xlink="http://www.w3.org/1999/xlink"
    x="0px" y="0px"
    viewBox="0 0 24 24" style="enable-background:new 0 0 24 24;" xml:space="preserve">
<style type="text/css">
	.st0{fill:#FFFFFF;}
</style>
<g id="Layer_2">
	<rect width="24" height="24"/>
</g>
<g id="Layer_1">
	<g id="SVGRepo_bgCarrier">
	</g>
	<g id="SVGRepo_tracerCarrier">
	</g>
	<g id="SVGRepo_iconCarrier">
		<path class="st0" d="M23.2,7.9c0-5.2-3.4-6.7-3.4-6.7C18.1,0.4,15.1,0,12,0H12c-3.1,0-6,0.4-7.7,1.1c0,0-3.4,1.5-3.4,6.7
			c0,1.2,0,2.6,0,4.1C1,17.1,1.8,22.1,6.5,23.4c2.2,0.6,4,0.7,5.5,0.6c2.7-0.2,4.2-1,4.2-1l-0.1-2c0,0-1.9,0.6-4.1,0.5
			c-2.2-0.1-4.4-0.2-4.8-2.9c0-0.2,0-0.5,0-0.7c0,0,2.1,0.5,4.8,0.6c1.6,0.1,3.2-0.1,4.8-0.3c3-0.4,5.6-2.2,6-3.9
			C23.2,11.7,23.2,7.9,23.2,7.9z M19.2,14.6h-2.5V8.5c0-1.3-0.5-1.9-1.6-1.9c-1.2,0-1.8,0.8-1.8,2.3v3.3h-2.5V8.8
			c0-1.5-0.6-2.3-1.8-2.3c-1.1,0-1.6,0.7-1.6,1.9v6.1H4.8V8.3c0-1.3,0.3-2.3,1-3.1c0.7-0.8,1.6-1.1,2.7-1.1c1.3,0,2.2,0.5,2.9,1.5
			l0.6,1l0.6-1c0.6-1,1.6-1.5,2.9-1.5c1.1,0,2,0.4,2.7,1.1c0.7,0.8,1,1.8,1,3.1V14.6z"/>
	</g>
</g>
</svg>
