<svg width="1000" height="172" viewBox="0 0 1000 172" fill="none" xmlns="http://www.w3.org/2000/svg">
<path d="M0 101.489V103.631C0 140.499 32.1337 171.648 70.1371 171.648C108.141 171.648 140.317 140.478 140.317 103.61V101.468L70.1692 59.6938L0 101.489Z" fill="#357677"/>
<path d="M70.1371 59.6938L0 101.489L70.0728 143.338L140.285 101.489L70.1371 59.6938Z" fill="#4AAFA8"/>
<path d="M0 42.1768V71.8576L70.0728 113.706L140.285 71.8576V42.1768H0Z" fill="#40DBCC"/>
<path d="M70.1371 0.382935L0 42.1781L70.0728 84.0162L140.285 42.1781L70.1371 0.382935Z" fill="#97F7E9"/>
<path d="M238.302 79.0491L221.389 76.05C216.211 75.2359 212.462 73.872 210.142 71.9583C208.989 70.9978 208.075 69.7831 207.471 68.4097C206.867 67.0362 206.589 65.5414 206.661 64.0427C206.664 62.1331 207.138 60.2539 208.043 58.5721C208.947 56.8903 210.253 55.458 211.845 54.4026C215.301 51.8676 219.893 50.5965 225.619 50.5894C230.973 50.6036 236.283 51.5496 241.311 53.385C246.662 55.3463 251.674 58.1289 256.168 61.6327L264.49 49.3576C259.039 45.3592 252.987 42.2534 246.56 40.1567C239.991 38.0064 233.12 36.9215 226.209 36.9433C215.576 36.9433 207.053 39.5783 200.641 44.8482C197.533 47.3181 195.044 50.4782 193.371 54.0777C191.698 57.6773 190.886 61.6173 191.001 65.5851C191.001 72.1261 193.047 77.4424 197.138 81.5341C201.23 85.6258 207.368 88.4 215.551 89.8568L233.149 92.8559C239.419 94.0484 243.871 95.6408 246.506 97.6331C249.152 99.6361 250.469 102.582 250.469 106.491C250.469 110.861 248.466 114.478 244.46 117.342C240.455 120.205 235.32 121.633 229.058 121.626C223.706 121.649 218.409 120.555 213.505 118.413C207.544 115.606 201.991 112.002 196.999 107.702L188.141 119.698C193.773 124.571 200.181 128.467 207.1 131.223C213.837 133.835 221.007 135.154 228.233 135.112C233.502 135.165 238.748 134.407 243.786 132.862C248.159 131.542 252.266 129.465 255.922 126.725C259.21 124.221 261.891 121.006 263.762 117.32C265.64 113.576 266.598 109.438 266.558 105.249C266.558 98.0651 264.241 92.3132 259.606 87.993C254.972 83.6728 247.87 80.6915 238.302 79.0491Z" fill="black"/>
<path d="M409.882 133.74H426.248V93.1013H468.686V79.4552H426.248V52.1844H478.487V38.2705H409.882V133.74Z" fill="black"/>
<path d="M526.01 92.4158H568.716V78.7804H526.01V52.1844H577.97V38.2705H509.644V133.74H578.517V119.826H526.01V92.4158Z" fill="black"/>
<path d="M870.669 79.0462L853.756 76.0471C848.571 75.233 844.819 73.8691 842.498 71.9554C841.345 70.9949 840.431 69.7802 839.827 68.4067C839.223 67.0333 838.946 65.5385 839.017 64.0398C839.022 62.1306 839.498 60.252 840.402 58.5705C841.306 56.889 842.611 55.4564 844.201 54.3997C847.657 51.8361 852.242 50.5508 857.954 50.5436C863.308 50.5565 868.618 51.5025 873.646 53.3393C878.997 55.3006 884.009 58.0831 888.503 61.5869L896.825 49.3118C891.374 45.3134 885.322 42.2077 878.895 40.1109C872.326 37.9606 865.455 36.8758 858.543 36.8975C847.911 36.8975 839.388 39.5325 832.976 44.8024C829.868 47.2723 827.379 50.4324 825.706 54.032C824.032 57.6315 823.221 61.5715 823.336 65.5394C823.336 72.0803 825.382 77.3967 829.473 81.4884C833.565 85.5801 839.702 88.3578 847.886 89.8217L865.452 92.8209C871.722 94.0134 876.174 95.6058 878.809 97.5981C881.455 99.6011 882.772 102.547 882.772 106.456C882.772 110.826 880.769 114.443 876.763 117.307C872.757 120.17 867.623 121.598 861.361 121.591C856.009 121.614 850.712 120.52 845.808 118.378C839.847 115.57 834.294 111.967 829.302 107.667L820.465 119.685C826.097 124.558 832.505 128.453 839.424 131.21C846.162 133.822 853.331 135.141 860.557 135.098C865.826 135.152 871.072 134.393 876.11 132.849C880.483 131.529 884.591 129.451 888.246 126.711C891.535 124.207 894.215 120.992 896.086 117.307C897.964 113.562 898.922 109.424 898.882 105.235C898.882 98.0515 896.565 92.2996 891.93 87.9794C887.296 83.6592 880.209 80.6815 870.669 79.0462Z" fill="black"/>
<path d="M947.489 119.826V92.4158H990.194V78.7804H947.489V52.1844H999.449V38.2705H931.122V133.74H999.995V119.826H947.489Z" fill="black"/>
<path d="M669.039 84.5002C673.454 82.7631 677.302 79.8381 680.157 76.049C682.9 72.394 684.361 67.9364 684.313 63.3669C684.416 59.9059 683.719 56.4679 682.275 53.3207C680.831 50.1734 678.681 47.402 675.991 45.2221C670.442 40.5877 663.169 38.2705 654.172 38.2705H611.755V133.74H656.078C665.44 133.74 673.034 131.283 678.861 126.37C681.695 124.04 683.955 121.089 685.466 117.746C686.978 114.403 687.701 110.757 687.58 107.09C687.662 101.952 685.868 96.9594 682.535 93.0477C678.97 88.9388 674.277 85.9667 669.039 84.5002ZM628.122 51.6381H652.533C657.167 51.6381 660.895 52.8414 663.716 55.2478C665.122 56.4437 666.238 57.9434 666.981 59.6337C667.723 61.3241 668.071 63.161 668 65.0057C668.071 66.8489 667.723 68.6842 666.98 70.3728C666.238 72.0615 665.122 73.5593 663.716 74.753C660.895 77.1665 657.167 78.3698 652.533 78.3626H628.122V51.6381ZM666.447 116.355C663.348 119.019 659.256 120.351 654.172 120.351H628.122V91.0554H654.172C659.263 91.0554 663.355 92.3729 666.447 95.0079C667.974 96.3143 669.185 97.9503 669.989 99.7927C670.792 101.635 671.167 103.636 671.085 105.644C671.162 107.663 670.785 109.673 669.983 111.527C669.18 113.38 667.972 115.03 666.447 116.355Z" fill="black"/>
<path d="M324.904 38.2705L287.415 133.74H304.467L313.111 110.175H354.724L363.293 133.74H380.881L343.841 38.2705H324.904ZM317.856 97.3965L319.034 94.1831L334.03 53.5447L349.99 97.3965H317.856Z" fill="black"/>
<path d="M745.863 38.2705L708.374 133.74H725.426L734.07 110.175H775.683L784.252 133.74H801.851L764.822 38.2705H745.863ZM738.815 97.3965L740.004 94.1831L755 53.5447L770.96 97.3965H738.815Z" fill="black"/>
</svg>
