<?xml version="1.0" encoding="UTF-8"?><svg xmlns="http://www.w3.org/2000/svg" viewBox="0 0 446.6 414.4"><defs><style>.c{fill:#bccdd8;}.c,.d,.e{stroke-width:0px;}.d{fill:#00549f;}.e{fill:#fff;}</style></defs><g id="a"><path class="e" d="M108,382.8l3.3,1.9c23.6,13.4,62.2,29.4,111.6,29.7,49.4-.2,88-16.3,111.7-29.7l3.2-1.9,6.7-3.8,7.13-5.24-5.83-15.76-3.2-8.7-2.4-6.6-14.1-38.6-2.4-6.5c1.7-1.6,3.4-3.3,5-5,25.9-27.1,40.6-63.4,40.6-101.1,0-63.4-40.5-117.5-97-137.8-15.4-5.6-32.1-8.6-49.4-8.6s-34,3-49.4,8.6c-56.5,20.3-97,74.4-97,137.8,0,37.7,14.7,74,40.6,101.1,1.6,1.7,3.3,3.4,5,5l-2.4,6.5-14.2,38.6-2.4,6.6-3.2,8.7-5.83,15.76,7.63,5.24,6.3,3.8-6.3-3.8"/></g><g id="b"><path class="c" d="M94.2,353.3l3.3-8.7c-44.2-36.4-72.5-91.5-72.5-153.1,0-53.5,21.4-102.2,56-137.9h-12.1c-32.8,36.7-52.8,85.1-52.8,138,0,65.4,30.5,123.8,78.1,161.7Z"/><path class="c" d="M352,353.3l-3.3-8.7c44.2-36.4,72.5-91.5,72.5-153.1,0-53.5-21.4-102.2-56-137.9h12.1c32.8,36.6,52.8,85,52.8,137.9,0,65.5-30.5,123.9-78.1,161.8Z"/><path class="d" d="M356,53.7C321.6,20.4,274.7,0,223.1,0h0c-51.6,0-98.5,20.5-132.9,53.7-36.1,34.8-58.5,83.7-58.5,137.8,0,58.8,26.6,111.5,68.3,146.6l14.8-38.9c-28.7-28.8-44.5-67.1-44.5-107.7s15.9-79.2,44.7-108c12.4-12.4,26.5-22.4,41.8-29.7,20.4-9.8,42.9-15,66.2-15s45.8,5.2,66.2,15c15.3,7.4,29.5,17.4,41.8,29.7,28.9,28.9,44.7,67.2,44.7,108s-15.8,78.9-44.5,107.7l14.8,38.9c41.8-35.1,68.3-87.8,68.3-146.6.2-54.1-22.2-103-58.3-137.8Z"/><path class="d" d="M338,382.8l-5.7-15.5-3.1-8.5-2.4-6.4-13.8-37.4-6.2-16.7h-167.4l-6.2,16.7-13.8,37.4-2.4,6.4-3.1,8.5-5.7,15.5,3.3,1.9c23.6,13.4,62.2,29.4,111.6,29.7h0c49.4-.2,88-16.3,111.7-29.7l3.2-1.9ZM223.1,405.5c-45.2-.2-81.1-14.2-104-26.7l2.6-6.9,3.1-8.4,2.4-6.4,13.7-36.9,4.8-13h154.9l4.8,13,13.7,36.9,2.4,6.4,3.1,8.4,2.6,6.9c-23,12.5-58.9,26.5-104.1,26.7Z"/><path class="c" d="M446.2,190.1l-9-7.9c.1,3.1.2,6.3.2,9.4,0,66.3-30.6,128.5-82.6,169.1-2,1.6-4,3.1-6.1,4.6l-2.7-7.3-3.2-8.7-2.4-6.6-14.1-38.6-2.4-6.5c1.7-1.6,3.4-3.3,5-5,25.9-27.1,40.6-63.4,40.6-101.1,0-63.4-40.5-117.5-97-137.8-15.4-5.6-32.1-8.6-49.4-8.6h0c-17.3,0-34,3-49.4,8.6-56.5,20.3-97,74.4-97,137.8,0,37.7,14.7,74,40.6,101.1,1.6,1.7,3.3,3.4,5,5l-2.4,6.5-14.2,38.6-2.4,6.6-3.2,8.7-2.7,7.3c-2.1-1.5-4.1-3-6.1-4.6C39.4,320.1,8.8,257.9,8.8,191.6c0-3.2.1-6.3.2-9.4l-9,7.9v1.5c0,69.9,32.8,135.5,88.2,177.7,2.9,2.2,5.9,4.4,9,6.5l4.7,3.2,5.8-15.8,3.2-8.6,2.4-6.5,13.9-37.9,5.6-15.2-2.2-2c-3.4-3.1-6.6-6.3-9.6-9.7-22.5-25.1-35.2-57.9-35.2-91.9,0-75.8,61.7-137.5,137.5-137.5s137.5,61.7,137.5,137.5c0,34-12.7,66.8-35.2,91.9-3,3.4-6.2,6.6-9.6,9.7l-2.2,2,5.6,15.2,13.9,37.9,2.4,6.5,3.2,8.6,5.8,15.8,4.7-3.2c3.1-2.1,6.1-4.3,9-6.5,55.4-42.1,88.2-107.7,88.2-177.7-.3-.5-.4-1-.4-1.5Z"/><path class="d" d="M171,365.6c-7,0-8.9-6.8-7.6-15.4.1-.8.3-1.6.4-2.4h-17c-.2.8-.3,1.6-.4,2.4-2.4,16.6,5,28.9,22.5,28.9,13.9,0,21.5-7.1,26.5-14.5l-12.7-7c-4.1,5.4-6.6,8-11.7,8Z"/><path class="d" d="M175.3,334.9c5.4,0,6.9,3.3,8.2,8.5l15.6-5.5c-2.5-10.6-7.3-16.5-21.7-16.5-13,0-23.9,7.4-28.8,20.2h17.3c2-4.1,5.1-6.7,9.4-6.7Z"/><path class="d" d="M203.4,341.6h20.6c-3.3-1-4.2-1.9-4-3.4.3-2,1.7-3.4,6.5-3.4,5.9,0,10.9,1.9,15.6,5.3l9.7-12.2c-5.6-4.2-12.5-6.5-22.4-6.5-14.2,0-24.2,7.1-25.7,17.7-.1.9-.2,1.7-.3,2.5Z"/><path class="d" d="M242.4,347.9h-37.7c2.3,4.8,8.1,7.1,17.4,9.2,7.6,1.8,9.5,3,9.2,5.1-.4,2.6-2.4,3.6-8.2,3.6-5.4,0-12.5-2.8-16.3-5.6l-9.7,12.2c5.6,3.8,14.2,6.8,23.7,6.8,14.1,0,25-5.3,26.9-18.1.8-6.2-.9-10.3-5.3-13.2Z"/><polygon class="d" points="286.3 322.3 272.2 322.3 263 341.6 289.8 341.6 286.3 322.3"/><polygon class="d" points="290.9 347.8 277.5 347.8 278.4 356.1 270 356.1 273.5 347.8 260.1 347.8 245.7 378.3 260.7 378.3 264.8 368.4 280 368.4 281.3 378.3 296.4 378.3 290.9 347.8"/><path class="d" d="M121.9,140.2h-14.2v-8.4h38v8.4h-14.2v35.5h-9.6v-35.5Z"/><path class="d" d="M145.3,145.9h9v4l.1.1c2.1-2.9,5-4.4,8.7-4.4.6,0,1.3.1,1.9.2v8.7c-.7-.2-1.6-.3-2.5-.3-3.2,0-5.9,1-8.1,3.5v18.1h-9.2v-29.9h.1Z"/><path class="d" d="M174.2,131.1c2.9,0,5.3,2.4,5.3,5.3s-2.4,5.3-5.3,5.3-5.3-2.4-5.3-5.3,2.4-5.3,5.3-5.3ZM169.6,145.9h9.2v29.9h-9.2v-29.9Z"/><path class="d" d="M203.3,173.9c-1.9,1.4-4.9,2.5-8.3,2.5-2.5,0-5-.6-6.9-1.9-2.2-1.5-3.5-3.9-3.5-7,0-3.3,1.5-5.8,3.6-7.2,2.3-1.6,5.3-2.1,8.4-2.1,1.8,0,3.5.2,5.2.5v-1.2c0-1.5-.5-2.5-1.2-3.2-.8-.8-2.4-1.3-4.6-1.3-3.3,0-6.4,1.1-8.7,2.4v-7.9c2.4-1.2,6.1-2.3,10.4-2.3,4,0,7.6.9,10,2.9,2.2,1.8,3.3,4.5,3.3,8.3v10.1c0,1.4.5,2.4,1.8,2.4.5,0,1-.1,1.5-.4v6.9c-1,.5-2.7.9-4.4.9-2.4,0-4.8-.7-6.4-2.4h-.2ZM201.7,164c-1-.3-2.3-.4-3.3-.4-2.4,0-4.7.7-4.7,3,0,1.9,1.7,3,3.8,3,1.6,0,3.1-.5,4.2-1.2v-4.4Z"/><path class="d" d="M219.1,145.9h9.1v2.7l.1.1c2.3-1.9,5.5-3.5,9.2-3.5,3.2,0,5.9,1.1,7.8,3,1.8,1.9,2.6,4.6,2.6,8.9v18.6h-9.2v-17.1c0-2.2-.3-3.3-1-4.2-.8-.9-1.9-1.3-3.2-1.3-2.4,0-4.6,1.2-6.3,2.5v20.1h-9.1v-29.8Z"/><path class="d" d="M257.9,178.8c3,1.9,6.5,3,9.6,3,4.5,0,7.3-2.3,7.3-6.7v-1.6l-.1-.1c-1.8,1.3-4.5,2-7,2-7.2,0-13.9-5.6-13.9-14.6s6.3-15.6,15.5-15.6c2.9,0,5.3.7,7.5,1.7l7.2-1.3v29.5c0,9.4-6.4,14.6-16,14.6-3.8,0-7.6-.9-10.2-2.2v-8.7h.1ZM274.9,154.1c-1.2-.6-2.9-1.1-4.6-1.1-4.8,0-7.1,3.5-7.1,7.4,0,4.4,2.7,7.5,7,7.5,1.6,0,3.4-.5,4.7-1.3v-12.5Z"/><path class="d" d="M291.8,129.4h9.2v46.4h-9.2v-46.4Z"/><path class="d" d="M316.3,163.2c1,4.1,4.4,6,8.7,6,3.3,0,7-1.2,10.1-3.3v7.7c-2.9,1.8-7.4,2.7-11.3,2.7-9.8,0-16.9-6.1-16.9-15.5s7.4-15.7,15.7-15.7c7.3,0,14.3,4.9,14.3,14.9,0,1-.1,2.4-.2,3.2h-20.4ZM328.3,157.4c-.5-3.2-2.9-5.2-5.9-5.2s-5.3,1.8-6.1,5.2h12Z"/><path class="d" d="M135.8,189.4c4.6,0,8.9,1.2,12.4,3.1v6.3c-3.3-2.4-7.8-4.1-12.4-4.1-10,0-17.1,7.5-17.1,17.3s7,17.3,17.5,17.3c4.9,0,9.2-1.6,12.6-4.4v6.4c-3.5,2.2-8.3,3.4-12.9,3.4-13.4,0-23-9.6-23-22.5s9.1-22.8,22.9-22.8Z"/><path class="d" d="M156.5,187.6h5.5v20.3l.1.1c2.6-2.6,6.3-4.5,10.4-4.5,3.3,0,6.1,1.2,8,3.3,1.6,1.9,2.5,4.2,2.5,8.8v18.4h-5.5v-17.4c0-3.3-.4-4.9-1.5-6.1-1.2-1.3-2.7-1.9-4.6-1.9-3.6,0-7.3,2.2-9.5,5v20.5h-5.5v-46.5h.1Z"/><path class="d" d="M193.6,232.6c-1.9-1.5-3.2-3.7-3.2-6.6,0-3.3,1.6-5.8,3.9-7.3,2.2-1.5,5.3-2,8.4-2,2.3,0,4.4.3,6.4.8v-2.5c0-2.2-.5-3.8-1.7-4.9-1.2-1-3-1.6-5.5-1.6-3.8,0-6.9,1.3-9.2,3v-5.3c2.3-1.4,5.5-2.5,10-2.5,3.6,0,6.8.8,8.9,2.7,1.8,1.6,3,4.1,3,7.8v12.7c0,1.8.7,3.2,2.3,3.2.6,0,1.3-.2,1.8-.4v4.6c-.7.3-1.8.5-2.9.5-2.4,0-4.6-1-5.8-3.2h-.1c-1.7,1.6-5.2,3.3-9.2,3.3-2.4-.2-5.1-.8-7.1-2.3ZM209.1,227.2v-5.6c-1.6-.5-3.9-.8-5.8-.8-3.7,0-7.3,1.1-7.3,4.6,0,2.9,2.5,4.4,5.7,4.4,2.8,0,5.6-1.1,7.4-2.6Z"/><path class="d" d="M230.2,247.4h-5.5v-43.2h5.5v1.9l.1.1c2.1-1.5,5-2.7,8.5-2.7,8,0,14.4,6.3,14.4,15.5s-7,15.7-15.6,15.7c-3,0-5.5-.7-7.3-1.6l-.1.1v14.2ZM237.8,229.9c5.9,0,10-4.4,10-10.5s-3.9-11-9.8-11c-2.7,0-5.6,1-7.7,2.7v16.7c1.8,1,4.6,2.1,7.5,2.1Z"/><path class="d" d="M263.1,223.6v-14.5h-5.5v-4.9h5.5v-8.1l5.5-.9v9h9v4.9h-9v13.5c0,3.7.5,7.1,4.5,7.1,1.6,0,3.3-.5,4.5-1.3v5.2c-1.2.6-3.3,1.1-5.4,1.1s-4.9-.5-6.8-2.8c-1.5-1.7-2.3-4.1-2.3-8.3Z"/><path class="d" d="M287.1,220.7c.8,5.9,5.2,9.1,11,9.1,4.1,0,7.6-1.6,10.3-3.7v5.8c-2.7,1.7-6.8,2.8-10.7,2.8-9.2,0-16.1-6.2-16.1-15.6s6.9-15.6,14.9-15.6c7.3,0,13.6,5.1,13.6,14.4,0,.9-.1,2-.2,2.7h-22.8v.1ZM287.2,216.3h17.6c-.5-5.9-4.9-7.9-8.4-7.9-3.9,0-8.2,2.4-9.2,7.9Z"/><path class="d" d="M317.9,204.2h5.5v4.4l.1.1c2.1-2.9,5.3-4.7,8.9-4.7.6,0,1.3.1,1.9.2v5.4c-.7-.2-1.5-.2-2.1-.2-4.1,0-6.9,2.1-8.8,5.3v19.4h-5.5v-29.9Z"/><path class="e" d="M66.2,287.7c-1.2-1.9-1.9-4.1-2-6l2.7-1.7c-.1,2,.4,4.3,1.6,6.3,2.7,4.2,7.7,5.2,11.8,2.6,4.1-2.6,5.4-7.6,2.6-12-1.3-2-3.1-3.4-5.2-4.1l2.7-1.7c1.9.9,3.6,2.6,4.9,4.5,3.6,5.6,2.1,12.2-3.3,15.7-5.4,3.3-12.2,2.2-15.8-3.6Z"/><path class="e" d="M59.8,275.9l-1.2-2.6,17.4-8.3-4.5-9.3,2.3-1.1,5.7,11.9-19.7,9.4Z"/><path class="e" d="M48.4,249.5c-2-6,1.2-12.1,7.2-14.1s12.2,1,14.2,7-1.2,12.1-7.2,14.1-12.2-.9-14.2-7ZM67.2,243.3c-1.5-4.5-6.2-6.6-10.8-5.1-4.6,1.5-7.1,6-5.6,10.5s6.2,6.6,10.8,5.1c4.6-1.5,7.1-6,5.6-10.5Z"/><path class="e" d="M55,230.1l-11.4,2-.5-2.8,11.1-1.9c2.6-.5,4.3-.9,5.4-1.8,1.3-1,2.2-2.7,1.7-5.6-.5-2.6-1.8-4-3.5-4.6-1.4-.5-3.1-.3-5.6.2l-11.2,2-.5-2.7,11.1-1.9c3.1-.5,5.6-.8,7.7.1,2.3,1,4.1,3.4,4.6,6.7.6,3.4-.3,6.1-2.1,7.8-1.6,1.4-4.1,2-6.8,2.5Z"/><path class="e" d="M39.8,206.7l-.2-6c-.1-2.9.3-5.5,1.5-7.8,1.8-3.2,5.1-5.1,8.9-5.2,3.6-.1,6.9,1.3,9,4,1.7,2.3,2.4,5.1,2.5,8.9l.2,5.3-21.9.8ZM58.8,200.3c-.1-2.6-.5-4.7-1.7-6.4-1.4-2-3.9-3.4-7-3.3-3.2.1-5.5,1.7-6.7,3.7-1.2,1.9-1.4,4.3-1.3,6.6l.1,2.8,16.7-.6-.1-2.8Z"/><path class="e" d="M57.3,175.2c1.8-1.8,2.9-4.3,3.1-6.2.4-2.6-.6-4.6-2.9-4.9-2.8-.4-3.6,2.1-4.8,4.8-1.3,2.9-3,5.7-6.9,5.2-3.8-.5-5.7-3.6-5.1-7.8.3-2,1.1-4.4,2.5-6l3,.4c-1.6,1.8-2.6,4.2-2.9,6-.3,2.4.5,4.3,2.7,4.6,2.7.4,3.5-2.1,4.6-4.6,1.3-3,3-6,7.1-5.4,3.9.5,5.9,3.8,5.3,8.1-.3,2.1-1.2,4.6-2.6,6.3l-3.1-.5Z"/><path class="e" d="M43.4,152.7l3.1-12.2,2.5.6-2.4,9.5,6.4,1.6,2.1-8.3,2.4.6-2.1,8.3,7.3,1.8,2.4-9.7,2.5.6-3.1,12.5-21.1-5.3Z"/><path class="e" d="M51.8,124.1c.8-2.1,2.1-3.9,3.6-5.2l2.9,1.1c-1.7,1.1-3.3,2.9-4.1,5.1-1.8,4.7.5,9.3,5,11s9.3-.2,11.2-5.1c.9-2.3.9-4.6.2-6.7l3,1.1c.4,2,.1,4.5-.7,6.6-2.4,6.2-8.6,9-14.6,6.7-5.8-2.2-8.9-8.2-6.5-14.6Z"/><path class="e" d="M67.5,117.3l-10.2-5.5,1.4-2.5,9.9,5.4c2.4,1.3,3.9,1.9,5.4,2,1.6,0,3.4-.8,4.8-3.3,1.3-2.3,1.2-4.3.2-5.8-.8-1.2-2.3-2.2-4.5-3.4l-10-5.5,1.3-2.4,9.9,5.4c2.8,1.5,4.8,2.8,5.9,4.9,1.2,2.2,1.1,5.2-.5,8.1-1.6,3-4,4.6-6.5,4.8-2.4.1-4.7-.9-7.1-2.2Z"/><path class="e" d="M70.1,89.7l3.5-4.8c1.3-1.8,2.6-3.4,4.5-4.3s4-.9,5.9.6c1.9,1.4,2.7,3.4,2.5,5.3-.1.9-.3,1.7-.7,2.6h11.9l-2,2.8-11.5-.1-2.2,3,7.6,5.5-1.7,2.3-17.8-12.9ZM82.2,90.3c1.1-1.6,1.7-2.8,1.7-4.1,0-1-.5-1.9-1.4-2.7-1.1-.8-2.4-.9-3.6-.4-1.2.6-2.1,1.6-3.3,3.4l-1.7,2.3,6.1,4.5,2.2-3Z"/><path class="e" d="M83.6,72.2l1.9-2.2,16.5,14.4-1.9,2.2-16.5-14.4Z"/><path class="e" d="M96.2,62.6l-5.3,5.1-1.8-1.9,12.6-12.2,1.8,1.9-5.3,5.1,13.4,13.9-2.1,2-13.3-13.9Z"/><path class="e" d="M118.8,55.4l-13.9-4.5,2.7-2,6.2,2c1.6.5,3.2,1.1,4.8,1.6h0c-.1-1.7-.2-3.3-.2-5.1l-.2-6.5,2.6-1.9.5,14.6,5.9,7.9-2.3,1.7-6.1-7.8Z"/><path class="e" d="M139.4,28.3l2.5-1.2,17.9,15.5-2.8,1.4-4.9-4.4-8.8,4.4.5,6.6-2.6,1.3-1.8-23.6ZM143,41.3l7-3.5-3.6-3.3c-1.4-1.3-2.9-2.6-4.3-3.9h-.1c.2,1.9.4,3.9.5,5.9l.5,4.8Z"/><path class="e" d="M155.3,21.1l2.7-1,6.5,18.1,9.7-3.5.9,2.4-12.4,4.4-7.4-20.4Z"/><path class="e" d="M173.7,15l2.8-.7,4.5,18.7,10-2.4.6,2.5-12.8,3.1-5.1-21.2Z"/><path class="e" d="M192.1,11l2.8-.4,3.4,21.6-2.8.5-3.4-21.7Z"/><path class="e" d="M209.1,9l2.7-.2,10.4,21.2-3.1.2-2.8-5.9-9.8.6-2.1,6.2-2.9.2,7.6-22.3ZM207.3,22.4l7.8-.5-2.1-4.4c-.8-1.7-1.7-3.5-2.4-5.3h-.1c-.5,1.8-1.2,3.7-1.8,5.6l-1.4,4.6Z"/><path class="e" d="M225.2,30.1l1.6-21.8,2.7.2,8.2,12.8c1.1,1.8,2.3,3.6,3.4,5.4h.1c.1-1.9.2-4.1.4-6.2l.8-11,2.8.2-1.6,21.8-2.7-.2-8.2-12.8c-1.1-1.8-2.3-3.6-3.4-5.4h-.1c-.1,1.9-.2,4.1-.4,6.2l-.8,11-2.8-.2Z"/><path class="e" d="M263.4,12.7c2.2.5,4.2,1.5,5.7,2.8l-.7,3.1c-1.3-1.5-3.4-2.8-5.6-3.3-4.9-1-9.1,1.9-10.1,6.6-1,4.8,1.6,9.2,6.7,10.2,2.4.5,4.6.2,6.6-.8l-.7,3.1c-1.9.7-4.4.8-6.6.3-6.5-1.4-10.2-7.1-8.8-13.4,1.3-6,6.8-10,13.5-8.6Z"/><path class="e" d="M276.3,16.4l11.9,4.1-.8,2.5-9.2-3.2-2.2,6.3,8.1,2.8-.8,2.4-8.1-2.8-2.4,7.1,9.5,3.3-.8,2.5-12.3-4.3,7.1-20.7Z"/><path class="e" d="M312.2,31.6c5.5,3.1,7.3,9.7,4.2,15.3-3.1,5.5-9.7,7.5-15.2,4.4s-7.3-9.7-4.2-15.3c3.1-5.6,9.7-7.5,15.2-4.4ZM302.5,48.9c4.2,2.3,9.1.7,11.4-3.5s1.2-9.2-3-11.5-9.1-.7-11.4,3.5c-2.4,4.1-1.2,9.2,3,11.5Z"/><path class="e" d="M327.3,41.4l10.4,7.7-1.6,2.1-8.1-6-4.2,5.7,7.1,5.3-1.5,2-7.1-5.3-5.8,7.8-2.3-1.7,13.1-17.6Z"/><path class="e" d="M342.8,53.5l9.5,8.8-1.8,1.9-7.4-6.9-4.8,5.2,6.5,6-1.7,1.8-6.5-6-6.6,7.1-2.1-2,14.9-15.9Z"/><path class="e" d="M356.5,66.9l1.9,2.1-16.1,14.8-1.9-2.1,16.1-14.8Z"/><path class="e" d="M369.9,82.4c1.4,1.8,2.2,3.9,2.5,5.8l-2.5,1.9c0-2-.7-4.3-2.1-6.2-3-4-8.1-4.5-12-1.5-3.9,2.9-4.7,8-1.6,12.2,1.5,1.9,3.4,3.1,5.6,3.7l-2.5,1.9c-2-.7-3.9-2.3-5.2-4.1-4-5.3-3.1-12,2-15.9,4.8-3.8,11.6-3.2,15.8,2.2Z"/><path class="e" d="M377,93.3l1.5,2.4-18.5,11.6-1.5-2.4,18.5-11.6Z"/><path class="e" d="M385.5,108.1l1.2,2.5-15.5,17.9-1.4-2.8,4.3-4.9-4.4-8.8-6.6.5-1.3-2.6,23.7-1.8ZM372.4,111.7l3.5,7,3.2-3.6c1.3-1.4,2.6-2.9,3.9-4.3v-.1c-1.9.2-3.9.4-5.9.6l-4.7.4Z"/><path class="e" d="M392.8,124l1,2.7-18.1,6.5,3.5,9.7-2.4.9-4.5-12.4,20.5-7.4Z"/><path class="e" d="M403.4,161.4c.4,2.3.2,4.5-.4,6.3l-3.1.6c.9-1.8,1.3-4.2.9-6.5-.9-4.9-5.2-7.7-10-6.8s-7.9,5-6.9,10.1c.4,2.4,1.6,4.3,3.3,5.8l-3.1.6c-1.4-1.5-2.4-3.8-2.8-6-1.2-6.5,2.7-12.1,9-13.2,6.1-1.2,11.9,2.4,13.1,9.1Z"/><path class="e" d="M405,175l.1,2.9-9.2.4.5,11.9,9.2-.4.1,2.9-21.9.9-.1-2.9,10.1-.4-.5-11.9-10,.4-.1-2.9,21.8-.9Z"/><path class="e" d="M404.9,207.6l-.3,2.7-22.6,6.9.3-3.1,6.3-1.9.9-9.8-5.8-3,.3-2.9,20.9,11.1ZM391.9,203.7l-.7,7.8,4.7-1.3c1.8-.5,3.7-1.1,5.6-1.6v-.1c-1.7-.8-3.5-1.7-5.3-2.7l-4.3-2.1Z"/><path class="e" d="M402.6,224.9l-1.2,5.6c-.5,2.3-1.1,4.4-2.5,6.1-1.4,1.6-3.5,2.5-6,1.9-2.4-.5-4-2.1-4.7-4.1-.7-2.1-.2-4.6.4-7.3l.5-2.2-8.4-1.9.6-2.8,21.3,4.7ZM391,228c-.6,2.5-.8,3.9-.3,5.3.4,1.2,1.3,2.1,2.8,2.4,1.6.4,2.9-.2,3.7-1.2.9-1.2,1.3-2.7,1.8-4.7l.6-2.5-7.9-1.8-.7,2.5Z"/><path class="e" d="M393.1,250.5l2.5-6.9,2.4.9-5.9,16.5-2.4-.9,2.5-6.9-18.2-6.4,1-2.7,18.1,6.4Z"/><path class="e" d="M389.7,266.5l-5.5,11.3-2.3-1.1,4.3-8.8-6-2.9-3.7,7.7-2.3-1.1,3.7-7.7-6.8-3.3-4.4,9-2.3-1.1,5.7-11.6,19.6,9.6Z"/><path class="e" d="M380.8,283.9l-3.2,5c-1.2,1.9-2.4,3.6-4.2,4.6-1.8,1-3.9,1.1-5.9-.2-2-1.3-2.9-3.2-2.8-5.1,0-.9.2-1.8.6-2.6l-11.9.7,1.9-2.9,11.5-.6,2-3.1-7.9-5,1.5-2.4,18.4,11.6ZM368.7,284c-1,1.6-1.6,2.9-1.5,4.2.1,1,.6,1.9,1.6,2.6,1.2.7,2.4.8,3.6.2,1.2-.7,2-1.8,3.1-3.6l1.5-2.4-6.4-4.1-1.9,3.1Z"/></g></svg>