<svg id="Layer_1" data-name="Layer 1" xmlns="http://www.w3.org/2000/svg" viewBox="0 0 355 379"><defs><style>.cls-1{fill:#0b0f42;}</style></defs><path class="cls-1" d="M206.64,360.48a18.33,18.33,0,0,1-9.13-2.77l1.74-5.7a13.52,13.52,0,0,0,7.58,2.63c2.22,0,3.07-1,3.07-2.37s-.71-2.36-4.85-4c-4.76-1.92-6.43-4.69-6.43-7.94,0-4,3.22-7.8,9.54-7.8a14.92,14.92,0,0,1,7.58,2.1l-1.59,5.62a12.25,12.25,0,0,0-6-2.21c-2.29,0-3.22,1.07-3.22,2.18,0,1.77,1.37,2.36,4.77,3.8,5.06,2.15,6.58,4.59,6.58,8.06C216.29,356.37,213.15,360.48,206.64,360.48Z"/><path class="cls-1" d="M240.16,338.71V360h-6.28V338.71h-8.13v-5.77H248.3v5.77Z"/><path class="cls-1" d="M300.52,338.71V360h-6.29V338.71H286.1v-5.77h22.55v5.77Z"/><path class="cls-1" d="M318.85,360V332.94H336v5.77H325.13v4.84H335V349h-9.91v5.28H336V360Z"/><polygon class="cls-1" points="267.14 332.72 266.3 332.72 253.54 360.03 259.94 360.03 261.97 355.12 268.91 355.12 266.94 350.31 263.97 350.31 266.66 343.81 269.33 350.31 269.32 350.31 271.32 355.12 271.32 355.12 273.35 360.03 279.9 360.03 267.14 332.72"/><path class="cls-1" d="M29.1,338.71v6h9.31v5.51H29.1V360H22.81V332.94H40v5.77Z"/><path class="cls-1" d="M48.91,360V332.94h6.28V360Z"/><path class="cls-1" d="M100.18,360V332.94h6.28V360Z"/><path class="cls-1" d="M129.71,338.71V360h-6.28V338.71H115.3v-5.77h22.54v5.77Z"/><path class="cls-1" d="M145.72,360V332.94h17.15v5.77H152v4.84h9.91V349H152v5.28h10.87V360Z"/><polygon class="cls-1" points="89.31 350.06 89.31 332.94 83.03 332.94 83.03 344.36 89.31 350.06"/><polygon class="cls-1" points="77.12 341.65 66.91 332.42 66.06 332.57 66.06 360.03 72.34 360.03 72.34 345.88 88.68 360.55 89.31 360.44 89.31 352.68 77.12 341.65"/><polygon class="cls-1" points="179.27 277.65 65.93 211.94 66.08 81.06 179.34 15.57 292.88 81.21 292.67 211.38 282.13 217.59 282.34 87.28 179.34 27.75 76.61 87.14 76.47 205.87 179.26 265.46 257.33 220.08 257.2 160.75 213.18 135.38 213.38 95.46 257.55 121.13 257.25 101.41 196.56 65.77 196.74 144.92 240.03 170.2 240.35 213.84 179.4 249.11 118.05 213.56 118.21 170.03 162.12 145.04 162.03 125.36 118.5 150.75 118.4 110.96 162.26 85.32 162.22 65.76 101.47 101.52 101.47 203.19 90.69 197.11 90.94 95.5 172.72 47.35 172.81 91.36 128.95 117 128.99 132.44 172.48 107.07 172.68 151.15 128.72 176.17 128.6 207.5 179.41 236.93 229.77 207.79 229.53 176.27 186.22 150.98 185.98 47.34 267.69 95.33 268.37 139.6 223.83 113.71 223.75 129.31 267.73 154.65 267.88 226.13 179.27 277.65"/><path class="cls-1" d="M179.56,218l-34.95-20.34V186.29l34.64-19.88,33.8,19.66.21,12.08Zm-23.73-26,23.7,13.8,23.09-13.61-23.41-13.61Z"/></svg>