<?xml version="1.0" encoding="utf-8"?>
<!-- Generator: Adobe Illustrator 16.0.3, SVG Export Plug-In . SVG Version: 6.00 Build 0)  -->
<!DOCTYPE svg PUBLIC "-//W3C//DTD SVG 1.1//EN" "http://www.w3.org/Graphics/SVG/1.1/DTD/svg11.dtd" [
	<!ENTITY st0 "fill-rule:evenodd;clip-rule:evenodd;fill:#D72127;">
	<!ENTITY st1 "fill-rule:evenodd;clip-rule:evenodd;fill:#242121;">
	<!ENTITY st2 "fill-rule:evenodd;clip-rule:evenodd;fill:#FFFDFD;">
]>
<svg version="1.1" id="Layer_1" xmlns="http://www.w3.org/2000/svg" xmlns:xlink="http://www.w3.org/1999/xlink" x="0px" y="0px"
	 width="2541.94px" height="856.618px" viewBox="0 0 2541.94 856.618" style="enable-background:new 0 0 2541.94 856.618;"
	 xml:space="preserve">
<g>
	<path style="&st0;" d="M68.205,659.202c-1.931-2.585-4.087-5.032-5.758-7.775C32.426,602.115,12.324,548.984,4.559,491.809
		c-17.31-127.462,14.599-241.403,97.063-340.478c38.989-46.842,86.621-82.945,141.542-109.391
		c8.262-3.979,16.566-7.869,24.853-11.799c1.066-0.296,2.13-0.593,3.195-0.89l-0.064,0.032c6.355-2.342,12.71-4.684,19.065-7.025
		c0,0-0.07,0.034-0.07,0.034c0.964-0.208,1.956-0.33,2.889-0.634c30.729-10.029,62.131-16.734,94.354-19.709
		c47.624-4.396,94.73-1.48,141.156,10.032c16.374,4.061,32.41,9.487,48.602,14.29l-0.061-0.026c2.684,1.018,5.367,2.037,8.051,3.055
		l-0.068-0.039c1.285,0.603,2.57,1.205,3.854,1.807c27.142,11.221,52.98,24.893,77.381,41.251
		c25.118,16.839,48.214,36.108,69.252,57.841c1.029,1.063,2.182,2.005,3.28,3.004c0.09,0.941,0.18,1.882,0.294,3.083
		c-21.105-13.444-44.005-21.017-68.147-24.903c-38.973-6.274-77.665-3.348-116.108,4.5c-48.608,9.922-94.701,27.081-139.025,49.115
		c-14.994,7.454-29.67,15.549-44.492,23.351c0.183,0.396,0.366,0.792,0.549,1.188c1.502-0.521,3.053-0.932,4.497-1.582
		c16.939-7.62,33.599-15.939,50.842-22.792c43.054-17.113,87.475-28.416,134.154-29.132c25.329-0.389,50.146,2.541,74.022,11.352
		c49.664,18.327,78.226,58.371,79.892,111.243c0.813,25.781-3.701,50.65-11.828,74.965c-15.274,45.699-40.198,85.958-70.292,123.163
		c-53.607,66.277-118.667,118.704-193.974,158.372C402.708,634.316,365,650.78,324.153,658.652
		c-27.742,5.348-55.514,6.647-83.024-1.495c-26.861-7.95-44.859-24.754-50.716-52.762c-4.292-20.521-3.367-41.253,1.577-61.439
		c9.684-39.538,26.603-76.381,43.904-113.032c1.328-2.812,3.122-2.867,5.513-2.871c21.826-0.036,43.651-0.08,65.477-0.249
		c1.587-0.012,4.081-0.559,4.609-1.623c4.47-9.012,8.581-18.203,13.022-27.823c-24.806,0-48.881,0-73.558,0
		c15.3-32.832,30.396-65.225,45.73-98.127c-11.635,0-22.453-0.16-33.259,0.125c-2.366,0.063-5.127,1.185-6.961,2.713
		c-9.848,8.205-19.157,17.075-29.205,25.016c-43.237,34.175-92.042,57.252-144.979,71.961c-1.479,0.411-3.5,1.105-4.054,2.252
		c-4.071,8.438-7.834,17.023-11.949,26.13c17.416,0,33.982,0,51.361,0c-2.827,5.374-5.204,10.263-7.905,14.965
		c-21.3,37.096-38.063,75.965-46.018,118.231c-4.525,24.044-5.997,48.235-1.559,72.465
		C63.764,641.868,66.166,650.502,68.205,659.202z"/>
	<path style="&st2;" d="M68.205,659.202c-2.039-8.7-4.44-17.334-6.048-26.112c-4.438-24.229-2.966-48.421,1.559-72.465
		c7.955-42.267,24.718-81.136,46.018-118.231c2.701-4.702,5.078-9.591,7.905-14.965c-17.378,0-33.945,0-51.361,0
		c4.115-9.106,7.878-17.692,11.949-26.13c0.554-1.147,2.576-1.841,4.054-2.252c52.937-14.709,101.742-37.786,144.979-71.961
		c10.048-7.941,19.357-16.811,29.205-25.016c1.834-1.528,4.595-2.651,6.961-2.713c10.806-0.285,21.625-0.125,33.259-0.125
		c-15.334,32.902-30.43,65.295-45.73,98.127c24.677,0,48.752,0,73.558,0c-4.441,9.621-8.553,18.811-13.022,27.823
		c-0.528,1.064-3.021,1.611-4.609,1.623c-21.826,0.169-43.651,0.213-65.477,0.249c-2.391,0.004-4.185,0.06-5.513,2.871
		c-17.301,36.651-34.22,73.494-43.904,113.032c-4.944,20.187-5.869,40.919-1.577,61.439c5.857,28.008,23.854,44.812,50.716,52.762
		c27.511,8.143,55.282,6.843,83.024,1.495c40.847-7.872,78.555-24.336,115.063-43.565c75.307-39.668,140.366-92.095,193.974-158.372
		c30.094-37.205,55.018-77.463,70.292-123.163c8.127-24.315,12.64-49.184,11.828-74.965c-1.667-52.872-30.229-92.916-79.892-111.243
		c-23.876-8.811-48.693-11.74-74.022-11.352c-46.68,0.716-91.1,12.019-134.154,29.132c-17.243,6.853-33.903,15.172-50.842,22.792
		c-1.444,0.649-2.995,1.06-4.497,1.582c-0.183-0.396-0.366-0.792-0.549-1.188c14.821-7.802,29.498-15.896,44.492-23.351
		c44.325-22.035,90.417-39.193,139.025-49.115c38.443-7.847,77.135-10.774,116.108-4.5c24.143,3.886,47.042,11.459,68.147,24.903
		c-0.114-1.2-0.204-2.141-0.294-3.083c7.453,8.223,15.642,15.903,22.201,24.786c11.909,16.125,22.848,32.965,34.189,49.503
		c-0.389,0.659-1.203,1.399-1.098,1.97c1.905,10.276,4.651,20.454,5.772,30.809c2.917,26.966-0.681,53.463-7.453,79.583
		c-12.066,46.543-33.535,88.735-60.208,128.393c-48.901,72.705-110.427,133.076-181.33,184.127
		c-58.464,42.094-121.279,75.952-189.895,98.412c-50.184,16.427-101.434,26.111-154.581,21.372
		c-29.313-2.613-57.197-10.047-82.611-25.44c-1.174-0.711-2.633-0.95-3.96-1.409c-4.358-4.978-8.984-9.747-13.025-14.97
		c-12.576-16.254-24.93-32.68-37.371-49.039c-0.433-0.731-0.865-1.462-1.298-2.192L68.205,659.202z"/>
	<path style="&st0;" d="M119.858,725.271c1.327,0.459,2.786,0.698,3.96,1.409c25.414,15.394,53.299,22.827,82.611,25.44
		c53.147,4.739,104.397-4.945,154.581-21.372c68.616-22.46,131.431-56.318,189.895-98.412
		c70.903-51.051,132.429-111.422,181.33-184.127c26.673-39.658,48.142-81.849,60.208-128.393c6.772-26.12,10.37-52.616,7.453-79.583
		c-1.121-10.355-3.867-20.533-5.772-30.809c-0.105-0.571,0.709-1.312,1.098-1.97c16.61,28.285,30.349,57.865,40.459,89.104
		c16.104,49.761,23.178,100.862,20.137,152.973c-6.942,118.953-54.734,218.802-143.195,298.713
		c-51.643,46.652-111.691,78.079-179.131,95.278c-45.046,11.488-90.798,15.424-137.131,11.783
		c-106.252-8.349-196.902-50.689-272.505-125.6C122.444,728.308,121.187,726.753,119.858,725.271z"/>
	<path style="&st1;" d="M2139.473,488.798c-1.884,0.084-3.507,0.218-5.128,0.219c-21.992,0.014-43.984-0.074-65.975,0.096
		c-3.482,0.027-5.271-1.102-6.936-4.124c-33.396-60.683-66.906-121.302-100.396-181.932c-0.929-1.683-1.877-3.354-3.927-4.783
		c0,63.439,0,126.877,0,190.506c-19.583,0-38.488,0-57.693,0c0-95.942,0-191.637,0-287.723c1.779-0.081,3.395-0.217,5.01-0.218
		c21.991-0.014,43.983,0.084,65.973-0.096c3.949-0.032,6.153,1.042,8.166,4.667c33.069,59.536,66.317,118.974,99.533,178.428
		c0.846,1.511,1.797,2.962,3.588,4.191c0-62.16,0-124.32,0-186.84c19.509,0,38.522,0,57.784,0
		C2139.473,297.094,2139.473,392.792,2139.473,488.798z"/>
	<path style="&st1;" d="M1279.046,488.825c0-96.04,0-191.654,0-288.006c1.841,0,3.586,0.003,5.333,0
		c41.991-0.088,83.983-0.413,125.972-0.172c23.393,0.134,46.473,2.872,68.201,12.508c30.109,13.352,43.241,33.714,42.32,66.537
		c-0.454,16.173-2.795,32.114-8.591,47.375c-9.042,23.81-19.312,34.291-43.021,43.613c19.332,39.222,38.651,78.414,58.213,118.103
		c-25.668,0-50.57,0-74.573,0c-8.686-22.115-17.012-43.921-25.817-65.532c-6.134-15.057-12.987-29.821-19.373-44.778
		c-1.255-2.941-2.713-4.215-6.196-4.174c-18.66,0.223-37.326,0.1-55.99,0.115c-1.461,0.001-2.924,0.14-4.979,0.245
		c0,38.175,0,76.075,0,114.167C1319.823,488.825,1299.718,488.825,1279.046,488.825z M1340.782,323.787
		c0.669,0.246,0.971,0.455,1.272,0.455c26.799-0.017,53.619,0.633,80.389-0.269c27.507-0.928,43.186-23.716,35.971-50.492
		c-3.832-14.217-15.287-23.57-32.322-24.081c-27.936-0.836-55.904-0.605-83.858-0.794c-0.427-0.003-0.855,0.389-1.451,0.678
		C1340.782,274.053,1340.782,298.825,1340.782,323.787z"/>
	<path style="&st1;" d="M2229.727,489.025c0-96.299,0-192.016,0-287.883c1.252-0.122,2.227-0.303,3.201-0.299
		c37.317,0.115,74.657-0.512,111.946,0.613c30.438,0.917,59.112,8.939,83.415,28.58c21.921,17.715,34.224,41.26,39.964,68.357
		c7.537,35.58,7.342,71.171-3.552,106.047c-13.735,43.978-44.521,69.967-88.989,79.474c-15.018,3.21-30.639,4.545-46.023,4.892
		c-32.141,0.725-64.307,0.221-96.462,0.221C2232.236,489.025,2231.246,489.025,2229.727,489.025z M2291.348,440.153
		c16.904,0,33.269,0.9,49.498-0.194c30.309-2.043,52.747-20.229,60.803-49.361c8.083-29.23,8.155-58.999,0.754-88.341
		c-6.917-27.427-25.015-44.829-53.112-48.722c-18.82-2.608-38.131-1.669-57.224-2.288c-0.232-0.007-0.479,0.394-0.719,0.613
		C2291.348,314.772,2291.348,377.684,2291.348,440.153z"/>
	<path style="&st1;" d="M1604.54,201.105c68.634,0,137.204,0,206.075,0c0,15.642,0,31.214,0,47.364c-48.103,0-96.136,0-144.394,0
		c0,22.817,0,45.06,0,67.752c44.195,0,88.25,0,132.609,0c0,16.036,0,31.628,0,47.81c-43.999,0-88.179,0-132.598,0
		c0,25.848,0,51.111,0,76.824c49.313,0,98.7,0,148.456,0c0,16.153,0,31.862,0,47.873c-69.901,0-139.806,0-210.149,0
		C1604.54,393.012,1604.54,297.197,1604.54,201.105z"/>
	<path style="&st1;" d="M1133.39,488.779c-20.725,0-40.81,0-61.569,0c0-79.968,0-159.817,0-240.182c-28.895,0-57.125,0-85.584,0
		c0-16.1,0-31.681,0-47.515c77.594,0,154.981,0,232.628,0c0,15.735,0,31.316,0,47.397c-28.369,0-56.603,0-85.475,0
		C1133.39,328.826,1133.39,408.679,1133.39,488.779z"/>
	<path style="&st1;" d="M1130.507,566.129c16.227,0,32.144,0,48.289,0c0,53.162,0,106.084,0,159.293c-9.857,0-19.604,0-29.618,0
		c0-40.869,0-81.49,0-122.111c-0.282-0.054-0.564-0.108-0.846-0.162c-2.048,7.968-4.148,15.923-6.136,23.905
		c-7.785,31.247-15.571,62.494-23.248,93.769c-0.863,3.517-2.133,5.246-6.232,5.003c-7.141-0.422-14.334-0.354-21.483-0.021
		c-3.778,0.176-5.09-1.227-5.951-4.728c-9.318-37.871-18.799-75.703-28.241-113.545c-0.387-1.551-0.845-3.085-2.285-4.487
		c0,40.693,0,81.387,0,122.369c-10.224,0-19.802,0-29.659,0c0-53.085,0-105.988,0-159.526c7.166,0,14.267,0,21.367,0
		c7.332,0,14.672,0.207,21.991-0.09c3.492-0.142,4.834,0.984,5.711,4.356c8.942,34.361,18.066,68.678,27.551,104.567
		C1111.519,637.753,1120.952,602.176,1130.507,566.129z"/>
	<path style="&st1;" d="M2061.037,659.364c6.436,11.421,12.56,22.263,18.66,33.118c6.072,10.809,12.122,21.629,18.607,33.205
		c-12.855,0-24.943,0.104-37.022-0.161c-1.204-0.026-2.699-2.119-3.485-3.565c-10.068-18.522-20.099-37.068-29.96-55.702
		c-1.598-3.018-3.388-4.2-6.876-4.081c-8.473,0.29-16.961,0.095-25.907,0.095c0,21.402,0,42.138,0,63.151
		c-10.881,0-21.297,0-31.981,0c0-53.061,0-105.941,0-159.162c1.059-0.121,2.151-0.36,3.243-0.357
		c26.31,0.073,52.62,0.119,78.929,0.32c4.305,0.033,8.664,0.459,12.898,1.239c20.377,3.753,34.594,19.573,35.732,40.349
		c0.398,7.248,0.129,14.729-1.236,21.836c-2.652,13.807-11.154,23.04-24.621,27.493
		C2065.823,657.867,2063.613,658.545,2061.037,659.364z M1995.13,633.33c9.879,0,19.346,0.129,28.807-0.043
		c6.801-0.123,13.676-0.106,20.371-1.116c10.854-1.638,15.916-8.767,15.647-20.648c-0.225-9.867-6.35-17.558-16.406-18.012
		c-16.043-0.724-32.143-0.193-48.419-0.193C1995.13,606.537,1995.13,619.617,1995.13,633.33z"/>
	<path style="&st1;" d="M2427.609,645.845c-0.52,12.642-2.145,24.914-6.599,36.748c-10.371,27.556-33.672,44.388-63.145,45.547
		c-11.855,0.467-23.642,0.099-35.107-3.344c-22.177-6.66-37.064-21.39-44.563-42.89c-8.902-25.526-8.596-51.428,1.761-76.532
		c10.135-24.568,29.317-37.815,55.51-41.289c14.727-1.952,29.319-1.414,43.365,3.493c26.157,9.139,40.298,28.755,45.93,55.052
		C2426.386,630.224,2426.696,638.099,2427.609,645.845z M2305.035,645.869c0.971,7.055,1.39,14.238,3.013,21.139
		c4.86,20.653,20.196,33.076,40.795,33.674c19.966,0.58,35.773-10.744,41.591-30.549c4.787-16.295,4.857-32.862,0.068-49.194
		c-4.063-13.863-12.227-24.485-26.837-28.191c-5.852-1.484-12.187-1.729-18.267-1.516c-14.579,0.513-25.638,7.219-32.541,20.297
		C2307.195,622.256,2305.548,633.832,2305.035,645.869z"/>
	<path style="&st1;" d="M1768.487,618.045c-11.233,0-22.021,0-32.997,0c-0.217-0.69-0.424-1.282-0.588-1.887
		c-3.875-14.267-12.704-23.154-27.71-24.886c-17.514-2.02-30.835,4.531-38.512,18.94c-7.726,14.502-8.677,30.229-7.132,46.143
		c0.604,6.213,2.02,12.502,4.105,18.388c6.303,17.781,19.33,26.714,36.538,25.762c17.864-0.989,28.185-10.003,33.321-29.631
		c5.256,0,10.706,0,16.157,0c5.316,0,10.633,0,16.503,0c-0.964,8.946-4.02,16.88-8.055,24.438
		c-10.916,20.453-28.438,31.18-51.14,33.39c-24.039,2.341-45.737-3.008-62.459-21.772c-10.63-11.928-15.753-26.406-17.974-42
		c-2.811-19.733-1.816-39.162,5.279-57.997c12.661-33.604,42.973-47.432,75.064-44.304c18.018,1.755,33.857,8.172,45.791,22.393
		C1762.581,594.436,1767.333,605.223,1768.487,618.045z"/>
	<path style="&st1;" d="M1390.622,725.309c0-53.029,0-105.926,0-159.118c10.485,0,20.913,0,31.716,0c0,52.911,0,105.784,0,159.118
		C1411.944,725.309,1401.432,725.309,1390.622,725.309z"/>
	<path style="&st1;" d="M2517.935,545.122c4.6-13.202,8.688-24.917,12.76-36.638c2.708-7.793,2.697-7.797,11.245-7.081
		c0,17.015,0,34.061,0,51.361c-1.88,0-3.65,0-5.824,0c0-13.53,0-27.126,0-40.722c-0.341-0.079-0.683-0.157-1.024-0.236
		c-2.348,6.598-4.726,13.187-7.036,19.799c-2.134,6.104-4.03,12.3-6.413,18.302c-0.54,1.36-2.677,2.899-4.059,2.881
		c-1.367-0.018-3.456-1.637-3.944-3.01c-4.478-12.589-8.676-25.277-13.919-37.838c0,13.476,0,26.953,0,40.746
		c-2.512,0-4.401,0-6.57,0c0-17.073,0-34.132,0-51.046c0.316-0.241,0.436-0.411,0.566-0.421c9.315-0.703,9.298-0.696,12.259,8.187
		C2509.777,520.818,2513.613,532.219,2517.935,545.122z"/>
	<path style="&st1;" d="M2468.605,507.146c0,15.527,0,30.303,0,45.486c-2.22,0-4.232,0-6.627,0c0-14.896,0-29.802,0-45.188
		c-5.72,0-11.11,0-16.957,0c-0.127-2.176-0.229-3.907-0.353-6.016c13.717,0,27.229,0,40.96,0c0,1.831,0,3.561,0,5.718
		C2480.013,507.146,2474.596,507.146,2468.605,507.146z"/>
	<path style="&st2;" d="M290.212,22.258c-6.355,2.341-12.71,4.683-19.065,7.025C277.501,26.941,283.857,24.6,290.212,22.258z"/>
	<path style="&st2;" d="M585.133,29.3c-2.684-1.019-5.367-2.037-8.051-3.055C579.767,27.263,582.45,28.281,585.133,29.3z"/>
	<path style="&st2;" d="M588.919,31.068c-1.284-0.603-2.569-1.205-3.854-1.807C586.35,29.864,587.635,30.466,588.919,31.068z"/>
	<path style="&st2;" d="M271.21,29.251c-1.064,0.297-2.129,0.594-3.195,0.89C269.08,29.844,270.145,29.548,271.21,29.251z"/>
	<path style="&st0;" d="M68.165,659.069c0.433,0.73,0.865,1.461,1.298,2.192C69.031,660.531,68.598,659.8,68.165,659.069z"/>
</g>
</svg>
