<?xml version="1.0" encoding="UTF-8"?>
<svg id="Group_2769" data-name="Group 2769" xmlns="http://www.w3.org/2000/svg" xmlns:xlink="http://www.w3.org/1999/xlink" version="1.1" viewBox="0 0 144.7 30.5">
  <defs>
    <style>
      .cls-1 {
        clip-path: url(#clippath);
      }

      .cls-2 {
        fill: none;
      }

      .cls-2, .cls-3, .cls-4 {
        stroke-width: 0px;
      }

      .cls-3 {
        fill: #d71920;
      }

      .cls-4 {
        fill: #fff;
      }
    </style>
    <clipPath id="clippath">
      <rect class="cls-2" width="144.7" height="30.5"/>
    </clipPath>
  </defs>
  <g class="cls-1">
    <g id="Group_2768" data-name="Group 2768">
      <path id="Path_1419" data-name="Path 1419" class="cls-4" d="M30.5,15.3c0,8.4-6.8,15.2-15.2,15.2S0,23.7,0,15.3C0,6.8,6.8,0,15.3,0c8.4,0,15.2,6.8,15.2,15.2h0"/>
      <path id="Path_1420" data-name="Path 1420" class="cls-3" d="M2.6,23.7C-2.1,16.7-.2,7.2,6.8,2.6,13-1.6,21.4-.6,26.5,4.9c-2.9-2-8.6-1.1-13.9,2.4,4.9-3,10-3.4,12.1-.8,2.4,3-.1,9-5.6,13.2s-11,5.1-12,2.2c-.4-1.1-.7-2.4,1.5-6.8h2.6s.5-1,.5-1h-2.6l1.6-3.5s-1.3,0-1.3,0c-1.8,1.7-4,2.9-6.4,3.6l-.4,1h1.8c-2,3.1-2.6,6.2-1.7,8.5Z"/>
      <path id="Path_1421" data-name="Path 1421" class="cls-3" d="M30.5,15.3c0,8.4-6.8,15.2-15.3,15.2-4.2,0-8.2-1.7-11-4.7,3.3,2.3,10.2.7,16.2-4,6-4.7,9.1-10.8,7.8-14.6,1.5,2.4,2.3,5.2,2.3,8.1"/>
      <path id="Path_1422" data-name="Path 1422" class="cls-4" d="M135.9,22.6h-.9c0,0,0,0,0,0l.7.3,1.7.9v.3l-1.7,1-.7.3h0s.9,0,.9,0h2.3v.8h-4.4v-.8l2-1.2.5-.2h0s-.5-.2-.5-.2l-2-1.1v-.8h4.4v.9h-2.3Z"/>
      <rect id="Rectangle_1014" data-name="Rectangle 1014" class="cls-4" x="133.8" y="19.5" width="4.4" height=".9"/>
      <path id="Path_1423" data-name="Path 1423" class="cls-4" d="M138.1,15.3c.1.2.2.3.2.5,0,.2,0,.4,0,.6,0,.3,0,.5-.1.8,0,.2-.2.5-.4.6-.2.2-.4.3-.7.4-.3.1-.7.2-1.1.2-.4,0-.7,0-1.1-.2-.3-.1-.5-.3-.7-.5-.2-.2-.3-.4-.4-.6,0-.2-.1-.5-.1-.7,0-.2,0-.4,0-.6,0-.1,0-.3.1-.4l.7.2c0,.1,0,.2-.1.3,0,.2,0,.3,0,.5,0,.3.1.6.4.8.3.2.8.4,1.2.3.2,0,.4,0,.6,0,.2,0,.3-.1.5-.2.1-.1.2-.2.3-.4,0-.2.1-.4.1-.5,0-.2,0-.3,0-.5,0-.1,0-.2-.1-.3l.7-.2h0Z"/>
      <path id="Path_1424" data-name="Path 1424" class="cls-4" d="M133.8,14.3c0,0,0-.2,0-.3s0-.2,0-.3,0-.2,0-.3,0-.2,0-.3c0-.2,0-.4,0-.6,0-.2,0-.4.2-.5,0-.2.2-.3.4-.4.2-.1.4-.2.6-.1.3,0,.6,0,.9.3.2.2.4.4.5.7l.2-.3,1.7-1v1l-1.7,1v.5c0,0,1.7,0,1.7,0v.9h-4.4,0ZM134.5,13c0,0,0,.2,0,.3,0,0,0,.1,0,.2h1.3v-.4c0-.2,0-.4-.2-.6-.1-.2-.3-.2-.5-.2-.2,0-.3,0-.4.2-.1.1-.2.3-.2.5h0Z"/>
      <path id="Path_1425" data-name="Path 1425" class="cls-4" d="M136,10.4c-.6,0-1.2-.1-1.7-.5-.4-.3-.6-.9-.6-1.4,0-.3,0-.6.2-.8.1-.2.3-.4.5-.6.2-.2.5-.3.7-.4.3,0,.6-.1.9-.1.6,0,1.2.1,1.7.5.4.3.6.9.6,1.4,0,.3,0,.6-.2.8-.1.2-.3.4-.5.6-.2.2-.5.3-.7.3-.3,0-.6.1-.9.1h0ZM136,9.5c.2,0,.4,0,.6,0,.2,0,.3,0,.5-.2.1,0,.2-.2.3-.3.2-.4.1-.9-.2-1.2-.4-.2-.8-.3-1.2-.3-.2,0-.4,0-.6,0-.2,0-.3,0-.5.2-.1,0-.2.2-.3.3,0,.1-.1.3-.1.5,0,.3.1.6.4.7.4.2.8.3,1.2.3h0Z"/>
      <path id="Path_1426" data-name="Path 1426" class="cls-4" d="M142.1,6.9h-.7v1.9h-.3v-1.9h-.7v-.2h1.7v.2Z"/>
      <path id="Path_1427" data-name="Path 1427" class="cls-4" d="M144.7,8.8h-.3v-1.8l-.6,1.8h-.3l-.6-1.8v1.8h-.3v-2.1h.4l.5,1.5s0,0,0,.2c0,0,0,0,0,.1v-.3c.1,0,.6-1.5.6-1.5h.4v2.1Z"/>
      <path id="Path_1428" data-name="Path 1428" class="cls-4" d="M74,6.7h13.9v3.2h-9.7v4.6h9v3.2h-9v5.2h10v3.2h-14.2V6.7Z"/>
      <path id="Path_1429" data-name="Path 1429" class="cls-4" d="M103.4,26l-7.1-12.9h0v12.9h-3.9V6.7h5.1l7.1,12.7h0V6.7h3.9v19.4h-5.1Z"/>
      <path id="Path_1430" data-name="Path 1430" class="cls-4" d="M119.6,6.7h-6.6v19.4h6.6c6,0,9.8-3,9.8-9.7s-3.8-9.7-9.8-9.7M119.3,22.8h-2.1v-12.8h2.2c4.9,0,5.7,3.2,5.7,6.3s-.7,6.5-5.7,6.5"/>
      <path id="Path_1431" data-name="Path 1431" class="cls-4" d="M34.9,6.7h15.7v3.2h-5.8v16.2h-4.2V9.9h-5.8v-3.2Z"/>
      <path id="Path_1432" data-name="Path 1432" class="cls-4" d="M66.6,17.8c2.2-.8,3.7-3,3.7-5.3,0-.3,0-.6,0-.9-.2-1.7-1.3-3.3-2.8-4.1-.2-.1-1.4-.9-5-.9h-8.4v19.4h4.2v-7.7h4.4c1.2,2.5,2.2,5.1,3.1,7.7h5.1l-4.1-8.2h0ZM58.1,10h4.9c1.6,0,2.7.6,2.9,2h0c0,0,0,.1,0,.2s0,.1,0,.1v.2c0,1.7-1.1,2.6-2.9,2.6h-4.9v-5.1h0Z"/>
    </g>
  </g>
</svg>