<?xml version="1.0" encoding="UTF-8"?>
<svg id="Layer_1" data-name="Layer 1" xmlns="http://www.w3.org/2000/svg" version="1.1" viewBox="0 0 61.6 32">
  <defs>
    <style>
      .cls-1 {
        fill: #000;
      }

      .cls-1, .cls-2 {
        stroke-width: 0px;
      }

      .cls-2 {
        fill: red;
      }
    </style>
  </defs>
  <path class="cls-1" d="M59.5,12.8c-.6-.2-.9-.6-1.4-.9v.2c.2.2,0,0,.2.3h0c.2.2.2.2.2.6-.2.2-.6.2-.9.4-.6.2-.9-.2-1.3,0,0,0-.2.2-.2.3-.3.3-.6.4-1.4.4-.2-.3-.6-.3-.7-.8h0v.4h0v.6c0,0,.2,0,.2,0,0,.2,0,.4,0,.6h0c.3-.3.6,0,1-.2h0c.3,0,.6,0,1,0h0c.2,0,.6,0,.9,0h0c.4,0,.9-.2,1.3-.2.2.7,0,2.1,0,3h.2c0-.2,0-.2,0-.4h0c.2-.6-.2-1.2.2-1.7h0c.3-.3.5-.2.6-.6.4,0,.3.2.6.6h0c0,.2,0,.2,0,.4h0v.3h0c.2.7-.2,1.4-.3,1.9-.2,0-.3,0-.6,0-.2-.2,0,0-.2,0,0,.2-.2.3-.3.6h0v.2c0,0-.2.2-.3.2v.2c-.2.2-.3.2-.6.4v.2c0,0-.2.2-.3.2h0c-.2,0-.3,0-.6,0,0,0,0,.2-.2,0h0c0,0-.2,0-.3,0h0c-.3,0-.6-.2-1-.2h0c0,0-.2,0-.3,0h0c-.2,0-.5,0-.7,0h0c0,0-.2,0-.2,0h0c-.2,0-.4-.2-.6-.2h0c-.4,0-.8,0-1.1,0h0c-.5-.2-.9-.3-1.4-.4h0c0,0,0,0,0,0,.2.2.4.2.7.3h0c0,0,.2,0,.2,0h0c.2,0,.2.2.4.2h0c0,0,.2,0,.3,0h0c.2.2.4.2.6.3,0,0,0,.2,0,.3,0,0,.2,0,.2,0,0,.3.2.6.3,1-.2,0-.4,0-.6,0h0c-.2.2,0,0,0,.3h1v.3c0,0-.2.2-.3.2h0c0,0-.2,0-.2,0,0,0,0,.2,0,.2-.4.2-.7.3-1.4.3-.3-.2-.7-.2-1-.4h0c0,0,0,0,0,0v.3h0c0,.2.2.2.2.3h.2c0,0,.2,0,.3,0h0c0,0,.2,0,.2,0h0c0,0,.2,0,.2,0,0,0,0,.2,0,.2.2,0,.2,0,.2,0,.2,0,.2,0,.4,0,0,0,0-.2,0-.2.2,0,.2,0,.4,0,.4-.2.5-.5,1.1-.6.2.6.6.8.6,1.4-.5.2-1,.7-1.1,1.1h-.2c0-.2-.2-.3-.4-.4,0,.5-.2.6-.6.6,0-.2,0-.2,0-.4h0c-.3.2-.8,0-1.3.2h0c0,0-.2,0-.3,0h0c-.2,0-.2.2-.4.2h0c0,0-.2,0-.2,0h0c0,0-.2,0-.3,0,0,0,0,.2,0,.2h-.3c0,0-.2,0-.2,0,0,0,0,.2,0,.2h-.3c0,0,0,.2,0,.2-.2,0-.4.2-.6.2h0c0,0-.2.2-.3.2,0,0,0,.2,0,.2-.2,0-.2,0-.4,0h0c0,0-.2.2-.3.2,0,0,0,.2,0,.2h-.2c0,0,0,.2,0,.2h-.2c0-.3,0-.2,0,0h-.2c-.2.2-.3.4-.6.6,0,0-.2,0-.2,0v.2c0,0-.2.2-.3.2-.3.5-.4,1-1,1.1,0-.2,0-.4,0-.6h0c0,.5,0,1,0,1.4h0c0,.2,0,.3,0,.6-.7.3-2,.3-3,.3h-1.1c-.5-.2-.6-.9-1.3-1v-.2h-.2v-.2c-.6-.2-1.3-1.2-1.7-1.6-1-1-2.1-2-3.1-3-.4-.5-.9-.9-1.3-1.4-.6-.3-1.6-.2-2.4-.2h-5.4c0-.2-.2-.4-.2-.6-.9.2-1.8.3-2.7,0h0c-.2,0-.2,0-.4,0h0c-.2-.2-.4-.3-.7-.4,0-.2,0-.3,0-.6.4-.2.4-.8.7-1,.5.6,1.8,1,2.7.7h0q-.2-.2-.2-.5c-.3,0-.7.4-1,.2h0v-.6c-.8,0-1.6,0-2.4,0v.3h0q0,.2-.2.4h0c0,0,0,.2,0,.3,0,0-.2,0-.2,0v.2c0,0-.2,0-.2,0,0,.2-.2.2-.3.4h-.2c0,0-.2.2-.2.3-.2,0-.2,0-.4,0h0c-.2.2-.4.2-.6.3h0c-.2,0-.2,0-.4,0-1.4.5-2.4,0-3.4-.4-.2,0-.2,0-.4,0,0,0-.2-.2-.2-.3h-.2c-.2-.2-.2-.3-.4-.6,0,0-.2,0-.2,0v-.2c0,0-.2-.2-.3-.2v-.2h0c-.2-.2,0-.2-.2-.4-.2.4-.6.2-1,.4h0c0,0-.2,0-.3,0h0c-.2,0-.2,0-.4,0h0c-.2,0-.2,0-.4,0h0c-.2,0-.3,0-.6,0h0c-.2,0-.3,0-.6,0h0c-.3,0-.7,0-1,0h0c-.5,0-1,0-1.4,0-.2,0-.6.2-1,0h0c-1.7,0-3.4,0-5.1,0,0-.6,0-1.3.2-1.9,0,0,.2,0,.3,0h0c.2,0,.5,0,.7,0h0c.2,0,.2-.2.4-.2,0-.3.3-.5.4-.7v-.3h0c.2.2.2,0,.2,0,0,0,.2,0,.2,0v-.2c0,0,.2,0,.2,0,0-.2.2-.4.3-.6.2,0,.4-.2.6-.2h0c.2,0,.2,0,.4,0h0c.5,0,1,0,1.4,0h0c0,0,.2,0,.2,0h0c0,0,.2,0,.3,0,0,0,0-.2,0-.2,0,0,.2,0,.3,0h0c.2,0,.2-.2.4-.2h0c0,0,.2,0,.2,0h0c0,0,.2,0,.2,0h0c0,0,.2,0,.2,0h0c0,0,.2,0,.2,0h0c0,0,.2,0,.2,0,0,0,.2-.2.2-.3h.2c0,0,.2,0,.3,0h0c0,0,.2,0,.3,0h0c.2-.2.4-.2.6-.3,0-.3.2-.7.3-1h.6c.2-.2.6-.6,1-.7.2-.9.2-1.8.4-2.6h3.9c.2,0,.4.2.6.2h0c0,0,.2,0,.2,0,0,0,0,.2,0,.2h0c.4-.3.6-.6,1.1-.6,0-.2,0-.3,0-.6h0c.2-.4,0-.9,0-1.1,0,0,.2,0,.3,0h0c.5,0,1,0,1.4,0h0c.6.2,1.5,0,2,.2,2.5,0,5,0,7.4,0h18.5c.6.2,2.5,0,3,0h6.2c.2,0,.3,0,.6,0,.2.2.3.5.6.7,0,0,.2,0,.2,0v.2c0,0,.2.2.3.2v.2h0c0,.2.2.4.2.6h0c0,.2,0,.3,0,.6h0v.3c0,.2.2.5.3.7h0c0,0,0,.2-.2,0h0c-.2-.3-.5-.9-.6-1.2h0c-.2-.2-.2,0-.3.2h0ZM16.3,13.2v-.2c-.3,0-.2-.2-.6-.2-.2-.2-.8,0-1.1,0,0,0,0,.2,0,.3-.2.2-.2.6-.2.9h0c.3-.6.8-.7,1.8-.7s0,0,.2,0ZM15.7,21.5v.2c.4,0,.6.2.9.3.6.2,1.7-.2,2-.3h0c.2-.2.2-.3.4-.4h0c-1,0-1.9,0-3,0h0c-.2,0-.6,0-.9,0h0c.2.2,0,0,0,.2q.2,0,.5.2Z"/>
  <path class="cls-2" d="M33,25H8.5l3.9-2.3q-.6-.9-1-2.1h0C4.8,24.5,0,27.4,0,27.4h35.3c-.2-.2-1.2-1.2-1.3-1.2,0,0-1-1-1-1.1ZM50.2,27.4h11.4L46.5,0l-19.1,11.2c.4.3,1.2,1.5,1.3,2.1,8.8-5,17-9.8,17-9.8l11.8,21.6h-2c-1.4.4-3.7,1.1-5.4,2.3ZM28.7,13.3h0Z"/>
  <path class="cls-2" d="M23.8,11v.2c.2,0,.2,0,.4,0v-.2h.2c-.2-.2-.5,0-.7-.4h.2c.2,0,.5,0,.9,0,.5.2,1.3.6,1.4,1h0c0,0,0,.2,0,.3h0c0,0,.2,0,.3,0,.2,0,0,0,0,0,0,.2.2.2.3.4h0v.2c0,0,.2,0,.2,0,.5.8.8,2.6.4,3.7-.6-.2-1.1-.5-2-.6,0-.3,0-.6,0-1h0v-.6h0c0-.2,0-.3,0-.6h0c0,0,0-.2,0-.3.4,0,.6.2,1.1.2h0c-.2-.2-.3-.2-.6-.2h0c0,0,0,0,0,0h0c-.2,0-.2,0-.2,0h-.6c0-.2-.2-.2-.3-.4h-.2c0,0,0-.2,0-.2h-.3c0,0-.2,0-.3,0h0c-.5-.2-1.2,0-1.6,0h0c-.2,0-.3,0-.6,0h0c0,0,.2,0,.2,0h0c0,0,0,0,0,0-.2.2-.5.3-.6.6v.2c0,0-.2,0-.2,0v.2h0v.2h0v.3h0c-.2.8.3,2.2.6,2.6,0,0,.2,0,.2,0,0,.2,0,.4,0,.6h0v.2h0c0,.2,0,.5,0,.6h0c0,.2,0,0-.2.2h.2c0,.8,0,1.4-.3,1.9v.3h0c0,.2-.2.4-.2.6-.9,0-1.6-.4-2.3-.6h0c.4-.3.7-1.2.9-1.7,0-.2,0-.5,0-.7.4,0,1.3.5,1.6.2-.4,0-1.4-.2-1.6-.4h0v-.4c0,0-.2,0-.2,0,0-.2,0-.2,0-.4q.2,0,.4,0c.2.2.6.4.9.2-.5,0-.7-.2-1.1-.3h0c0,0-.2,0-.3,0h0c0,0,0,0,0,0,0-.2,0-.4,0-.6,0,0,.6.2.7,0h0c0,0-.2,0-.2,0,0-.2,0-.2,0-.4h.2c-.2-.2-.2-.2-.6-.2h0c0,0,.2,0,.2,0,0,.2,0,.2,0,.4h-.3c0-.3,0-.2-.3-.3,0-.5,0-1,0-1.4h0v-.6c.2-.6.6-1.7,1-2h0c0,0,.2,0,.3,0h0c0,0,.2,0,.2,0,0-.3,0,0,0-.4,0,0,.3.2.6,0h0q-.3,0-.4-.3c.2,0,0,0,0,0,0,0,.2,0,.3,0v-.3c0,0,.2,0,.3,0h0c0,0,.2,0,.2,0h0c.2,0,.4-.2.6-.2h0c.2,0,.4,0,.6,0,0,0,0-.2.3,0h0c0-.2.4,0,.7,0ZM13,11.2h1.7c0,0,0,0,0,0h0c.7,0,1.4,0,2.2,0h0c.2.2.5.2.7.3,0,.2.3.4.4.6,0,1.4-.3,1.8-1.1,2.2.2.2.2,0,.4.2.2.2.3.4.6.6,0,.2,0,.2,0,.4h0c0,.2.2.2.2.2,0,.2,0,.3,0,.6,0,0-.2,0-.2,0,.3.2,0,.5-.2.6h0c-.2,0-.3,0-.6,0,0,0,0-.2,0-.3h-.2v.3c-.2,0-.2,0-.4,0v-.3h0c0,0,0,0,0,0h0c-.2,0-.3,0-.6,0,0,0,0-.2,0-.2h0v.2c.3,0,.6.2,1,.2v.2c-.3,0-.6.2-.7.3,0,0,0,.2,0,.2h-.2c-1.1,0-2.2,0-3.3,0,0-.2,0,0,0,0h0c0,0,0,0,0,0v-.6h0v-.6c.2-.6.3-1,.3-1.7h.2c-.2-.6.2-1.7.2-2.6h.3c0,0-.2,0-.2,0,0-.4,0-.6,0-1ZM21.4,11.2c0,0,.2.2.3,0h0c0,0-.2,0-.3,0ZM23.4,11.4c0,.3-.2.2,0,.3,0,0,0-.2,0-.3-.2,0-.2,0-.4,0h0c0,0,.2,0,.2,0ZM23,11.5h-.2c0,0,0,0,0,0h0c0,0,0,0,0,0,0,0,0,0,0-.2ZM16.3,11.7v.3h0c.2,0,.4,0,.6,0h0c-.2-.2-.5-.2-.7-.3ZM24.3,12h-.2c0,.2,0,0,0,0h0c.2,0,0,0,.2,0ZM14.1,12.5v-.2h-.4c0,0,0,0,0,0h0c.2.2.2.2.3.2ZM14.3,12.4c.2.2,0,0,.2,0-.2,0,0,0-.2,0ZM23.7,12.5q.2.2.4.2t-.4-.2ZM19.6,13h.2c0,0,.2,0,.3,0,0,0,0-.2,0-.2-.2,0,0,0,0,0-.2,0-.2.2-.4,0h0c-.2.2-.2,0-.2.3ZM21,12.6h-.2c0,.2,0,0,0,0h0c0,0,0,0,0,0q0,0,0-.2ZM14.4,12.7c0,.3-.2.9,0,1s.8,0,1.1,0h0c.2,0,.4-.2.6-.2,0,0,0-.2,0-.3h0v-.4h.2c0,0-.2,0-.3,0,0,0,0-.2,0-.2-.6,0-1.1,0-1.7,0ZM20.6,13.1c.2.2,0,0,.2,0-.2,0,0,0-.2,0ZM26.2,13.4v.2h0v-.2h0ZM15,14h-.2c0,.2,0,0,0,0h0c0,0,0,0,0,0,0,0,0,0,0-.2ZM23,14.6c-.2,0-.4.3-.5.4v1c0,.2.7.6,1.1.4h0c0,0,.2,0,.2,0h0c0-.2.2-.2.3-.3,0-.6,0-1.1-.6-1.3h0c-.2,0-.4,0-.6,0ZM14,15c0,.3,0,.6,0,1,0,0-.2,0-.2,0h0c0,0,0,0,0,0h0c.2,0,.4,0,.6,0v.3h0v-.3h1c0,0,.2,0,.2,0h0c0,0,.2,0,.2,0v-.2h.2c0-.4,0-.2,0-.7-.2,0-.3,0-.6,0,0,0,0-.2,0-.2,0,0-1.3.2-1.5.2ZM16.8,15.4c.2,0,.2,0,.4,0,0-.2-.2-.2-.4-.3v.2ZM19.7,15.4h-.2c0,.2,0,0,0,0h0c0,0,0,0,0,0,0,0,0,0,0-.2ZM17.4,15.4c.2.2,0,0,.2,0-.2,0,0,0-.2,0ZM13.3,15.6q0,.2.3.2c0-.2,0,0,0,0h0c-.2-.2-.3-.2-.4-.2ZM20,15.7c.2.2,0,0,.2,0-.2,0,0,0-.2,0ZM13.3,16h0c0,0,0,0,0,0-.2,0,.2,0,.2,0,0,.2,0,0,0,0l-.2-.2ZM20.3,16.4c.2.2,0,0,.2,0-.2,0,0,0-.2,0ZM16.1,16.6c.2.2,0,0,.2,0-.2-.2,0,0-.2,0ZM26.7,18.9h-.3v-.2c-.6-.2-1.2-.2-1.9,0-.2.2-.2.2-.2.6,0,0,.2,0,.3,0h0c0,0,.2,0,.2,0h0c.2,0,.2,0,.4,0,.6.2,1.6.5,1.9,1,.2,0,0,0,0,0h-.3c.6,0,.6.2.6.7h0c0,0-.2,1.2-.3,1.3s-.2.2-.3.2v.2h0c0,0-.2.2-.2.3-.6.4-1.9.8-2.7.6h-.6c0,0-.2,0-.2,0h0c-.4-.2-.6,0-.9-.3s0,0,0-.2h-.2c0,0,0-.2,0-.2h0c0,0,0,.2-.2,0h0c0,0,0,0,0,0v-.3q.2,0,.2-.2h.4v.2c.2,0,.4,0,.6,0h0c-.4-.2-.4-.2-.9-.3,0-.2.2-.4.2-.6.3.2.7.4,1,.6.2,0,.6,0,.9,0h0c.8.3,1.4-.2,1.4-.8l-.2-.2h-.3c-.8-.3-2-.4-2.4-1.2h0c0-.2,0-.4,0-.6.2,0,.5,0,.7,0h0c-.2,0-.5-.2-.7-.2,0-.7.2-.9.3-1.4h.4c0,0,0,0,0,0,0,0,0-.2,0-.2h.6c0,0,.2,0,.3,0h0c0,0,.2,0,.2,0,0,0,0-.2,0-.2h.2c.2-.2.3-.4.6-.6h1c.2,0,.5.2.7.2h0c0,0,.2,0,.2,0s0,.2.2.2c0,0,0,.2,0,.3h0v.2h0v.2h0c-.2.4-.4.5-.5.8ZM47,18.8c0,.2,0,.3,0,.6.2.2.6.2.9.4h.4c.6.2,1.6.5,1.8,1.2,0,0,.3.6.2.9h0v.6h0c0,.2,0,.2,0,.4h0v.2c0,0-.2,0-.2,0-.2.2-.2.3-.4.6h-.2c-.2,0-.2.2-.4.2h0c-.3.2-1.6.5-2.1.3h0c-.2,0-.4,0-.6,0h0c0,0-.2,0-.3,0h0c0,0-.2,0-.3,0h0c0,0-.2,0-.2,0h0c0,0-.2,0-.2,0h0c-.2-.2-.2-.3-.6-.4v-.3c.4-.2.6-.7,1-.9v-.2c0,0,.2,0,.3,0h0c0,0,.2,0,.2,0,0,0,0,.2,0,.2.2,0,.2,0,.4,0h0c.5.3,1.3.2,1.8,0,0-.2,0-.3,0-.6,0,0-.2,0-.3,0h0c0,0-.2,0-.2,0h0c-.2,0-.2,0-.4,0-.6-.2-1.8-.5-2-1.2-.2-.2-.2-.6-.2-1,0,0,.2,0,.3,0h0c-.2-.2-.2-.2-.2-.6h0v-.3c0,0,.2,0,.2,0v-.2c.2-.2.3-.2.6-.4h0c0,0,.2,0,.2,0h0c.2-.2.4-.2.6-.3h0c.2-.2,1.8-.3,2.2-.2h0c.2,0,.2,0,.4,0h0c.2.2.4.2.6.3h0c0,0,.2,0,.2,0h0c0,.2.2.2.3.3,0,.2,0,0,0,0-.3.4-.6.8-1,1.2-.2,0-.9-.5-1-.6h-.4c-.6-.3-.6-.2-1.1,0ZM29,17.2h1.8c0,.3,0,.7,0,1h-.2c.2.5,0,1.5-.2,2v.6h0c0,0-.2,0-.3,0h0c-.2,0-.4-.2-.6-.2h0c.2.2,0,0,0,.3-.2,0-.3,0-.6,0h0c.4,0,.4.2.7.3h0c0,0,0,0,0,0h0c.2,0,.2,0,.4,0,0,.8-.2,1.5-.3,2.3,0,0-.2,0-.3,0-.2.2-1.1,0-1.6,0,0-.3,0-.7,0-1,0,0,.2,0,.2,0,0-.2-.2-.2,0-.4h0v-.2h0c0-.2,0-.2,0-.3h0c0,0,0,0,0,0v-.6h0c0-.2.2-.2.2-.4h.2c-.2-.2-.3-.3-.3-.7.3-1,.5-1.9.7-2.8ZM37.4,18.3h-.2q.3,0,.4.3c.5.5.2,1.4.2,2.2h-.6c.2,0,.2.2.4.2,0,.2-.2.4-.2.6,0,0-.2,0-.2,0,0,0,0,.2,0,.3-.2,0-.3,0-.6,0h0c0,0,.2,0,.3,0v.3c-.3.2-.3.3-.9.3-.2-.2,0,0-.2,0v-.2c-.2,0-.4,0-.6,0,.2.2,0,0,.2,0v.2h-.6c.4,0,.7.2,1,.3-.2.2,0,0-.2,0-.2.2-.6.3-1,.2-.9-.2-1.7-.5-2.6-.7v-.2h-.3c-.2,0-.3,0-.6.2h0c.2,0,.2,0,.4,0h0c.2,0,.2,0,.4,0,0,.2,0,.3,0,.6,0,0,.2,0,.3,0v-.4h.2c0,0,0,.2,0,.2h.4c.2,0,.4,0,.6,0,0,0,0,.2,0,.3h.3v-.2c.2,0,.4.2.6.2h0c-1,.2-3,.6-4.1.2.2-.4.2-.8.2-1.3h.3v-.2h-.2c0-.2,0-.4,0-.6h0c.2.2.2,0,.6.2h0c0,0,.2,0,.3,0h0c.2,0,.4.2.6.2h0c.2,0,.5,0,.7,0s.7.2.9.2h0c0,0-.2,0-.2,0,0-.2,0,0,0,0h0c.2-.2.2,0,.3,0h0c0,0,0-.2,0-.3,0,0,.2,0,.3,0,.2-.2.6-.8.6-1.2h.3c0,0-.2-.2-.3-.2h0c0,0,0,0,0,0,0-.2,0-.5,0-.7h0v-.2h0c0,0,0-.2,0-.3-.6-.2-1-.3-1.9-.3,0,.2,0,0,0,0,0,.3-.2.7-.2,1-.6,0-1.1-.3-1.7-.4,0-.9.3-1.3.3-2.2.7-.4,2.4-.2,3.4-.2h0c.2,0,.3,0,.6,0h0c0,0,.2,0,.2,0h0c0,0,.2,0,.3,0h0c.7.5,1,.6,1.2,1ZM44.2,18.8c-.6,0-1.5,0-2,0-.2,0-.3,0-.3,0h-1.3c0,.3,0,.7,0,1h-.2c0,0,.2,0,.3,0h0c.2-.2.4,0,.6,0h0c.2,0,.5,0,.7,0h0c0,0,0,0,0,0h0c.6,0,1.1,0,1.7,0,0,.5-.2,1-.2,1.4h-3.1c0,0,0,.2,0,.3h0v.9h1.4c.2,0,.2.2.4.2v-.2h1.6c0,.6-.2,1-.2,1.6h-2.3c-.2,0-.2,0-.4,0h0c0,0,0,0,0,0-.2,0,0,0,0,0-.4-.2-1-.4-1.4-.4h0c.4,0,.6.3,1,.4h.4c-.8,0-1.5,0-2.3,0v-.6h.2c0,0-.2-.4,0-.6h0c0,0,.2,0,.3,0,.2.2,0,0,.2,0,0,0,0,.2,0,.2h0v.2c0,0,0,0,0,0,.2,0,.4.2.6.2v-.3h0c0,0,1.5.6,1.8.4h0c-.4,0-.8-.3-1.1-.4h-.4c0,0-.2,0-.2,0h0c-.2,0-.3,0-.6,0h0c-.2,0-.5-.2-.7-.2h0c0,0,0,0,0,0v-.3h0v-.6h0v-.2h0c0-.2,0-.2,0-.2,0-.2,0-.2,0-.2v-.6h0c0-.2,0-.4,0-.6h.2c-.2-.2,0,0-.2,0,0-.3.3-2.1.4-2.2.2-.2,1,0,1.4,0h3.9c0,0-.2,1.2-.2,1.5ZM26.4,17.6q.2.2.4.2h0c-.2-.2,0,0,0-.2s-.2,0-.3,0ZM34,17.8h.2c-.2-.2,0,0,0-.2h0c0,0,0,0,0,.2ZM36.2,18.3h.2v-.2h.2v.2h.3c-.2-.2,0,0,0-.3-.2,0-.5,0-.7,0h0c.2.2,0,0,0,.4ZM40.4,18.2v-.2c-.4,0-.8-.2-1,0,.3,0,.6.2,1,.2ZM34.6,18.2c.2.2,0,0,.2,0,0-.2,0,0-.2,0ZM26.5,18.2h-.2c0,.2,0,0,0,0h0c0,0,0,0,0,0,0,0,0,0,0-.2ZM35.2,18.2v.2h.2v-.2h-.2ZM29,18.6v.2h.3c0,0,0,0,0,0,.2-.2.2,0,.3,0h0c-.2-.2-.4-.2-.6,0ZM14.6,18.6c0,.2,0,.9,0,1h0v.6h0v.2h0c.2.5.2.9.9,1v.2c.6,0,1.3.6,2.1.3h0c0,0,.2,0,.3,0h0c0,0,.2,0,.2,0h0c0,0,.2,0,.2,0,0,0,0-.2,0-.2.2,0,.3,0,.4,0h0c0,0,0,0,0,0h0c0,0,.2,0,.3,0h0c.2,0,.2,0,.4,0,0,0,0,.2,0,.2,0,0,.2,0,.2,0,.3,0,.3.2.9.2,0,.5-.9,1.4-1.4,1.4v.2c0,0-.2,0-.3,0h0c0,0-.2,0-.3,0h0c0,0-.2,0-.2,0h0c-.2,0-.2,0-.4,0h0c-.2,0-.2,0-.4,0h0c-.4.2-2,0-2.3-.2h0c-.2,0-.2-.2-.4-.2h0c0,0-.2,0-.3,0,0,0,0-.2,0-.2h-.2c0,0,0-.2,0-.2h-.2c0,0,0-.2,0-.2-.2-.2-.4-.3-.6-.6v-.2c0,0-.2-.2-.3-.2,0-.2,0-.2,0-.4-.5-1-.6-1.5-.6-3,.2,0,.2,0,.6,0h0c.2,0,0,0,0,0,.5,0,1,0,1.5,0ZM16.7,18.6c0,.2-.2.3-.2.4h0v.9h0c.2.8,1,.5,1.4.2,0-.2,0,0,0-.2,0-1,0-.7-.4-1.3-.3,0-.6,0-.9,0ZM23.8,18.6c0,0,.2.2.3,0h0c0,0-.2,0-.3,0ZM39.7,18.9h.2c-.2-.2,0,0,0-.2h0c0,0,0,0,0,.2ZM21.4,19.3c.2.2,0,0,.2,0-.2,0,0,0-.2,0ZM40.2,19.4h-.2c0,.2,0,0,0,0h0c0,0,0,0,0,0,0,0,0-.2,0-.2ZM31.5,19.6c0,.8-.2.8-.2,1.7h.2c0,0-.2,0-.3,0v.2l.7.2v-.2h-.2v-.2l1,.2c-.2.2,0,.2-.3.2h0c.2,0,.4.2.6.2,0-.6.2-1.4.3-2-.6-.2-1.2-.2-1.8-.4ZM36.5,19.6c.2.2,0,0,.2,0-.2,0,0,0-.2,0ZM23.4,19.7c.2.2,0,0,.2,0-.2,0,0,0-.2,0ZM24,19.8q.2.2.4.3c0-.2,0,0,0,0h0c-.2-.2-.3-.2-.5-.2ZM13.9,20c.2.2,0,0,.2,0-.2,0,0,0-.2,0ZM24.6,20h0c.2,0,.2,0,.4,0h0c-.2,0-.3,0-.4,0ZM25.7,20c0,0,0,.2,0,.3h0c.2-.2,0,0,.2,0v.4h0v-.3h0c.2,0,.4.2.6.2h0c-.3,0-.6-.2-.4-.4-.2,0-.5,0-.6,0ZM25.1,20.2c0,0,.2.2.3,0h0c0,0-.2,0-.3,0ZM42.2,20.2c0,0,.2.2.3,0h0c0,0-.2,0-.3,0ZM14.4,20.6c.2.2,0,0,.2,0-.2,0,0,0-.2,0ZM43.2,20.6c.2.2,0,0,.2,0-.2,0,0,0-.2,0ZM46.2,20.6h0c0,0-.4,0-.2.2h0c0,0,0,.2.2,0h0c0,0,.2,0,.2,0h0c0,0-.2,0-.3-.2ZM36.2,20.6c.2.2,0,0,.2,0,0,0,0,0-.2,0ZM36.9,20.8c.2.2,0,0,.2,0-.2-.2,0,0-.2,0ZM27,21.1c0,0,.2.2.3,0h0c0,0-.2,0-.3,0ZM21,21.3c-.2,0-.2,0-.4,0h0c-.2,0-.2-.2-.4-.2h0c0,0,0,0,0,0,.2.2.6.2.7.3v-.3ZM26.3,21.2h-.3c0,0,.2,0,.2,0h0c0,.3,0,0,0,0ZM38.6,21.2c0,0,.2.2.3,0h0c0,0-.2,0-.3,0ZM39.1,21.3c.2.2,0,0,.2,0-.2,0,0,0-.2,0ZM36.6,21.4c.2.2,0,0,.2,0,0-.2,0,0-.2,0ZM39.5,21.4c0,0,.2.2.3,0h0c0,0-.2,0-.3,0ZM14.2,21.5c0,0,.2.2.3.2-.2-.2,0-.2-.3-.2ZM48.4,21.5c.2.2,0,0,.2,0-.2,0,0,0-.2,0ZM26.5,21.6c.2.2,0,0,.2,0-.2,0,0,0-.2,0ZM13.7,21.8c.2.2,0,0,.2,0-.2-.2,0,0-.2,0ZM28.3,21.8c0,0,.8.3,1,.2h0c-.3-.2-.6-.2-1-.2ZM15.4,21.8q.2.2.4.2c0-.2-.2-.2-.4-.2ZM19.6,22.2c.2,0,.3,0,.6,0h0c-.2-.2,0,0,0-.2-.2,0-.2,0-.4,0s0,0,0,.2ZM32,22.2h-.3c0,0,.2,0,.2,0,0,.2,0,0,0,0v-.2ZM15.4,22.7v-.2q-.3,0-.7,0h0c.2.2,0,0,0,.2,0,0,.2,0,.3,0,.2,0,0,0,0,0h0q.2.2.2.2ZM15.6,22.5v.2h.3c-.2-.2-.2-.2-.3-.2ZM34.6,22.5h0c.2,0,.2,0,.4,0h0c0,0-.2,0-.4,0ZM23,22.6c0,0,.2.2.3,0h0c0,0-.2,0-.3,0ZM23.4,22.7c0,0,.2.2.2.3.2,0,0,0,0,0,.2,0,.3,0,.3,0h0c0,0,.2,0,.2,0-.3-.5-.2-.2-.6-.2h0c0,0-.2,0-.3,0ZM42.2,22.7c.2.2,0,0,.2,0,0-.2,0,0-.2,0ZM42.6,22.7q0,.2.3.2h0c0-.2-.2-.2-.3-.2ZM29.5,22.8h-.2c0,.2,0,0,0,0h0c0,0,0,0,0,0,0,0,0,0,0-.2ZM44.8,22.8h-.2c0,.2,0,0,0,0h0c0,0,0,0,0,0,0,0,0,0,0-.2ZM35.8,22.9q0,0,0,0h.3c0,0,0,0,0,0h0c0,0,0,0,0,0h0c-.2,0-.4,0-.6,0ZM22.8,23.1h0c0,0-.4,0-.2.2h0c.2.2.2.2.6.2h0c-.2-.2-.3-.2,0-.4h-.3ZM24.6,23.1c0,0,0,.2,0,.2,0,0,.3-.2.2-.2h-.2ZM28,23.1v.2h0v-.2h0ZM28.4,23.2c0,0,.2.3.4.2h0c0,0,.2,0,.2,0h0c-.2-.2-.4-.2-.6-.2ZM34.9,23.2c.2.2,0,0,.2,0-.2,0,0,0-.2,0ZM45,23.2c.2.2,0,0,.2,0,0,0,0,0-.2,0ZM16.1,23.4h0c.8.2,1.5.4,2.3.6h0c-.2-.2,0,0,0-.2-.2,0-.5,0-.7,0h0c0,0-.2,0-.2,0-.4-.2-.7-.4-1.3-.4ZM38.6,23.4h-.2c0,.2,0,0,0,0h0c0,0,0,0,0,0,0,0,0-.2,0-.2ZM46.9,23.4c0,0,.6.3.9.2h0c-.3-.2-.6-.2-.9-.2ZM15.7,23.4c0,0,.2.2.3,0h0c0,0-.2,0-.3,0ZM28.8,23.8v-.2c-.4,0-.3,0-.6,0,.2.2,0,0,.2,0h0c.2.2.2.2.4.2ZM31.8,23.5q.2.2.4.3c0,0-.2-.2-.4-.3ZM24.4,23.7c.2.2,0,0,.2,0-.2-.2,0,0-.2,0ZM42.9,23.7c.2.2,0,0,.2,0-.2-.2,0,0-.2,0Z"/>
  <path class="cls-2" d="M34.6,11.3h1.9c.4,0,.8,0,1,.2s.5.3.6.6c0,.2,0,.6,0,1,0,.2-.2.5-.3.6s-.4.4-.6.5l.6,1.7h-1.4l-.5-1.5h-.6l-.3,1.5h-1.4s1-4.6,1-4.6ZM36.1,13.4c.2,0,.3,0,.5,0,0,0,.2-.2.2-.2,0-.2,0-.3,0-.5,0,0-.2-.2-.5-.2h-.5l-.2,1s.6,0,.6,0Z"/>
  <path class="cls-2" d="M39.2,11.3h1.8c.6,0,1,0,1.3.3s.6.6.7,1,.2.9,0,1.4c0,.4-.2.7-.5,1s-.6.6-1,.7c-.4.2-.8.2-1.3.2h-2.1s1-4.6,1-4.6ZM40.4,14.6c.2,0,.5,0,.7-.2.2-.2.3-.4.4-.7,0-.2,0-.4,0-.6,0-.2,0-.3-.2-.4s-.3-.2-.5-.2h-.4l-.5,2.2h.5Z"/>
  <path class="cls-2" d="M47.7,14.2c-.2,1.2-1,1.8-2.2,1.8s-.7,0-1-.2c-.2,0-.5-.2-.6-.5-.2-.2-.2-.5-.2-.7s0-.6,0-.9l.6-2.5h1.5l-.6,2.7c0,.2,0,.2,0,.4,0,.2,0,.2,0,.3,0,0,.2.2.4.2s.3,0,.5-.2c0-.2.2-.3.2-.6l.6-2.7h1.5s-.8,2.7-.8,2.7Z"/>
</svg>