<?xml version="1.0" encoding="UTF-8"?>
<svg id="Layer_1" data-name="Layer 1" xmlns="http://www.w3.org/2000/svg" version="1.1" viewBox="0 0 145 75">
  <defs>
    <style>
      .cls-1 {
        fill: #000;
      }

      .cls-1, .cls-2 {
        stroke-width: 0px;
      }

      .cls-2 {
        fill: red;
      }
    </style>
  </defs>
  <path class="cls-1" d="M140.2,29.9c-1.4-.3-2-1.4-3.2-2v.5c.6.4.1.3.5.8h.2c.3.4.4.5.5,1.2-.7.3-1.3.7-2,1-1.3.4-2-.5-3,0-.2.2-.3.5-.5.8-.8.8-1.5,1-3.2,1-.6-.8-1.4-.8-1.7-2h-.2v1h.2v1.2c.2,0,.3.2.5.2,0,.5.2,1,.2,1.5h.2c.8-.7,1.4-.2,2.5-.5v-.2h2.2v-.2h2v-.2c1,0,2-.2,3-.2.6,1.7.3,4.8.2,6.9h.5c0-.3.2-.7.2-1h.2c.5-1.4-.3-2.8.5-4h.2c.7-.7,1.1-.3,1.5-1.5.9.2.8.5,1.2,1.2h.2c0,.3.2.7.2,1h.2v.8h.2c.5,1.7-.5,3.2-.8,4.4-.4.2-.8.2-1.5.2-.3-.3,0,0-.5-.2-.1.6-.4.8-.8,1.2h-.2v.5c-.2.2-.5.3-.8.5v.5c-.4.3-.8.7-1.2,1v.5c-.2.2-.5.3-.8.5v.2h-1.2c-.2.1,0,.3-.5.2v-.2h-.8v-.2c-.8,0-1.5-.2-2.2-.2v-.2h-.8v-.2h-1.7v-.2h-.5v-.2c-.5,0-1-.2-1.5-.2v-.2h-2.7v-.2c-1.1-.2-2.1-.5-3.2-.8v.2h.2c.6.6.9.4,1.7.8v.2h.5v.2c.3,0,.7.2,1,.2v.2h.8v.2c.5.2,1,.3,1.5.5,0,.2.2.5.2.8.2,0,.3.2.5.2.2.8.5,1.5.8,2.2-.5,0-1,.2-1.5.2v.2c-.3.3,0,0-.2.5h2.2v.8c-.2.2-.5.3-.8.5v.2h-.5c0,.2-.2.3-.2.5-.9.6-1.7.7-3.2.8-.8-.3-1.6-.7-2.5-1v.2h.2v.8h.2v.2c.3.1.4.4.5.5h.5v.2h.8v.2h.5v.2h.5c0,.2.2.3.2.5.5.1.3-.1.5-.2.3,0,.7-.2,1-.2,0-.2.2-.3.2-.5.3,0,.7-.2,1-.2,1-.5,1.2-1.1,2.7-1.2.3,1.5,1.3,1.9,1.5,3.5-1,.6-2.2,1.6-2.7,2.7h-.5c-.2-.4-.6-.7-1-1,0,1-.5,1.4-1.5,1.5,0-.3.2-.7.2-1h-.2c-.8.7-1.9.1-3,.5v.2h-.8v.2c-.3,0-.7.2-1,.2v.2h-.5v.2h-.8c0,.2-.2.3-.2.5h-.8v.2h-.5c0,.2-.2.3-.2.5h-.8c0,.2-.2.3-.2.5-.5.2-1,.3-1.5.5v.2c-.2,0-.5.2-.8.2,0,.2-.2.3-.2.5-.3,0-.7.2-1,.2v.2c-.2,0-.5.2-.8.2,0,.2-.2.3-.2.5h-.5c0,.2-.2.3-.2.5h-.5c-.2.2-.3.5-.5.8h-.5c-.4.5-.8,1-1.2,1.5-.2,0-.3.2-.5.2v.5c-.2.2-.5.3-.8.5-.7,1-.8,2.3-2.2,2.7,0-.5-.2-1-.2-1.5h-.2c0,1.2.2,2.3.2,3.5h-.2c0,.4-.2.8-.2,1.2-1.7.8-4.8.8-7.2.8h-2.7c-1.2-.4-1.6-2.1-3-2.5v-.5h-.5v-.5c-1.3-.3-3-2.8-4-3.7-2.5-2.4-4.9-4.8-7.4-7.2-1-1.1-2-2.1-3-3.2-1.2-.7-3.8-.5-5.7-.5h-12.8c-.2-.5-.3-1-.5-1.5-2.1.4-4.3.7-6.4,0v-.2h-1v-.2c-.7-.3-1-.6-1.7-.8,0-.4-.2-.8-.2-1.2.9-.6.9-1.8,1.7-2.5,1.2,1.4,4.2,2.2,6.4,1.7v-.2c-.3-.3-.4-.5-.5-1-.8.2-1.6.9-2.2.5h-.2v-1.5c-1.9,0-3.8-.2-5.7-.2v.8h-.2c-.1.6-.2.6-.5,1h-.2c0,.2-.2.5-.2.8-.2,0-.3.2-.5.2v.5c-.2,0-.3.2-.5.2-.2.3-.5.7-.8,1h-.5c-.2.2-.3.5-.5.8-.3,0-.7.2-1,.2v.2c-.5.2-1,.3-1.5.5v.2h-1c-3.2,1-5.6.3-7.9-1-.3,0-.7-.2-1-.2-.2-.2-.3-.5-.5-.8h-.5c-.3-.4-.7-.8-1-1.2-.2,0-.3-.2-.5-.2v-.5c-.2-.2-.5-.3-.8-.5v-.5h-.2c-.3-.5,0-.6-.5-1-.6.8-1.5.6-2.5,1v.2h-.8v.2h-1v.2h-1v.2h-1.2v.2h-1.2v.2h-2.5v.2h-3.5c-.4,0-1.5.5-2.2.2v-.2H2.3c0-1.6.2-3.1.5-4.4.2,0,.5-.2.8-.2v-.2c.6,0,1.2.2,1.7.2v-.2c.3,0,.7-.2,1-.2.2-.8.7-1.1,1-1.7v-.8h.2v-.5c.2,0,.3-.2.5-.2v-.5c.2,0,.3-.2.5-.2.3-.4.7-.8,1-1.2.5-.2,1-.3,1.5-.5v-.2h1v-.2h3.5v-.2h.5v-.2h.8c0-.2.2-.3.2-.5.2,0,.5-.2.8-.2v-.2c.3,0,.7-.2,1-.2v-.2h.5v-.2h.5v-.2h.5v-.2h.5v-.2h.5c.2-.2.3-.5.5-.8h.5v-.2h.8v-.2h.8v-.2c.5-.2,1-.3,1.5-.5.2-.8.5-1.6.8-2.5h1.5c.4-.6,1.4-1.5,2.2-1.7.3-2.1.7-4.1,1-6.2h9.1v.2c.5,0,1,.2,1.5.2v.2h.5c0,.2.2.3.2.5h.2v-.2c.9-.5,1.2-1.2,2.7-1.2,0-.4.2-.8.2-1.2h.2c.3-.9,0-2.1.2-2.7.2,0,.5-.2.8-.2v-.2h3.5v.2c1.4.4,3.5,0,4.7.2,5.8,0,11.7.2,17.6.2h43.5v.2c1.4.4,5.8,0,6.9-.2h14.6v.2h1.2c.4.6.8,1.2,1.2,1.7.2,0,.3.2.5.2v.5c.2.2.5.3.8.5v.5h.2c.2.5.3,1,.5,1.5h.2c0,.4.2.8.2,1.2h.2v.8c.2.5.5,1.2.8,1.7h-.2c-.1,0,0,.4-.5.2v-.2c-.6-.5-1.1-2-1.5-2.7h-.2c0,.5-.2.9-.2,1.3h0ZM38.4,30.9v-.5c-.7-.3-.4-.4-1.5-.5-.5-.4-1.9-.3-2.7-.2,0,.2-.2.5-.2.8-.3.3-.5,1.4-.5,2h.2c.8-1.4,2-1.8,4.2-1.7.3.2,0,0,.5.2ZM36.9,50.4v.5c.9.1,1.3.5,2,.8,1.4.4,4-.3,4.7-.8v-.2c.3-.2.7-.5,1-.8v-.2h-6.9v-.2h-2v.2c.3.2,0,0,.2.2.4.3.4.4,1,.5h0Z"/>
  <path class="cls-2" d="M77.7,58.6H20l9.2-5.4c-1.5-2-1.5-2-2.4-4.8h0C11.3,57.4,0,64,0,64c28.6,0,54.4,0,83,0-.4-.4-2.9-2.9-2.9-2.9,0,0-2.2-2.4-2.4-2.6h0ZM118.2,64.1h26.8L109.4,0s-45,26.3-45,26.3c1,.8,2.8,3.6,3.1,4.9,20.6-11.9,40-23.1,40-23.1l27.8,50.6h-4.7c-3.3,1-8.7,2.7-12.5,5.4ZM67.5,31.2h0s0,0,0,0Z"/>
  <path class="cls-2" d="M56,25.8v.5c.3,0,.7.2,1,.2v-.5h.5c-.6-.6-1.1,0-1.7-1h.5c.3.2,1.1,0,2,.2,1,.4,2.9,1.3,3.5,2.2h.2c0,.2-.2.5-.2.8h.2v.2c.2,0,.5-.2.8-.2.3.1,0,.1.2.2.2.3.5.7.8,1h.2v.5c.2,0,.3.2.5.2,1.2,1.9,1.9,6.1,1,8.7-1.4-.6-2.6-1.2-4.7-1.2,0-.8.2-1.5.2-2.2h-.2v-1.2h-.2c0-.4-.2-.8-.2-1.2h-.2c0-.2-.2-.5-.2-.8,1,.2,1.5.5,2.7.5v-.2c-.4-.1-.7,0-1.2-.2v-.2h-.2v.2c-.6,0-.5-.2-.5-.2h-1.2c-.2-.3-.5-.7-.8-1h-.5c0-.2-.2-.3-.2-.5h-.8v-.2h-.8v-.2c-1.1-.4-2.9,0-3.7.2v.2c-.4,0-.8-.2-1.2-.2v.2h.5v.2h-.2c-.4.6-1.1.7-1.5,1.2v.5c-.2,0-.3.2-.5.2v.5h-.2v.5h-.2v.8h-.2c-.6,1.8.7,5.1,1.2,6,.2,0,.3.2.5.2,0,.5.2,1,.2,1.5h.2v.5h.2c.2.6-.3,1.2.2,1.5v.2c-.2.3-.2-.2-.5.2h.5c0,1.8-.3,3.2-.8,4.5v.8h-.2c-.2.5-.3,1-.5,1.5-2,0-3.7-.9-5.5-1.2v-.2c.8-.6,1.7-2.6,2-3.7,0-.6-.2-1.2-.2-1.7,1,.1,3.1,1,3.7.5-.9,0-3.3-.6-3.7-1h-.2v-1c-.2,0-.3-.2-.5-.2,0-.3-.2-.7-.2-1,.4-.1.4-.2,1-.2.4.5,1.4,1,2,.5-1.1,0-1.7-.4-2.7-.8v-.2c-.2,0-.5.2-.8.2v-.2h-.2c0-.5-.2-1-.2-1.5.3,0,1.3.5,1.7.2v-.2h-.5c0-.3.2-.7.2-1h.5c-.3-.4-.5-.4-1.2-.5v.2h.5c0,.3-.2.7-.2,1h-.8c-.2-.7,0-.6-.8-.8,0-1.1-.2-2.2-.2-3.2h.2v-1.5c.4-1.4,1.4-4,2.5-4.7v-.2c.2,0,.5.2.8.2v-.2h.5c-.2-.8-.2-.2,0-1,.2,0,.8.5,1.2.2v-.2c-.8,0-.7,0-1-.5.3-.2,0,0,.2-.2.2,0,.5.2.8.2v-.8c.2,0,.5-.2.8-.2v-.2h.5v-.2c.5,0,1-.2,1.5-.2v-.2h1.5s.2-.4.8-.2v.2c.7,0,1.5.2,2.2.4h0ZM30.5,26.3h4v.2h.2v-.2h5.2v.2c.6.2,1.2.3,1.7.5.2.4.7,1,1,1.2,0,3.1-.7,4.3-2.7,5.2.4.5.6.2,1,.5.4.5.8,1,1.2,1.5,0,.6,0,.6-.2,1h-.2c0,.4.5.5.5.5,0,.4-.2.8-.2,1.2-.2,0-.3-.2-.5-.2.7.6,0,1.2-.5,1.5v.2h-1.2c0-.2.2-.5.2-.8h-.5v.8c-.6,0-.6,0-1,.2v-.8h-.2v.2h-.5v-.2h-1.2c0-.2-.2-.3-.2-.5h-.2v.5c.8.2,1.5.3,2.2.5v.5c-.8,0-1.2.3-1.7.8,0,.2-.2.3-.2.5h-.5v.2h-7.7c-.2-.3,0,0-.2-.2v-.2h.2v-1.5h.2v-1.5c.4-1.3.7-2.3.8-4h.5c-.6-1.6.4-4,.5-6h.8v-.2h-.5c0-.6,0-1.2.2-1.8h0ZM50.5,26.3c.1,0,.3.5.8.2v-.2h-.8ZM55,26.8c0,.8-.5.5.2.8,0-.2.2-.5.2-.8-.3,0-.7-.2-1-.2v.2h.5ZM54,27.1h-.5v.2h.2v.2h.2v-.5h0ZM38.4,27.3v.8h.2v-.2c.5,0,1,.2,1.5.2v-.2c-.6-.2-1.1-.3-1.7-.5ZM57.2,28.1h-.5c.2.3,0,0,.2.2v.2c.3-.3,0,0,.2-.5h0ZM33.2,29.3v-.5h-1v.2h.2v.2c.2,0,.5,0,.8,0h0ZM33.7,29.1c.3.3,0,0,.5.2-.3-.3,0,0-.5-.2ZM55.7,29.3c.3.3.5.4,1,.5-.3-.4-.5-.4-1-.5ZM46.1,30.3h.5v.2c.2,0,.5-.2.8-.2,0-.2.2-.3.2-.5-.3-.2,0,0-.2-.2-.5.2-.5.3-1,0v.2c-.3.3,0,0-.2.5h0ZM49.5,29.6h-.5c.2.3,0,0,.2.2v.2h.2v-.5h0ZM33.9,29.8c-.1.8-.6,2.1-.2,2.5.5.4,1.9.3,2.7.2v-.2c.5,0,1-.2,1.5-.2,0-.2.2-.5.2-.8h.2v-1h.5v-.2c-.2,0-.5.2-.8.2,0-.2-.2-.3-.2-.5h-3.9ZM48.5,30.8c.3.3,0,0,.5.2-.3-.3,0,0-.5-.2ZM61.6,31.5v.5h.2v-.5h-.2ZM35.4,32.8h-.5c.2.3,0,0,.2.2v.2h.2v-.5h0ZM54,34h1.5v.2c1.6.4,1.4,1.5,1.2,3-.2.2-.5.3-.8.5v.2h-.5v.2c-1,.3-2.5-.6-2.7-1v-2.2c.4-.2,1-.7,1.2-1ZM32.9,35.3c0,.8-.2,1.5-.2,2.2-.2,0-.3.2-.5.2v.2h.2v.2h1.5v.8h.2v-.8h2.5v-.2h.5v-.2c.2,0,.3.2.5.2v-.5h.5c-.1-.9-.1-.7-.2-1.7-.4,0-.8-.2-1.2-.2,0-.2-.2-.3-.2-.5,0,0-2.8.3-3.4.3h0ZM39.6,36c.3,0,.7.2,1,.2-.2-.3-.6-.6-1-.8v.5ZM46.3,36h-.5c.2.3,0,0,.2.2v.2h.2v-.5h0ZM40.8,36.3c.3.3,0,0,.5.2-.3-.3,0,0-.5-.2ZM31.2,36.5c.3.4.1.3.8.5.2-.3,0,0,.2-.2v-.2c-.3,0-.7,0-1,0h0ZM47,36.8c.3.3,0,0,.5.2-.3-.3,0,0-.5-.2ZM31.2,37.5v.2h-.2c-.5.2.5.2.5.2.2.3,0,0,.2.2-.1-.6,0-.4-.5-.7h0ZM47.8,38.5c.3.3,0,0,.5.2-.3-.3,0,0-.5-.2ZM37.9,38.8c.3.3,0,0,.5.2-.3-.3,0,0-.5-.2ZM62.9,44.2h-.8v-.5c-1.6-.3-2.8-.6-4.5-.2-.3.7-.4.4-.5,1.5.2,0,.5.2.8.2v.2h.5v.2h1c1.4.5,3.8,1.1,4.5,2.2.3.2,0,0,.2.2h-.8v.2c1.2,0,1.3.2,1.2,1.5h.2c0,.2-.6,2.8-.8,3-.2.2-.5.3-.8.5v.5h-.2c-.2.2-.3.5-.5.8-1.3.9-4.5,1.9-6.4,1.2h-1.2v-.2h-.5v-.2c-.9-.3-1.4.1-2-.5-.3-.3,0,0-.2-.5h-.5c0-.2.2-.3.2-.5h-.2c-.1,0,0,.4-.5.2v-.2h-.2v-.8c.3-.2.3-.2.5-.5h1v.5c.5,0,1-.2,1.5-.2v-.2c-1-.1-.9-.4-2-.5.2-.5.3-1,.5-1.5.8.5,1.6,1,2.5,1.5.7,0,1.3.2,2,.2v.2c1.8.5,3.2-.5,3.2-2-.3-.1-.4-.5-.5-.5h-.8c-1.9-.8-4.7-1-5.7-2.7h-.2c0-.5-.2-1-.2-1.5.6,0,1.2.2,1.7.2v-.2c-.6,0-1.2-.2-1.7-.2,0-1.6.5-2,.8-3.2h1v.2h.2c0-.2.2-.3.2-.5h1.5v-.2h.8v-.2h.5c0-.2.2-.3.2-.5h.5c.4-.5.8-1,1.2-1.5h2.5v.2c.6,0,1.2.2,1.7.2v.2h.5c.1,0,.2.3.5.5,0,.2-.2.5-.2.8h-.2v.5h-.2v.5h-.2c-.4.6-.8.8-1,1.6h0ZM110.6,44c0,.4-.2.8-.2,1.2.7.3,1.3.7,2,1h1c1.5.5,3.8,1.1,4.2,2.7.3.3.7,1.3.5,2h-.2v1.2h-.2c0,.3-.2.7-.2,1h-.2v.5c-.2,0-.3.2-.5.2-.3.4-.7.8-1,1.2h-.5v.2c-.3,0-.7.2-1,.2v.2c-.8.3-3.8.8-4.9.5v-.2h-1.5v-.2h-.8v-.2h-.8v-.2h-.5v-.2h-.5v-.2c-.4-.4-.6-.6-1.2-.8v-.8c.9-.6,1.3-1.7,2.5-2v-.5c.2,0,.5.2.8.2v.2h.5c0,.2.2.3.2.5.3,0,.7.2,1,.2v.2c1.1.5,3.1.2,4.2,0,.2-.4.2-.8.2-1.5-.2,0-.5-.2-.8-.2v-.2h-.5v-.2h-1c-1.5-.5-4.3-1.1-4.7-2.7-.5-.5-.5-1.3-.5-2.2.2,0,.5.2.8.2v-.2c-.5-.3-.5-.4-.5-1.2h.2v-.8c.2,0,.3-.2.5-.2v-.5c.4-.3.8-.7,1.2-1v-.2h.5v-.2c.5-.2,1-.3,1.5-.5v-.2c.7-.3,4.2-.6,5.2-.2v.2h1v.2c.5.2,1,.3,1.5.5v.2h.5v.2c.2.2.5.3.8.5-.2.3,0,0-.2.2-.8.9-1.5,1.8-2.2,2.7-.5.2-2.1-1.1-2.5-1.2h-1c-1.4-.5-1.3,0-2.5.2h0ZM68.1,40.2h4.2c0,.8-.2,1.6-.2,2.5h-.5c.5,1.2-.1,3.5-.5,4.7v1.5h-.2v.2h-.8v-.2c-.5,0-1-.2-1.5-.2v.2c.3.3,0,0,.2.5-.4,0-.8-.2-1.2-.2v.2c.8,0,1,.2,1.7.5v.2h.2v-.2c.3,0,.7.2,1,.2-.2,1.8-.5,3.6-.8,5.5-.2,0-.5.2-.8.2-.6.5-2.7.3-3.7.2,0-.8.2-1.6.2-2.5.2,0,.3-.2.5-.2,0-.3-.4-.4-.2-1h.2v-.5h.2c.2-.6-.2-.6-.2-.8v-.2h.2v-1.5h.2c.3-.4.3-.4.5-1h.5v-.2c-.6-.4-.7-.5-.8-1.5.5-2.2.9-4.3,1.3-6.5h0ZM87.9,43h-.5v.2c.8,0,.7,0,1,.5,1.1,1.1.6,3.5.5,5.2h-1.2v.2c.6,0,.6,0,1,.2-.2.5-.3,1-.5,1.5-.2,0-.3.2-.5.2,0,.2-.2.5-.2.8-.4,0-.8-.2-1.2-.2v.2h.8v.8c-.7.4-.7.7-2,.8-.3-.3,0,0-.5-.2v-.5c-.5,0-1,.2-1.5.2.3.3,0,0,.5.2v.5h-1.2v.2c.9,0,1.8.2,2.5.5-.3.3,0,0-.5.2-.3.4-1.3.8-2.2.5-2-.6-4-1.2-5.9-1.7v-.5h-.8v-.2c-.4.2-.8.3-1.2.5v.2h1v.2h1c0,.4-.2.8-.2,1.2.2,0,.5.2.8.2v-1h.5c0,.2.2.3.2.5h1v-.2c.5,0,1,.2,1.5.2,0,.2.2.5.2.8h.8v-.5c.5.2,1,.3,1.5.5v.2c-2.3.2-7.1,1.2-9.6.2.3-.8.5-1.9.5-3h.8v-.5h-.5c0-.5.2-1,.2-1.5h.2c.5.6.6.2,1.5.5v.2c.2,0,.5-.2.8-.2v.2c.5,0,1,.2,1.5.2v.2h1.7c.2,0,1.7.7,2,.5v-.2h-.5c-.2-.3.1-.2.2-.2v-.2c.4-.2.7,0,.8.2h.2c0-.2.2-.5.2-.8.2,0,.5-.2.8-.2.6-.4,1.3-1.9,1.5-2.7h.8v-.2c-.2,0-.5-.2-.8-.2v-.2h.2c0-.6-.2-1.2-.2-1.7h-.2v-.5h-.2c0-.2-.2-.5-.2-.8-1.6-.3-2.3-.7-4.5-.8-.2.3,0,0-.2.2-.2.8-.3,1.6-.5,2.5-1.4-.2-2.7-.7-4-1,0-2,.7-3.1.8-5,1.7-.9,5.6-.5,8.2-.5v.2h1.2v.2h.5v.2h.8v.2c.8.5,1.6.7,1.9,1.8h0ZM104,44c-1.6,0-3.5,0-4.7-.2-.5-.1-.8.2-.8.2h-3c0,.8-.2,1.6-.2,2.5h-.5v.2h.8v-.2c.5-.3,1,.3,1.2.2v-.2h1.7v.2h.2v-.2h4c-.2,1.1-.3,2.2-.5,3.2h-7.4c0,.2-.2.5-.2.8h-.2v2h3.5v.2c.3,0,.7.2,1,.2v-.5h3.7c-.2,1.2-.3,2.5-.5,3.7h-5.5v-.2h-1v-.2h-.2c-.3,0,0,.2-.2.2-.9-.4-2.2-.9-3.5-1v.2c.9,0,1.5.5,2.2.8h1v.2h-5.5v-1.5h.5c0-.2-.5-1-.2-1.5h.2v-.2h.8c.3.3,0,0,.5.2,0,.2-.2.3-.2.5h.2v.5c.2.3.2-.2.2-.2.5.2,1,.3,1.5.5v-.8h.2c.2.2,3.6,1.3,4.2,1v-.2c-.9,0-1.9-.5-2.7-.8h-1v-.2h-.5v-.2h-1.2v-.2c-.6,0-1.2-.2-1.7-.2v-.2h-.2v-.8h.2v-1.2h.2v-.5h.2c0-.4-.2-.5-.2-.5,0-.5.2-.5.2-.5v-1.5h.2c0-.5.2-1,.2-1.5h.5c-.3-.3,0,0-.5-.2,0-.8.7-4.9,1-5.2.6-.5,2.5-.2,3.5-.2h9.2v.2c-.3.3-.7,2.9-.8,3.5h0ZM62.1,41.2c.3.3.5.4,1,.5v-.2c-.3-.2,0,0-.2-.2-.3,0-.5,0-.8,0h0ZM80,41.7h.5v-.2c-.3-.2,0,0-.2-.2h-.2v.5h0ZM85.4,43h.5v-.5h.5v.5h.8v-.2c-.3-.3,0,0-.2-.5-.6,0-1.2-.2-1.7-.2v.2c.8.2.3,0,.2.8h0ZM95,42.7v-.5c-.9,0-1.9-.5-2.5,0,.8.2,1.6.3,2.5.5ZM81.4,42.5c.3.3,0,0,.5.2-.3-.3,0,0-.5-.2ZM62.4,42.7h-.5c.2.3,0,0,.2.2v.2h.2v-.5h0ZM82.9,42.7v.5h.5v-.5h-.5ZM68.1,43.5v.5h.8v-.2h-.2c.4-.6.4,0,.8-.2v-.2c-.4,0-.8.1-1.3.2h0ZM34.4,43.7c0,.6-.3,2.1-.2,2.2h.2v1.5h.2v.5h.2c.6,1.1.6,2.1,2,2.5v.5c1.3.1,3.1,1.4,4.9.8v-.2h.8v-.2h.5v-.2h.5c0-.2.2-.3.2-.5.6-.2.7.2,1,.2v-.2h.2v.2h.8v.2h1c0,.2.2.3.2.5.2,0,.3-.2.5-.2.8.3.7.5,2,.5-.3,1.2-2.1,3.1-3.5,3.2v.5c-.2,0-.5.2-.8.2v.2h-.8v.2h-.5v.2h-1v.2h-1v.2c-1,.3-4.8-.2-5.5-.5v-.2c-.3,0-.7-.2-1-.2v-.2h-.8c0-.2-.2-.3-.2-.5h-.5c0-.2-.2-.3-.2-.5h-.5c0-.2-.2-.3-.2-.5-.5-.4-1-.8-1.5-1.2v-.5c-.2-.2-.5-.3-.8-.5,0-.3-.2-.7-.2-1-1.2-2.2-1.5-3.5-1.5-7,.4-.1.6-.2,1.2-.2v.2c.3,0,0-.2.2-.2h3.7,0ZM39.4,43.7h2c.8,1.3,1,.7,1,3-.3.3,0,0-.2.5-1.1.6-3,1.4-3.5-.5h-.2v-2h.2c.2-.3.5-.7.7-1ZM56,43.7c.1,0,.3.5.8.2v-.2h-.8ZM93.3,44.2h.5v-.2c-.3-.2,0,0-.2-.2h-.2v.5h0ZM50.5,45.2c.3.3,0,0,.5.2-.3-.3,0,0-.5-.2ZM94.8,45.5h-.5c.2.3,0,0,.2.2v.2h.2v-.5h0ZM74.3,46c1.4.3,2.8.7,4.2,1-.2,1.6-.5,3.2-.8,4.7-.5,0-1-.2-1.5-.2v-.2c.6-.1.5,0,.8-.5-.8-.2-1.5-.3-2.2-.5v.5h.5v.5c-.6-.2-1.2-.3-1.7-.5v-.5h.8v-.2h-.5c0-2.1.4-2.2.5-4h0ZM85.9,46c.3.3,0,0,.5.2-.3-.3,0,0-.5-.2ZM55,46.2c.3.3,0,0,.5.2-.3-.3,0,0-.5-.2ZM56.4,46.5c.3.5.3.6,1,.8.2-.3,0,0,.2-.2v-.2c-.7,0-.8-.1-1.2-.3h0ZM32.7,47c.3.3,0,0,.5.2-.3-.3,0,0-.5-.2ZM57.9,47v.2h1v-.2h-1ZM60.4,47c0,.2-.2.5-.2.8h.2c.3-.3,0,0,.5-.2v1h.2v-.8h.2v.2c.5,0,1,.2,1.5.2v-.2c-.8,0-1.4-.1-1-.8-.5,0-.9-.2-1.5-.2ZM59.2,47.2c.1,0,.3.5.8.2v-.2h-.8ZM99.5,47.5c.1,0,.3.5.8.2v-.2h-.8ZM33.9,48.2c.3.3,0,0,.5.2-.3-.3,0,0-.5-.2ZM101.7,48.2c.3.3,0,0,.5.2-.3-.3,0,0-.5-.2ZM108.6,48.2v.2s-.8-.1-.5.2h.2c.1,0,0,.4.5.2v-.2h.5v-.2c-.2,0-.5-.1-.7-.2ZM85.4,48.5c.3.3,0,0,.5.2-.3-.3,0,0-.5-.2ZM86.9,48.7c.3.3,0,0,.5.2-.3-.3,0,0-.5-.2ZM63.6,49.5c.1,0,.3.5.8.2v-.2h-.8ZM49.3,49.9c-.3,0-.7.2-1,.2v-.2c-.3,0-.7-.2-1-.2v.2h.2c.4.4,1.2.5,1.7.8,0-.2,0-.5,0-.8ZM61.9,49.7h-.8v.2h.5v.2c.2.5.3-.5.3-.5h0ZM90.8,49.7c.1,0,.3.5.8.2v-.2h-.8ZM92.1,49.9c.3.3,0,0,.5.2-.3-.3,0,0-.5-.2ZM86.1,50.2c.3.3,0,0,.5.2-.3-.3,0,0-.5-.2ZM93,50.2c.1,0,.3.5.8.2v-.2h-.8ZM33.4,50.5c.2.3.4.3.8.5-.3-.5-.2-.4-.8-.5ZM113.8,50.5c.3.3,0,0,.5.2-.3-.3,0,0-.5-.2ZM62.4,50.7c.3.3,0,0,.5.2-.3-.3,0,0-.5-.2ZM32.2,50.9c.3.3,0,0,.5.2-.3-.3,0,0-.5-.2ZM66.6,50.9c.1.1,1.9.7,2.2.5v-.2c-.7-.1-1.3-.3-2.2-.3ZM36.1,51.2c.3.3.5.4,1,.5-.3-.3-.4-.4-1-.5ZM46.1,51.9c.4,0,.8.2,1.2.2v-.2c-.3-.2,0,0-.2-.2-.6,0-.6,0-1-.2v.5h0ZM75.3,51.9h-.8v.2h.5c.2.3,0,0,.2.2,0-.1,0-.3,0-.5h0ZM36.4,53.2v-.5c-.9-.1-.8,0-1.7-.2v.2c.3.2,0,0,.2.2.2,0,.5.2.8.2.3,0,0-.3.2-.2v.2c.1,0,.3,0,.5,0h0ZM36.7,52.7v.5h.8v-.2c-.3,0-.5-.2-.8-.3ZM81.4,52.7v.2h1v-.2h-1ZM54.2,52.9c.1,0,.3.5.8.2v-.2h-.8ZM55.2,53.2c.2.2.3.5.5.8.3.1,0-.2.2-.2.5-.1.8.2.8.2h.2v-.2c.2,0,.3.2.5.2-.7-1.1-.7-.3-1.5-.5v-.2h-.7ZM99.5,53.2c.3.3,0,0,.5.2-.3-.3,0,0-.5-.2ZM100.2,53.2c.3.4.1.3.8.5v-.2c-.2,0-.5-.2-.8-.3ZM69.6,53.4h-.5c.2.3,0,0,.2.2v.2h.2v-.5h0ZM105.4,53.4h-.5c.2.3,0,0,.2.2v.2h.2v-.5h0ZM84.1,53.7h1.2v.2h-.2v.2c-.3-.1,0,0-.2-.2h-.8v-.2h0ZM53.7,54.2v.2s-.8-.1-.5.2h.2c.3.4.5.4,1.2.5v-.2c-.4-.2-.7-.3-.2-.8h-.8ZM57.9,54.2c0,.2-.2.3-.2.5,0,0,.7-.4.5-.5h-.2ZM65.8,54.2v.5h.2v-.5h-.2ZM66.8,54.4c.1.2.6.7,1,.5v-.2h.5v-.2c-.5,0-1,0-1.5,0h0ZM82.2,54.4c.3.3,0,0,.5.2-.3-.3,0,0-.5-.2ZM105.9,54.4c.3.3,0,0,.5.2-.3-.3,0,0-.5-.2ZM37.9,54.7v.2c1.8.4,3.6.8,5.5,1.2v-.2c-.3-.2,0,0-.2-.2-.6,0-1.2-.2-1.7-.2v-.2c-.2,0-.3.2-.5.2-1-.3-1.8-.7-3-.8h0ZM90.8,54.7h-.5c.2.3,0,0,.2.2v.2h.2v-.5h0ZM110.4,54.7c.1.1,1.5.8,2,.5v-.2c-.7,0-1.3-.2-2-.3ZM36.9,54.9c.1,0,.3.5.8.2v-.2h-.8ZM67.8,55.7v-.5c-1,0-.7-.2-1.5,0,.3.3,0,0,.5.2v.2c.3,0,.7,0,1,0h0ZM74.7,55.2c.3.5.3.6,1,.8-.2-.3-.6-.6-1-.8ZM57.4,55.4c.3.3,0,0,.5.2-.3-.3,0,0-.5-.2ZM101,55.4c.3.3,0,0,.5.2-.3-.3,0,0-.5-.2Z"/>
  <path class="cls-2" d="M81.4,26.4h4.5c1,0,1.8.2,2.5.5s1.1.8,1.4,1.5c.2.6.3,1.4,0,2.2-.1.6-.4,1.1-.8,1.6s-.9.8-1.6,1.1l1.5,4h-3.5l-1.1-3.5h-1.3l-.8,3.5h-3.3l2.3-10.9h0ZM84.9,31.2c.4,0,.8,0,1-.2.3-.1.4-.4.5-.7.1-.5,0-.8-.1-1s-.6-.4-1-.4h-1.2l-.5,2.3h1.3Z"/>
  <path class="cls-2" d="M92.2,26.4h4.2c1.3,0,2.3.3,3.1.8s1.3,1.3,1.6,2.2.3,2,0,3.2c-.2.9-.6,1.7-1.2,2.4s-1.3,1.2-2.2,1.6c-.9.4-1.9.6-3,.6h-4.9s2.3-10.9,2.3-10.9ZM95.1,34.4c.7,0,1.2-.2,1.7-.6s.8-1,.9-1.6c.1-.5.1-1,0-1.4s-.2-.8-.5-1c-.3-.2-.7-.4-1.2-.4h-.9l-1.1,5.1h1.1Z"/>
  <path class="cls-2" d="M112.2,33.2c-.6,2.9-2.4,4.3-5.3,4.3s-1.8-.1-2.4-.4-1.1-.7-1.4-1.2c-.3-.5-.5-1.1-.6-1.7s0-1.3.1-2l1.3-5.8h3.5l-1.4,6.3c0,.3,0,.6,0,.8s0,.5.3.7c.2.2.5.3.8.3s.8-.1,1.1-.4c.2-.3.4-.8.6-1.4l1.4-6.3h3.5l-1.5,6.9h0Z"/>
</svg>