<svg xmlns="http://www.w3.org/2000/svg" viewBox="0 0 720 68">
	<g>
		<g>
			<path class="st0" d="M27.3,32.3c-2.9-0.3-5.7-0.9-8.3-1.6c-2.4-0.6-5-1.4-8-2.5c-2.3-0.8-5.3-2.1-8.8-3.8C0.7,27.4,0,30.6,0,34 c0,3.3,0.7,6.6,2.1,9.7c5.2-2.8,10.6-4.8,16.2-6.2c5.7-1.4,11.6-2.2,17.7-2.3v-2.3C33,32.8,30.1,32.6,27.3,32.3z M27.1,34.4 c-9.3,0-17.2,1.9-23.8,5.8c-0.3-0.8-0.5-1.7-0.5-2.6c0-0.2,0-0.5,0.1-0.9c5.5-2.2,11.5-3.2,18.2-3.2c1.9,0,4,0.1,6,0.4L27.1,34.4 L27.1,34.4z M28.6,40.4c-2.4,0.9-4.5,2.2-6.4,3.8c-2,1.7-3.7,3.6-5.1,5.7c-2.8,4.4-4.3,10.4-4.4,17.9c1.7,0.2,2.7,0.3,3.1,0.3 c2,0,3.8-0.3,5.6-0.9c1.7-0.7,3.5-1.7,5.4-3c-2.1-2.7-3.1-5.7-3.1-8.7c0-2.4,0.5-4.6,1.6-6.7c1-2,2.5-3.8,4.3-5.1 c1.8-1.3,3.9-2.3,6.3-2.9V39C33.2,39.1,30.8,39.5,28.6,40.4z M18.8,59.8c0,1.6,0.2,3.2,0.7,4.8c-1,0.4-1.8,0.6-2.4,0.6 c-0.3,0-0.7,0-0.9-0.2C16,64.4,16,63.7,16,62.9c0-2.8,0.5-5.6,1.6-8.2c1-2.7,2.4-5,4.1-6.8l0.6,0.4C19.9,51.9,18.8,55.7,18.8,59.8 z M27.2,22c-2.2-2.7-3.3-5.8-3.3-9.3c0-2.9,1-5.8,3-8.7c-1.8-1.5-3.4-2.5-4.8-3C20.6,0.3,18.9,0,16.9,0c-0.6,0-2,0.2-4.2,0.5 c0.1,5.7,1.1,10.7,3,15c1.9,4.2,4.7,7.6,8.1,10c3.5,2.4,7.5,3.6,12.1,3.7v-1.7C32.4,26.5,29.5,24.7,27.2,22z M21.6,20.3 c-2.1-2.6-3.6-5-4.5-7.3c-0.9-2.3-1.4-4.9-1.4-7.8c0-0.1,0-0.3,0-0.5c0-0.2,0-0.4,0-0.6c0-0.3,0-0.7,0-1.2h0.7c0.1,0,0.2,0,0.3,0 c0.1,0,0.2,0,0.2-0.1c0.7,0,1.5,0.3,2.4,0.8c-0.5,1.9-0.8,3.5-0.8,4.9c0,4.3,1.2,8.1,3.8,11.4L21.6,20.3z"/>
			<path class="st0" d="M48.6,34.1L48.6,34.1c0,1.3-0.4,2.3-1.3,3.2c-0.9,0.9-2,1.3-3.1,1.3c-1.3,0-2.3-0.4-3.2-1.3 c-0.9-0.9-1.4-2-1.4-3.2c0,0,0-0.1,0-0.1c0-1.1,0.5-2.2,1.4-3c0.9-0.9,2-1.4,3.1-1.4c1.2,0,2.2,0.5,3.1,1.4 c0.8,0.8,1.3,1.8,1.3,2.9C48.6,34,48.6,34.1,48.6,34.1z"/>
		</g>
		<g>
			<path class="st0" d="M542.9,32.8c-0.6-2.9-3.1-5.1-6.2-5.1c-3.1,0-5.6,2.1-6.2,5l-128-1.1c0.6-1.7,0.8-3,0.8-4.2 c0-2-0.8-4-2.3-5.7c-1.5-1.7-3.9-3.5-7.2-5.4c-2.4-1.5-4.6-2.6-6.6-3.3c-1.8-0.7-3.6-1-5.2-1c-2,0-3.7,0.6-5.1,1.9 c-1.4,1.3-2.9,3.6-4.5,7c-0.9,2-2.4,4.7-4.4,8c-0.6,0.9-1.1,1.8-1.6,2.6h-9.7c3.2-4.7,6.2-8.7,9-11.9c-2.8-0.9-5.2-1.8-7-2.9 c-1.8-1-4-2.5-6.5-4.7c-1.1,2.6-2.5,5.6-4.2,9c-1.7,3.2-3.4,6.5-5.4,9.8c-0.2,0.2-0.3,0.5-0.4,0.7h0l-9.1,0.1 c0.2-0.3,0.3-0.5,0.5-0.8c0.8-1,2-2.2,3.7-3.6c-0.9-1.7-2.1-3.1-3.5-4.2c-1.4-1-2.8-1.6-4.2-1.6c-1.7,0-3.4,0.8-5.2,2.5 c-1.7,1.6-3.3,3.9-4.8,7.1c-0.1,0.2-0.2,0.4-0.3,0.6c-0.9,1.9-1.6,3.6-2.1,5c-0.6,1.8-0.9,3.2-0.9,4.3c0,3.9,3.2,7.8,9.7,11.5 c4.1,2.4,7.8,3.6,11.1,3.6c2,0,3.7-0.5,5.1-1.5c1.3-1,2.6-2.7,3.8-5c2.5-4.6,5-8.9,7.3-12.7h9.6c-0.6,0.9-1.1,1.7-1.7,2.5 c-1.3,2-2.6,3.7-3.7,5.1c-0.9,1.2-2.2,2.7-3.8,4.4c3.2,1,5.7,2,7.4,3c2,1.2,4.2,2.7,6.4,4.6c1.2-3.1,2.7-6.5,4.6-10.2 c1.4-2.8,3.1-5.9,5.3-9.3l8.7-0.1c-1.1,1.4-2.4,2.9-4.1,4.3c1.9,2.1,3.4,3.6,4.5,4.3c1.1,0.7,2.3,1.1,3.6,1.1 c3.2,0,6.1-2.4,8.7-7.3c0.5-0.9,1-1.8,1.4-2.6l130.2-1.2c0.6,2.9,3.2,5,6.2,5c3.1,0,5.7-2.2,6.2-5.1l128.5-1.2c0,0,0-0.1,0-0.2 L542.9,32.8z M329.6,23.6c1.8,0,3.5,0.9,4.9,2.8c-0.7,0.3-1.4,1-2.1,2.1c-1.5-1.6-3.1-2.3-4.8-2.3c-1,0-1.9,0.3-2.8,0.8 C325.8,24.7,327.4,23.6,329.6,23.6z M322.8,44.4c-1.8-1.1-2.7-2.8-2.7-5c0-0.9,0.2-1.8,0.6-2.8l18.1,0.2c-0.6,0.9-1.2,1.7-1.7,2.3 c-3.7,4.7-6.7,7-9,7C326.4,46.2,324.6,45.6,322.8,44.4z M349.5,29.6c-3.1,5-5.7,9.1-7.9,12.3c-2.2,3.1-3.8,5.3-4.9,6.5 c-0.9,1-1.8,1.6-2.8,1.6c-0.9,0-2.3-0.6-4.2-1.7c1.7-0.4,3.2-1.1,4.4-2.2c1.2-1,2.9-3.2,5.2-6.3c2.9-4,5.5-8.1,7.8-12.3 c2.4-4.3,4.3-8,5.7-11.2c1,0.9,2,1.6,3,2.3C354.5,21.1,352.5,24.8,349.5,29.6z M379.4,20.3c-3.3,5-6.3,9.6-8.7,14.1 c-2.7,4.9-5.1,9.4-7.2,13.7l-0.6,1.2c-1.4-1.1-2.8-1.8-4.2-2.2c1.5-1.9,3.6-4.9,6.3-9c2.6-4,4.4-7,5.5-8.9 c0.7-1.3,2.7-4.8,5.7-10.4c0.8-1.5,1.7-2.7,2.9-3.5c1.1-0.9,2.3-1.3,3.4-1.3c0.9,0,2.4,0.5,4.5,1.5c-2.2,0.5-3.7,1-4.6,1.6 C381.3,17.7,380.4,18.8,379.4,20.3z M381,31.4c4.4-6.3,7.8-9.5,10.3-9.5c1.4,0,2.7,0.3,3.9,0.8c1.3,0.6,2.3,1.4,3,2.3 c0.8,1,1.2,2,1.2,3c0,1.3-0.2,2.4-0.7,3.5L381,31.4z M393.6,38.2c0.7,0,1.5-0.2,2.6-0.7c-0.9,1.3-1.7,2.2-2.2,2.5 c-0.6,0.4-1.3,0.7-2.3,0.7c-1.6,0-3-0.6-4.1-1.9c0.3-0.5,0.9-1.2,1.5-2.2c0.1-0.1,0.2-0.2,0.2-0.3c0.1,0.1,0.2,0.2,0.3,0.3 C390.6,37.7,392,38.2,393.6,38.2z"/>
		</g>
		<path class="st0" d="M319.3,31.5c-0.9,1.9-1.6,3.6-2.1,5l-127.7-1.2c-0.6,2.8-3.2,5-6.2,5c-3.1,0-5.7-2.2-6.2-5.1L48.6,34.1 c0,0,0-0.1,0-0.2l128.5-1.2c0.6-2.9,3.1-5.1,6.2-5.1c3.1,0,5.6,2.1,6.2,5L319.3,31.5z"/>
		<g>
			<path class="st0" d="M717.9,24.4c-3.5,1.7-6.5,3-8.8,3.8c-2.9,1.1-5.6,2-8,2.5c-2.7,0.7-5.5,1.2-8.3,1.6c-2.8,0.3-5.8,0.5-8.7,0.6 v2.3c6.1,0.1,12,0.9,17.7,2.3c5.6,1.4,11,3.5,16.2,6.2c1.4-3.1,2.1-6.4,2.1-9.7C720,30.6,719.3,27.4,717.9,24.4z M716.6,40.2 c-6.6-3.8-14.5-5.8-23.8-5.8v-0.6c2.1-0.2,4.1-0.4,6.1-0.4c6.6,0,12.7,1.1,18.1,3.2c0.1,0.3,0.1,0.7,0.1,0.9 C717.2,38.5,717,39.4,716.6,40.2z M702.8,50c-1.4-2.2-3.1-4.1-5.1-5.7c-1.9-1.6-4-2.9-6.4-3.8c-2.2-0.9-4.7-1.4-7.4-1.5v1.9 c2.4,0.6,4.5,1.5,6.3,2.9c1.8,1.4,3.3,3.1,4.3,5.1c1,2,1.6,4.3,1.6,6.7c0,3.1-1,6-3.1,8.7c1.9,1.4,3.7,2.4,5.4,3 c1.8,0.6,3.6,0.9,5.6,0.9c0.4,0,1.5-0.1,3.1-0.3C707.1,60.3,705.6,54.4,702.8,50z M703.9,65c-0.3,0.1-0.6,0.2-0.9,0.2 c-0.6,0-1.3-0.2-2.4-0.6c0.4-1.6,0.7-3.2,0.7-4.8c0-4.1-1.1-8-3.4-11.6l0.6-0.4c1.7,1.9,3.1,4.2,4.1,6.8c1,2.7,1.6,5.4,1.6,8.2 C704,63.7,704,64.4,703.9,65z M703.1,0c-2,0-3.7,0.3-5.2,0.9c-1.4,0.5-2.9,1.5-4.7,3c2,2.9,3,5.8,3,8.7c0,3.5-1.1,6.7-3.3,9.3 c-2.3,2.7-5.2,4.5-8.8,5.5v1.7c4.6-0.1,8.6-1.3,12.1-3.7c3.5-2.4,6.2-5.7,8.1-10c1.9-4.2,2.9-9.2,3-15C705,0.2,703.6,0,703.1,0z M702.9,12.9c-0.9,2.3-2.4,4.8-4.5,7.3l-0.8-0.5c2.5-3.3,3.8-7.2,3.8-11.4c0-1.4-0.3-3-0.8-4.9c0.9-0.5,1.7-0.8,2.4-0.8 c0,0,0.1,0.1,0.2,0.1c0.1,0,0.2,0,0.3,0h0.7c0,0.5,0,0.9,0.1,1.2c0,0.2,0.1,0.4,0.1,0.6s0,0.4,0.1,0.5 C704.3,8,703.8,10.6,702.9,12.9z"/>
			<path class="st0" d="M680.4,34.2c0,1.2-0.4,2.3-1.3,3.2c-0.9,0.9-1.9,1.3-3.2,1.3c-1.2,0-2.2-0.5-3.1-1.3 c-0.9-0.9-1.3-1.9-1.3-3.2v0c0,0,0-0.1,0-0.2c0-1.1,0.5-2.1,1.3-2.9c0.9-0.9,1.9-1.4,3.1-1.4c1.2,0,2.2,0.5,3.1,1.4 C679.9,31.9,680.4,33,680.4,34.2z"/>
		</g>
		<path class="st0" d="M389.5,36.7H389c0.1-0.1,0.2-0.2,0.2-0.3C389.3,36.5,389.4,36.6,389.5,36.7z"/>
	</g>
</svg>
