<svg aria-hidden="true" style="position: absolute; width: 0; height: 0; overflow: hidden;"
    version="1.1"
    xmlns="http://www.w3.org/2000/svg">
    <defs>
        <symbol id="iconNewWindow" viewBox="0 0 32 32">
            <path
                d="M27.2 27.2h-22.4v-22.4h8v-3.2h-8c-1.76 0-3.2 1.44-3.2 3.2v22.4c0 1.76 1.44 3.2 3.2 3.2h22.4c1.76 0 3.2-1.44 3.2-3.2v-8h-3.2v8z">
            </path>
            <path d="M30.4 1.6h-12.8l5.28 5.28-9.12 9.12 2.24 2.24 9.12-9.12 5.28 5.28v-12.8z"></path>
        </symbol>
        <symbol id="iconTwitter" viewBox="0 0 39 32">
            <path
                d="M35.014 8.116c0.020 0.354 0.031 0.768 0.031 1.185 0 12.486-10.122 22.609-22.609 22.609-4.485 0-8.664-1.306-12.179-3.558l0.090 0.054c0.323 0.023 0.7 0.035 1.080 0.035 3.853 0 7.396-1.323 10.201-3.54l-0.035 0.026c-3.146-0.385-5.709-2.523-6.707-5.392l-0.017-0.057c0.387 0.065 0.833 0.103 1.288 0.103 0.822 0 1.616-0.122 2.364-0.35l-0.057 0.015c-3.683-0.712-6.452-3.837-6.608-7.636l-0.001-0.016c0.894 0.369 1.932 0.583 3.020 0.583 0.080 0 0.159-0.001 0.238-0.003l-0.012 0c-1.924-1.499-3.15-3.816-3.15-6.419 0-1.477 0.394-2.862 1.084-4.055l-0.021 0.039c3.926 4.821 9.735 7.979 16.289 8.345l0.059 0.003c-0.218-0.683-0.344-1.469-0.344-2.285 0-4.29 3.478-7.768 7.768-7.768 2.424 0 4.589 1.111 6.014 2.851l0.011 0.014c1.885-0.346 3.561-1.034 5.037-2.003l-0.051 0.032c-0.598 1.911-1.882 3.458-3.556 4.386l-0.039 0.020c1.674-0.174 3.205-0.626 4.602-1.311l-0.080 0.035c-0.701 1.788-2.010 3.209-3.667 4.038l-0.044 0.020z">
            </path>

        </symbol>
        <symbol id="iconFacebook" viewBox="0 0 32 32">
            <path
                d="M12 10.667h-4v5.333h4v16h6.667v-16h4.856l0.477-5.333h-5.333v-2.223c0-1.273 0.256-1.777 1.487-1.777h3.847v-6.667h-5.077c-4.795 0-6.923 2.111-6.923 6.153v4.513z">
            </path>
        </symbol>
        <symbol id="iconLinkedIn" viewBox="0 0 521.33 521.31">
            <path
                d="M695.53,695.54H618.29v-121c0-28.85-.52-66-40.18-66-40.23,0-46.39,31.43-46.39,63.88V695.53H454.48V446.77h74.15v34h1a81.27,81.27,0,0,1,73.17-40.18c78.29,0,92.73,51.5,92.73,118.49ZM367.32,412.76a44.83,44.83,0,1,1,44.82-44.83,44.83,44.83,0,0,1-44.82,44.83h0m38.62,282.77H328.62V446.77h77.33ZM734,251.38H289.8A38,38,0,0,0,251.34,289V735a38.07,38.07,0,0,0,38.47,37.62H734A38.15,38.15,0,0,0,772.66,735V288.92A38.12,38.12,0,0,0,734,251.35"
                transform="translate(-251.34 -251.34)" />
        </symbol>
        <symbol id="iconSlack" viewBox="0 0 127 127">
            <path
                d="M27.2 80c0 7.3-5.9 13.2-13.2 13.2C6.7 93.2.8 87.3.8 80c0-7.3 5.9-13.2 13.2-13.2h13.2V80zm6.6 0c0-7.3 5.9-13.2 13.2-13.2 7.3 0 13.2 5.9 13.2 13.2v33c0 7.3-5.9 13.2-13.2 13.2-7.3 0-13.2-5.9-13.2-13.2V80z" />
            <path
                d="M47 27c-7.3 0-13.2-5.9-13.2-13.2C33.8 6.5 39.7.6 47 .6c7.3 0 13.2 5.9 13.2 13.2V27H47zm0 6.7c7.3 0 13.2 5.9 13.2 13.2 0 7.3-5.9 13.2-13.2 13.2H13.9C6.6 60.1.7 54.2.7 46.9c0-7.3 5.9-13.2 13.2-13.2H47z" />
            <path
                d="M99.9 46.9c0-7.3 5.9-13.2 13.2-13.2 7.3 0 13.2 5.9 13.2 13.2 0 7.3-5.9 13.2-13.2 13.2H99.9V46.9zm-6.6 0c0 7.3-5.9 13.2-13.2 13.2-7.3 0-13.2-5.9-13.2-13.2V13.8C66.9 6.5 72.8.6 80.1.6c7.3 0 13.2 5.9 13.2 13.2v33.1z" />
            <path
                d="M80.1 99.8c7.3 0 13.2 5.9 13.2 13.2 0 7.3-5.9 13.2-13.2 13.2-7.3 0-13.2-5.9-13.2-13.2V99.8h13.2zm0-6.6c-7.3 0-13.2-5.9-13.2-13.2 0-7.3 5.9-13.2 13.2-13.2h33.1c7.3 0 13.2 5.9 13.2 13.2 0 7.3-5.9 13.2-13.2 13.2H80.1z" />
        </symbol>
        <symbol id="iconMastodon" viewBox="0 0 32 32">

            <path
                d="M30.933 10.533c0-6.933-4.533-8.933-4.533-8.933-2.267-1.067-6.267-1.6-10.4-1.6v0c-4.133 0-8 0.533-10.267 1.467 0 0-4.533 2-4.533 8.933s0 3.467 0 5.467c0.133 6.8 1.2 13.467 7.467 15.2 2.933 0.8 5.333 0.933 7.333 0.8 3.6-0.267 5.6-1.333 5.6-1.333v-2.667c0 0-2.667 0.8-5.6 0.667-2.933 0-5.867-0.267-6.4-3.867 0-0.267 0-0.667 0-0.933 0 0 2.8 0.667 6.4 0.8 2.133 0 4.267 0 6.4-0.4 4-0.533 7.467-2.933 8-5.2 0.667-3.6 0.667-8.667 0.667-8.667zM25.6 19.467h-3.333v-8.133c0-1.733-0.667-2.533-2.133-2.533s-2.4 1.067-2.4 3.067v4.4h-3.333v-4.4c0-2-0.8-3.067-2.4-3.067s-2.133 0.933-2.133 2.533v8.133h-3.333v-8.4c0-1.733 0.4-3.067 1.333-4.133s2.133-1.467 3.6-1.467 2.933 0.667 3.867 2l0.8 1.333 0.8-1.333c0.8-1.333 2.133-2 3.867-2s2.667 0.533 3.6 1.467c0.933 1.067 1.333 2.4 1.333 4.133v8.4z"></path>
        </symbol>
        <symbol id="iconBsidesLogo" viewBox="0 0 62 32">
            <path fill="#000" style="fill: var(--color1, #000)"
                d="M59.52 12.8c-0.56-0.16-0.88-0.56-1.36-0.88 0 0.080 0 0.16 0 0.24 0.24 0.16 0.080 0.080 0.24 0.32 0 0 0.080 0 0.080 0 0.16 0.16 0.16 0.24 0.24 0.56-0.24 0.16-0.56 0.24-0.88 0.4-0.56 0.16-0.88-0.24-1.28 0-0.080 0.080-0.16 0.24-0.24 0.32-0.32 0.32-0.64 0.4-1.36 0.4-0.24-0.32-0.56-0.32-0.72-0.8 0 0-0.080 0-0.080 0 0 0.16 0 0.24 0 0.4 0 0 0.080 0 0.080 0 0 0.16 0 0.32 0 0.56 0.080 0 0.16 0.080 0.24 0.080 0 0.24 0.080 0.4 0.080 0.64 0 0 0.080 0 0.080 0 0.32-0.32 0.56-0.080 1.040-0.24 0 0 0-0.080 0-0.080 0.32 0 0.64 0 0.96 0 0 0 0-0.080 0-0.080 0.24 0 0.56 0 0.88 0 0 0 0-0.080 0-0.080 0.4 0 0.88-0.080 1.28-0.080 0.24 0.72 0.080 2.080 0.080 2.96 0.080 0 0.16 0 0.24 0 0-0.16 0.080-0.24 0.080-0.4 0 0 0.080 0 0.080 0 0.24-0.56-0.16-1.2 0.24-1.68 0 0 0.080 0 0.080 0 0.32-0.32 0.48-0.16 0.64-0.64 0.4 0.080 0.32 0.24 0.56 0.56 0 0 0.080 0 0.080 0 0 0.16 0.080 0.24 0.080 0.4 0 0 0.080 0 0.080 0 0 0.080 0 0.24 0 0.32 0 0 0.080 0 0.080 0 0.24 0.72-0.24 1.36-0.32 1.92-0.16 0.080-0.32 0.080-0.64 0.080-0.16-0.16 0-0.080-0.24-0.080-0.080 0.24-0.16 0.32-0.32 0.56 0 0-0.080 0-0.080 0 0 0.080 0 0.16 0 0.24-0.080 0.080-0.24 0.16-0.32 0.24 0 0.080 0 0.16 0 0.24-0.16 0.16-0.32 0.24-0.56 0.4 0 0.080 0 0.16 0 0.24-0.080 0.080-0.24 0.16-0.32 0.24 0 0 0 0.080 0 0.080-0.16 0-0.32 0-0.56 0-0.080 0.080 0 0.16-0.24 0.080 0 0 0-0.080 0-0.080-0.080 0-0.24 0-0.32 0 0 0 0-0.080 0-0.080-0.32 0-0.64-0.080-0.96-0.080 0 0 0-0.080 0-0.080-0.080 0-0.24 0-0.32 0 0 0 0-0.080 0-0.080-0.24 0-0.48 0-0.72 0 0 0 0-0.080 0-0.080-0.080 0-0.16 0-0.24 0 0 0 0-0.080 0-0.080-0.24 0-0.4-0.080-0.64-0.080 0 0 0-0.080 0-0.080-0.4 0-0.8 0-1.12 0 0 0 0-0.080 0-0.080-0.48-0.080-0.88-0.24-1.36-0.32 0 0 0 0.080 0 0.080s0.080 0 0.080 0c0.24 0.24 0.4 0.16 0.72 0.32 0 0 0 0.080 0 0.080 0.080 0 0.16 0 0.24 0 0 0 0 0.080 0 0.080 0.16 0 0.24 0.080 0.4 0.080 0 0 0 0.080 0 0.080 0.080 0 0.24 0 0.32 0 0 0 0 0.080 0 0.080 0.24 0.080 0.4 0.16 0.64 0.24 0 0.080 0.080 0.24 0.080 0.32 0.080 0 0.16 0.080 0.24 0.080 0.080 0.32 0.24 0.64 0.32 0.96-0.24 0-0.4 0.080-0.64 0.080 0 0 0 0.080 0 0.080-0.16 0.16-0.080 0-0.080 0.24 0.32 0 0.64 0 0.96 0 0 0.080 0 0.24 0 0.32-0.080 0.080-0.24 0.16-0.32 0.24 0 0 0 0.080 0 0.080-0.080 0-0.16 0-0.24 0 0 0.080-0.080 0.16-0.080 0.24-0.4 0.24-0.72 0.32-1.36 0.32-0.32-0.16-0.72-0.24-1.040-0.4 0 0 0 0.080 0 0.080s0.080 0 0.080 0c0 0.080 0 0.24 0 0.32 0 0 0.080 0 0.080 0s0 0.080 0 0.080c0.080 0.080 0.16 0.16 0.24 0.24 0.080 0 0.16 0 0.24 0 0 0 0 0.080 0 0.080 0.080 0 0.24 0 0.32 0 0 0 0 0.080 0 0.080 0.080 0 0.16 0 0.24 0 0 0 0 0.080 0 0.080 0.080 0 0.16 0 0.24 0 0 0.080 0.080 0.16 0.080 0.24 0.24 0.080 0.16-0.080 0.24-0.080 0.16 0 0.24-0.080 0.4-0.080 0-0.080 0.080-0.16 0.080-0.24 0.16 0 0.24-0.080 0.4-0.080 0.4-0.24 0.48-0.48 1.12-0.56 0.16 0.64 0.56 0.8 0.64 1.44-0.48 0.24-0.96 0.72-1.12 1.12-0.080 0-0.16 0-0.24 0-0.080-0.16-0.24-0.32-0.4-0.4-0.080 0.48-0.16 0.56-0.64 0.64 0-0.16 0.080-0.24 0.080-0.4 0 0-0.080 0-0.080 0-0.32 0.24-0.8 0.080-1.28 0.24 0 0 0 0.080 0 0.080-0.080 0-0.24 0-0.32 0 0 0 0 0.080 0 0.080-0.16 0-0.24 0.080-0.4 0.080 0 0 0 0.080 0 0.080-0.080 0-0.16 0-0.24 0 0 0 0 0.080 0 0.080-0.080 0-0.24 0-0.32 0 0 0.080-0.080 0.16-0.080 0.24-0.080 0-0.24 0-0.32 0 0 0 0 0.080 0 0.080-0.080 0-0.16 0-0.24 0 0 0.080-0.080 0.16-0.080 0.24-0.080 0-0.24 0-0.32 0 0 0.080-0.080 0.16-0.080 0.24-0.24 0.080-0.4 0.16-0.64 0.24 0 0 0 0.080 0 0.080-0.080 0-0.24 0.080-0.32 0.080 0 0.080-0.080 0.16-0.080 0.24-0.16 0-0.24 0.080-0.4 0.080 0 0 0 0.080 0 0.080-0.080 0-0.24 0.080-0.32 0.080 0 0.080-0.080 0.16-0.080 0.24-0.080 0-0.16 0-0.24 0 0 0.080-0.080 0.16-0.080 0.24-0.080 0-0.16 0-0.24 0 0.080-0.32 0-0.16 0-0.080-0.080 0-0.16 0-0.24 0-0.16 0.24-0.32 0.4-0.56 0.64-0.080 0-0.16 0.080-0.24 0.080 0 0.080 0 0.16 0 0.24-0.080 0.080-0.24 0.16-0.32 0.24-0.32 0.48-0.4 0.96-0.96 1.12 0-0.24-0.080-0.4-0.080-0.64 0 0-0.080 0-0.080 0 0 0.48 0.080 0.96 0.080 1.44 0 0-0.080 0-0.080 0 0 0.16-0.080 0.32-0.080 0.56-0.72 0.32-2 0.32-3.040 0.32-0.4 0-0.8 0-1.12 0-0.48-0.16-0.64-0.88-1.28-1.040 0-0.080 0-0.16 0-0.24-0.080 0-0.16 0-0.24 0 0-0.080 0-0.16 0-0.24-0.56-0.16-1.28-1.2-1.68-1.6-1.040-1.040-2.080-2-3.12-3.040-0.4-0.48-0.88-0.88-1.28-1.36-0.56-0.32-1.6-0.24-2.4-0.24-1.84 0-3.6 0-5.44 0-0.080-0.24-0.16-0.4-0.24-0.64-0.88 0.16-1.84 0.32-2.72 0 0 0 0-0.080 0-0.080-0.16 0-0.24 0-0.4 0 0 0 0-0.080 0-0.080-0.24-0.16-0.4-0.24-0.72-0.32 0-0.16-0.080-0.32-0.080-0.56 0.4-0.24 0.4-0.8 0.72-1.040 0.48 0.56 1.76 0.96 2.72 0.72 0 0 0-0.080 0-0.080-0.16-0.16-0.16-0.16-0.24-0.4-0.32 0.080-0.72 0.4-0.96 0.24 0 0-0.080 0-0.080 0 0-0.24 0-0.4 0-0.64-0.8 0-1.6-0.080-2.4-0.080 0 0.080 0 0.24 0 0.32 0 0-0.080 0-0.080 0-0.080 0.24-0.080 0.24-0.24 0.4 0 0-0.080 0-0.080 0 0 0.080-0.080 0.24-0.080 0.32-0.080 0.080-0.16 0.080-0.24 0.080 0 0.080 0 0.16 0 0.24-0.080 0-0.16 0.080-0.24 0.080-0.080 0.16-0.24 0.24-0.32 0.4-0.080 0-0.16 0-0.24 0-0.080 0.080-0.16 0.24-0.24 0.32-0.16 0-0.24 0.080-0.4 0.080 0 0 0 0.080 0 0.080-0.24 0.080-0.4 0.16-0.64 0.24 0 0 0 0.080 0 0.080-0.16 0-0.24 0-0.4 0-1.36 0.48-2.4 0.080-3.36-0.4-0.16 0-0.24-0.080-0.4-0.080-0.080-0.080-0.16-0.24-0.24-0.32-0.080 0-0.16 0-0.24 0-0.16-0.16-0.24-0.32-0.4-0.56-0.080 0-0.16-0.080-0.24-0.080 0-0.080 0-0.16 0-0.24-0.080-0.080-0.24-0.16-0.32-0.24 0-0.080 0-0.16 0-0.24 0 0-0.080 0-0.080 0-0.16-0.24 0-0.24-0.24-0.4-0.24 0.4-0.64 0.24-1.040 0.4 0 0 0 0.080 0 0.080-0.080 0-0.24 0-0.32 0 0 0 0 0.080 0 0.080-0.16 0-0.24 0-0.4 0 0 0 0 0.080 0 0.080-0.16 0-0.24 0-0.4 0 0 0 0 0.080 0 0.080-0.16 0-0.32 0-0.56 0 0 0 0 0.080 0 0.080-0.16 0-0.32 0-0.56 0 0 0 0 0.080 0 0.080-0.32 0-0.72 0-1.040 0 0 0 0 0.080 0 0.080-0.48 0-0.96 0-1.44 0-0.16 0.080-0.64 0.16-0.96 0.080 0 0 0-0.080 0-0.080-1.68 0-3.44 0-5.12 0 0-0.64 0.080-1.28 0.24-1.92 0.080 0 0.24-0.080 0.32-0.080 0 0 0-0.080 0-0.080 0.24 0 0.48 0.080 0.72 0.080 0 0 0-0.080 0-0.080 0.16 0 0.24-0.080 0.4-0.080 0.080-0.32 0.32-0.48 0.4-0.72 0-0.080 0-0.24 0-0.32 0 0 0.080 0 0.080 0 0.16 0.16 0.16 0.080 0.16 0.080 0.080 0 0.16-0.080 0.24-0.080 0-0.080 0-0.16 0-0.24 0.080 0 0.16-0.080 0.24-0.080 0.080-0.24 0.24-0.4 0.32-0.56 0.24-0.080 0.4-0.16 0.64-0.24 0 0 0-0.080 0-0.080 0.16 0 0.24 0 0.4 0 0 0 0-0.080 0-0.080 0.48 0 0.96 0 1.44 0 0 0 0-0.080 0-0.080 0.080 0 0.16 0 0.24 0 0 0 0-0.080 0-0.080 0.080 0 0.24 0 0.32 0 0-0.080 0.080-0.16 0.080-0.24 0.080 0 0.24-0.080 0.32-0.080 0 0 0-0.080 0-0.080 0.16 0 0.24-0.080 0.4-0.080 0 0 0-0.080 0-0.080 0.080 0 0.16 0 0.24 0 0 0 0-0.080 0-0.080 0.080 0 0.16 0 0.24 0 0 0 0-0.080 0-0.080 0.080 0 0.16 0 0.24 0 0 0 0-0.080 0-0.080 0.080 0 0.16 0 0.24 0 0 0 0-0.080 0-0.080 0.080 0 0.16 0 0.24 0 0.080-0.080 0.16-0.24 0.24-0.32 0.080 0 0.16 0 0.24 0 0 0 0-0.080 0-0.080 0.080 0 0.24 0 0.32 0 0 0 0-0.080 0-0.080 0.080 0 0.24 0 0.32 0 0 0 0-0.080 0-0.080 0.24-0.080 0.4-0.16 0.64-0.24 0.080-0.32 0.24-0.72 0.32-1.040 0.24 0 0.4 0 0.64 0 0.16-0.24 0.64-0.64 0.96-0.72 0.16-0.88 0.24-1.76 0.4-2.64 1.28 0 2.56 0 3.92 0 0 0 0 0.080 0 0.080 0.24 0 0.4 0.080 0.64 0.080 0 0 0 0.080 0 0.080 0.080 0 0.16 0 0.24 0 0 0.080 0.080 0.16 0.080 0.24 0 0 0.080 0 0.080 0s0-0.080 0-0.080c0.4-0.24 0.56-0.48 1.12-0.56 0-0.16 0.080-0.32 0.080-0.56 0 0 0.080 0 0.080 0 0.16-0.4 0-0.88 0.080-1.12 0.080 0 0.24-0.080 0.32-0.080 0 0 0-0.080 0-0.080 0.48 0 0.96 0 1.44 0 0 0 0 0.080 0 0.080 0.56 0.16 1.52-0.080 2 0.080 2.48 0 4.96 0.080 7.44 0.080 4.16 0 8.32 0 12.48 0 2 0 4 0 6 0 0 0 0 0.080 0 0.080 0.56 0.16 2.48 0 2.96-0.080 0.64 0 1.28 0 1.92 0 1.44 0 2.88 0 4.32 0 0 0 0 0.080 0 0.080 0.16 0 0.32 0 0.56 0 0.16 0.24 0.32 0.48 0.56 0.72 0.080 0 0.16 0.080 0.24 0.080 0 0.080 0 0.16 0 0.24 0.080 0.080 0.24 0.16 0.32 0.24 0 0.080 0 0.16 0 0.24 0 0 0.080 0 0.080 0 0.080 0.24 0.16 0.4 0.24 0.64 0 0 0.080 0 0.080 0 0 0.16 0.080 0.32 0.080 0.56 0 0 0.080 0 0.080 0 0 0.080 0 0.24 0 0.32 0.080 0.16 0.24 0.48 0.32 0.72 0 0-0.080 0-0.080 0-0.080 0.080 0 0.16-0.24 0.080 0 0 0-0.080 0-0.080-0.24-0.24-0.48-0.8-0.64-1.12 0 0-0.080 0-0.080 0-0.24-0.16-0.24 0-0.32 0.24zM16.32 13.2c0-0.080 0-0.16 0-0.24-0.32-0.080-0.16-0.16-0.64-0.16-0.16-0.16-0.8-0.080-1.12-0.080 0 0.080-0.080 0.24-0.080 0.32-0.16 0.16-0.16 0.56-0.24 0.88 0 0 0.080 0 0.080 0 0.32-0.56 0.8-0.72 1.76-0.72 0.16 0 0-0.080 0.24 0zM15.68 21.52c0 0.080 0 0.16 0 0.24 0.4 0.080 0.56 0.24 0.88 0.32 0.56 0.16 1.68-0.16 2-0.32 0 0 0-0.080 0-0.080 0.16-0.080 0.24-0.24 0.4-0.32 0 0 0-0.080 0-0.080-0.96 0-1.92 0-2.96 0 0 0 0-0.080 0-0.080-0.24 0-0.56 0-0.88 0 0 0 0 0.080 0 0.080 0.16 0.080 0 0 0.080 0.080 0.24 0.080 0.24 0.080 0.48 0.16z">
            </path>
            <path fill="#f00" style="fill: var(--color2, #f00)"
                d="M32.96 25.040h-24.48l3.92-2.32c-0.64-0.88-0.64-0.88-1.040-2.080v0c-6.56 3.84-11.36 6.72-11.36 6.72 12.16 0 23.12 0 35.28 0-0.16-0.16-1.2-1.2-1.28-1.2 0-0.080-0.96-1.040-1.040-1.12zM50.16 27.36h11.44l-15.12-27.36c0 0-19.12 11.2-19.12 11.2 0.4 0.32 1.2 1.52 1.28 2.080 8.8-5.040 17.040-9.84 17.040-9.84l11.84 21.6h-2c-1.44 0.4-3.68 1.12-5.36 2.32zM28.72 13.28v0 0c0 0 0 0 0 0z">
            </path>
            <path fill="#f00" style="fill: var(--color2, #f00)"
                d="M23.76 11.040c0 0.080 0 0.16 0 0.24 0.16 0 0.24 0.080 0.4 0.080 0-0.080 0-0.16 0-0.24 0.080 0 0.16 0 0.24 0-0.24-0.24-0.48-0.080-0.72-0.4 0.080 0 0.16 0 0.24 0 0.16 0.080 0.48 0 0.88 0.080 0.48 0.16 1.28 0.56 1.44 0.96 0 0 0.080 0 0.080 0 0 0.080-0.080 0.24-0.080 0.32 0 0 0.080 0 0.080 0s0 0.080 0 0.080c0.080 0 0.24-0.080 0.32-0.080 0.16 0.080-0.080 0.080 0.080 0.080 0.080 0.16 0.24 0.24 0.32 0.4 0 0 0.080 0 0.080 0 0 0.080 0 0.16 0 0.24 0.080 0 0.16 0.080 0.24 0.080 0.48 0.8 0.8 2.64 0.4 3.68-0.56-0.24-1.12-0.48-2-0.56 0-0.32 0.080-0.64 0.080-0.96 0 0-0.080 0-0.080 0 0-0.16 0-0.32 0-0.56 0 0-0.080 0-0.080 0 0-0.16-0.080-0.32-0.080-0.56 0 0-0.080 0-0.080 0 0-0.080-0.080-0.24-0.080-0.32 0.4 0.080 0.64 0.16 1.12 0.24 0 0 0-0.080 0-0.080-0.16-0.080-0.32-0.080-0.56-0.080 0 0 0-0.080 0-0.080s-0.080 0-0.080 0c0 0 0 0.080 0 0.080-0.24 0-0.24-0.080-0.24-0.080-0.16 0-0.32 0-0.56 0-0.080-0.16-0.24-0.24-0.32-0.4-0.080 0-0.16 0-0.24 0 0-0.080-0.080-0.16-0.080-0.24-0.080 0-0.24 0-0.32 0 0 0 0-0.080 0-0.080-0.080 0-0.24 0-0.32 0 0 0 0-0.080 0-0.080-0.48-0.16-1.2 0-1.6 0.080 0 0 0 0.080 0 0.080-0.16 0-0.32-0.080-0.56-0.080 0 0 0 0.080 0 0.080 0.080 0 0.16 0 0.24 0 0 0 0 0.080 0 0.080s-0.080 0-0.080 0c-0.16 0.24-0.48 0.32-0.64 0.56 0 0.080 0 0.16 0 0.24-0.080 0-0.16 0.080-0.24 0.080 0 0.080 0 0.16 0 0.24 0 0-0.080 0-0.080 0 0 0.080 0 0.16 0 0.24 0 0-0.080 0-0.080 0 0 0.080 0 0.24 0 0.32 0 0-0.080 0-0.080 0-0.24 0.8 0.32 2.16 0.56 2.56 0.080 0 0.16 0.080 0.24 0.080 0 0.24 0.080 0.4 0.080 0.64 0 0 0.080 0 0.080 0 0 0.080 0 0.16 0 0.24 0 0 0.080 0 0.080 0 0.080 0.24-0.080 0.48 0.080 0.64 0 0 0 0.080 0 0.080-0.080 0.16-0.080-0.080-0.24 0.080 0.080 0 0.16 0 0.24 0 0 0.8-0.080 1.36-0.32 1.92 0 0.080 0 0.24 0 0.32 0 0-0.080 0-0.080 0-0.080 0.24-0.16 0.4-0.24 0.64-0.88 0-1.6-0.4-2.32-0.56 0 0 0-0.080 0-0.080 0.4-0.24 0.72-1.12 0.88-1.6 0-0.24-0.080-0.48-0.080-0.72 0.4 0.080 1.28 0.48 1.6 0.24-0.4 0-1.44-0.24-1.6-0.4 0 0-0.080 0-0.080 0 0-0.16 0-0.24 0-0.4-0.080 0-0.16-0.080-0.24-0.080 0-0.16-0.080-0.24-0.080-0.4 0.16-0.080 0.16-0.080 0.4-0.080 0.16 0.16 0.56 0.4 0.88 0.24-0.48 0-0.72-0.16-1.12-0.32 0 0 0-0.080 0-0.080-0.080 0-0.24 0.080-0.32 0.080 0 0 0-0.080 0-0.080s-0.080 0-0.080 0c0-0.24-0.080-0.4-0.080-0.64 0.080 0 0.56 0.24 0.72 0.080 0 0 0-0.080 0-0.080-0.080 0-0.16 0-0.24 0 0-0.16 0.080-0.24 0.080-0.4 0.080 0 0.16 0 0.24 0-0.16-0.16-0.24-0.16-0.56-0.24 0 0 0 0.080 0 0.080 0.080 0 0.16 0 0.24 0 0 0.16-0.080 0.24-0.080 0.4-0.080 0-0.24 0-0.32 0-0.080-0.32 0-0.24-0.32-0.32 0-0.48-0.080-0.96-0.080-1.36 0 0 0.080 0 0.080 0 0-0.24 0-0.4 0-0.64 0.16-0.56 0.56-1.68 1.040-2 0 0 0-0.080 0-0.080 0.080 0 0.24 0.080 0.32 0.080 0 0 0-0.080 0-0.080 0.080 0 0.16 0 0.24 0-0.080-0.32-0.080-0.080 0-0.4 0.080 0 0.32 0.24 0.56 0.080 0 0 0-0.080 0-0.080-0.32 0-0.32 0-0.4-0.24 0.16-0.080 0 0 0.080-0.080 0.080 0 0.24 0.080 0.32 0.080 0-0.080 0-0.24 0-0.32 0.080 0 0.24-0.080 0.32-0.080 0 0 0-0.080 0-0.080 0.080 0 0.16 0 0.24 0 0 0 0-0.080 0-0.080 0.24 0 0.4-0.080 0.64-0.080 0 0 0-0.080 0-0.080 0.24 0 0.4 0 0.64 0 0 0 0.080-0.16 0.32-0.080 0 0 0 0.080 0 0.080 0.080-0.24 0.4-0.16 0.72-0.080zM12.96 11.2c0.56 0 1.12 0 1.68 0 0 0 0 0.080 0 0.080s0.080 0 0.080 0c0 0 0-0.080 0-0.080 0.72 0 1.44 0 2.24 0 0 0 0 0.080 0 0.080 0.24 0.080 0.48 0.16 0.72 0.24 0.080 0.16 0.32 0.4 0.4 0.56 0 1.36-0.32 1.84-1.12 2.24 0.16 0.24 0.24 0.080 0.4 0.24 0.16 0.24 0.32 0.4 0.56 0.64 0 0.24-0.080 0.24-0.080 0.4 0 0-0.080 0-0.080 0 0 0.16 0.24 0.16 0.24 0.24 0 0.16-0.080 0.32-0.080 0.56-0.080 0-0.16-0.080-0.24-0.080 0.32 0.24-0.080 0.48-0.24 0.64 0 0 0 0.080 0 0.080-0.16 0-0.32 0-0.56 0 0-0.080 0.080-0.24 0.080-0.32-0.080 0-0.16 0-0.24 0 0 0.080 0 0.24 0 0.32-0.24 0-0.24 0.080-0.4 0.080 0-0.080 0-0.24 0-0.32 0 0-0.080 0-0.080 0s0 0.080 0 0.080c0 0-0.080 0-0.080 0s-0.080 0-0.080 0c0 0 0-0.080 0-0.080-0.16 0-0.32 0-0.56 0 0-0.080-0.080-0.16-0.080-0.24 0 0-0.080 0-0.080 0 0 0.080 0 0.16 0 0.24 0.32 0.080 0.64 0.16 0.96 0.24 0 0.080 0 0.16 0 0.24-0.32 0.080-0.56 0.16-0.72 0.32 0 0.080-0.080 0.16-0.080 0.24-0.080 0-0.16 0-0.24 0 0 0 0 0.080 0 0.080-1.12 0-2.16 0-3.28 0-0.080-0.16 0 0-0.080-0.080 0 0 0-0.080 0-0.080s0.080 0 0.080 0c0-0.24 0-0.4 0-0.64 0 0 0.080 0 0.080 0 0-0.24 0-0.4 0-0.64 0.16-0.56 0.32-0.96 0.32-1.68 0.080 0 0.16 0 0.24 0-0.24-0.64 0.16-1.68 0.24-2.56 0.080 0 0.24 0 0.32 0 0 0 0-0.080 0-0.080-0.080 0-0.16 0-0.24 0-0.080-0.4-0.080-0.64 0-0.96zM21.44 11.2c0.080 0.080 0.16 0.16 0.32 0.080 0 0 0-0.080 0-0.080-0.080 0-0.24 0-0.32 0zM23.36 11.44c0 0.32-0.24 0.16 0.080 0.32 0-0.080 0.080-0.24 0.080-0.32-0.16 0-0.24-0.080-0.4-0.080 0 0 0 0.080 0 0.080 0.080 0 0.16 0 0.24 0zM22.96 11.52c-0.080 0-0.16 0-0.24 0 0 0 0 0.080 0 0.080s0.080 0 0.080 0c0 0 0 0.080 0 0.080s0.080 0 0.080 0 0.080-0.080 0.080-0.16zM16.32 11.68c0 0.080 0 0.24 0 0.32 0 0 0.080 0 0.080 0s0-0.080 0-0.080c0.24 0 0.4 0.080 0.64 0.080 0 0 0-0.080 0-0.080-0.24-0.080-0.48-0.16-0.72-0.24zM24.32 12c-0.080 0-0.16 0-0.24 0 0.080 0.16 0 0 0.080 0.080 0 0 0 0.080 0 0.080 0.16-0.080 0.080 0 0.16-0.16zM14.080 12.48c0-0.080 0-0.16 0-0.24-0.16 0-0.24 0-0.4 0 0 0 0 0.080 0 0.080s0.080 0 0.080 0c0 0 0 0.080 0 0.080 0.16 0.080 0.24 0.080 0.32 0.080zM14.32 12.4c0.16 0.16 0 0.080 0.24 0.080-0.16-0.080 0 0-0.24-0.080zM23.68 12.48c0.16 0.16 0.16 0.16 0.4 0.24-0.16-0.16-0.16-0.16-0.4-0.24zM19.6 12.96c0.080 0 0.16 0 0.24 0 0 0 0 0.080 0 0.080 0.080 0 0.24-0.080 0.32-0.080 0-0.080 0.080-0.16 0.080-0.24-0.16-0.080 0 0-0.080-0.080-0.24 0.080-0.24 0.16-0.4 0 0 0 0 0.080 0 0.080-0.24 0.080-0.16 0-0.16 0.24zM21.040 12.64c-0.080 0-0.16 0-0.24 0 0.080 0.16 0 0 0.080 0.080 0 0 0 0.080 0 0.080s0.080 0 0.080 0c0.080-0.080 0.080-0.080 0.080-0.16zM14.4 12.72c-0.080 0.32-0.24 0.88-0.080 1.040s0.8 0.080 1.12 0.080c0 0 0-0.080 0-0.080 0.24 0 0.4-0.080 0.64-0.080 0-0.080 0.080-0.24 0.080-0.32 0 0 0.080 0 0.080 0 0-0.16 0-0.24 0-0.4 0.080 0 0.16 0 0.24 0 0 0 0-0.080 0-0.080-0.080 0-0.24 0.080-0.32 0.080 0-0.080-0.080-0.16-0.080-0.24-0.56 0-1.12 0-1.68 0zM20.64 13.12c0.16 0.16 0 0.080 0.24 0.080-0.16-0.080-0.080 0-0.24-0.080zM26.16 13.44c0 0.080 0 0.16 0 0.24 0 0 0.080 0 0.080 0 0-0.080 0-0.16 0-0.24 0 0 0 0-0.080 0zM15.040 14c-0.080 0-0.16 0-0.24 0 0.080 0.16 0 0 0.080 0.080 0 0 0 0.080 0 0.080s0.080 0 0.080 0 0.080-0.080 0.080-0.16zM22.96 14.56c-0.16 0.080-0.4 0.32-0.48 0.4 0 0.32 0 0.64 0 0.96 0 0.16 0.72 0.56 1.12 0.4 0 0 0-0.080 0-0.080 0.080 0 0.16 0 0.24 0 0 0 0-0.080 0-0.080 0.080-0.080 0.24-0.16 0.32-0.24 0-0.64 0.080-1.12-0.56-1.28 0 0 0-0.080 0-0.080-0.24 0-0.4 0-0.64 0zM14 15.040c0 0.32-0.080 0.64-0.080 0.96-0.080 0-0.16 0.080-0.24 0.080 0 0 0 0.080 0 0.080s0.080 0 0.080 0c0 0 0 0.080 0 0.080 0.24 0 0.4 0 0.64 0 0 0.080 0 0.24 0 0.32 0 0 0.080 0 0.080 0 0-0.080 0-0.24 0-0.32 0.32 0 0.72 0 1.040 0 0 0 0-0.080 0-0.080 0.080 0 0.16 0 0.24 0 0 0 0-0.080 0-0.080 0.080 0 0.16 0.080 0.24 0.080 0-0.080 0-0.16 0-0.24 0.080 0 0.16 0 0.24 0-0.080-0.4-0.080-0.24-0.080-0.72-0.16 0-0.32-0.080-0.56-0.080 0-0.080-0.080-0.16-0.080-0.24-0.080 0.080-1.28 0.16-1.52 0.16zM16.8 15.36c0.16 0 0.24 0.080 0.4 0.080-0.080-0.16-0.24-0.24-0.4-0.32 0 0.080 0 0.16 0 0.24zM19.68 15.36c-0.080 0-0.16 0-0.24 0 0.080 0.16 0 0 0.080 0.080 0 0 0 0.080 0 0.080s0.080 0 0.080 0 0.080-0.080 0.080-0.16zM17.36 15.44c0.16 0.16 0 0.080 0.24 0.080-0.16-0.080 0 0-0.24-0.080zM13.28 15.6c0.080 0.16 0.080 0.16 0.32 0.24 0.080-0.16 0 0 0.080-0.080 0 0 0-0.080 0-0.080-0.16-0.080-0.32-0.080-0.4-0.080zM20 15.68c0.16 0.16 0 0.080 0.24 0.080-0.16-0.080-0.080 0-0.24-0.080zM13.28 16c0 0 0 0.080 0 0.080s-0.080 0-0.080 0c-0.16 0.080 0.24 0.080 0.24 0.080 0.080 0.16 0 0 0.080 0.080-0.16-0.16-0.080-0.080-0.24-0.24zM20.32 16.4c0.16 0.16 0 0.080 0.24 0.080-0.16-0.080-0.080 0-0.24-0.080zM16.080 16.56c0.16 0.16 0 0.080 0.24 0.080-0.16-0.16 0-0.080-0.24-0.080zM26.72 18.88c-0.080 0-0.24 0-0.32 0 0-0.080 0-0.16 0-0.24-0.64-0.16-1.2-0.24-1.92-0.080-0.16 0.24-0.16 0.16-0.24 0.64 0.080 0 0.24 0.080 0.32 0.080 0 0 0 0.080 0 0.080 0.080 0 0.16 0 0.24 0 0 0 0 0.080 0 0.080 0.16 0 0.24 0 0.4 0 0.56 0.24 1.6 0.48 1.92 0.96 0.16 0.080 0 0 0.080 0.080-0.080 0-0.24 0-0.32 0 0 0 0 0.080 0 0.080 0.56 0 0.56 0.080 0.56 0.64 0 0 0.080 0 0.080 0 0 0.080-0.24 1.2-0.32 1.28s-0.24 0.16-0.32 0.24c0 0.080 0 0.16 0 0.24 0 0-0.080 0-0.080 0-0.080 0.080-0.16 0.24-0.24 0.32-0.56 0.4-1.92 0.8-2.72 0.56-0.16 0-0.32 0-0.56 0 0 0 0-0.080 0-0.080-0.080 0-0.16 0-0.24 0 0 0 0-0.080 0-0.080-0.4-0.16-0.56 0.080-0.88-0.24-0.16-0.16-0.080 0-0.080-0.24-0.080 0-0.16 0-0.24 0 0-0.080 0.080-0.16 0.080-0.24 0 0-0.080 0-0.080 0-0.080 0.080 0 0.16-0.24 0.080 0 0 0-0.080 0-0.080s-0.080 0-0.080 0c0-0.080 0-0.24 0-0.32 0.16-0.080 0.16-0.080 0.24-0.24 0.16 0 0.24 0 0.4 0 0 0.080 0 0.16 0 0.24 0.24 0 0.4-0.080 0.64-0.080 0 0 0-0.080 0-0.080-0.4-0.080-0.4-0.16-0.88-0.24 0.080-0.24 0.16-0.4 0.24-0.64 0.32 0.24 0.72 0.4 1.040 0.64 0.24 0 0.56 0.080 0.88 0.080 0 0 0 0.080 0 0.080 0.8 0.24 1.36-0.24 1.36-0.88-0.080-0.080-0.16-0.16-0.24-0.24-0.080 0-0.24 0-0.32 0-0.8-0.32-2-0.4-2.4-1.2 0 0-0.080 0-0.080 0 0-0.24-0.080-0.4-0.080-0.64 0.24 0 0.48 0.080 0.72 0.080 0 0 0-0.080 0-0.080-0.24 0-0.48-0.080-0.72-0.080 0-0.72 0.16-0.88 0.32-1.36 0.16 0 0.24 0 0.4 0 0 0 0 0.080 0 0.080s0.080 0 0.080 0c0-0.080 0.080-0.16 0.080-0.24 0.24 0 0.4 0 0.64 0 0 0 0-0.080 0-0.080 0.080 0 0.24 0 0.32 0 0 0 0-0.080 0-0.080 0.080 0 0.16 0 0.24 0 0-0.080 0.080-0.16 0.080-0.24 0.080 0 0.16 0 0.24 0 0.16-0.24 0.32-0.4 0.56-0.64 0.32 0 0.72 0 1.040 0 0 0 0 0.080 0 0.080 0.24 0 0.48 0.080 0.72 0.080 0 0 0 0.080 0 0.080 0.080 0 0.16 0 0.24 0s0.080 0.16 0.24 0.24c0 0.080-0.080 0.24-0.080 0.32 0 0-0.080 0-0.080 0 0 0.080 0 0.16 0 0.24 0 0-0.080 0-0.080 0 0 0.080 0 0.16 0 0.24 0 0-0.080 0-0.080 0-0.24 0.4-0.4 0.48-0.48 0.8zM46.96 18.8c0 0.16-0.080 0.32-0.080 0.56 0.24 0.16 0.56 0.24 0.88 0.4 0.16 0 0.24 0 0.4 0 0.64 0.24 1.6 0.48 1.76 1.2 0.080 0.080 0.32 0.56 0.24 0.88 0 0-0.080 0-0.080 0 0 0.16 0 0.32 0 0.56 0 0-0.080 0-0.080 0 0 0.16-0.080 0.24-0.080 0.4 0 0-0.080 0-0.080 0 0 0.080 0 0.16 0 0.24-0.080 0-0.16 0.080-0.24 0.080-0.16 0.16-0.24 0.32-0.4 0.56-0.080 0-0.16 0-0.24 0 0 0 0 0.080 0 0.080-0.16 0-0.24 0.080-0.4 0.080 0 0 0 0.080 0 0.080-0.32 0.16-1.6 0.4-2.080 0.24 0 0 0-0.080 0-0.080-0.24 0-0.4 0-0.64 0 0 0 0-0.080 0-0.080-0.080 0-0.24 0-0.32 0 0 0 0-0.080 0-0.080-0.080 0-0.24 0-0.32 0 0 0 0-0.080 0-0.080-0.080 0-0.16 0-0.24 0 0 0 0-0.080 0-0.080-0.080 0-0.16 0-0.24 0 0 0 0-0.080 0-0.080-0.16-0.16-0.24-0.24-0.56-0.32 0-0.080 0-0.24 0-0.32 0.4-0.24 0.56-0.72 1.040-0.88 0-0.080 0-0.16 0-0.24 0.080 0 0.24 0.080 0.32 0.080 0 0 0 0.080 0 0.080 0.080 0 0.16 0 0.24 0 0 0.080 0.080 0.16 0.080 0.24 0.16 0 0.24 0.080 0.4 0.080 0 0 0 0.080 0 0.080 0.48 0.24 1.28 0.080 1.76 0 0.080-0.16 0.080-0.32 0.080-0.64-0.080 0-0.24-0.080-0.32-0.080 0 0 0-0.080 0-0.080-0.080 0-0.16 0-0.24 0 0 0 0-0.080 0-0.080-0.16 0-0.24 0-0.4 0-0.64-0.24-1.84-0.48-2-1.2-0.24-0.16-0.24-0.56-0.24-0.96 0.080 0 0.24 0.080 0.32 0.080 0 0 0-0.080 0-0.080-0.24-0.16-0.16-0.16-0.24-0.56 0 0 0.080 0 0.080 0 0-0.080 0-0.24 0-0.32 0.080 0 0.16-0.080 0.24-0.080 0-0.080 0-0.16 0-0.24 0.16-0.16 0.32-0.24 0.56-0.4 0 0 0-0.080 0-0.080 0.080 0 0.16 0 0.24 0 0 0 0-0.080 0-0.080 0.24-0.080 0.4-0.16 0.64-0.24 0 0 0-0.080 0-0.080 0.24-0.080 1.76-0.24 2.24-0.080 0 0 0 0.080 0 0.080 0.16 0 0.24 0 0.4 0 0 0 0 0.080 0 0.080 0.24 0.080 0.4 0.16 0.64 0.24 0 0 0 0.080 0 0.080 0.080 0 0.16 0 0.24 0 0 0 0 0.080 0 0.080 0.080 0.080 0.24 0.16 0.32 0.24-0.080 0.16 0 0-0.080 0.080-0.32 0.4-0.64 0.8-0.96 1.2-0.24 0.080-0.88-0.48-1.040-0.56-0.16 0-0.24 0-0.4 0-0.64-0.32-0.56-0.16-1.12 0zM28.96 17.2c0.56 0 1.2 0 1.76 0 0 0.32-0.080 0.72-0.080 1.040-0.080 0-0.16 0-0.24 0 0.16 0.48-0.080 1.52-0.24 2 0 0.24 0 0.4 0 0.64 0 0-0.080 0-0.080 0s0 0.080 0 0.080c-0.080 0-0.24 0-0.32 0 0 0 0-0.080 0-0.080-0.24 0-0.4-0.080-0.64-0.080 0 0 0 0.080 0 0.080 0.16 0.16 0.080 0 0.080 0.24-0.16 0-0.32-0.080-0.56-0.080 0 0 0 0.080 0 0.080 0.4 0 0.4 0.080 0.72 0.24 0 0 0 0.080 0 0.080s0.080 0 0.080 0c0 0 0-0.080 0-0.080 0.16 0 0.24 0.080 0.4 0.080-0.080 0.8-0.24 1.52-0.32 2.32-0.080 0-0.24 0.080-0.32 0.080-0.24 0.24-1.12 0.080-1.6 0.080 0-0.32 0.080-0.72 0.080-1.040 0.080 0 0.16-0.080 0.24-0.080 0-0.16-0.16-0.16-0.080-0.4 0 0 0.080 0 0.080 0 0-0.080 0-0.16 0-0.24 0 0 0.080 0 0.080 0 0.080-0.24-0.080-0.24-0.080-0.32 0 0 0-0.080 0-0.080s0.080 0 0.080 0c0-0.24 0-0.4 0-0.64 0 0 0.080 0 0.080 0 0.080-0.16 0.16-0.16 0.24-0.4 0.080 0 0.16 0 0.24 0 0 0 0-0.080 0-0.080-0.24-0.16-0.32-0.24-0.32-0.64 0.32-0.96 0.48-1.92 0.72-2.8zM37.36 18.32c-0.080 0-0.16 0-0.24 0 0 0 0 0.080 0 0.080 0.32 0 0.32 0 0.4 0.24 0.48 0.48 0.24 1.44 0.24 2.24-0.16 0-0.32 0-0.56 0 0 0 0 0.080 0 0.080 0.24 0 0.24 0.080 0.4 0.080-0.080 0.24-0.16 0.4-0.24 0.64-0.080 0-0.16 0.080-0.24 0.080 0 0.080-0.080 0.24-0.080 0.32-0.16 0-0.32-0.080-0.56-0.080 0 0 0 0.080 0 0.080 0.080 0 0.24 0 0.32 0 0 0.080 0 0.24 0 0.32-0.32 0.16-0.32 0.32-0.88 0.32-0.16-0.16 0-0.080-0.24-0.080 0-0.080 0-0.16 0-0.24-0.24 0-0.4 0.080-0.64 0.080 0.16 0.16 0 0.080 0.24 0.080 0 0.080 0 0.16 0 0.24-0.16 0-0.32 0-0.56 0 0 0 0 0.080 0 0.080 0.4 0 0.72 0.080 1.040 0.24-0.16 0.16 0 0.080-0.24 0.080-0.16 0.16-0.56 0.32-0.96 0.24-0.88-0.24-1.68-0.48-2.56-0.72 0-0.080 0-0.16 0-0.24-0.080 0-0.24 0-0.32 0 0 0 0-0.080 0-0.080-0.16 0.080-0.32 0.16-0.56 0.24 0 0 0 0.080 0 0.080 0.16 0 0.24 0 0.4 0 0 0 0 0.080 0 0.080 0.16 0 0.24 0 0.4 0 0 0.16-0.080 0.32-0.080 0.56 0.080 0 0.24 0.080 0.32 0.080 0-0.16 0-0.24 0-0.4 0.080 0 0.16 0 0.24 0 0 0.080 0.080 0.16 0.080 0.24 0.16 0 0.24 0 0.4 0 0 0 0-0.080 0-0.080 0.24 0 0.4 0.080 0.64 0.080 0 0.080 0.080 0.24 0.080 0.32 0.080 0 0.24 0 0.32 0 0-0.080 0-0.16 0-0.24 0.24 0.080 0.4 0.16 0.64 0.24 0 0 0 0.080 0 0.080-0.96 0.080-3.040 0.48-4.080 0.080 0.16-0.4 0.16-0.8 0.24-1.28 0.080 0 0.24 0 0.32 0 0-0.080 0-0.16 0-0.24-0.080 0-0.16 0-0.24 0 0-0.24 0.080-0.4 0.080-0.64 0 0 0.080 0 0.080 0 0.24 0.24 0.24 0.080 0.64 0.24 0 0 0 0.080 0 0.080 0.080 0 0.24-0.080 0.32-0.080 0 0 0 0.080 0 0.080 0.24 0 0.4 0.080 0.64 0.080 0 0 0 0.080 0 0.080 0.24 0 0.48 0 0.72 0 0.080 0 0.72 0.24 0.88 0.24 0 0 0-0.080 0-0.080-0.080 0-0.16 0-0.24 0-0.080-0.16 0.080-0.080 0.080-0.080s0-0.080 0-0.080c0.16-0.080 0.24 0 0.32 0.080 0 0 0.080 0 0.080 0 0-0.080 0.080-0.24 0.080-0.32 0.080 0 0.24-0.080 0.32-0.080 0.24-0.16 0.56-0.8 0.64-1.2 0.080 0 0.24 0 0.32 0 0 0 0-0.080 0-0.080-0.080 0-0.24-0.080-0.32-0.080 0 0 0-0.080 0-0.080s0.080 0 0.080 0c0-0.24-0.080-0.48-0.080-0.72 0 0-0.080 0-0.080 0 0-0.080 0-0.16 0-0.24 0 0-0.080 0-0.080 0 0-0.080-0.080-0.24-0.080-0.32-0.64-0.16-0.96-0.32-1.92-0.32-0.080 0.16 0 0-0.080 0.080-0.080 0.32-0.16 0.72-0.24 1.040-0.56-0.080-1.12-0.32-1.68-0.4 0-0.88 0.32-1.28 0.32-2.16 0.72-0.4 2.4-0.24 3.44-0.24 0 0 0 0.080 0 0.080 0.16 0 0.32 0 0.56 0 0 0 0 0.080 0 0.080 0.080 0 0.16 0 0.24 0 0 0 0 0.080 0 0.080 0.080 0 0.24 0 0.32 0 0 0 0 0.080 0 0.080 0.72 0.4 1.040 0.48 1.2 0.96zM44.16 18.8c-0.64 0-1.52 0-2-0.080-0.24-0.080-0.32 0.080-0.32 0.080-0.4 0-0.88 0-1.28 0 0 0.32-0.080 0.72-0.080 1.040-0.080 0-0.16 0-0.24 0 0 0 0 0.080 0 0.080 0.080 0 0.24 0 0.32 0 0 0 0-0.080 0-0.080 0.24-0.16 0.4 0.16 0.56 0.080 0 0 0-0.080 0-0.080 0.24 0 0.48 0 0.72 0 0 0 0 0.080 0 0.080s0.080 0 0.080 0c0 0 0-0.080 0-0.080 0.56 0 1.12 0 1.68 0-0.080 0.48-0.16 0.96-0.24 1.36-1.040 0-2.080 0-3.12 0 0 0.080-0.080 0.24-0.080 0.32 0 0-0.080 0-0.080 0 0 0.24 0 0.56 0 0.88 0.48 0 0.96 0 1.44 0 0 0 0 0.080 0 0.080 0.16 0 0.24 0.080 0.4 0.080 0-0.080 0-0.16 0-0.24 0.56 0 1.040 0 1.6 0-0.080 0.56-0.16 1.040-0.24 1.6-0.8 0-1.52 0-2.32 0 0 0 0-0.080 0-0.080-0.16 0-0.24 0-0.4 0 0 0 0-0.080 0-0.080s-0.080 0-0.080 0c-0.16 0.080 0.080 0.080-0.080 0.080-0.4-0.16-0.96-0.4-1.44-0.4 0 0 0 0.080 0 0.080 0.4 0 0.64 0.24 0.96 0.32 0.16 0 0.24 0 0.4 0 0 0 0 0.080 0 0.080-0.8 0-1.52 0-2.32 0 0-0.24 0-0.4 0-0.64 0.080 0 0.16 0 0.24 0 0-0.080-0.24-0.4-0.080-0.64 0 0 0.080 0 0.080 0s0-0.080 0-0.080c0.080 0 0.24 0 0.32 0 0.16 0.16 0 0.080 0.24 0.080 0 0.080-0.080 0.16-0.080 0.24 0 0 0.080 0 0.080 0 0 0.080 0 0.16 0 0.24 0.080 0.080 0.080-0.080 0.080-0.080 0.24 0.080 0.4 0.16 0.64 0.24 0-0.080 0-0.24 0-0.32 0 0 0.080 0 0.080 0 0.080 0.080 1.52 0.56 1.76 0.4 0 0 0-0.080 0-0.080-0.4 0-0.8-0.24-1.12-0.32-0.16 0-0.24 0-0.4 0 0 0 0-0.080 0-0.080-0.080 0-0.16 0-0.24 0 0 0 0-0.080 0-0.080-0.16 0-0.32 0-0.56 0 0 0 0-0.080 0-0.080-0.24 0-0.48-0.080-0.72-0.080 0 0 0-0.080 0-0.080s-0.080 0-0.080 0c0-0.080 0-0.24 0-0.32 0 0 0.080 0 0.080 0 0-0.16 0-0.32 0-0.56 0 0 0.080 0 0.080 0 0-0.080 0-0.16 0-0.24 0 0 0.080 0 0.080 0 0.080-0.16-0.080-0.24-0.080-0.24 0-0.24 0.080-0.24 0.080-0.24 0-0.24 0-0.4 0-0.64 0 0 0.080 0 0.080 0 0-0.24 0.080-0.4 0.080-0.64 0.080 0 0.16 0 0.24 0-0.16-0.16 0-0.080-0.24-0.080 0-0.32 0.32-2.080 0.4-2.24 0.24-0.24 1.040-0.080 1.44-0.080 1.28 0 2.56 0 3.92 0 0 0 0 0.080 0 0.080s-0.24 1.12-0.24 1.44zM26.4 17.6c0.16 0.16 0.16 0.16 0.4 0.24 0 0 0-0.080 0-0.080-0.16-0.080 0 0-0.080-0.080s-0.24-0.080-0.32-0.080zM34 17.84c0.080 0 0.16 0 0.24 0 0 0 0-0.080 0-0.080-0.16-0.080 0 0-0.080-0.080 0 0-0.080 0-0.080 0-0.080 0-0.080 0.080-0.080 0.16zM36.24 18.32c0.080 0 0.16 0 0.24 0 0-0.080 0-0.16 0-0.24 0.080 0 0.16 0 0.24 0 0 0.080 0 0.16 0 0.24 0.080 0 0.24 0 0.32 0 0 0 0-0.080 0-0.080-0.16-0.16-0.080 0-0.080-0.24-0.24 0-0.48-0.080-0.72-0.080 0 0 0 0.080 0 0.080 0.24 0.16 0.080 0 0 0.32zM40.4 18.24c0-0.080 0-0.16 0-0.24-0.4 0-0.8-0.24-1.040 0 0.32 0.080 0.64 0.16 1.040 0.24zM34.56 18.16c0.16 0.16 0 0.080 0.24 0.080-0.080-0.16 0-0.080-0.24-0.080zM26.48 18.24c-0.080 0-0.16 0-0.24 0 0.080 0.16 0 0 0.080 0.080 0 0 0 0.080 0 0.080s0.080 0 0.080 0 0.080-0.080 0.080-0.16zM35.2 18.24c0 0.080 0 0.16 0 0.24 0.080 0 0.16 0 0.24 0 0-0.080 0-0.16 0-0.24-0.080 0-0.16 0-0.24 0zM28.96 18.56c0 0.080 0 0.16 0 0.24 0.080 0 0.24 0 0.32 0 0 0 0-0.080 0-0.080s-0.080 0-0.080 0c0.16-0.24 0.16 0 0.32-0.080 0 0 0-0.080 0-0.080-0.24-0.080-0.4-0.080-0.56 0zM14.64 18.64c0 0.24-0.080 0.88-0.080 0.96 0 0 0.080 0 0.080 0 0 0.24 0 0.4 0 0.64 0 0 0.080 0 0.080 0 0 0.080 0 0.16 0 0.24 0 0 0.080 0 0.080 0 0.24 0.48 0.24 0.88 0.88 1.040 0 0.080 0 0.16 0 0.24 0.56 0.080 1.28 0.56 2.080 0.32 0 0 0-0.080 0-0.080 0.080 0 0.24 0 0.32 0 0 0 0-0.080 0-0.080 0.080 0 0.16 0 0.24 0 0 0 0-0.080 0-0.080 0.080 0 0.16 0 0.24 0 0-0.080 0.080-0.16 0.080-0.24 0.24-0.080 0.32 0.080 0.4 0.080 0 0 0-0.080 0-0.080s0.080 0 0.080 0c0 0 0 0.080 0 0.080 0.080 0 0.24 0 0.32 0 0 0 0 0.080 0 0.080 0.16 0 0.24 0 0.4 0 0 0.080 0.080 0.16 0.080 0.24 0.080 0 0.16-0.080 0.24-0.080 0.32 0.080 0.32 0.16 0.88 0.24-0.080 0.48-0.88 1.36-1.44 1.36 0 0.080 0 0.16 0 0.24-0.080 0-0.24 0.080-0.32 0.080 0 0 0 0.080 0 0.080-0.080 0-0.24 0-0.32 0 0 0 0 0.080 0 0.080-0.080 0-0.16 0-0.24 0 0 0 0 0.080 0 0.080-0.16 0-0.24 0-0.4 0 0 0 0 0.080 0 0.080-0.16 0-0.24 0-0.4 0 0 0 0 0.080 0 0.080-0.4 0.16-2-0.080-2.32-0.24 0 0 0-0.080 0-0.080-0.16 0-0.24-0.080-0.4-0.080 0 0 0-0.080 0-0.080-0.080 0-0.24 0-0.32 0 0-0.080-0.080-0.16-0.080-0.24-0.080 0-0.16 0-0.24 0 0-0.080-0.080-0.16-0.080-0.24-0.080 0-0.16 0-0.24 0 0-0.080-0.080-0.16-0.080-0.24-0.24-0.16-0.4-0.32-0.64-0.56 0-0.080 0-0.16 0-0.24-0.080-0.080-0.24-0.16-0.32-0.24 0-0.16-0.080-0.24-0.080-0.4-0.48-0.96-0.64-1.52-0.64-2.96 0.16-0.080 0.24-0.080 0.56-0.080 0 0 0 0.080 0 0.080 0.16 0-0.080-0.080 0.080-0.080 0.48 0.080 0.96 0.080 1.52 0.080zM16.72 18.64c-0.080 0.16-0.16 0.32-0.24 0.4 0 0-0.080 0-0.080 0 0 0.32 0 0.64 0 0.88 0 0 0.080 0 0.080 0 0.16 0.8 0.96 0.48 1.44 0.24 0-0.24-0.080-0.080 0.080-0.24 0-1.040-0.080-0.72-0.4-1.28-0.32 0-0.64 0-0.88 0zM23.76 18.64c0.080 0.080 0.16 0.16 0.32 0.080 0 0 0-0.080 0-0.080-0.080 0-0.24 0-0.32 0zM39.68 18.88c0.080 0 0.16 0 0.24 0 0 0 0-0.080 0-0.080-0.16-0.080 0 0-0.080-0.080 0 0-0.080 0-0.080 0-0.080 0-0.080 0.080-0.080 0.16zM21.44 19.28c0.16 0.16 0 0.080 0.24 0.080-0.16-0.080 0 0-0.24-0.080zM40.24 19.44c-0.080 0-0.16 0-0.24 0 0.080 0.16 0 0 0.080 0.080 0 0 0 0.080 0 0.080s0.080 0 0.080 0c0.080-0.080 0.080-0.16 0.080-0.16zM31.52 19.6c0 0.8-0.16 0.8-0.24 1.68 0.080 0 0.16 0 0.24 0 0 0 0 0.080 0 0.080-0.080 0-0.24 0-0.32 0 0 0.080 0 0.16 0 0.24 0.24 0.080 0.48 0.16 0.72 0.24 0-0.080 0-0.16 0-0.24-0.080 0-0.16 0-0.24 0 0-0.080 0-0.16 0-0.24 0.32 0.080 0.64 0.16 0.96 0.24-0.16 0.24-0.080 0.16-0.32 0.24 0 0 0 0.080 0 0.080 0.24 0 0.4 0.080 0.64 0.080 0.080-0.64 0.24-1.36 0.32-2-0.56-0.16-1.2-0.24-1.76-0.4zM36.48 19.6c0.16 0.16 0 0.080 0.24 0.080-0.16-0.080 0 0-0.24-0.080zM23.36 19.68c0.16 0.16 0 0.080 0.24 0.080-0.16-0.080-0.080 0-0.24-0.080zM24 19.84c0.16 0.24 0.16 0.24 0.4 0.32 0.080-0.16 0 0 0.080-0.080 0 0 0-0.080 0-0.080-0.24-0.080-0.32-0.080-0.48-0.16zM13.92 20c0.16 0.16 0 0.080 0.24 0.080-0.16-0.080-0.080 0-0.24-0.080zM24.64 20c0 0 0 0.080 0 0.080 0.16 0 0.24 0 0.4 0 0 0 0-0.080 0-0.080-0.16 0-0.32 0-0.4 0zM25.68 20c0 0.080-0.080 0.24-0.080 0.32 0 0 0.080 0 0.080 0 0.16-0.16 0-0.080 0.24-0.080 0 0.16 0 0.24 0 0.4 0 0 0.080 0 0.080 0 0-0.080 0-0.24 0-0.32 0 0 0.080 0 0.080 0s0 0.080 0 0.080c0.24 0 0.4 0.080 0.64 0.080 0 0 0-0.080 0-0.080-0.32 0-0.56-0.080-0.4-0.32-0.24 0-0.48 0-0.64-0.080zM25.12 20.16c0.080 0.080 0.16 0.16 0.32 0.080 0 0 0-0.080 0-0.080-0.080 0-0.16 0-0.32 0zM42.24 20.24c0.080 0.080 0.16 0.16 0.32 0.080 0 0 0-0.080 0-0.080-0.080 0-0.16 0-0.32 0zM14.4 20.56c0.16 0.16 0 0.080 0.24 0.080-0.16-0.080 0 0-0.24-0.080zM43.2 20.56c0.16 0.16 0 0.080 0.24 0.080-0.16-0.080 0 0-0.24-0.080zM46.16 20.56c0 0 0 0.080 0 0.080s-0.4-0.080-0.24 0.080c0 0 0.080 0 0.080 0 0.080 0.080 0 0.16 0.24 0.080 0 0 0-0.080 0-0.080 0.080 0 0.16 0 0.24 0 0 0 0-0.080 0-0.080-0.080 0-0.24 0-0.32-0.080zM36.24 20.64c0.16 0.16 0 0.080 0.24 0.080-0.080-0.080 0 0-0.24-0.080zM36.88 20.8c0.16 0.16 0 0.080 0.24 0.080-0.16-0.16 0 0-0.24-0.080zM27.040 21.12c0.080 0.080 0.16 0.16 0.32 0.080 0 0 0-0.080 0-0.080-0.080 0-0.24 0-0.32 0zM20.96 21.28c-0.16 0-0.24 0.080-0.4 0.080 0 0 0-0.080 0-0.080-0.16 0-0.24-0.080-0.4-0.080 0 0 0 0.080 0 0.080s0.080 0 0.080 0c0.16 0.16 0.56 0.24 0.72 0.32 0-0.080 0-0.16 0-0.32zM26.32 21.2c-0.080 0-0.24 0-0.32 0 0 0 0 0.080 0 0.080 0.080 0 0.16 0 0.24 0 0 0 0 0.080 0 0.080 0.080 0.24 0.080-0.16 0.080-0.16zM38.56 21.2c0.080 0.080 0.16 0.16 0.32 0.080 0 0 0-0.080 0-0.080-0.080 0-0.16 0-0.32 0zM39.12 21.28c0.16 0.16 0 0.080 0.24 0.080-0.16-0.080 0 0-0.24-0.080zM36.56 21.44c0.16 0.16 0 0.080 0.24 0.080-0.080-0.16 0-0.080-0.24-0.080zM39.52 21.44c0.080 0.080 0.16 0.16 0.32 0.080 0 0 0-0.080 0-0.080-0.080 0-0.16 0-0.32 0zM14.24 21.52c0.080 0.080 0.16 0.16 0.32 0.24-0.16-0.24-0.080-0.16-0.32-0.24zM48.4 21.52c0.16 0.16 0 0.080 0.24 0.080-0.16-0.080-0.080 0-0.24-0.080zM26.48 21.6c0.16 0.16 0 0.080 0.24 0.080-0.16-0.080 0 0-0.24-0.080zM13.68 21.76c0.16 0.16 0 0.080 0.24 0.080-0.16-0.16 0-0.080-0.24-0.080zM28.32 21.76c0.080 0.080 0.8 0.32 0.96 0.24 0 0 0-0.080 0-0.080-0.32-0.16-0.56-0.16-0.96-0.16zM15.36 21.84c0.16 0.16 0.16 0.16 0.4 0.24-0.080-0.16-0.16-0.16-0.4-0.24zM19.6 22.16c0.16 0 0.32 0.080 0.56 0.080 0 0 0-0.080 0-0.080-0.16-0.080 0 0-0.080-0.080-0.24 0-0.24-0.080-0.4-0.080-0.080 0-0.080 0.080-0.080 0.16zM32 22.16c-0.080 0-0.24 0-0.32 0 0 0 0 0.080 0 0.080 0.080 0 0.16 0 0.24 0 0.080 0.16 0 0 0.080 0.080 0 0 0-0.080 0-0.16zM15.44 22.72c0-0.080 0-0.16 0-0.24-0.32-0.080-0.32-0.080-0.72-0.080 0 0 0 0.080 0 0.080 0.16 0.080 0 0 0.080 0.080 0.080 0 0.24 0.080 0.32 0.080 0.16 0-0.080-0.080 0.080-0.080 0 0 0 0.080 0 0.080 0.16 0.080 0.16 0.080 0.24 0.080zM15.6 22.48c0 0.080 0 0.16 0 0.24 0.080 0 0.24 0 0.32 0 0 0 0-0.080 0-0.080-0.16-0.080-0.24-0.16-0.32-0.16zM34.56 22.48c0 0 0 0.080 0 0.080 0.16 0 0.24 0 0.4 0 0 0 0-0.080 0-0.080-0.080 0-0.24 0-0.4 0zM23.040 22.56c0.080 0.080 0.16 0.16 0.32 0.080 0 0 0-0.080 0-0.080-0.080 0-0.24 0-0.32 0zM23.44 22.72c0.080 0.080 0.16 0.24 0.24 0.32 0.16 0.080 0-0.080 0.080-0.080 0.24-0.080 0.32 0.080 0.32 0.080s0.080 0 0.080 0c0 0 0-0.080 0-0.080 0.080 0 0.16 0.080 0.24 0.080-0.32-0.48-0.24-0.16-0.64-0.24 0 0 0-0.080 0-0.080-0.080 0-0.24 0-0.32 0zM42.24 22.72c0.16 0.16 0 0.080 0.24 0.080-0.080-0.16 0-0.080-0.24-0.080zM42.56 22.72c0.080 0.16 0.080 0.16 0.32 0.24 0 0 0-0.080 0-0.080-0.080-0.16-0.16-0.16-0.32-0.16zM29.52 22.8c-0.080 0-0.16 0-0.24 0 0.080 0.16 0 0 0.080 0.080 0 0 0 0.080 0 0.080s0.080 0 0.080 0 0.080-0.080 0.080-0.16zM44.8 22.8c-0.080 0-0.16 0-0.24 0 0.080 0.16 0 0 0.080 0.080 0 0 0 0.080 0 0.080s0.080 0 0.080 0 0.080-0.080 0.080-0.16zM35.76 22.88c0 0.080 0 0.080 0.080 0.080s0.24 0 0.32 0c0.080 0-0.080 0 0.080 0.080 0 0 0-0.080 0-0.080s0.080 0 0.080 0c0 0 0-0.080 0-0.080-0.24 0-0.4 0-0.56 0zM22.8 23.12c0 0 0 0.080 0 0.080s-0.4-0.080-0.24 0.080c0 0 0.080 0 0.080 0 0.16 0.16 0.24 0.16 0.56 0.24 0 0 0-0.080 0-0.080-0.16-0.080-0.32-0.16-0.080-0.32-0.080 0-0.16 0-0.32 0zM24.64 23.12c0 0.080-0.080 0.16-0.080 0.24 0 0 0.32-0.16 0.24-0.24-0.16 0-0.16 0-0.16 0zM28 23.12c0 0.080 0 0.16 0 0.24 0 0 0.080 0 0.080 0 0-0.080 0-0.16 0-0.24 0 0-0.080 0-0.080 0zM28.4 23.2c0.080 0.080 0.24 0.32 0.4 0.24 0 0 0-0.080 0-0.080 0.080 0 0.16 0 0.24 0 0 0 0-0.080 0-0.080-0.24-0.080-0.4-0.080-0.64-0.080zM34.88 23.2c0.16 0.16 0 0.080 0.24 0.080-0.16-0.080 0 0-0.24-0.080zM44.96 23.2c0.16 0.16 0 0.080 0.24 0.080-0.080-0.080 0 0-0.24-0.080zM16.080 23.36c0 0 0 0.080 0 0.080 0.8 0.16 1.52 0.32 2.32 0.56 0 0 0-0.080 0-0.080-0.16-0.080 0 0-0.080-0.080-0.24 0-0.48-0.080-0.72-0.080 0 0 0-0.080 0-0.080-0.080 0-0.16 0.080-0.24 0.080-0.4-0.24-0.72-0.4-1.28-0.4zM38.56 23.36c-0.080 0-0.16 0-0.24 0 0.080 0.16 0 0 0.080 0.080 0 0 0 0.080 0 0.080s0.080 0 0.080 0c0.080-0.080 0.080-0.16 0.080-0.16zM46.88 23.36c0.080 0.080 0.64 0.32 0.88 0.24 0 0 0-0.080 0-0.080-0.32-0.16-0.56-0.16-0.88-0.16zM15.68 23.44c0.080 0.080 0.16 0.16 0.32 0.080 0 0 0-0.080 0-0.080-0.080 0-0.24 0-0.32 0zM28.8 23.76c0-0.080 0-0.16 0-0.24-0.4 0-0.32-0.080-0.64 0 0.16 0.16 0 0.080 0.24 0.080 0 0 0 0.080 0 0.080 0.16 0.080 0.24 0.080 0.4 0.080zM31.76 23.52c0.16 0.24 0.16 0.24 0.4 0.32-0.080-0.080-0.24-0.24-0.4-0.32zM24.4 23.68c0.16 0.16 0 0.080 0.24 0.080-0.16-0.16 0-0.080-0.24-0.080zM42.88 23.68c0.16 0.16 0 0.080 0.24 0.080-0.16-0.16 0-0.080-0.24-0.080z">
            </path>
            <path fill="#f00" style="fill: var(--color2, #f00)"
                d="M34.56 11.28h1.92c0.4 0 0.8 0.080 1.040 0.24s0.48 0.32 0.56 0.64c0.080 0.24 0.080 0.56 0 0.96-0.080 0.24-0.16 0.48-0.32 0.64s-0.4 0.4-0.64 0.48l0.64 1.68h-1.44l-0.48-1.52h-0.56l-0.32 1.52h-1.36l0.96-4.64zM36.080 13.36c0.16 0 0.32 0 0.48-0.080 0.080-0.080 0.16-0.16 0.24-0.24 0.080-0.16 0-0.32-0.080-0.48-0.080-0.080-0.24-0.16-0.48-0.16h-0.48l-0.24 0.96h0.56z">
            </path>
            <path fill="#f00" style="fill: var(--color2, #f00)"
                d="M39.2 11.28h1.76c0.56 0 0.96 0.080 1.28 0.32s0.56 0.56 0.72 0.96c0.16 0.4 0.16 0.88 0 1.36-0.080 0.4-0.24 0.72-0.48 1.040s-0.56 0.56-0.96 0.72c-0.4 0.16-0.8 0.24-1.28 0.24h-2.080l1.040-4.64zM40.4 14.64c0.24 0 0.48-0.080 0.72-0.24 0.16-0.16 0.32-0.4 0.4-0.72 0.080-0.24 0.080-0.4 0-0.64 0-0.16-0.080-0.32-0.24-0.4s-0.32-0.16-0.48-0.16h-0.4l-0.48 2.16h0.48z">
            </path>
            <path fill="#f00" style="fill: var(--color2, #f00)"
                d="M47.68 14.16c-0.24 1.2-1.040 1.84-2.24 1.84-0.4 0-0.72-0.080-1.040-0.16-0.24-0.080-0.48-0.24-0.56-0.48-0.16-0.24-0.24-0.48-0.24-0.72s0-0.56 0.080-0.88l0.56-2.48h1.52l-0.56 2.72c0 0.16-0.080 0.24 0 0.4 0 0.16 0.080 0.24 0.080 0.32 0.080 0.080 0.16 0.16 0.4 0.16 0.16 0 0.32-0.080 0.48-0.16 0.080-0.16 0.16-0.32 0.24-0.56l0.56-2.72h1.52l-0.8 2.72z">
            </path>
        </symbol>
    </defs>
</svg>
