<svg aria-hidden="true" style="position: absolute; width: 0; height: 0; overflow: hidden;" version="1.1"
	xmlns="http://www.w3.org/2000/svg" xmlns:xlink="http://www.w3.org/1999/xlink">

	<path fill="#000" style="fill: var(--color1, #000)"
		d="M59.704 12.752c-0.589-0.124-0.867-0.599-1.363-0.847 0 0.072 0 0.145 0 0.207 0.258 0.165 0.062 0.114 0.207 0.32 0.031 0 0.072 0 0.103 0 0.145 0.186 0.176 0.207 0.207 0.527-0.279 0.145-0.558 0.279-0.847 0.423-0.558 0.186-0.867-0.217-1.26 0-0.072 0.103-0.145 0.207-0.207 0.32-0.351 0.33-0.651 0.413-1.363 0.423-0.237-0.351-0.599-0.341-0.733-0.836-0.031 0-0.072 0-0.103 0 0 0.145 0 0.279 0 0.423 0.031 0 0.072 0 0.103 0 0 0.176 0 0.351 0 0.527 0.072 0.031 0.145 0.072 0.207 0.103 0.031 0.207 0.072 0.423 0.103 0.63 0.031 0 0.072 0 0.103 0 0.32-0.31 0.578-0.072 1.053-0.207 0-0.031 0-0.072 0-0.103 0.32 0 0.63 0 0.95 0 0-0.031 0-0.072 0-0.103 0.279 0 0.558 0 0.847 0 0-0.031 0-0.072 0-0.103 0.423-0.031 0.847-0.072 1.26-0.103 0.268 0.713 0.114 2.045 0.103 2.943 0.072 0 0.145 0 0.207 0 0.031-0.145 0.072-0.279 0.103-0.423 0.031 0 0.072 0 0.103 0 0.207-0.599-0.145-1.208 0.207-1.683 0.031 0 0.072 0 0.103 0 0.289-0.299 0.485-0.134 0.63-0.63 0.392 0.093 0.351 0.227 0.527 0.527 0.031 0 0.072 0 0.103 0 0.031 0.145 0.072 0.279 0.103 0.423 0.031 0 0.072 0 0.103 0 0 0.103 0 0.207 0 0.32 0.031 0 0.072 0 0.103 0 0.227 0.712-0.207 1.384-0.32 1.89-0.186 0.072-0.33 0.103-0.63 0.103-0.124-0.124 0-0.041-0.207-0.103-0.062 0.268-0.165 0.341-0.32 0.527-0.031 0-0.072 0-0.103 0 0 0.072 0 0.145 0 0.207-0.103 0.072-0.207 0.145-0.32 0.207 0 0.072 0 0.145 0 0.207-0.176 0.145-0.351 0.279-0.527 0.423 0 0.072 0 0.145 0 0.207-0.103 0.072-0.207 0.145-0.32 0.207 0 0.031 0 0.072 0 0.103-0.176 0-0.351 0-0.527 0-0.083 0.062 0 0.134-0.207 0.103 0-0.031 0-0.072 0-0.103-0.103 0-0.207 0-0.32 0 0-0.031 0-0.072 0-0.103-0.32-0.031-0.63-0.072-0.95-0.103 0-0.031 0-0.072 0-0.103-0.103 0-0.207 0-0.32 0 0-0.031 0-0.072 0-0.103-0.248 0-0.496 0-0.733 0 0-0.031 0-0.072 0-0.103-0.072 0-0.145 0-0.207 0 0-0.031 0-0.072 0-0.103-0.207-0.031-0.423-0.072-0.63-0.103 0-0.031 0-0.072 0-0.103-0.382 0-0.774 0-1.157 0 0-0.031 0-0.072 0-0.103-0.454-0.103-0.909-0.207-1.363-0.32 0 0.031 0 0.072 0 0.103 0.031 0 0.072 0 0.103 0 0.248 0.268 0.392 0.165 0.733 0.32 0 0.031 0 0.072 0 0.103 0.072 0 0.145 0 0.207 0 0 0.031 0 0.072 0 0.103 0.145 0.031 0.279 0.072 0.423 0.103 0 0.031 0 0.072 0 0.103 0.103 0 0.207 0 0.32 0 0 0.031 0 0.072 0 0.103 0.207 0.072 0.423 0.145 0.63 0.207 0.031 0.103 0.072 0.207 0.103 0.32 0.072 0.031 0.145 0.072 0.207 0.103 0.103 0.32 0.207 0.63 0.32 0.95-0.207 0.031-0.423 0.072-0.63 0.103 0 0.031 0 0.072 0 0.103-0.124 0.124-0.041 0-0.103 0.207 0.32 0 0.63 0 0.95 0 0 0.103 0 0.207 0 0.32-0.103 0.072-0.207 0.145-0.32 0.207 0 0.031 0 0.072 0 0.103-0.072 0-0.145 0-0.207 0-0.031 0.072-0.072 0.145-0.103 0.207-0.372 0.248-0.743 0.31-1.363 0.32-0.351-0.145-0.702-0.279-1.053-0.423 0 0.031 0 0.072 0 0.103 0.031 0 0.072 0 0.103 0 0 0.103 0 0.207 0 0.32 0.031 0 0.072 0 0.103 0 0 0.031 0 0.072 0 0.103 0.114 0.062 0.165 0.186 0.207 0.207 0.072 0 0.145 0 0.207 0 0 0.031 0 0.072 0 0.103 0.103 0 0.207 0 0.32 0 0 0.031 0 0.072 0 0.103 0.072 0 0.145 0 0.207 0 0 0.031 0 0.072 0 0.103 0.072 0 0.145 0 0.207 0 0.031 0.072 0.072 0.145 0.103 0.207 0.207 0.052 0.134-0.062 0.207-0.103 0.145-0.031 0.279-0.072 0.423-0.103 0.031-0.072 0.072-0.145 0.103-0.207 0.145-0.031 0.279-0.072 0.423-0.103 0.423-0.227 0.506-0.475 1.157-0.527 0.124 0.651 0.547 0.805 0.63 1.477-0.444 0.248-0.94 0.681-1.157 1.157-0.072 0-0.145 0-0.207 0-0.103-0.186-0.237-0.31-0.423-0.423-0.041 0.444-0.196 0.589-0.63 0.63 0.031-0.145 0.072-0.279 0.103-0.423-0.031 0-0.072 0-0.103 0-0.32 0.279-0.805 0.062-1.26 0.207 0 0.031 0 0.072 0 0.103-0.103 0-0.207 0-0.32 0 0 0.031 0 0.072 0 0.103-0.145 0.031-0.279 0.072-0.423 0.103 0 0.031 0 0.072 0 0.103-0.072 0-0.145 0-0.207 0 0 0.031 0 0.072 0 0.103-0.103 0-0.207 0-0.32 0-0.031 0.072-0.072 0.145-0.103 0.207-0.103 0-0.207 0-0.32 0 0 0.031 0 0.072 0 0.103-0.072 0-0.145 0-0.207 0-0.031 0.072-0.072 0.145-0.103 0.207-0.103 0-0.207 0-0.32 0-0.031 0.072-0.072 0.145-0.103 0.207-0.207 0.072-0.423 0.145-0.63 0.207 0 0.031 0 0.072 0 0.103-0.103 0.031-0.207 0.072-0.32 0.103-0.031 0.072-0.072 0.145-0.103 0.207-0.145 0.031-0.279 0.072-0.423 0.103 0 0.031 0 0.072 0 0.103-0.103 0.031-0.207 0.072-0.32 0.103-0.031 0.072-0.072 0.145-0.103 0.207-0.072 0-0.145 0-0.207 0-0.031 0.072-0.072 0.145-0.103 0.207-0.072 0-0.145 0-0.207 0-0.072 0.103-0.145 0.207-0.207 0.32-0.072 0-0.145 0-0.207 0-0.176 0.207-0.351 0.423-0.527 0.63-0.072 0.031-0.145 0.072-0.207 0.103 0 0.072 0 0.145 0 0.207-0.103 0.072-0.207 0.145-0.32 0.207-0.31 0.444-0.361 0.991-0.95 1.157-0.031-0.207-0.072-0.423-0.103-0.63-0.031 0-0.072 0-0.103 0 0.031 0.496 0.072 0.981 0.103 1.477-0.031 0-0.072 0-0.103 0-0.031 0.176-0.072 0.351-0.103 0.527-0.723 0.32-2.034 0.32-3.056 0.32-0.382 0-0.774 0-1.157 0-0.496-0.186-0.681-0.888-1.26-1.053 0-0.072 0-0.145 0-0.207-0.072 0-0.145 0-0.207 0 0-0.072 0-0.145 0-0.207-0.537-0.145-1.291-1.187-1.683-1.58-1.053-1.012-2.106-2.034-3.16-3.046-0.423-0.454-0.847-0.909-1.26-1.363-0.527-0.299-1.601-0.207-2.416-0.207-1.828 0-3.645 0-5.473 0-0.072-0.207-0.145-0.423-0.207-0.63-0.878 0.176-1.838 0.31-2.736 0 0-0.031 0-0.072 0-0.103-0.145 0-0.279 0-0.423 0 0-0.031 0-0.072 0-0.103-0.279-0.134-0.413-0.238-0.733-0.32-0.031-0.176-0.072-0.351-0.103-0.527 0.392-0.248 0.403-0.764 0.733-1.053 0.496 0.599 1.776 0.919 2.736 0.733 0-0.031 0-0.072 0-0.103-0.145-0.124-0.165-0.196-0.207-0.423-0.341 0.083-0.702 0.382-0.95 0.207-0.031 0-0.072 0-0.103 0 0-0.207 0-0.423 0-0.63-0.805-0.031-1.611-0.072-2.416-0.103 0 0.103 0 0.207 0 0.32-0.031 0-0.072 0-0.103 0-0.062 0.238-0.093 0.268-0.207 0.423-0.031 0-0.072 0-0.103 0-0.031 0.103-0.072 0.207-0.103 0.32-0.072 0.031-0.145 0.072-0.207 0.103 0 0.072 0 0.145 0 0.207-0.072 0.031-0.145 0.072-0.207 0.103-0.103 0.145-0.207 0.279-0.32 0.423-0.072 0-0.145 0-0.207 0-0.072 0.103-0.145 0.207-0.207 0.32-0.145 0.031-0.279 0.072-0.423 0.103 0 0.031 0 0.072 0 0.103-0.207 0.072-0.423 0.145-0.63 0.207 0 0.031 0 0.072 0 0.103-0.145 0-0.279 0-0.423 0-1.342 0.444-2.375 0.114-3.366-0.423-0.145-0.031-0.279-0.072-0.423-0.103-0.072-0.103-0.145-0.207-0.207-0.32-0.072 0-0.145 0-0.207 0-0.145-0.176-0.279-0.351-0.423-0.527-0.072-0.031-0.145-0.072-0.207-0.103 0-0.072 0-0.145 0-0.207-0.103-0.072-0.207-0.145-0.32-0.207 0-0.072 0-0.145 0-0.207-0.031 0-0.072 0-0.103 0-0.124-0.217 0-0.238-0.207-0.423-0.248 0.361-0.62 0.248-1.053 0.423 0 0.031 0 0.072 0 0.103-0.103 0-0.207 0-0.32 0 0 0.031 0 0.072 0 0.103-0.145 0-0.279 0-0.423 0 0 0.031 0 0.072 0 0.103-0.145 0-0.279 0-0.423 0 0 0.031 0 0.072 0 0.103-0.176 0-0.351 0-0.527 0 0 0.031 0 0.072 0 0.103-0.176 0-0.351 0-0.527 0 0 0.031 0 0.072 0 0.103-0.351 0-0.702 0-1.053 0 0 0.031 0 0.072 0 0.103-0.496 0-0.981 0-1.477 0-0.155 0.041-0.63 0.196-0.95 0.103 0-0.031 0-0.072 0-0.103-1.714 0-3.439 0-5.153 0-0.010-0.671 0.103-1.311 0.207-1.89 0.103-0.031 0.207-0.072 0.32-0.103 0-0.031 0-0.072 0-0.103 0.248 0.031 0.496 0.072 0.733 0.103 0-0.031 0-0.072 0-0.103 0.145-0.031 0.279-0.072 0.423-0.103 0.083-0.33 0.31-0.485 0.423-0.733 0-0.103 0-0.207 0-0.32 0.031 0 0.072 0 0.103 0 0-0.072 0-0.145 0-0.207 0.072-0.031 0.145-0.072 0.207-0.103 0-0.072 0-0.145 0-0.207 0.072-0.031 0.145-0.072 0.207-0.103 0.145-0.176 0.279-0.351 0.423-0.527 0.207-0.072 0.423-0.145 0.63-0.207 0-0.031 0-0.072 0-0.103 0.145 0 0.279 0 0.423 0 0-0.031 0-0.072 0-0.103 0.496 0 0.981 0 1.477 0 0-0.031 0-0.072 0-0.103 0.072 0 0.145 0 0.207 0 0-0.031 0-0.072 0-0.103 0.103 0 0.207 0 0.32 0 0.031-0.072 0.072-0.145 0.103-0.207 0.103-0.031 0.207-0.072 0.32-0.103 0-0.031 0-0.072 0-0.103 0.145-0.031 0.279-0.072 0.423-0.103 0-0.031 0-0.072 0-0.103 0.072 0 0.145 0 0.207 0 0-0.031 0-0.072 0-0.103 0.072 0 0.145 0 0.207 0 0-0.031 0-0.072 0-0.103 0.072 0 0.145 0 0.207 0 0-0.031 0-0.072 0-0.103 0.072 0 0.145 0 0.207 0 0-0.031 0-0.072 0-0.103 0.072 0 0.145 0 0.207 0 0.072-0.103 0.145-0.207 0.207-0.32 0.072 0 0.145 0 0.207 0 0-0.031 0-0.072 0-0.103 0.103 0 0.207 0 0.32 0 0-0.031 0-0.072 0-0.103 0.103 0 0.207 0 0.32 0 0-0.031 0-0.072 0-0.103 0.207-0.072 0.423-0.145 0.63-0.207 0.103-0.351 0.207-0.702 0.32-1.053 0.207 0 0.423 0 0.63 0 0.155-0.268 0.609-0.651 0.95-0.733 0.145-0.878 0.279-1.755 0.423-2.633 1.301 0 2.592 0 3.893 0 0 0.031 0 0.072 0 0.103 0.207 0.031 0.423 0.072 0.63 0.103 0 0.031 0 0.072 0 0.103 0.072 0 0.145 0 0.207 0 0.031 0.072 0.072 0.145 0.103 0.207 0.031 0 0.072 0 0.103 0 0-0.031 0-0.072 0-0.103 0.392-0.227 0.527-0.496 1.157-0.527 0.031-0.176 0.072-0.351 0.103-0.527 0.031 0 0.072 0 0.103 0 0.124-0.372 0-0.878 0.103-1.156 0.103-0.031 0.207-0.072 0.32-0.103 0-0.031 0-0.072 0-0.103 0.496 0 0.981 0 1.477 0 0 0.031 0 0.072 0 0.103 0.578 0.165 1.487-0.041 2.003 0.103 2.489 0.031 4.977 0.072 7.476 0.103 4.172 0 8.354 0 12.525 0 2.003 0 3.996 0 5.999 0 0 0.031 0 0.072 0 0.103 0.599 0.165 2.468-0.021 2.943-0.103 0.63 0 1.26 0 1.89 0 1.435 0 2.881 0 4.316 0 0 0.031 0 0.072 0 0.103 0.176 0 0.351 0 0.527 0 0.176 0.248 0.351 0.496 0.527 0.733 0.072 0.031 0.145 0.072 0.207 0.103 0 0.072 0 0.145 0 0.207 0.103 0.072 0.207 0.145 0.32 0.207 0 0.072 0 0.145 0 0.207 0.031 0 0.072 0 0.103 0 0.072 0.207 0.145 0.423 0.207 0.63 0.031 0 0.072 0 0.103 0 0.031 0.176 0.072 0.351 0.103 0.527 0.031 0 0.072 0 0.103 0 0 0.103 0 0.207 0 0.32 0.083 0.196 0.227 0.516 0.32 0.733-0.031 0-0.072 0-0.103 0-0.062 0.041-0.010 0.176-0.207 0.103 0-0.031 0-0.072 0-0.103-0.237-0.217-0.485-0.836-0.63-1.156-0.031 0-0.072 0-0.103 0-0.041 0.196-0.072 0.372-0.103 0.547zM16.346 13.176c0-0.072 0-0.145 0-0.207-0.279-0.145-0.176-0.186-0.63-0.207-0.196-0.176-0.795-0.114-1.156-0.103-0.031 0.103-0.072 0.207-0.103 0.32-0.124 0.134-0.196 0.599-0.207 0.847 0.031 0 0.072 0 0.103 0 0.32-0.589 0.836-0.754 1.786-0.733 0.114 0.093 0 0.021 0.207 0.083zM15.716 21.478c0 0.072 0 0.145 0 0.207 0.392 0.052 0.558 0.227 0.847 0.32 0.578 0.186 1.724-0.134 2.003-0.32 0-0.031 0-0.072 0-0.103 0.145-0.103 0.279-0.207 0.423-0.32 0-0.031 0-0.072 0-0.103-0.981 0-1.962 0-2.943 0 0-0.031 0-0.072 0-0.103-0.279 0-0.558 0-0.847 0 0 0.031 0 0.072 0 0.103 0.124 0.093 0.010-0.010 0.103 0.103 0.176 0.114 0.155 0.155 0.413 0.217z">
	</path>
	<path fill="#f00" style="fill: var(--color2, #f00)"
		d="M33.074 24.978h-24.545c0 0-0.021 0-0.021 0s3.914-2.303 3.914-2.303c-0.651-0.847-0.651-0.857-1.012-2.055h-0.010c-6.567 3.831-11.4 6.66-11.4 6.66 12.185 0 23.171 0.010 35.356 0.010-0.165-0.155-1.239-1.218-1.249-1.218 0-0.021-0.95-1.002-1.033-1.095zM50.328 27.281h11.431l-15.148-27.281c0 0-19.165 11.193-19.155 11.204 0.434 0.33 1.187 1.518 1.311 2.075 8.756-5.060 17.038-9.841 17.038-9.841l11.834 21.54h-2.003c-1.425 0.423-3.686 1.167-5.308 2.303zM28.768 13.279c0 0 0 0 0 0s0 0 0 0c0 0.010 0 0.010 0 0z">
	</path>
	<path fill="#f00" style="fill: var(--color2, #f00)"
		d="M23.832 10.997c0 0.072 0 0.145 0 0.217 0.145 0.031 0.279 0.072 0.423 0.103 0-0.072 0-0.145 0-0.217 0.072 0 0.145 0 0.207 0-0.268-0.238-0.485-0.041-0.733-0.423 0.072 0 0.145 0 0.207 0 0.124 0.083 0.485-0.021 0.847 0.103 0.444 0.165 1.249 0.568 1.477 0.95 0.031 0 0.072 0 0.103 0-0.031 0.103-0.072 0.217-0.103 0.32 0.031 0 0.072 0 0.103 0 0 0.031 0 0.072 0 0.103 0.103-0.031 0.207-0.072 0.32-0.103 0.134 0.062-0.041 0.062 0.103 0.103 0.103 0.145 0.207 0.279 0.32 0.423 0.031 0 0.072 0 0.103 0 0 0.072 0 0.145 0 0.217 0.072 0.031 0.145 0.072 0.207 0.103 0.516 0.816 0.826 2.602 0.423 3.707-0.599-0.268-1.115-0.516-2.003-0.527 0.031-0.32 0.072-0.64 0.103-0.95-0.031 0-0.072 0-0.103 0 0-0.176 0-0.351 0-0.527-0.031 0-0.072 0-0.103 0-0.031-0.176-0.072-0.351-0.103-0.527-0.031 0-0.072 0-0.103 0-0.031-0.103-0.072-0.217-0.103-0.32 0.413 0.072 0.651 0.196 1.157 0.217 0-0.031 0-0.072 0-0.103-0.176-0.062-0.289-0.041-0.527-0.103 0-0.031 0-0.072 0-0.103-0.031 0-0.072 0-0.103 0 0 0.031 0 0.072 0 0.103-0.238 0.021-0.207-0.103-0.207-0.103-0.176 0-0.351 0-0.527 0-0.103-0.145-0.207-0.279-0.32-0.423-0.072 0-0.145 0-0.207 0-0.031-0.072-0.072-0.145-0.103-0.217-0.103 0-0.207 0-0.32 0 0-0.031 0-0.072 0-0.103-0.103 0-0.207 0-0.32 0 0-0.031 0-0.072 0-0.103-0.454-0.155-1.229-0.010-1.58 0.103 0 0.031 0 0.072 0 0.103-0.176-0.031-0.351-0.072-0.527-0.103 0 0.031 0 0.072 0 0.103 0.072 0 0.145 0 0.207 0 0 0.031 0 0.072 0 0.103-0.031 0-0.072 0-0.103 0-0.155 0.238-0.475 0.31-0.63 0.527 0 0.072 0 0.145 0 0.217-0.072 0.031-0.145 0.072-0.207 0.103 0 0.072 0 0.145 0 0.217-0.031 0-0.072 0-0.103 0 0 0.072 0 0.145 0 0.217-0.031 0-0.072 0-0.103 0 0 0.103 0 0.217 0 0.32-0.031 0-0.072 0-0.103 0-0.258 0.785 0.299 2.179 0.527 2.54 0.072 0.031 0.145 0.072 0.207 0.103 0.031 0.217 0.072 0.423 0.103 0.64 0.031 0 0.072 0 0.103 0 0 0.072 0 0.145 0 0.217 0.031 0 0.072 0 0.103 0 0.093 0.258-0.114 0.506 0.103 0.64 0 0.031 0 0.072 0 0.103-0.103 0.145-0.083-0.093-0.207 0.103 0.072 0 0.145 0 0.207 0 0.010 0.785-0.114 1.384-0.32 1.91 0 0.103 0 0.217 0 0.32-0.031 0-0.072 0-0.103 0-0.072 0.217-0.145 0.423-0.207 0.64-0.867 0-1.57-0.372-2.323-0.527 0-0.031 0-0.072 0-0.103 0.361-0.238 0.723-1.105 0.847-1.59-0.031-0.248-0.072-0.496-0.103-0.743 0.434 0.052 1.301 0.444 1.58 0.217-0.382 0-1.404-0.248-1.58-0.423-0.031 0-0.072 0-0.103 0 0-0.145 0-0.279 0-0.423-0.072-0.031-0.145-0.072-0.207-0.103-0.031-0.145-0.072-0.279-0.103-0.423 0.165-0.062 0.176-0.083 0.423-0.103 0.155 0.196 0.589 0.434 0.847 0.217-0.475-0.031-0.712-0.186-1.157-0.32 0-0.031 0-0.072 0-0.103-0.103 0.031-0.207 0.072-0.32 0.103 0-0.031 0-0.072 0-0.103-0.031 0-0.072 0-0.103 0-0.031-0.217-0.072-0.423-0.103-0.64 0.114 0.021 0.568 0.207 0.733 0.103 0-0.031 0-0.072 0-0.103-0.072 0-0.145 0-0.207 0 0.031-0.145 0.072-0.279 0.103-0.423 0.072 0 0.145 0 0.207 0-0.145-0.165-0.227-0.186-0.527-0.217 0 0.031 0 0.072 0 0.103 0.072 0 0.145 0 0.207 0-0.031 0.145-0.072 0.279-0.103 0.423-0.103 0-0.207 0-0.32 0-0.072-0.289-0.031-0.238-0.32-0.32-0.031-0.454-0.072-0.919-0.103-1.373 0.031 0 0.072 0 0.103 0 0-0.217 0-0.423 0-0.64 0.186-0.599 0.589-1.714 1.053-2.014 0-0.031 0-0.072 0-0.103 0.103 0.031 0.207 0.072 0.32 0.103 0-0.031 0-0.072 0-0.103 0.072 0 0.145 0 0.207 0-0.103-0.33-0.103-0.103 0-0.423 0.083 0.031 0.33 0.217 0.527 0.103 0-0.031 0-0.072 0-0.103-0.32-0.031-0.289-0.010-0.423-0.217 0.124-0.093 0.010 0.010 0.103-0.103 0.103 0.031 0.207 0.072 0.32 0.103 0-0.103 0-0.217 0-0.32 0.103-0.031 0.207-0.072 0.32-0.103 0-0.031 0-0.072 0-0.103 0.072 0 0.145 0 0.207 0 0-0.031 0-0.072 0-0.103 0.207-0.031 0.423-0.072 0.63-0.103 0-0.031 0-0.072 0-0.103 0.207 0 0.423 0 0.63 0 0 0 0.093-0.165 0.32-0.103 0 0.031 0 0.072 0 0.103 0.299 0.031 0.62 0.103 0.94 0.165zM12.98 11.214c0.558 0 1.126 0 1.683 0 0 0.031 0 0.072 0 0.103 0.031 0 0.072 0 0.103 0 0-0.031 0-0.072 0-0.103 0.733 0 1.477 0 2.21 0 0 0.031 0 0.072 0 0.103 0.248 0.072 0.496 0.145 0.733 0.217 0.083 0.155 0.289 0.423 0.423 0.527 0.031 1.322-0.289 1.828-1.157 2.22 0.186 0.217 0.248 0.093 0.423 0.217 0.176 0.217 0.351 0.423 0.527 0.64-0.021 0.248-0.041 0.258-0.103 0.423-0.031 0-0.072 0-0.103 0 0.021 0.176 0.207 0.196 0.207 0.217-0.031 0.176-0.072 0.351-0.103 0.527-0.072-0.031-0.145-0.072-0.207-0.103 0.299 0.268-0.041 0.506-0.207 0.64 0 0.031 0 0.072 0 0.103-0.176 0-0.351 0-0.527 0 0.031-0.103 0.072-0.217 0.103-0.32-0.072 0-0.145 0-0.207 0 0 0.103 0 0.217 0 0.32-0.248 0.021-0.258 0.041-0.423 0.103 0-0.103 0-0.217 0-0.32-0.031 0-0.072 0-0.103 0 0 0.031 0 0.072 0 0.103-0.031 0-0.072 0-0.103 0s-0.072 0-0.103 0c0-0.031 0-0.072 0-0.103-0.176 0-0.351 0-0.527 0-0.031-0.072-0.072-0.145-0.103-0.217-0.031 0-0.072 0-0.103 0 0 0.072 0 0.145 0 0.217 0.32 0.072 0.63 0.145 0.95 0.217 0 0.072 0 0.145 0 0.217-0.33 0.041-0.527 0.145-0.733 0.32-0.031 0.072-0.072 0.145-0.103 0.217-0.072 0-0.145 0-0.207 0 0 0.031 0 0.072 0 0.103-1.084 0-2.179 0-3.263 0-0.093-0.124 0.010-0.010-0.103-0.103 0-0.031 0-0.072 0-0.103 0.031 0 0.072 0 0.103 0 0-0.217 0-0.423 0-0.64 0.031 0 0.072 0 0.103 0 0-0.217 0-0.423 0-0.64 0.165-0.537 0.31-0.96 0.32-1.693 0.072 0 0.145 0 0.207 0-0.248-0.661 0.186-1.693 0.207-2.54 0.103 0 0.207 0 0.32 0 0-0.031 0-0.072 0-0.103-0.072 0-0.145 0-0.207 0 0-0.268 0.031-0.516 0.072-0.764zM21.509 11.214c0.052 0.041 0.134 0.196 0.32 0.103 0-0.031 0-0.072 0-0.103-0.103 0-0.217 0-0.32 0zM23.409 11.42c-0.010 0.33-0.207 0.196 0.103 0.32 0.031-0.103 0.072-0.217 0.103-0.32-0.145-0.031-0.279-0.072-0.423-0.103 0 0.031 0 0.072 0 0.103 0.072 0 0.145 0 0.217 0zM22.985 11.534c-0.072 0-0.145 0-0.207 0 0 0.031 0 0.072 0 0.103 0.031 0 0.072 0 0.103 0 0 0.031 0 0.072 0 0.103 0.031 0 0.072 0 0.103 0 0-0.072 0-0.145 0-0.207zM16.346 11.637c0 0.103 0 0.217 0 0.32 0.031 0 0.072 0 0.103 0 0-0.031 0-0.072 0-0.103 0.207 0.031 0.423 0.072 0.63 0.103 0-0.031 0-0.072 0-0.103-0.238-0.072-0.485-0.145-0.733-0.217zM24.359 11.957c-0.072 0-0.145 0-0.207 0 0.093 0.124-0.010 0.010 0.103 0.103 0 0.031 0 0.072 0 0.103 0.114-0.114 0.041 0 0.103-0.207zM14.136 12.484c0-0.072 0-0.145 0-0.217-0.145 0-0.279 0-0.423 0 0 0.031 0 0.072 0 0.103 0.031 0 0.072 0 0.103 0 0 0.031 0 0.072 0 0.103 0.103 0.010 0.217 0.010 0.32 0.010zM14.343 12.381c0.124 0.124 0 0.041 0.207 0.103-0.114-0.124 0.010-0.041-0.207-0.103zM23.729 12.484c0.124 0.145 0.196 0.165 0.423 0.217-0.134-0.155-0.196-0.165-0.423-0.217zM19.619 12.907c0.072 0 0.145 0 0.207 0 0 0.031 0 0.072 0 0.103 0.103-0.031 0.207-0.072 0.32-0.103 0.031-0.072 0.072-0.145 0.103-0.217-0.124-0.093-0.010 0.010-0.103-0.103-0.207 0.072-0.207 0.145-0.423 0 0 0.031 0 0.072 0 0.103-0.124 0.124-0.041 0-0.103 0.217zM21.085 12.587c-0.072 0-0.145 0-0.207 0 0.093 0.124-0.010 0.010 0.103 0.103 0 0.031 0 0.072 0 0.103 0.031 0 0.072 0 0.103 0 0-0.062 0-0.134 0-0.207zM14.446 12.691c-0.062 0.32-0.238 0.878-0.103 1.064 0.196 0.176 0.795 0.114 1.156 0.103 0-0.031 0-0.072 0-0.103 0.207-0.031 0.423-0.072 0.63-0.103 0.031-0.103 0.072-0.217 0.103-0.32 0.031 0 0.072 0 0.103 0 0-0.145 0-0.279 0-0.423 0.072 0 0.145 0 0.207 0 0-0.031 0-0.072 0-0.103-0.103 0.031-0.207 0.072-0.32 0.103-0.031-0.072-0.072-0.145-0.103-0.217-0.547 0-1.105 0-1.673 0zM20.672 13.114c0.124 0.124 0 0.041 0.207 0.103-0.124-0.114 0-0.031-0.207-0.103zM26.248 13.434c0 0.072 0 0.145 0 0.217 0.031 0 0.072 0 0.103 0 0-0.072 0-0.145 0-0.217-0.031 0-0.062 0-0.103 0zM15.086 13.971c-0.072 0-0.145 0-0.207 0 0.093 0.124-0.010 0.010 0.103 0.103 0 0.031 0 0.072 0 0.103 0.031 0 0.072 0 0.103 0 0-0.072 0-0.145 0-0.207zM22.985 14.498c0.207 0 0.423 0 0.63 0 0 0.031 0 0.072 0 0.103 0.671 0.155 0.578 0.64 0.527 1.27-0.103 0.072-0.207 0.145-0.32 0.217 0 0.031 0 0.072 0 0.103-0.072 0-0.145 0-0.207 0 0 0.031 0 0.072 0 0.103-0.413 0.145-1.084-0.268-1.157-0.423 0-0.32 0-0.64 0-0.95 0.155-0.083 0.423-0.299 0.527-0.423zM14.033 15.024c-0.031 0.32-0.072 0.64-0.103 0.95-0.072 0.031-0.145 0.072-0.207 0.103 0 0.031 0 0.072 0 0.103 0.031 0 0.072 0 0.103 0 0 0.031 0 0.072 0 0.103 0.207 0 0.423 0 0.63 0 0 0.103 0 0.217 0 0.32 0.031 0 0.072 0 0.103 0 0-0.103 0-0.217 0-0.32 0.351 0 0.702 0 1.053 0 0-0.031 0-0.072 0-0.103 0.072 0 0.145 0 0.207 0 0-0.031 0-0.072 0-0.103 0.072 0.031 0.145 0.072 0.207 0.103 0-0.072 0-0.145 0-0.217 0.072 0 0.145 0 0.207 0-0.062-0.392-0.062-0.279-0.103-0.743-0.176-0.031-0.351-0.072-0.527-0.103-0.031-0.072-0.072-0.145-0.103-0.217 0.010 0.021-1.208 0.124-1.466 0.124zM16.873 15.344c0.145 0.031 0.279 0.072 0.423 0.103-0.103-0.124-0.268-0.238-0.423-0.32 0 0.072 0 0.145 0 0.217zM19.723 15.344c-0.072 0-0.145 0-0.207 0 0.093 0.124-0.010 0.010 0.103 0.103 0 0.031 0 0.072 0 0.103 0.031 0 0.072 0 0.103 0 0-0.072 0-0.134 0-0.207zM17.399 15.448c0.124 0.124 0 0.041 0.207 0.103-0.114-0.114 0.010-0.041-0.207-0.103zM13.289 15.551c0.114 0.186 0.062 0.145 0.32 0.217 0.093-0.124-0.010-0.010 0.103-0.103 0-0.031 0-0.072 0-0.103-0.145-0.010-0.279-0.010-0.423-0.010zM20.032 15.664c0.124 0.124 0 0.041 0.207 0.103-0.114-0.124 0.010-0.041-0.207-0.103zM13.289 15.974c0 0.031 0 0.072 0 0.103-0.031 0-0.072 0-0.103 0-0.196 0.093 0.207 0.103 0.207 0.103 0.093 0.124-0.010 0.010 0.103 0.103-0.062-0.238-0.031-0.186-0.207-0.31zM20.352 16.398c0.124 0.124 0 0.041 0.207 0.103-0.114-0.114 0-0.031-0.207-0.103zM16.139 16.511c0.124 0.124 0 0.041 0.207 0.103-0.114-0.124 0-0.041-0.207-0.103zM26.775 18.834c-0.103 0-0.207 0-0.32 0 0-0.072 0-0.145 0-0.217-0.671-0.124-1.187-0.238-1.9-0.103-0.145 0.279-0.186 0.176-0.207 0.64 0.103 0.031 0.207 0.072 0.32 0.103 0 0.031 0 0.072 0 0.103 0.072 0 0.145 0 0.207 0 0 0.031 0 0.072 0 0.103 0.145 0 0.279 0 0.423 0 0.599 0.207 1.601 0.454 1.9 0.95 0.124 0.093 0.010-0.010 0.103 0.103-0.103 0-0.207 0-0.32 0 0 0.031 0 0.072 0 0.103 0.527 0.010 0.537 0.103 0.527 0.64 0.031 0 0.072 0 0.103 0 0.010 0.093-0.268 1.187-0.32 1.27-0.103 0.072-0.207 0.145-0.32 0.217 0 0.072 0 0.145 0 0.217-0.031 0-0.072 0-0.103 0-0.072 0.103-0.145 0.217-0.207 0.32-0.547 0.392-1.9 0.795-2.736 0.527-0.176 0-0.351 0-0.527 0 0-0.031 0-0.072 0-0.103-0.072 0-0.145 0-0.207 0 0-0.031 0-0.072 0-0.103-0.372-0.145-0.578 0.062-0.847-0.217-0.124-0.124-0.041 0-0.103-0.217-0.072 0-0.145 0-0.207 0 0.031-0.072 0.072-0.145 0.103-0.217-0.031 0-0.072 0-0.103 0-0.062 0.041-0.010 0.176-0.207 0.103 0-0.031 0-0.072 0-0.103-0.031 0-0.072 0-0.103 0 0-0.103 0-0.217 0-0.32 0.134-0.083 0.124-0.072 0.207-0.217 0.145 0 0.279 0 0.423 0 0 0.072 0 0.145 0 0.217 0.207-0.031 0.423-0.072 0.63-0.103 0-0.031 0-0.072 0-0.103-0.423-0.052-0.372-0.176-0.847-0.217 0.072-0.207 0.145-0.423 0.207-0.64 0.351 0.217 0.702 0.423 1.053 0.64 0.279 0.031 0.558 0.072 0.847 0.103 0 0.031 0 0.072 0 0.103 0.774 0.217 1.342-0.227 1.373-0.847-0.114-0.052-0.186-0.196-0.207-0.217-0.103 0-0.207 0-0.32 0-0.795-0.341-2.003-0.434-2.427-1.167-0.031 0-0.072 0-0.103 0-0.031-0.217-0.072-0.423-0.103-0.64 0.248 0.031 0.496 0.072 0.733 0.103 0-0.031 0-0.072 0-0.103-0.248-0.031-0.496-0.072-0.733-0.103-0.010-0.702 0.196-0.867 0.32-1.373 0.145 0 0.279 0 0.423 0 0 0.031 0 0.072 0 0.103 0.031 0 0.072 0 0.103 0 0.031-0.072 0.072-0.145 0.103-0.217 0.207 0 0.423 0 0.63 0 0-0.031 0-0.072 0-0.103 0.103 0 0.207 0 0.32 0 0-0.031 0-0.072 0-0.103 0.072 0 0.145 0 0.207 0 0.031-0.072 0.072-0.145 0.103-0.217 0.072 0 0.145 0 0.207 0 0.176-0.217 0.351-0.423 0.527-0.64 0.351 0 0.702 0 1.053 0 0 0.031 0 0.072 0 0.103 0.248 0.031 0.496 0.072 0.733 0.103 0 0.031 0 0.072 0 0.103 0.072 0 0.145 0 0.207 0 0.052 0.031 0.093 0.145 0.207 0.217-0.031 0.103-0.072 0.217-0.103 0.32-0.031 0-0.072 0-0.103 0 0 0.072 0 0.145 0 0.217-0.031 0-0.072 0-0.103 0 0 0.072 0 0.145 0 0.217-0.031 0-0.072 0-0.103 0-0.165 0.248-0.32 0.351-0.413 0.661zM47.117 18.731c-0.031 0.176-0.072 0.351-0.103 0.527 0.279 0.145 0.558 0.279 0.847 0.423 0.145 0 0.279 0 0.423 0 0.64 0.217 1.621 0.485 1.786 1.167 0.114 0.114 0.299 0.537 0.207 0.847-0.031 0-0.072 0-0.103 0 0 0.176 0 0.351 0 0.527-0.031 0-0.072 0-0.103 0-0.031 0.145-0.072 0.279-0.103 0.423-0.031 0-0.072 0-0.103 0 0 0.072 0 0.145 0 0.217-0.072 0.031-0.145 0.072-0.207 0.103-0.145 0.176-0.279 0.351-0.423 0.527-0.072 0-0.145 0-0.207 0 0 0.031 0 0.072 0 0.103-0.145 0.031-0.279 0.072-0.423 0.103 0 0.031 0 0.072 0 0.103-0.32 0.134-1.611 0.361-2.106 0.217 0-0.031 0-0.072 0-0.103-0.207 0-0.423 0-0.63 0 0-0.031 0-0.072 0-0.103-0.103 0-0.207 0-0.32 0 0-0.031 0-0.072 0-0.103-0.103 0-0.207 0-0.32 0 0-0.031 0-0.072 0-0.103-0.072 0-0.145 0-0.207 0 0-0.031 0-0.072 0-0.103-0.072 0-0.145 0-0.207 0 0-0.031 0-0.072 0-0.103-0.186-0.155-0.248-0.238-0.527-0.32 0-0.103 0-0.217 0-0.32 0.403-0.238 0.558-0.712 1.053-0.847 0-0.072 0-0.145 0-0.217 0.103 0.031 0.207 0.072 0.32 0.103 0 0.031 0 0.072 0 0.103 0.072 0 0.145 0 0.207 0 0.031 0.072 0.072 0.145 0.103 0.217 0.145 0.031 0.279 0.072 0.423 0.103 0 0.031 0 0.072 0 0.103 0.485 0.207 1.311 0.083 1.786 0 0.072-0.186 0.103-0.33 0.103-0.64-0.103-0.031-0.207-0.072-0.32-0.103 0-0.031 0-0.072 0-0.103-0.072 0-0.145 0-0.207 0 0-0.031 0-0.072 0-0.103-0.145 0-0.279 0-0.423 0-0.64-0.227-1.828-0.485-2.003-1.167-0.207-0.196-0.217-0.537-0.207-0.95 0.103 0.031 0.207 0.072 0.32 0.103 0-0.031 0-0.072 0-0.103-0.217-0.145-0.196-0.176-0.207-0.527 0.031 0 0.072 0 0.103 0 0-0.103 0-0.217 0-0.32 0.072-0.031 0.145-0.072 0.207-0.103 0-0.072 0-0.145 0-0.217 0.176-0.145 0.351-0.279 0.527-0.423 0-0.031 0-0.072 0-0.103 0.072 0 0.145 0 0.207 0 0-0.031 0-0.072 0-0.103 0.207-0.072 0.423-0.145 0.63-0.217 0-0.031 0-0.072 0-0.103 0.279-0.114 1.797-0.238 2.21-0.103 0 0.031 0 0.072 0 0.103 0.145 0 0.279 0 0.423 0 0 0.031 0 0.072 0 0.103 0.207 0.072 0.423 0.145 0.63 0.217 0 0.031 0 0.072 0 0.103 0.072 0 0.145 0 0.207 0 0 0.031 0 0.072 0 0.103 0.103 0.072 0.207 0.145 0.32 0.217-0.093 0.124 0.010 0.010-0.103 0.103-0.32 0.392-0.63 0.774-0.95 1.167-0.227 0.072-0.888-0.465-1.053-0.527-0.145 0-0.279 0-0.423 0-0.609-0.196-0.537 0-1.053 0.103zM28.995 17.141c0.599 0 1.198 0 1.786 0-0.031 0.351-0.072 0.702-0.103 1.064-0.072 0-0.145 0-0.207 0 0.196 0.496-0.052 1.508-0.207 2.014 0 0.217 0 0.423 0 0.64-0.031 0-0.072 0-0.103 0 0 0.031 0 0.072 0 0.103-0.103 0-0.207 0-0.32 0 0-0.031 0-0.072 0-0.103-0.207-0.031-0.423-0.072-0.63-0.103 0 0.031 0 0.072 0 0.103 0.124 0.124 0.041 0 0.103 0.217-0.176-0.031-0.351-0.072-0.527-0.103 0 0.031 0 0.072 0 0.103 0.361 0.031 0.434 0.103 0.733 0.217 0 0.031 0 0.072 0 0.103 0.031 0 0.072 0 0.103 0 0-0.031 0-0.072 0-0.103 0.145 0.031 0.279 0.072 0.423 0.103-0.103 0.774-0.207 1.549-0.32 2.334-0.103 0.031-0.207 0.072-0.32 0.103-0.238 0.217-1.146 0.114-1.58 0.103 0.031-0.351 0.072-0.702 0.103-1.064 0.072-0.031 0.145-0.072 0.207-0.103-0.021-0.134-0.186-0.186-0.103-0.423 0.031 0 0.072 0 0.103 0 0-0.072 0-0.145 0-0.217 0.031 0 0.072 0 0.103 0 0.083-0.248-0.072-0.258-0.103-0.32 0-0.031 0-0.072 0-0.103 0.031 0 0.072 0 0.103 0 0-0.217 0-0.423 0-0.64 0.031 0 0.072 0 0.103 0 0.114-0.176 0.145-0.176 0.207-0.423 0.072 0 0.145 0 0.207 0 0-0.031 0-0.072 0-0.103-0.268-0.155-0.299-0.217-0.32-0.64 0.207-0.919 0.382-1.838 0.558-2.757zM37.421 18.308c-0.072 0-0.145 0-0.207 0 0 0.031 0 0.072 0 0.103 0.32 0.031 0.289 0.010 0.423 0.217 0.475 0.465 0.237 1.477 0.207 2.22-0.176 0-0.351 0-0.527 0 0 0.031 0 0.072 0 0.103 0.248 0.021 0.258 0.041 0.423 0.103-0.072 0.217-0.145 0.423-0.207 0.64-0.072 0.031-0.145 0.072-0.207 0.103-0.031 0.103-0.072 0.217-0.103 0.32-0.176-0.031-0.351-0.072-0.527-0.103 0 0.031 0 0.072 0 0.103 0.103 0 0.207 0 0.32 0 0 0.103 0 0.217 0 0.32-0.31 0.186-0.299 0.31-0.847 0.32-0.124-0.124 0-0.041-0.207-0.103 0-0.072 0-0.145 0-0.217-0.207 0.031-0.423 0.072-0.63 0.103 0.124 0.124 0 0.041 0.207 0.103 0 0.072 0 0.145 0 0.217-0.176 0-0.351 0-0.527 0 0 0.031 0 0.072 0 0.103 0.392 0.010 0.754 0.093 1.053 0.217-0.124 0.124 0 0.041-0.207 0.103-0.134 0.165-0.558 0.33-0.95 0.217-0.847-0.248-1.683-0.496-2.53-0.743 0-0.072 0-0.145 0-0.217-0.103 0-0.207 0-0.32 0 0-0.031 0-0.072 0-0.103-0.176 0.072-0.351 0.145-0.527 0.217 0 0.031 0 0.072 0 0.103 0.145 0 0.279 0 0.423 0 0 0.031 0 0.072 0 0.103 0.145 0 0.279 0 0.423 0-0.031 0.176-0.072 0.351-0.103 0.527 0.103 0.031 0.207 0.072 0.32 0.103 0-0.145 0-0.279 0-0.423 0.072 0 0.145 0 0.207 0 0.031 0.072 0.072 0.145 0.103 0.217 0.145 0 0.279 0 0.423 0 0-0.031 0-0.072 0-0.103 0.207 0.031 0.423 0.072 0.63 0.103 0.031 0.103 0.072 0.217 0.103 0.32 0.103 0 0.207 0 0.32 0 0-0.072 0-0.145 0-0.217 0.207 0.072 0.423 0.145 0.63 0.217 0 0.031 0 0.072 0 0.103-0.991 0.093-3.036 0.506-4.11 0.103 0.134-0.361 0.196-0.805 0.207-1.27 0.103 0 0.207 0 0.32 0 0-0.072 0-0.145 0-0.217-0.072 0-0.145 0-0.207 0 0.031-0.217 0.072-0.423 0.103-0.64 0.031 0 0.072 0 0.103 0 0.227 0.258 0.258 0.103 0.63 0.217 0 0.031 0 0.072 0 0.103 0.103-0.031 0.207-0.072 0.32-0.103 0 0.031 0 0.072 0 0.103 0.207 0.031 0.423 0.072 0.63 0.103 0 0.031 0 0.072 0 0.103 0.248 0 0.496 0 0.733 0 0.083 0.021 0.712 0.279 0.847 0.217 0-0.031 0-0.072 0-0.103-0.072 0-0.145 0-0.207 0-0.083-0.124 0.062-0.093 0.103-0.103 0-0.031 0-0.072 0-0.103 0.165-0.093 0.279 0.031 0.32 0.103 0.031 0 0.072 0 0.103 0 0.031-0.103 0.072-0.217 0.103-0.32 0.103-0.031 0.207-0.072 0.32-0.103 0.248-0.186 0.558-0.805 0.63-1.167 0.103 0 0.207 0 0.32 0 0-0.031 0-0.072 0-0.103-0.103-0.031-0.207-0.072-0.32-0.103 0-0.031 0-0.072 0-0.103 0.031 0 0.072 0 0.103 0-0.031-0.248-0.072-0.496-0.103-0.743-0.031 0-0.072 0-0.103 0 0-0.072 0-0.145 0-0.217-0.031 0-0.072 0-0.103 0-0.031-0.103-0.072-0.217-0.103-0.32-0.671-0.124-0.981-0.31-1.9-0.32-0.093 0.124 0.010 0.010-0.103 0.103-0.072 0.351-0.145 0.702-0.207 1.064-0.589-0.093-1.146-0.31-1.683-0.423 0-0.857 0.289-1.301 0.32-2.117 0.743-0.392 2.385-0.217 3.48-0.217 0 0.031 0 0.072 0 0.103 0.176 0 0.351 0 0.527 0 0 0.031 0 0.072 0 0.103 0.072 0 0.145 0 0.207 0 0 0.031 0 0.072 0 0.103 0.103 0 0.207 0 0.32 0 0 0.031 0 0.072 0 0.103 0.351 0.227 0.681 0.289 0.805 0.764zM44.278 18.731c-0.661 0-1.497 0-2.003-0.103-0.227-0.052-0.32 0.103-0.32 0.103-0.423 0-0.847 0-1.26 0-0.031 0.351-0.072 0.702-0.103 1.064-0.072 0-0.145 0-0.207 0 0 0.031 0 0.072 0 0.103 0.103 0 0.207 0 0.32 0 0-0.031 0-0.072 0-0.103 0.217-0.124 0.434 0.124 0.527 0.103 0-0.031 0-0.072 0-0.103 0.248 0 0.496 0 0.733 0 0 0.031 0 0.072 0 0.103 0.031 0 0.072 0 0.103 0 0-0.031 0-0.072 0-0.103 0.558 0 1.126 0 1.683 0-0.072 0.454-0.145 0.919-0.207 1.373-1.053 0-2.106 0-3.16 0-0.031 0.103-0.072 0.217-0.103 0.32-0.031 0-0.072 0-0.103 0 0 0.279 0 0.568 0 0.847 0.496 0 0.981 0 1.477 0 0 0.031 0 0.072 0 0.103 0.145 0.031 0.279 0.072 0.423 0.103 0-0.072 0-0.145 0-0.217 0.527 0 1.053 0 1.58 0-0.072 0.527-0.145 1.064-0.207 1.59-0.774 0-1.549 0-2.323 0 0-0.031 0-0.072 0-0.103-0.145 0-0.279 0-0.423 0 0-0.031 0-0.072 0-0.103-0.031 0-0.072 0-0.103 0-0.145 0.041 0.041 0.083-0.103 0.103-0.403-0.186-0.94-0.372-1.477-0.423 0 0.031 0 0.072 0 0.103 0.382 0.031 0.651 0.207 0.95 0.32 0.145 0 0.279 0 0.423 0 0 0.031 0 0.072 0 0.103-0.774 0-1.549 0-2.323 0 0-0.217 0-0.423 0-0.64 0.072 0 0.145 0 0.207 0-0.031-0.083-0.227-0.434-0.103-0.64 0.031 0 0.072 0 0.103 0 0-0.031 0-0.072 0-0.103 0.103 0 0.207 0 0.32 0 0.124 0.124 0 0.041 0.207 0.103-0.031 0.072-0.072 0.145-0.103 0.217 0.031 0 0.072 0 0.103 0 0 0.072 0 0.145 0 0.217 0.103 0.114 0.103-0.103 0.103-0.103 0.207 0.072 0.423 0.145 0.63 0.217 0-0.103 0-0.217 0-0.32 0.031 0 0.072 0 0.103 0 0.072 0.072 1.539 0.568 1.786 0.423 0-0.031 0-0.072 0-0.103-0.403-0.031-0.826-0.207-1.157-0.32-0.145 0-0.279 0-0.423 0 0-0.031 0-0.072 0-0.103-0.072 0-0.145 0-0.207 0 0-0.031 0-0.072 0-0.103-0.176 0-0.351 0-0.527 0 0-0.031 0-0.072 0-0.103-0.248-0.031-0.496-0.072-0.733-0.103 0-0.031 0-0.072 0-0.103-0.031 0-0.072 0-0.103 0 0-0.103 0-0.217 0-0.32 0.031 0 0.072 0 0.103 0 0-0.176 0-0.351 0-0.527 0.031 0 0.072 0 0.103 0 0-0.072 0-0.145 0-0.217 0.031 0 0.072 0 0.103 0 0.041-0.155-0.103-0.217-0.103-0.217-0.021-0.227 0.103-0.217 0.103-0.217 0-0.217 0-0.423 0-0.64 0.031 0 0.072 0 0.103 0 0.031-0.217 0.072-0.423 0.103-0.64 0.072 0 0.145 0 0.207 0-0.124-0.124 0-0.041-0.207-0.103 0-0.341 0.299-2.086 0.423-2.22 0.237-0.217 1.053-0.103 1.477-0.103 1.301 0 2.602 0 3.903 0 0 0.031 0 0.072 0 0.103-0.114 0.124-0.299 1.239-0.32 1.487zM26.465 17.564c0.124 0.145 0.196 0.165 0.423 0.217 0-0.031 0-0.072 0-0.103-0.124-0.093-0.010 0.010-0.103-0.103-0.114-0.010-0.217-0.010-0.32-0.010zM34.055 17.781c0.072 0 0.145 0 0.207 0 0-0.031 0-0.072 0-0.103-0.124-0.093-0.010 0.010-0.103-0.103-0.031 0-0.072 0-0.103 0 0 0.062 0 0.134 0 0.207zM36.368 18.308c0.072 0 0.145 0 0.207 0 0-0.072 0-0.145 0-0.217 0.072 0 0.145 0 0.207 0 0 0.072 0 0.145 0 0.217 0.103 0 0.207 0 0.32 0 0-0.031 0-0.072 0-0.103-0.124-0.124-0.041 0-0.103-0.217-0.248-0.031-0.496-0.072-0.733-0.103 0 0.031 0 0.072 0 0.103 0.32 0.103 0.114-0.010 0.103 0.32zM40.478 18.205c0-0.072 0-0.145 0-0.217-0.372-0.031-0.795-0.227-1.053 0 0.351 0.072 0.702 0.145 1.053 0.217zM34.685 18.091c0.124 0.124 0 0.041 0.207 0.103-0.114-0.114 0-0.031-0.207-0.103zM26.569 18.205c-0.072 0-0.145 0-0.207 0 0.093 0.124-0.010 0.010 0.103 0.103 0 0.031 0 0.072 0 0.103 0.031 0 0.072 0 0.103 0 0-0.072 0-0.134 0-0.207zM35.315 18.205c0 0.072 0 0.145 0 0.217 0.072 0 0.145 0 0.207 0 0-0.072 0-0.145 0-0.217-0.062 0-0.134 0-0.207 0zM28.995 18.514c0 0.072 0 0.145 0 0.217 0.103 0 0.207 0 0.32 0 0-0.031 0-0.072 0-0.103-0.031 0-0.072 0-0.103 0 0.165-0.238 0.176 0.010 0.32-0.103 0-0.031 0-0.072 0-0.103-0.186 0.031-0.361 0.062-0.537 0.093zM14.663 18.628c-0.010 0.238-0.114 0.909-0.103 0.95 0.031 0 0.072 0 0.103 0 0 0.217 0 0.423 0 0.64 0.031 0 0.072 0 0.103 0 0 0.072 0 0.145 0 0.217 0.031 0 0.072 0 0.103 0 0.248 0.475 0.248 0.909 0.847 1.064 0 0.072 0 0.145 0 0.217 0.547 0.052 1.301 0.578 2.107 0.32 0-0.031 0-0.072 0-0.103 0.103 0 0.207 0 0.32 0 0-0.031 0-0.072 0-0.103 0.072 0 0.145 0 0.207 0 0-0.031 0-0.072 0-0.103 0.072 0 0.145 0 0.207 0 0.031-0.072 0.072-0.145 0.103-0.217 0.238-0.093 0.289 0.103 0.423 0.103 0-0.031 0-0.072 0-0.103 0.031 0 0.072 0 0.103 0 0 0.031 0 0.072 0 0.103 0.103 0 0.207 0 0.32 0 0 0.031 0 0.072 0 0.103 0.145 0 0.279 0 0.423 0 0.031 0.072 0.072 0.145 0.103 0.217 0.072-0.031 0.145-0.072 0.207-0.103 0.32 0.114 0.31 0.196 0.847 0.217-0.114 0.516-0.878 1.322-1.477 1.373 0 0.072 0 0.145 0 0.217-0.103 0.031-0.207 0.072-0.32 0.103 0 0.031 0 0.072 0 0.103-0.103 0-0.207 0-0.32 0 0 0.031 0 0.072 0 0.103-0.072 0-0.145 0-0.207 0 0 0.031 0 0.072 0 0.103-0.145 0-0.279 0-0.423 0 0 0.031 0 0.072 0 0.103-0.145 0-0.279 0-0.423 0 0 0.031 0 0.072 0 0.103-0.423 0.124-2.045-0.103-2.323-0.217 0-0.031 0-0.072 0-0.103-0.145-0.031-0.279-0.072-0.423-0.103 0-0.031 0-0.072 0-0.103-0.103 0-0.207 0-0.32 0-0.031-0.072-0.072-0.145-0.103-0.217-0.072 0-0.145 0-0.207 0-0.031-0.072-0.072-0.145-0.103-0.217-0.072 0-0.145 0-0.207 0-0.031-0.072-0.072-0.145-0.103-0.217-0.207-0.176-0.423-0.351-0.63-0.527 0-0.072 0-0.145 0-0.217-0.103-0.072-0.207-0.145-0.32-0.217-0.031-0.145-0.072-0.279-0.103-0.423-0.496-0.919-0.64-1.497-0.63-2.964 0.165-0.062 0.248-0.093 0.527-0.103 0 0.031 0 0.072 0 0.103 0.145 0-0.041-0.093 0.103-0.103 0.537 0 1.064 0 1.59 0zM16.769 18.628c0.279 0 0.558 0 0.847 0 0.33 0.547 0.434 0.279 0.423 1.27-0.124 0.124-0.041 0-0.103 0.217-0.475 0.238-1.26 0.589-1.477-0.217-0.031 0-0.072 0-0.103 0 0-0.279 0-0.568 0-0.847 0.031 0 0.072 0 0.103 0 0.103-0.145 0.207-0.289 0.31-0.423zM23.832 18.628c0.052 0.041 0.134 0.196 0.32 0.103 0-0.031 0-0.072 0-0.103-0.114 0-0.217 0-0.32 0zM39.744 18.834c0.072 0 0.145 0 0.207 0 0-0.031 0-0.072 0-0.103-0.124-0.093-0.010 0.010-0.103-0.103-0.031 0-0.072 0-0.103 0 0 0.072 0 0.134 0 0.207zM21.509 19.258c0.124 0.124 0 0.041 0.207 0.103-0.114-0.114 0.010-0.041-0.207-0.103zM40.374 19.371c-0.072 0-0.145 0-0.207 0 0.093 0.124-0.010 0.010 0.103 0.103 0 0.031 0 0.072 0 0.103 0.031 0 0.072 0 0.103 0 0-0.072 0-0.145 0-0.207zM31.628 19.578c0.599 0.145 1.198 0.279 1.786 0.423-0.103 0.671-0.207 1.342-0.32 2.014-0.207-0.031-0.423-0.072-0.63-0.103 0-0.031 0-0.072 0-0.103 0.248-0.062 0.196-0.031 0.32-0.217-0.32-0.072-0.63-0.145-0.95-0.217 0 0.072 0 0.145 0 0.217 0.072 0 0.145 0 0.207 0 0 0.072 0 0.145 0 0.217-0.248-0.072-0.496-0.145-0.733-0.217 0-0.072 0-0.145 0-0.217 0.103 0 0.207 0 0.32 0 0-0.031 0-0.072 0-0.103-0.072 0-0.145 0-0.207 0-0.010-0.878 0.186-0.919 0.207-1.693zM36.585 19.578c0.124 0.124 0 0.041 0.207 0.103-0.124-0.114 0-0.041-0.207-0.103zM23.409 19.681c0.124 0.124 0 0.041 0.207 0.103-0.114-0.114 0-0.041-0.207-0.103zM24.039 19.795c0.124 0.207 0.145 0.248 0.423 0.32 0.093-0.124-0.010-0.010 0.103-0.103 0-0.031 0-0.072 0-0.103-0.279-0.021-0.361-0.052-0.527-0.114zM13.919 20.001c0.124 0.124 0 0.041 0.207 0.103-0.114-0.114 0.010-0.041-0.207-0.103zM24.669 20.001c0 0.031 0 0.072 0 0.103 0.145 0 0.279 0 0.423 0 0-0.031 0-0.072 0-0.103-0.134 0-0.279 0-0.423 0zM25.722 20.001c-0.031 0.103-0.072 0.217-0.103 0.32 0.031 0 0.072 0 0.103 0 0.124-0.124 0-0.041 0.207-0.103 0 0.145 0 0.279 0 0.423 0.031 0 0.072 0 0.103 0 0-0.103 0-0.217 0-0.32 0.031 0 0.072 0 0.103 0 0 0.031 0 0.072 0 0.103 0.207 0.031 0.423 0.072 0.63 0.103 0-0.031 0-0.072 0-0.103-0.351-0.031-0.578-0.052-0.423-0.32-0.196-0.031-0.403-0.072-0.62-0.103zM25.195 20.105c0.052 0.041 0.134 0.196 0.32 0.103 0-0.031 0-0.072 0-0.103-0.103 0-0.207 0-0.32 0zM42.378 20.218c0.052 0.041 0.134 0.196 0.32 0.103 0-0.031 0-0.072 0-0.103-0.114 0-0.217 0-0.32 0zM14.446 20.528c0.124 0.124 0 0.041 0.207 0.103-0.114-0.114 0.010-0.041-0.207-0.103zM43.328 20.528c0.124 0.124 0 0.041 0.207 0.103-0.124-0.114 0-0.041-0.207-0.103zM46.27 20.528c0 0.031 0 0.072 0 0.103-0.021 0.021-0.361-0.062-0.207 0.103 0.031 0 0.072 0 0.103 0 0.062 0.041 0.010 0.176 0.207 0.103 0-0.031 0-0.072 0-0.103 0.072 0 0.145 0 0.207 0 0-0.031 0-0.072 0-0.103-0.093-0.031-0.196-0.062-0.31-0.103zM36.368 20.642c0.124 0.124 0 0.041 0.207 0.103-0.114-0.124 0-0.041-0.207-0.103zM36.998 20.745c0.124 0.124 0 0.041 0.207 0.103-0.114-0.124 0.010-0.041-0.207-0.103zM27.095 21.065c0.052 0.041 0.134 0.196 0.32 0.103 0-0.031 0-0.072 0-0.103-0.103 0-0.217 0-0.32 0zM20.982 21.271c-0.145 0.031-0.279 0.072-0.423 0.103 0-0.031 0-0.072 0-0.103-0.145-0.031-0.279-0.072-0.423-0.103 0 0.031 0 0.072 0 0.103 0.031 0 0.072 0 0.103 0 0.155 0.155 0.527 0.227 0.733 0.32 0.010-0.103 0.010-0.217 0.010-0.32zM26.362 21.168c-0.103 0-0.207 0-0.32 0 0 0.031 0 0.072 0 0.103 0.072 0 0.145 0 0.207 0 0 0.031 0 0.072 0 0.103 0.103 0.196 0.114-0.207 0.114-0.207zM38.691 21.168c0.052 0.041 0.134 0.196 0.32 0.103 0-0.031 0-0.072 0-0.103-0.114 0-0.217 0-0.32 0zM39.218 21.271c0.124 0.124 0 0.041 0.207 0.103-0.124-0.114 0-0.041-0.207-0.103zM36.688 21.375c0.124 0.124 0 0.041 0.207 0.103-0.114-0.114 0-0.041-0.207-0.103zM39.631 21.375c0.052 0.041 0.134 0.196 0.32 0.103 0-0.031 0-0.072 0-0.103-0.103 0-0.207 0-0.32 0zM14.239 21.488c0.093 0.114 0.186 0.145 0.32 0.217-0.124-0.196-0.072-0.155-0.32-0.217zM48.49 21.488c0.124 0.124 0 0.041 0.207 0.103-0.124-0.124 0-0.041-0.207-0.103zM26.569 21.591c0.124 0.124 0 0.041 0.207 0.103-0.114-0.124 0-0.041-0.207-0.103zM13.713 21.695c0.124 0.124 0 0.041 0.207 0.103-0.114-0.114 0-0.041-0.207-0.103zM28.365 21.695c0.052 0.052 0.816 0.289 0.95 0.217 0-0.031 0-0.072 0-0.103-0.289-0.062-0.547-0.114-0.95-0.114zM15.396 21.798c0.124 0.145 0.196 0.165 0.423 0.217-0.124-0.145-0.186-0.165-0.423-0.217zM19.619 22.118c0.176 0.031 0.351 0.072 0.527 0.103 0-0.031 0-0.072 0-0.103-0.124-0.093-0.010 0.010-0.103-0.103-0.248-0.021-0.258-0.041-0.423-0.103 0 0.062 0 0.134 0 0.207zM32.052 22.118c-0.103 0-0.207 0-0.32 0 0 0.031 0 0.072 0 0.103 0.072 0 0.145 0 0.207 0 0.093 0.124-0.010 0.010 0.103 0.103 0.010-0.062 0.010-0.134 0.010-0.207zM15.51 22.645c0-0.072 0-0.145 0-0.217-0.372-0.052-0.341-0.041-0.733-0.103 0 0.031 0 0.072 0 0.103 0.124 0.093 0.010-0.010 0.103 0.103 0.103 0.031 0.207 0.072 0.32 0.103 0.145 0-0.041-0.114 0.103-0.103 0 0.031 0 0.072 0 0.103 0.062 0.010 0.134 0.010 0.207 0.010zM15.613 22.438c0 0.072 0 0.145 0 0.217 0.103 0 0.207 0 0.32 0 0-0.031 0-0.072 0-0.103-0.114-0.041-0.217-0.083-0.32-0.114zM34.685 22.438c0 0.031 0 0.072 0 0.103 0.145 0 0.279 0 0.423 0 0-0.031 0-0.072 0-0.103-0.145 0-0.289 0-0.423 0zM23.089 22.541c0.052 0.041 0.134 0.196 0.32 0.103 0-0.031 0-0.072 0-0.103-0.103 0-0.207 0-0.32 0zM23.512 22.645c0.072 0.103 0.145 0.217 0.207 0.32 0.134 0.062-0.021-0.072 0.103-0.103 0.227-0.052 0.32 0.103 0.32 0.103 0.031 0 0.072 0 0.103 0 0-0.031 0-0.072 0-0.103 0.072 0.031 0.145 0.072 0.207 0.103-0.31-0.475-0.279-0.124-0.63-0.217 0-0.031 0-0.072 0-0.103-0.093 0-0.207 0-0.31 0zM42.378 22.645c0.124 0.124 0 0.041 0.207 0.103-0.114-0.114 0-0.031-0.207-0.103zM42.687 22.645c0.114 0.186 0.062 0.145 0.32 0.217 0-0.031 0-0.072 0-0.103-0.103-0.041-0.207-0.072-0.32-0.114zM29.625 22.758c-0.072 0-0.145 0-0.207 0 0.093 0.124-0.010 0.010 0.103 0.103 0 0.031 0 0.072 0 0.103 0.031 0 0.072 0 0.103 0 0-0.072 0-0.145 0-0.207zM44.907 22.758c-0.072 0-0.145 0-0.207 0 0.093 0.124-0.010 0.010 0.103 0.103 0 0.031 0 0.072 0 0.103 0.031 0 0.072 0 0.103 0 0-0.072 0-0.145 0-0.207zM35.841 22.862c0.176 0 0.351 0 0.527 0 0 0.031 0 0.072 0 0.103-0.031 0-0.072 0-0.103 0 0 0.031 0 0.072 0 0.103-0.134-0.052 0.031-0.041-0.103-0.103-0.103 0-0.207 0-0.32 0 0-0.031 0-0.072 0-0.103zM22.882 23.068c0 0.031 0 0.072 0 0.103-0.021 0.021-0.361-0.062-0.207 0.103 0.031 0 0.072 0 0.103 0 0.145 0.165 0.227 0.186 0.527 0.217 0-0.031 0-0.072 0-0.103-0.155-0.103-0.289-0.145-0.103-0.32-0.114 0-0.217 0-0.32 0zM24.669 23.068c-0.031 0.072-0.072 0.145-0.103 0.217 0.010 0 0.31-0.165 0.207-0.217-0.031 0-0.062 0-0.103 0zM28.045 23.068c0 0.072 0 0.145 0 0.217 0.031 0 0.072 0 0.103 0 0-0.072 0-0.145 0-0.217-0.031 0-0.072 0-0.103 0zM28.469 23.182c0.062 0.072 0.248 0.289 0.423 0.217 0-0.031 0-0.072 0-0.103 0.072 0 0.145 0 0.207 0 0-0.031 0-0.072 0-0.103-0.207-0.010-0.423-0.010-0.63-0.010zM34.995 23.182c0.124 0.124 0 0.041 0.207 0.103-0.114-0.124 0.010-0.041-0.207-0.103zM45.114 23.182c0.124 0.124 0 0.041 0.207 0.103-0.114-0.124 0.010-0.041-0.207-0.103zM16.139 23.285c0 0.031 0 0.072 0 0.103 0.774 0.176 1.549 0.351 2.323 0.527 0-0.031 0-0.072 0-0.103-0.124-0.093-0.010 0.010-0.103-0.103-0.248-0.031-0.496-0.072-0.733-0.103 0-0.031 0-0.072 0-0.103-0.072 0.031-0.145 0.072-0.207 0.103-0.423-0.114-0.764-0.289-1.28-0.32zM38.691 23.285c-0.072 0-0.145 0-0.207 0 0.093 0.124-0.010 0.010 0.103 0.103 0 0.031 0 0.072 0 0.103 0.031 0 0.072 0 0.103 0 0-0.062 0-0.134 0-0.207zM47.014 23.285c0.062 0.062 0.62 0.351 0.847 0.217 0-0.031 0-0.072 0-0.103-0.289-0.041-0.568-0.083-0.847-0.114zM15.716 23.388c0.052 0.041 0.134 0.196 0.32 0.103 0-0.031 0-0.072 0-0.103-0.114 0-0.217 0-0.32 0zM28.892 23.708c0-0.072 0-0.145 0-0.217-0.413-0.031-0.31-0.103-0.63 0 0.124 0.124 0 0.041 0.207 0.103 0 0.031 0 0.072 0 0.103 0.134 0.010 0.279 0.010 0.423 0.010zM31.835 23.491c0.124 0.207 0.145 0.248 0.423 0.32-0.103-0.124-0.268-0.238-0.423-0.32zM24.462 23.605c0.124 0.124 0 0.041 0.207 0.103-0.114-0.124 0-0.041-0.207-0.103zM43.007 23.605c0.124 0.124 0 0.041 0.207 0.103-0.114-0.124 0-0.041-0.207-0.103z">
	</path>
	<path fill="#f00" style="fill: var(--color2, #f00)"
		d="M34.654 11.235h1.921c0.423 0 0.774 0.072 1.053 0.217s0.475 0.351 0.578 0.62c0.103 0.268 0.114 0.589 0.031 0.95-0.062 0.248-0.176 0.475-0.351 0.671s-0.392 0.361-0.661 0.475l0.64 1.693h-1.477l-0.465-1.487h-0.547l-0.32 1.487h-1.394l0.991-4.626zM36.161 13.31c0.186 0 0.33-0.031 0.444-0.103 0.114-0.062 0.186-0.165 0.217-0.279 0.052-0.196 0.031-0.341-0.062-0.444s-0.237-0.155-0.444-0.155h-0.496l-0.217 0.981h0.558z">
	</path>
	<path fill="#f00" style="fill: var(--color2, #f00)"
		d="M39.28 11.235h1.776c0.537 0 0.981 0.114 1.322 0.351s0.568 0.547 0.692 0.95c0.124 0.403 0.134 0.847 0.021 1.342-0.083 0.403-0.248 0.743-0.496 1.043s-0.568 0.527-0.94 0.702c-0.382 0.165-0.805 0.248-1.28 0.248h-2.086l0.991-4.636zM40.488 14.632c0.279 0 0.516-0.093 0.712-0.268s0.33-0.413 0.392-0.692c0.052-0.227 0.062-0.423 0.031-0.609s-0.103-0.33-0.227-0.434c-0.124-0.103-0.299-0.165-0.516-0.165h-0.392l-0.465 2.168h0.465z">
	</path>
	<path fill="#f00" style="fill: var(--color2, #f00)"
		d="M47.768 14.157c-0.258 1.218-1.012 1.828-2.251 1.828-0.413 0-0.754-0.062-1.012-0.176s-0.465-0.279-0.599-0.496c-0.134-0.207-0.217-0.454-0.237-0.723s0-0.558 0.062-0.867l0.537-2.489h1.497l-0.578 2.695c-0.031 0.124-0.041 0.238-0.031 0.361s0.041 0.217 0.114 0.299c0.072 0.083 0.196 0.124 0.361 0.124 0.196 0 0.341-0.062 0.454-0.186 0.103-0.124 0.186-0.32 0.248-0.599l0.578-2.695h1.487l-0.63 2.922z">
	</path>
</svg>
