<!-- Generated by IcoMoon.io -->
<svg version="1.1" xmlns="http://www.w3.org/2000/svg" width="62" height="32" viewBox="0 0 62 32">
<path d="M7.613 22.593c-0.285 0.027-0.567-0.026-0.86 0.087-0.177 0.068-0.431 0.078-0.651-0.052-0.106-0.062-0.268-0.034-0.405-0.034-1.598-0.002-3.196-0.001-4.839-0.001 0.047-0.233-0.104-0.463 0.092-0.689 0.052-0.061 0.016-0.204 0.011-0.308-0.024-0.452 0.099-0.839 0.486-1.11 0.102 0 0.259-0.044 0.302 0.007 0.221 0.264 0.409-0.027 0.608-0.031 0.1-0.002 0.207-0.197 0.292-0.318 0.224-0.323 0.325-0.708 0.525-1.048 0.405-0.691 0.97-1.123 1.768-1.261 0.225-0.039 0.435-0.19 0.611-0.024 0.198-0.028 0.364-0.082 0.524-0.067 0.34 0.033 0.627-0.099 0.893-0.268 0.347-0.221 0.677-0.481 1.062-0.62 0.485-0.175 0.866-0.526 1.336-0.72 0.39-0.161 0.767-0.353 1.192-0.55 0.114-0.293 0.242-0.627 0.385-0.995 0.137 0 0.325 0 0.469 0 0.342-0.274 0.646-0.517 0.951-0.761 0.035 0.23-0.085 0.483 0.15 0.75-0.090 0.048-0.185 0.099-0.254 0.136-0.008 0.273-0.013 0.5-0.095 0.736-0.097 0.28-0.041 0.621-0.167 0.879-0.102 0.209 0.073 0.468-0.162 0.62 0 0.224 0 0.447 0 0.668 1.179 0 2.317 0 3.464 0 0.010-0.058 0.003-0.136 0.030-0.15 0.304-0.156 0.589-0.408 0.914-0.451 0.324-0.042 0.328-0.231 0.369-0.429 0.102 0 0.184 0 0.262 0 0.026 0.076 0.047 0.137 0.068 0.196 0.152 0 0.292 0 0.433 0-0.021-0.020-0.041-0.041-0.062-0.062 0.123-0.069 0.245-0.138 0.329-0.186 0-0.148 0-0.236 0-0.327 0.079-0.084 0.158-0.169 0.265-0.283-0.080-0.115-0.141-0.283-0.21-0.287-0.382-0.020-0.631-0.366-1.005-0.36 0-0.077 0-0.13 0-0.183 0.115 0.016 0.236-0.038 0.34 0.072 0.212 0.226 0.537 0.195 0.773 0.367 0.106-0.23 0.041-0.407-0.061-0.56-0.205-0.309-0.479-0.546-0.924-0.69 0.672-0.251 1.035-0.701 1.244-1.336 0-0.843 0-0.843-0.211-1.231 0.258-0.417 0.646-0.607 1.096-0.651 0.391-0.456 0.253-1.002 0.278-1.508 0.227-0.274 0.495-0.414 0.853-0.379 0.308 0.031 0.631-0.015 0.926 0.058 0.313 0.078 0.617 0.032 0.924 0.047 0.315 0.016 0.641-0.047 0.945 0.013 0.913 0.182 1.84-0.011 2.743 0.116 0.745 0.104 1.481 0.064 2.221 0.082 0.753 0.019 1.508 0.004 2.261 0.004-0.037 0.055-0.062 0.131-0.113 0.161-0.806 0.462-1.615 0.918-2.465 1.399 0.418 0.676 0.831 1.344 1.249 2.019 0.142-0.001 0.275 0.028 0.428-0.076 0.267-0.182 0.585-0.287 0.859-0.46 0.374-0.237 0.786-0.408 1.154-0.64 0.597-0.377 1.227-0.694 1.826-1.064 0.53-0.327 1.058-0.661 1.603-0.961 0.268-0.148 0.525-0.335 0.843-0.378 4.54 0 9.080 0 13.619 0 0.186 0.309 0.379 0.615 0.557 0.929 0.418 0.739 0.806 1.495 1.232 2.23 0.506 0.875 0.97 1.775 1.447 2.667 0.099 0.186 0.151 0.4 0.267 0.573 0.358 0.531 0.675 1.083 0.934 1.669 0.053 0.119 0.148 0.219 0.214 0.333 0.205 0.352 0.423 0.698 0.522 1.101-0.324-0.106-0.642-0.237-0.972-0.31-0.339-0.075-0.66-0.306-1.094-0.167 0.074 0.078 0.106 0.136 0.154 0.157 0.651 0.285 1.308 0.56 1.955 0.854 0.091 0.042 0.163 0.117 0.274 0.099 0.070 0.064 0.163 0.115 0.207 0.193 0.219 0.389 0.426 0.785 0.637 1.179-0.193 0-0.387 0-0.582 0-0.061 0.061-0.13 0.118-0.183 0.188s-0.169 0.102-0.165 0.241c0.349 0 0.678 0 1.021 0 0 0.101 0 0.184 0 0.268-0.168 0.134-0.333 0.28-0.512 0.407-0.188 0.134-0.377 0.275-0.585 0.369-0.295 0.134-0.601 0.177-0.925 0.037-0.321-0.139-0.66-0.236-1.031-0.366 0.018 0.376 0.139 0.621 0.452 0.759 0.387 0.17 0.769 0.351 1.159 0.529 0.659-0.352 1.321-0.705 1.983-1.058 0.052 0 0.104 0 0.174 0 0.158 0.417 0.349 0.824 0.631 1.185 0.052 0.067 0.028 0.194 0.039 0.293-0.462 0.27-0.843 0.628-1.161 1.056-0.026 0.145-0.104 0.129-0.199 0.066-0.037-0.025-0.078-0.044-0.118-0.066 0.025-0.183-0.074-0.274-0.258-0.33-0.056 0.111-0.11 0.221-0.165 0.33-0.076 0.209-0.263 0.291-0.439 0.385-0.020 0.011-0.049 0.005-0.108 0.009 0.035-0.134 0.065-0.252 0.096-0.368-0.307-0.112-0.59 0.085-0.887 0.075-0.346-0.012-0.65 0.106-0.952 0.24-0.192 0.086-0.364 0.227-0.563 0.286-0.457 0.136-0.861 0.378-1.271 0.604-0.487 0.268-0.945 0.589-1.42 0.879-0.206 0.126-0.45 0.196-0.58 0.424-0.198-0.056-0.257 0.143-0.387 0.211-0.7 0.366-1.173 0.963-1.619 1.587-0.223 0.312-0.45 0.621-0.671 0.934-0.046 0.066-0.076 0.144-0.116 0.223-0.050-0.047-0.098-0.093-0.113-0.107-0.066-0.305-0.124-0.573-0.181-0.84-0.026 0.002-0.053 0.005-0.080 0.007 0 0.521-0.014 1.043 0.004 1.564 0.013 0.39-0.071 0.703-0.539 0.846-1.066-0.065-2.185 0.156-3.315 0.121-0.362-0.011-0.65-0.146-0.898-0.378-0.334-0.311-0.646-0.645-0.972-0.965-0.201-0.197-0.398-0.402-0.618-0.575-0.207-0.162-0.401-0.355-0.564-0.541-0.161-0.184-0.421-0.296-0.491-0.559-0.663-0.398-1.063-1.086-1.686-1.527-0.49-0.508-0.982-1.015-1.471-1.525-0.321-0.334-0.638-0.673-0.957-1.009-0.365-0.4-0.853-0.633-1.34-0.633-2.177-0.001-4.355-0-6.532-0-0.153 0-0.306 0-0.401 0-0.109-0.248-0.194-0.441-0.279-0.633 0.147-0.070 0.291-0.146 0.44-0.21 0.409-0.176 0.732-0.434 0.973-0.823 0.265-0.426 0.465-0.849 0.357-1.381-0.078-0.006-0.192 0.018-0.238-0.027-0.087-0.084-0.175-0.095-0.281-0.096-0.058-0.001-0.117-0.027-0.175-0.042 0.004-0.026 0.009-0.052 0.013-0.079 0.236 0 0.472 0 0.706 0 0-0.107 0-0.178 0-0.279-0.436-0.109-0.879-0.221-1.326-0.332-0.034 0.069-0.068 0.14-0.103 0.211-0.093-0.005-0.174-0.010-0.252-0.015-0.007-0.12-0.011-0.203-0.014-0.26-0.104-0.102-0.286 0.051-0.31-0.151 0.065 0 0.129 0 0.182 0 0.033-0.095 0.053-0.155 0.077-0.227 0.308 0.041 0.605 0.081 0.902 0.121 0 0.035 0 0.070 0.002 0.099-0.108 0.008-0.212 0.021-0.367 0.042 0.148 0.071 0.24 0.115 0.352 0.17 0.006-0.078 0.011-0.141 0.015-0.211 0.052 0.076 0.107 0.146 0.164 0.218 0.083 0 0.169 0 0.384 0.061 0.056-0.020 0.035-0.060 0.020-0.058-0.050 0.007-0.099 0.029-0.148 0.046 0.064 0.018 0.127 0.036 0.128 0.012-0.172-0.354-0.197-0.373-0.55-0.378-0.051-0.22-0.262-0.261-0.417-0.307-0.406-0.119-0.808-0.253-1.226-0.338-0.245-0.050-0.467-0.213-0.678-0.315 0-0.155 0-0.259 0-0.35 0.229-0.312 0.534-0.422 0.898-0.378 0.316 0.038 0.631 0.088 0.974 0.136 0.074 0.090 0.283 0.091 0.283 0.279 0.095 0 0.163 0 0.248 0 0.043-0.138 0.087-0.277 0.13-0.416 0.035 0 0.072 0.007 0.105-0.001 0.247-0.065 0.322-0.299 0.411-0.485 0.078-0.163 0.228-0.356 0.035-0.611-0.597-0.311-1.275-0.445-1.99-0.366-0.117 0.118-0.231 0.229-0.341 0.342-0.372 0.381-0.816 0.619-1.346 0.705-0.133 0.022-0.291 0.047-0.357 0.206-0.194-0.037-0.387-0.074-0.58-0.111-0.213 0.431-0.461 0.847-0.344 1.365 0.28 0.040 0.562 0.064 0.835 0.126 0.11 0.025 0.201 0.133 0.301 0.204-0.397 0.031-0.766-0.129-1.155-0.167-0.024 0.171-0.009 0.33 0.097 0.479 0.158 0.221 0.339 0.397 0.578 0.545 0.458 0.283 0.967 0.372 1.464 0.527 0.383 0.119 0.883 0.083 1.059 0.598 0.013 0.037 0.116 0.044 0.152 0.056-0.125 0.104-0.248 0.218-0.383 0.312-0.063 0.044-0.152 0.052-0.23 0.077-0.194-0.074-0.134-0.316-0.279-0.422-0.285 0.098-0.57 0.196-0.858 0.295-0.059-0.243-0.118-0.481-0.176-0.718-0.385 0.046-0.734-0.155-1.121-0.113-0.381 0.041-0.77 0.009-1.156 0.009 0.016-0.115 0.020-0.223 0.063-0.343 0.162-0.454 0.222-0.934 0.259-1.37-0.102-0.196-0.244-0.193-0.383-0.199-0.008-0-0.013-0.046-0.022-0.078 0.139-0.013 0.271-0.026 0.419-0.040-0.021-0.182-0.033-0.335-0.057-0.487-0.027-0.165-0.065-0.328-0.106-0.53-0.036-0.061-0.149-0.162-0.145-0.259 0.020-0.461-0.334-0.746-0.506-1.113-0.173-0.37-0.366-0.81-0.367-1.167-0.001-0.176-0.003-0.352 0-0.528 0.012-0.717 0.378-1.265 0.853-1.754 0.087-0.089 0.217-0.136 0.334-0.206-0.050-0.101-0.083-0.168-0.134-0.271 0.171 0.042 0.322 0.13 0.444 0.099 0.282-0.071 0.549-0.2 0.839-0.312 0.138 0.156 0.334 0.112 0.518 0.11 0.381-0.004 0.72 0.106 1.021 0.339 0.214 0.166 0.43 0.328 0.684 0.522 0.094 0.046 0.299-0.147 0.403 0.090-0.108 0.012-0.215 0.025-0.4 0.046 0.35 0.371 0.448 0.755 0.528 1.174 0.059 0.308 0.081 0.576-0.017 0.866-0.024 0.070 0.010 0.159 0.018 0.243 0.602-0.057 1.131 0.1 1.628 0.34 0.159 0.077 0.286 0.065 0.458 0.056 0.020-0.251 0.036-0.499 0.086-0.745 0.058-0.28 0.12-0.618-0.083-0.9 0.075-0.314-0.125-0.597-0.106-0.904-0.314-0.619-0.506-1.314-1.158-1.773-0.099 0-0.253 0-0.405 0-0.006-0.123-0.112-0.258 0.083-0.306 0.003 0.066 0.008 0.129 0.015 0.215 0.077-0.009 0.135-0.015 0.199-0.022-0.006-0.070-0.010-0.116-0.015-0.18-0.070-0.005-0.133-0.010-0.198-0.014-0.202-0.405-0.647-0.495-0.975-0.738-0.341-0.253-0.757-0.336-1.145-0.398-0.334-0.053-0.68-0.268-1.036-0.083 0.032 0.055 0.064 0.11 0.097 0.166-0.146-0.030-0.308 0.063-0.446-0.068-0.040-0.038-0.152-0.059-0.188-0.032-0.183 0.139-0.401 0.054-0.587 0.11-0.235 0.071-0.51 0.083-0.68 0.307-0.289-0.105-0.397 0.229-0.648 0.263 0 0.080 0 0.163 0 0.247-0.148 0.016-0.279 0.030-0.455 0.049 0.187 0.095 0.325 0.164 0.561 0.284-0.374 0-0.647 0-0.949 0-0.003 0.279-0.326 0.361-0.304 0.636-0.080 0.062-0.189 0.108-0.234 0.189-0.345 0.616-0.675 1.24-0.717 1.968-0.009 0.148 0.051 0.307-0.098 0.438-0.044 0.038-0.040 0.189-0.001 0.252 0.181 0.29 0.059 0.606 0.105 0.897 0.106 0.070 0.209 0.138 0.329 0.217-0.097 0.041-0.159 0.067-0.317 0.134 0.277 0 0.442 0 0.599 0 0.078-0.2 0.134-0.231 0.218-0.147-0.040 0.072-0.078 0.142-0.119 0.216 0.094 0.045 0.162 0.077 0.254 0.121-0.271 0.126-0.503-0.028-0.809-0.082 0.099 0.298 0.174 0.526 0.242 0.732 0.157-0.034 0.282-0.103 0.365-0.070 0.247 0.099 0.482 0.221 0.759 0.202 0.097 0.149 0.396 0.088 0.372 0.39-0.335 0.124-0.524-0.191-0.91-0.285-0.037 0.003-0.199 0.015-0.427 0.032 0.145 0.211 0.246 0.361 0.35 0.509 0.107 0.151-0.074 0.408 0.202 0.488 0.233 0.043 0.489 0.059 0.72 0.145 0.11 0.041 0.207 0.115 0.329 0.091 0.195-0.037 0.314 0.092 0.509 0.165-0.351 0.128-0.641 0.037-0.892-0.073-0.206-0.090-0.387-0.084-0.629-0.081 0.021 0.206 0.041 0.396 0.064 0.623-0.021 0.021-0.127 0.076-0.137 0.146-0.050 0.347-0.231 0.644-0.339 0.968-0.068 0.204-0.166 0.377-0.422 0.365-0.439 0-0.878 0.014-1.316-0.004-0.425-0.017-0.848-0.079-1.273-0.098-0.403-0.017-0.807-0.004-1.211-0.004-0.251-0.183-0.272-0.501-0.431-0.732-0.188-0.273 0.032-0.617-0.213-0.847 0.196-0.28 0.098-0.564 0.107-0.849-0.282 0-0.526 0-0.77 0-0.227 0-0.476-0.058-0.676 0.015-0.227 0.083-0.434-0.123-0.641 0.022-0.039 0.12-0.097 0.241-0.117 0.367-0.082 0.516 0.107 1.017 0.107 1.529 0 0.039 0.088 0.078 0.089 0.117 0.008 0.319 0.262 0.577 0.224 0.906-0.132 0.044-0.318 0.049-0.383 0.141-0.101 0.141-0.329-0.048-0.356 0.176-0.361-0.029-0.651 0.26-1.014 0.222-0.532 0.24-1.117 0.278-1.677 0.393-0.566 0.117-1.161 0.088-1.744 0.124zM39.436 22.926c-0.072-0.081-0.093-0.12-0.108-0.118-0.050 0.007-0.099 0.029-0.148 0.046 0.064 0.018 0.127 0.036 0-0.049-0.050-0.203-0.213-0.065-0.317-0.106-0.012-0.030-0.020-0.082-0.038-0.086-0.188-0.041-0.378-0.074-0.574-0.111-0.045 0.132-0.11 0.253-0.121 0.378-0.010 0.112 0.040 0.23 0.060 0.334-0.071 0.018-0.118 0.030-0.161 0.041 0 0.203 0 0.39 0 0.577 1.023 0.074 1.993 0.054 2.298-0.049-0.304-0.055-0.598-0.108-0.925-0.166-0.026-0.039-0.073-0.108-0.119-0.177 0.123 0 0.257-0.031 0.367 0.006 0.455 0.151 0.935 0.193 1.393 0.329 0.094 0.028 0.187 0.082 0.28 0.084 0.682 0.007 1.365 0.004 2.071 0.004-0.001-0.548 0.31-1.038 0.193-1.564-0.539 0-1.043 0-1.541 0-0.022 0.079-0.039 0.139-0.064 0.229-0.175-0.092-0.319-0.168-0.49-0.259-0.424 0-0.878 0-1.349 0 0-0.268 0-0.527 0-0.797 0.072-0.112 0.153-0.238 0.24-0.373 1.042 0 2.074 0 3.14 0-0.148-0.483 0.245-0.874 0.186-1.354-0.216 0-0.407 0-0.598 0-0.193 0-0.387 0-0.58 0-0.211 0-0.422 0-0.633 0-0.193 0-0.407-0.051-0.575 0.014-0.187 0.072-0.334-0.042-0.498-0.012-0.063 0.012-0.121 0.048-0.184 0.063-0.092 0.021-0.186 0.032-0.279 0.048-0.006-0.022-0.012-0.044-0.018-0.065 0.064-0.029 0.128-0.058 0.171-0.077 0.053-0.344 0.103-0.674 0.157-1.025 0.219 0 0.428 0.007 0.636-0.002 0.204-0.009 0.444 0.029 0.603-0.064 0.241-0.143 0.373 0.091 0.576 0.079 0.574-0.035 1.153-0.012 1.729-0.012 0.115-0.529 0.295-1.023 0.227-1.545-0.024-0.018-0.037-0.037-0.051-0.037-1.722-0.001-3.445-0.001-5.164-0.001-0.053 0.053-0.103 0.103-0.157 0.157-0.010 0.247 0.004 0.494-0.096 0.744-0.085 0.211-0.123 0.462-0.105 0.69 0.020 0.253-0.256 0.47-0.086 0.708 0.073 0.026 0.123 0.045 0.18 0.066-0.124 0.077-0.222 0.139-0.334 0.209 0.049 0.23-0.026 0.434-0.074 0.649-0.046 0.207-0.020 0.433-0.115 0.637 0.164 0.24-0.098 0.4-0.114 0.609-0.016 0.216-0.063 0.429-0.1 0.671 0.070 0.041 0.15 0.103 0.24 0.138 0.122 0.047 0.249 0.082 0.377 0.106 0.13 0.024 0.284-0.049 0.38 0.103 0.49-0 0.911 0.286 1.395 0.331 0.263 0.025 0.516 0.151 0.859 0.259-0.505 0.113-0.884-0.016-1.271-0.126-0.204-0.058-0.399-0.187-0.627-0.142-0.030 0.006-0.057 0.032-0.078 0.044-0.011 0.054-0.021 0.102-0.031 0.149-0.238-0.043-0.463-0.084-0.695-0.125-0.034-0.083-0.072-0.176-0.115-0.281 0.091 0 0.144 0 0.197 0 0.050 0.203 0.213 0.065 0.573 0.227zM31.138 21.432c0.696 0.295 1.311 0.332 1.893 0.535 0.118-0.681 0.23-1.331 0.338-1.956-0.604-0.158-1.184-0.31-1.739-0.455-0.081 0.412-0.161 0.812-0.24 1.213 0.061 0.022 0.121 0.044 0.206 0.074-0.090 0.043-0.158 0.075-0.212 0.101 0 0.094 0 0.176 0 0.253 0.077 0.026 0.137 0.046 0.221 0.074-0.137 0.048-0.249 0.086-0.467 0.162zM34.851 23.438c0.228 0 0.456 0 0.672 0 0.135-0.085 0.262-0.165 0.413-0.26-0.299-0.24-0.663-0.203-0.971-0.37 0.203 0 0.405 0 0.612 0-0.050-0.269-0.277-0.173-0.406-0.257 0.243-0.212 0.525-0.183 0.805-0.156 0.106 0.305 0.353 0.311 0.521 0.306 0.177-0.177 0.31-0.31 0.459-0.459-0.031-0.209-0.283-0.135-0.429-0.226 0.018-0.063 0.032-0.11 0.061-0.213 0.21 0.199 0.439 0.18 0.637 0.141 0.133-0.208 0.248-0.388 0.352-0.552 0-0.166 0-0.32 0-0.469-0.112-0.018-0.205-0.033-0.347-0.056 0.202-0.132 0.453 0.033 0.575-0.289 0.029-0.267 0.114-0.621 0.094-0.97-0.019-0.339-0.144-0.672-0.22-0.996-0.084-0.084-0.159-0.159-0.25-0.25-0.308 0.099-0.559-0.108-0.897-0.25-0.045 0.087-0.092 0.179-0.152 0.298-0.060-0.245-0.106-0.435-0.154-0.631 0.282 0.057 0.562 0.113 0.837 0.165 0.005 0.068 0.010 0.131 0.017 0.217 0.077-0.008 0.135-0.015 0.199-0.022-0.006-0.070-0.010-0.116-0.015-0.18-0.070-0.005-0.133-0.010-0.196-0.011-0.211-0.473-0.724-0.492-1.075-0.697-0.611-0.163-1.214-0.154-1.816-0.149-0.633 0.006-1.267 0.001-1.888 0.001-0.092 0.092-0.178 0.178-0.278 0.278-0.001 0.33-0.125 0.656-0.211 0.994-0.085 0.335-0.085 0.691-0.123 1.037 0.594 0.072 1.091 0.365 1.684 0.326 0.091-0.348 0.182-0.696 0.269-1.026 0.766-0.154 1.463 0.123 2.161 0.349-0.027 0.029-0.061 0.067-0.113 0.125 0.213 0.387 0.4 0.795 0.331 1.254 0.089 0.037 0.147 0.061 0.285 0.118-0.181 0.021-0.264 0.031-0.332 0.039-0.157 0.297-0.274 0.613-0.473 0.865-0.21 0.266-0.498 0.471-0.759 0.709-0.062-0.035-0.133-0.075-0.218-0.123-0.099 0.076-0.196 0.152-0.294 0.227-0.386-0.035-0.772-0.070-1.158-0.105-0.017-0.002-0.046 0.006-0.051-0.001-0.125-0.214-0.371-0.065-0.555-0.189-0.156-0.105-0.438-0.022-0.665-0.022-0.132-0.157-0.287-0.252-0.497-0.196-0.046 0.165-0.090 0.319-0.133 0.472 0.070 0.029 0.13 0.053 0.197 0.080 0 0.045 0 0.092 0 0.15-0.105 0.015-0.201 0.030-0.295 0.044 0.002 0.457-0.224 0.879-0.080 1.357 1.318-0.061 2.662 0.157 3.963-0.265-0.030-0.052-0.062-0.107-0.095-0.163zM50.583 17.984c0.059-0.209-0.104-0.314-0.233-0.421-0.201-0.166-1.303-0.573-1.558-0.56-0.548 0.027-1.099-0.077-1.647 0.093-0.464 0.144-0.897 0.328-1.262 0.647-0.307 0.269-0.473 0.641-0.682 1.027-0.033 0.153 0.014 0.35-0.095 0.551-0.1 0.184 0.041 0.577 0.163 0.869 0.112 0.268 0.306 0.434 0.557 0.551 0.055 0.025 0.112 0.047 0.19 0.080 0.019-0.133 0.033-0.23 0.053-0.362 0.219 0.062 0.417 0.117 0.611 0.172-0.009 0.063-0.013 0.096-0.023 0.166-0.16 0-0.326 0-0.572 0 0.12 0.108 0.17 0.189 0.238 0.208 0.411 0.115 0.83 0.201 1.237 0.327 0.247 0.077 0.477 0.208 0.683 0.301 0 0.212 0 0.366 0 0.525-0.137 0.079-0.265 0.154-0.4 0.232-0.437-0.051-0.886 0.065-1.325-0.108-0.417-0.164-0.801-0.376-1.161-0.685-0.089 0.3-0.367 0.361-0.522 0.556-0.174 0.218-0.394 0.4-0.587 0.59 0 0.082 0 0.152 0 0.215 0.101 0.067 0.2 0.127 0.293 0.195 0.293 0.213 0.575 0.422 0.94 0.538 0.38 0.12 0.771 0.198 1.153 0.258 0.605 0.095 1.223 0.012 1.808-0.196 0.534-0.19 1.001-0.505 1.34-0.954 0.3-0.397 0.414-0.896 0.47-1.381 0.038-0.328-0.111-0.647-0.333-0.91-0.29-0.345-0.684-0.526-1.1-0.654-0.391-0.121-0.799-0.192-1.184-0.328-0.237-0.084-0.545-0.096-0.657-0.459 0.060-0.129 0.135-0.291 0.192-0.413 0.325-0.174 0.645-0.251 0.928-0.16 0.414 0.133 0.873 0.185 1.214 0.509 0.066 0.063 0.172 0.086 0.273 0.134 0.339-0.392 0.666-0.769 0.997-1.151zM34.528 11.297c-0.322 1.512-0.641 3.006-0.965 4.525 0.477 0 0.911 0 1.392 0 0.121-0.541 0.246-1.102 0.371-1.661 0.144 0 0.297 0 0.458 0 0.091 0.555 0.181 1.098 0.273 1.655 0.495 0 1.012 0 1.564 0-0.047-0.237-0.114-0.446-0.123-0.657-0.010-0.239-0.103-0.458-0.138-0.69-0.032-0.212-0.081-0.413-0.071-0.645 0.884-0.33 1.123-1.005 1.030-1.89-0.115-0.13-0.22-0.327-0.384-0.415-0.241-0.13-0.505-0.231-0.802-0.227-0.843 0.012-1.686 0.004-2.605 0.004zM43.086 12.519c-0.251-0.281-0.353-0.629-0.697-0.847-0.342-0.216-0.711-0.323-1.062-0.355-0.743-0.069-1.496-0.021-2.237-0.021-0.131 0.802-0.252 1.559-0.378 2.315-0.128 0.767-0.261 1.534-0.401 2.35 0.825-0.093 1.594 0.046 2.375-0.106 0.688-0.134 1.277-0.375 1.74-0.894 0.395-0.444 0.658-0.955 0.661-1.569 0.002-0.297 0-0.594 0-0.873zM43.581 15.178c0.368 0.544 0.868 0.663 1.355 0.754 0.485 0.091 1.175-0.010 1.647-0.207 0.556-0.231 0.955-0.627 1.152-1.218 0.199-0.597 0.278-1.22 0.418-1.829 0.103-0.446 0.201-0.894 0.305-1.361-0.48 0-0.962 0-1.472 0-0.104 0.451-0.21 0.898-0.309 1.346-0.043 0.194-0.072 0.392-0.107 0.588s-0.055 0.397-0.109 0.588c-0.075 0.265-0.176 0.522-0.248 0.729-0.299 0.236-0.583 0.233-0.858 0.199-0.124-0.076-0.237-0.145-0.356-0.217-0.057-0.385 0.15-0.718 0.182-1.071 0.035-0.388 0.203-0.736 0.236-1.123 0.029-0.352 0.132-0.697 0.203-1.045-0.516 0-0.986 0-1.433 0-0.054 0.194-0.115 0.365-0.149 0.541-0.136 0.698-0.294 1.392-0.425 2.091-0.030 0.162-0.099 0.322-0.098 0.483 0.001 0.267 0.045 0.534 0.066 0.751zM28.467 20.692c0.235 0.169 0.429 0.278 0.659 0.188 0.029-0.079 0.049-0.137 0.073-0.204 0.114 0.048 0.201 0.098 0.294 0.119 0.095 0.022 0.196 0.017 0.305 0.024 0.058 0.162 0.103 0.289 0.152 0.424 0.278-0.092 0.074-0.21 0.066-0.307 0.062-0.062 0.124-0.124 0.15-0.15 0.053-0.324 0.142-0.607 0.132-0.887-0.007-0.218 0.122-0.384 0.123-0.589 0.001-0.199-0.026-0.393 0.085-0.598 0.071-0.13-0.015-0.346-0.031-0.534 0.022-0.008 0.083-0.030 0.16-0.058-0.063-0.339 0.22-0.648 0.069-0.991-0.59 0-1.177 0-1.76 0-0.186 1.124-0.444 2.211-0.552 3.364 0.099-0.051 0.147-0.075 0.196-0.1 0.046 0.049 0.091 0.097 0.132 0.14-0.080 0.050-0.154 0.096-0.254 0.158zM28.199 22.020c-0.31 0.235-0.113 0.646-0.326 0.906 0.049 0.069 0.087 0.123 0.123 0.174-0.091 0.249-0.318 0.456-0.181 0.761 0.39 0 0.775-0.010 1.16 0.003 0.27 0.010 0.503-0.048 0.653-0.214 0.236-0.782 0.228-1.554 0.376-2.329-0.236 0-0.425 0-0.602 0-0.281-0.359-0.721-0.238-1.029-0.418-0.073 0.066-0.124 0.113-0.173 0.157 0 0.324 0 0.64 0 0.96zM24.066 14.891c-0.178-0.136-0.379-0.289-0.548-0.418-0.217 0-0.39 0-0.591 0-0.178 0.152-0.369 0.314-0.52 0.441 0 0.342 0 0.62 0 0.911 0.187 0.149 0.373 0.296 0.546 0.433 0.197 0 0.373 0 0.486 0 0.7-0.25 0.68-0.784 0.627-1.367zM17.941 19.726c0-0.19 0-0.45 0-0.654-0.177-0.191-0.32-0.344-0.451-0.486-0.264 0-0.509 0-0.695 0-0.192 0.191-0.353 0.351-0.525 0.522 0 0.65 0 0.65 0.217 1.018 0.263 0.062 0.486 0.378 0.811 0.216 0.256-0.128 0.584-0.193 0.643-0.615zM35.817 22.823c0.001 0.029 0.002 0.058 0.003 0.087 0.152 0 0.304 0.002 0.456-0.003 0.013-0 0.024-0.045 0.044-0.084-0.175 0-0.339 0-0.503 0zM25.788 20.078c0.003 0.030 0.007 0.061 0.011 0.091 0.058-0.014 0.115-0.028 0.173-0.041-0.003-0.017-0.006-0.033-0.008-0.050-0.058 0-0.117 0-0.175 0z"></path>
<path d="M29.199 13.005c-0.153 0.104-0.286 0.075-0.428 0.076-0.417-0.675-0.831-1.343-1.249-2.019l19.051-11.062c0.241 0.073 0.319 0.299 0.413 0.486l14.894 26.886c-0.009 0.018-0.014 0.034-0.024 0.047s-0.026 0.030-0.039 0.030c-4.308 0.001-8.616 0.001-12.925 0.001 0.13-0.228 0.374-0.299 0.58-0.424 0.475-0.29 0.933-0.611 1.42-0.879 0.41-0.225 0.814-0.468 1.271-0.604 0.198-0.059 0.37-0.201 0.563-0.286 0.302-0.134 0.606-0.252 0.952-0.24 0.297 0.010 0.58-0.187 0.887-0.075-0.030 0.117-0.061 0.234-0.096 0.368 0.059-0.004 0.088 0.002 0.108-0.009 0.177-0.093 0.364-0.176 0.439-0.385 0.141 0 0.282 0 0.422 0 0.039 0.022 0.080 0.041 0.118 0.066 0.095 0.063 0.173 0.079 0.199-0.066 0.593 0 1.186 0 1.801 0l-11.67-21.316c-0.1 0-0.218 0-0.246 0z"></path>
<path d="M12.552 22.494c-0.28-0.177-0.304-0.467-0.505-0.64-0.361-0.029-0.651 0.26-1.014 0.222-0.532 0.24-1.117 0.278-1.677 0.393-0.566 0.116-1.161 0.088-1.743 0.124-0.028 0.035-0.049 0.084-0.085 0.103l-7.491 4.467c-0.020 0.015-0.018 0.061-0.037 0.137 0.053 0.033 0.127 0.079 0.24 0.149 12.092 0 24.249 0 36.406 0-0.49-0.508-0.982-1.015-1.471-1.525-0.321-0.334-0.638-0.673-0.957-1.009-8.542 0-17.084 0-25.753 0z"></path>
<path d="M54.489 13.936c-0.275-0.157-0.383-0.45-0.519-0.701-0.302-0.559-0.619-1.11-0.928-1.665-0.253-0.454-0.512-0.906-0.75-1.369-0.099-0.192-0.168-0.395-0.334-0.546-0.026-0.024-0.004-0.101-0.004-0.154 1.809 0 3.618-0.002 5.428 0.001 0.497 0.001 0.998-0.052 1.562 0.174 0.239 0.27 0.575 0.597 0.844 0.973 0.157 0.22 0.285 0.473 0.411 0.721 0.304 0.598 0.43 1.262 0.749 1.874-0.066 0.057-0.13 0.113-0.218 0.189-0.389-0.309-0.507-0.796-0.794-1.197-0.072 0.192-0.137 0.365-0.212 0.562-0.306-0.239-0.593-0.468-0.887-0.686-0.062-0.046-0.153-0.053-0.231-0.076 0.018-0.017 0.035-0.036 0.053-0.054-0.075-0.048-0.15-0.097-0.249-0.161-0.005 0.071-0.008 0.127-0.013 0.201 0.085 0.006 0.147 0.011 0.209 0.014-0.003 0.196 0.118 0.336 0.221 0.487 0.054 0.079 0.083 0.175 0.142 0.304-0.292 0.161-0.562 0.309-0.862 0.474-0.28 0-0.595 0.016-0.908-0.006-0.206-0.014-0.364 0.079-0.504 0.185-0.271 0.207-0.518 0.445-0.771 0.668-0.731 0.041-1.126-0.433-1.507-0.931-0.157 0.248 0.137 0.467 0.072 0.718z"></path>
<path d="M16.687 15.103c0.005 0.047 0.005 0.1 0.005 0.177 0.374-0.005 0.623 0.341 1.005 0.36 0.069 0.004 0.13 0.172 0.21 0.287-0.107 0.114-0.187 0.199-0.265 0.283 0 0.091 0 0.179 0 0.327-0.084 0.047-0.207 0.117-0.329 0.186 0.021 0.021 0.041 0.041 0.062 0.062-0.14 0-0.281 0-0.433 0-0.020-0.059-0.041-0.12-0.068-0.196-0.077 0-0.16 0-0.262 0-0.041 0.198-0.045 0.388-0.369 0.429-0.325 0.042-0.61 0.294-0.914 0.451-0.026 0.014-0.019 0.092-0.030 0.15-1.147 0-2.285 0-3.464 0 0-0.221 0-0.445 0-0.668 0.235-0.151 0.060-0.411 0.162-0.62 0.126-0.258 0.070-0.6 0.167-0.879 0.082-0.236 0.087-0.463 0.095-0.736 0.069-0.037 0.163-0.087 0.254-0.136-0.235-0.267-0.115-0.52-0.15-0.75 0.035-0.073 0.093-0.144 0.102-0.22 0.063-0.562 0.167-1.114 0.31-1.662 0.062-0.237-0.026-0.51 0.163-0.757 1.241 0 2.503-0.006 3.763 0.007 0.172 0.002 0.343 0.097 0.515 0.149 0.079 0.024 0.157 0.047 0.272 0.082 0.1 0.080 0.232 0.185 0.364 0.291 0.211 0.389 0.211 0.389 0.211 1.231-0.21 0.635-0.573 1.085-1.244 1.336 0.446 0.144 0.719 0.381 0.924 0.69 0.102 0.153 0.167 0.33 0.061 0.56-0.236-0.172-0.561-0.142-0.773-0.367-0.103-0.11-0.225-0.056-0.344-0.066 0.002-0.001 0.009-0.008 0.016-0.015-0.024-0.029-0.049-0.058-0.074-0.086-0.011 0.011-0.022 0.022-0.033 0.033 0.029 0.025 0.057 0.049 0.091 0.068zM16.27 12.88c-0.094-0.069-0.189-0.139-0.283-0.208-0.522 0-1.046 0-1.569 0-0.046 0.090-0.091 0.177-0.153 0.298-0.023 0.19 0.064 0.44-0.106 0.649 0 0.065 0 0.129 0 0.213 0.608-0.015 1.184 0.058 1.777-0.151 0.090-0.087 0.214-0.207 0.335-0.325 0-0.092 0-0.179 0-0.265 0-0.070 0-0.141-0.004-0.2 0.076-0.015 0.144-0.028 0.111-0.022-0.010-0.048-0.027-0.13-0.044-0.211-0.018 0.012-0.035 0.024-0.053 0.036-0.004 0.062-0.009 0.124-0.010 0.187zM13.586 14.87c0.072 0.081 0.093 0.121 0.108 0.118 0.050-0.007 0.099-0.029 0.148-0.046-0.064-0.018-0.127-0.036 0.031 0.049-0.044 0.149-0.085 0.29-0.132 0.448 0.255 0.249-0.007 0.453-0.108 0.723 0.111 0.033 0.217 0.089 0.325 0.091 0.454 0.010 0.908 0.008 1.362 0.003 0.331-0.003 0.626-0.098 0.843-0.369 0-0.069 0.007-0.139-0.001-0.208-0.032-0.289-0.057-0.582-0.461-0.588-0.073-0.001-0.159-0.051-0.216-0.104-0.132-0.124-0.246-0.141-0.404-0.035-0.074 0.050-0.196 0.035-0.297 0.036-0.314 0.004-0.629 0.001-1.199-0.121zM17.070 12.043c0.023-0.038 0.046-0.076 0.069-0.115-0.169-0.316-0.549-0.185-0.816-0.35-0.068 0.114-0.122 0.205-0.241 0.406 0.214-0.084 0.311-0.122 0.389-0.153 0.209 0.074 0.404 0.143 0.598 0.211zM15.531 16.488c-0.093-0.007-0.188-0.014-0.295-0.022 0 0.121 0 0.216 0 0.289 0.354 0.050 0.683 0.096 1.047 0.148-0.021-0.107-0.032-0.165-0.046-0.236-0.060 0.054-0.098 0.089-0.146 0.132-0.087-0.038-0.173-0.091-0.266-0.113-0.095-0.022-0.197-0.015-0.294-0.020 0-0.072 0-0.107 0-0.177zM13.548 16.219c-0.187-0.286-0.187-0.286-0.461-0.197 0.078 0.202 0.202 0.29 0.461 0.197zM13.621 15.538c-0.139 0-0.268 0-0.403 0 0 0.065 0 0.112 0 0.174 0.139 0 0.268 0 0.403 0 0-0.065 0-0.112 0-0.174zM13.636 12.264c0.093 0.2 0.228 0.231 0.408 0.167 0-0.057 0-0.103 0-0.167-0.137 0-0.265 0-0.408 0zM15.97 16.488c0.003 0.031 0.006 0.062 0.009 0.094 0.092-0.013 0.184-0.027 0.277-0.040-0.002-0.018-0.004-0.036-0.006-0.054-0.093 0-0.187 0-0.28 0zM14.765 13.964c0.082 0.080 0.135 0.132 0.268 0.261-0.037-0.178-0.050-0.236-0.063-0.3-0.069 0.013-0.116 0.022-0.205 0.039zM16.349 11.325c0.081 0.079 0.135 0.132 0.268 0.261-0.037-0.178-0.050-0.236-0.063-0.3-0.069 0.013-0.116 0.022-0.205 0.039zM14.388 16.559c0.030-0.003 0.061-0.007 0.091-0.011-0.014-0.058-0.027-0.115-0.041-0.173-0.017 0.003-0.033 0.006-0.050 0.008 0 0.058 0 0.117 0 0.175zM15.339 14.060c0.002 0.030 0.004 0.060 0.006 0.090 0.059-0.013 0.118-0.026 0.176-0.038-0.002-0.017-0.005-0.035-0.007-0.052-0.058 0-0.117 0-0.175 0zM14.036 11.595c-0.003-0.030-0.007-0.061-0.011-0.091-0.058 0.014-0.115 0.027-0.173 0.041 0.003 0.017 0.005 0.033 0.008 0.050 0.058 0 0.117 0 0.175 0z"></path>
<path d="M57.762 19.848c-0.067-0.050-0.16-0.085-0.198-0.152-0.154-0.269-0.288-0.549-0.437-0.821-0.276-0.502-0.552-1.004-0.837-1.5-0.425-0.738-0.781-1.515-1.257-2.226-0.080-0.119-0.177-0.293-0.122-0.475 0.519 0.071 1.029-0.057 1.533-0.128 0.339-0.048 0.675-0.059 1.012-0.087 0.18-0.015 0.356-0.078 0.536-0.099 0.166-0.020 0.321-0.021 0.49-0.092 0.177-0.074 0.41-0.017 0.652-0.017 0 0.991 0 1.965 0 3.046 0.18-0.238 0.297-0.392 0.422-0.558 0-0.27 0.021-0.55-0.005-0.827-0.049-0.531 0.193-0.884 0.654-1.085 0.185-0.081 0.291-0.196 0.369-0.4 0.412 0.29 0.681 0.636 0.787 1.13 0.054 0.251 0.095 0.494 0.097 0.749 0.002 0.222-0.019 0.431-0.103 0.643-0.095 0.241-0.151 0.499-0.222 0.743-0.111 0.053-0.213 0.102-0.291 0.138-0.164-0.044-0.306-0.083-0.468-0.126-0.656 0.717-1.103 1.605-1.91 2.143-0.249-0-0.477-0-0.705-0z"></path>
<path d="M18.909 21.115c0.256 0.012 0.354-0.16 0.422-0.365 0.108-0.324 0.288-0.621 0.339-0.968 0.010-0.070 0.117-0.125 0.137-0.146-0.024-0.227-0.043-0.417-0.064-0.623 0.243-0.004 0.424-0.010 0.629 0.081 0.251 0.11 0.541 0.201 0.892 0.073-0.195-0.073-0.314-0.202-0.509-0.165-0.122 0.023-0.219-0.051-0.329-0.091-0.231-0.086-0.487-0.102-0.72-0.145-0.276-0.080-0.095-0.337-0.202-0.488-0.104-0.148-0.205-0.298-0.35-0.509 0.228-0.017 0.389-0.029 0.427-0.032 0.386 0.094 0.575 0.409 0.91 0.285 0.024-0.302-0.275-0.241-0.372-0.39-0.276 0.018-0.512-0.103-0.759-0.202-0.083-0.033-0.208 0.036-0.365 0.070-0.068-0.206-0.144-0.434-0.242-0.732 0.306 0.055 0.538 0.208 0.809 0.082-0.092-0.044-0.16-0.076-0.254-0.121 0.041-0.074 0.079-0.144 0.119-0.216-0.084-0.084-0.141-0.053-0.218 0.147-0.156 0-0.321 0-0.599 0 0.158-0.067 0.22-0.093 0.317-0.134-0.12-0.079-0.223-0.147-0.329-0.217-0.046-0.291 0.076-0.608-0.105-0.897-0.040-0.063-0.043-0.214 0.001-0.252 0.149-0.131 0.089-0.29 0.098-0.438 0.042-0.728 0.372-1.351 0.717-1.968 0.046-0.081 0.155-0.127 0.234-0.18 0 0.079 0 0.166 0 0.293 0.101 0.048 0.217 0.104 0.333 0.159 0.124-0.155 0.31-0.218 0.3-0.443-0.222 0-0.427 0-0.633-0.008-0.022-0.283 0.3-0.365 0.304-0.644 0.301 0 0.574 0 0.949 0-0.236-0.119-0.374-0.189-0.561-0.284 0.177-0.019 0.307-0.033 0.455-0.049 0-0.084 0-0.166 0-0.247 0.251-0.034 0.359-0.368 0.645-0.278 0.004 0.079 0.009 0.143 0.015 0.206 0.146 0 0.273 0 0.509 0-0.238-0.1-0.374-0.157-0.524-0.206 0.173-0.209 0.448-0.221 0.683-0.292 0.186-0.056 0.403 0.029 0.587-0.11 0.036-0.027 0.148-0.006 0.188 0.032 0.138 0.131 0.3 0.038 0.446 0.068 0.389 0.23 0.57 0.273 0.622 0.15-0.049-0.051-0.098-0.101-0.145-0.15-0.161 0-0.319 0-0.477 0-0.032-0.055-0.065-0.111-0.097-0.166 0.356-0.185 0.702 0.030 1.036 0.083 0.389 0.062 0.804 0.145 1.145 0.398 0.328 0.244 0.773 0.333 0.978 0.741-0.197 0.045-0.090 0.18-0.085 0.304 0.152 0 0.306 0 0.405 0 0.651 0.459 0.844 1.155 1.158 1.773-0.019 0.308 0.181 0.59 0.106 0.904 0.202 0.282 0.14 0.619 0.083 0.9-0.051 0.246-0.067 0.494-0.086 0.745-0.172 0.009-0.299 0.021-0.458-0.056-0.498-0.24-1.027-0.397-1.628-0.34-0.008-0.085-0.041-0.174-0.018-0.243 0.099-0.291 0.076-0.558 0.017-0.866-0.080-0.419-0.178-0.804-0.528-1.174 0.185-0.022 0.293-0.034 0.405-0.052-0.002 0.001-0.009 0.008-0.016 0.015 0.024 0.029 0.049 0.058 0.074 0.086 0.011-0.011 0.022-0.022 0.033-0.033-0.029-0.024-0.057-0.049-0.091-0.068-0.109-0.232-0.313-0.038-0.407-0.084-0.255-0.194-0.471-0.357-0.684-0.522-0.301-0.233-0.64-0.344-1.021-0.339-0.184 0.002-0.38 0.046-0.518-0.11-0.291 0.112-0.558 0.241-0.839 0.312-0.121 0.031-0.273-0.057-0.444-0.099 0.051 0.103 0.084 0.17 0.134 0.271-0.117 0.070-0.247 0.117-0.334 0.206-0.476 0.49-0.841 1.038-0.853 1.754-0.003 0.176-0.001 0.352-0 0.528 0.001 0.358 0.194 0.798 0.367 1.167 0.172 0.366 0.525 0.652 0.506 1.113-0.004 0.097 0.109 0.198 0.145 0.259 0.041 0.202 0.079 0.365 0.106 0.53 0.024 0.151 0.036 0.305 0.057 0.487-0.148 0.014-0.28 0.027-0.419 0.040 0.009 0.033 0.014 0.078 0.022 0.078 0.139 0.006 0.281 0.003 0.383 0.199-0.037 0.436-0.097 0.916-0.259 1.37-0.043 0.12-0.047 0.228-0.063 0.343-0.035 0.026-0.087 0.045-0.103 0.080-0.086 0.196-0.148 0.406-0.319 0.553-0.269 0.013-0.508-0.103-0.756-0.178-0.481-0.145-0.959-0.296-1.461-0.35-0-0.070-0-0.141-0-0.211zM19.693 16.381c-0.072-0.081-0.093-0.12-0.108-0.118-0.050 0.007-0.099 0.029-0.148 0.046 0.064 0.018 0.127 0.036-0.016-0.062-0.122-0.098-0.122-0.098-0.297 0 0.118 0 0.216 0 0.569 0.135zM26.61 13.915c-0.231-0.066-0.361-0.336-0.625-0.293-0.041 0.007-0.078 0.040-0.152 0.079 0.080 0.095 0.143 0.169 0.18 0.214 0.222 0 0.409 0 0.177-0.291 0.068-0.005 0.131-0.010 0.217-0.017-0.008-0.077-0.015-0.135-0.022-0.199-0.070 0.006-0.116 0.010-0.18 0.015-0.005 0.070-0.010 0.133 0.404 0.491zM19.959 21.119c0.113 0.118 0.2 0.21 0.299 0.314 0.198 0.016 0.43-0.060 0.648 0.096 0-0.11 0-0.192 0-0.272-0.314-0.046-0.616-0.090-0.947-0.138zM20.868 12.407c-0.038 0.328-0.009 0.354 0.382 0.333-0.083-0.083-0.147-0.15-0.214-0.213-0.034-0.032-0.076-0.055-0.168-0.121zM23.656 12.5c0.125 0.174 0.254 0.211 0.418 0.132-0.102-0.177-0.23-0.218-0.418-0.132zM20.636 13.353c0.115-0.084 0.197-0.144 0.334-0.244-0.167 0-0.26 0-0.379 0 0.015 0.080 0.025 0.139 0.045 0.244zM23.506 11.521c-0.068-0.196-0.187-0.32-0.386-0.164 0.134 0.057 0.26 0.11 0.386 0.164zM19.64 15.294c-0.092 0.017-0.139 0.026-0.205 0.038 0.084 0.056 0.149 0.098 0.205 0.136 0-0.030 0-0.077 0-0.173zM24.23 12.153c0.070-0.203 0.019-0.259-0.079-0.219 0.023 0.065 0.051 0.142 0.079 0.219zM22.684 11.536c0.082 0.080 0.135 0.132 0.268 0.261-0.037-0.178-0.050-0.236-0.063-0.3-0.069 0.013-0.116 0.022-0.205 0.039z"></path>
<path d="M38.863 22.699c-0.053 0-0.105 0-0.197 0 0.043 0.105 0.081 0.199 0.115 0.281 0.232 0.042 0.457 0.082 0.695 0.125 0.010-0.048 0.020-0.096 0.031-0.149 0.021-0.013 0.048-0.038 0.078-0.044 0.228-0.045 0.423 0.084 0.627 0.142 0.388 0.109 0.766 0.238 1.271 0.126-0.343-0.108-0.596-0.234-0.859-0.259-0.484-0.046-0.905-0.332-1.395-0.331-0.095-0.152-0.25-0.079-0.38-0.103-0.128-0.024-0.256-0.059-0.377-0.106-0.090-0.035-0.169-0.096-0.24-0.138 0.038-0.242 0.084-0.455 0.1-0.671 0.016-0.209 0.278-0.369 0.114-0.609 0.095-0.204 0.069-0.429 0.115-0.637 0.047-0.214 0.123-0.418 0.074-0.649 0.113-0.070 0.211-0.132 0.334-0.209-0.057-0.021-0.107-0.039-0.18-0.066-0.17-0.238 0.106-0.455 0.086-0.708-0.018-0.227 0.019-0.478 0.105-0.69 0.101-0.25 0.087-0.497 0.096-0.744 0.055-0.055 0.104-0.104 0.157-0.157 1.719 0 3.442 0 5.164 0.001 0.013 0 0.027 0.019 0.051 0.037 0.069 0.522-0.111 1.016-0.227 1.545-0.576 0-1.154-0.023-1.729 0.012-0.203 0.012-0.335-0.221-0.576-0.079-0.159 0.094-0.399 0.056-0.603 0.064-0.208 0.009-0.416 0.002-0.636 0.002-0.054 0.35-0.105 0.681-0.157 1.025-0.043 0.020-0.107 0.048-0.171 0.077 0.006 0.022 0.012 0.044 0.018 0.065 0.093-0.015 0.187-0.027 0.279-0.048 0.063-0.014 0.121-0.051 0.184-0.063 0.163-0.030 0.31 0.084 0.498 0.012 0.168-0.065 0.381-0.014 0.575-0.014 0.211 0 0.422 0 0.633 0 0.193 0 0.387 0 0.58 0 0.191 0 0.382 0 0.598 0 0.059 0.48-0.334 0.871-0.186 1.354-1.066 0-2.098 0-3.14 0-0.086 0.134-0.168 0.26-0.24 0.373 0 0.27 0 0.529 0 0.797 0.47 0 0.925 0 1.349 0 0.172 0.091 0.315 0.167 0.49 0.259 0.025-0.090 0.042-0.149 0.064-0.229 0.498 0 1.002 0 1.541 0 0.117 0.525-0.194 1.016-0.193 1.564-0.706 0-1.389 0.003-2.071-0.004-0.094-0.001-0.187-0.055-0.28-0.084-0.458-0.137-0.937-0.178-1.393-0.329-0.111-0.037-0.244-0.006-0.367-0.006-0.347-0.201-0.882-0.285-0.938-0.151 0.049 0.052 0.098 0.103 0.144 0.151 0.267 0 0.53 0 0.794 0 0.046 0.069 0.093 0.138 0.119 0.177 0.327 0.059 0.621 0.112 0.925 0.166-0.306 0.103-1.275 0.123-2.298 0.049 0-0.187 0-0.374 0-0.577 0.043-0.011 0.090-0.023 0.161-0.041-0.021-0.104-0.070-0.221-0.060-0.334 0.011-0.125 0.076-0.246 0.121-0.378 0.196 0.037 0.385 0.070 0.574 0.111 0.018 0.004 0.025 0.056 0.038 0.086zM40.556 17.994c-0.35-0.085-0.68-0.166-1.040-0.254-0.041 0.081-0.089 0.174-0.145 0.283 0.174-0.030 0.303-0.053 0.424-0.074 0.020 0.099 0.029 0.147 0.036 0.181 0.116-0.035 0.221-0.066 0.307-0.092 0.126 0.095 0.23 0.173 0.385 0.289 0.015-0.153 0.024-0.247 0.033-0.334zM42.333 22.681c0.295-0.003 0.548 0.247 0.896 0.052-0.3-0.088-0.57-0.168-0.856-0.252-0.014 0.069-0.023 0.116-0.039 0.2zM43.158 23.678c0.016-0.084 0.027-0.142 0.037-0.196-0.136-0.062-0.25-0.115-0.391-0.179-0.016 0.083-0.027 0.142-0.037 0.196 0.136 0.062 0.25 0.115 0.391 0.179zM42.277 20.173c0.14 0.11 0.216 0.17 0.336 0.265 0.026-0.119 0.041-0.184 0.059-0.265-0.127 0-0.208 0-0.395 0zM40.517 19.523c-0.14-0.11-0.216-0.17-0.336-0.265-0.026 0.119-0.041 0.184-0.059 0.265 0.127 0 0.208 0 0.395 0zM39.699 18.804c0.127-0.018 0.219-0.032 0.381-0.055-0.148-0.090-0.228-0.139-0.341-0.209-0.015 0.1-0.024 0.159-0.040 0.264z"></path>
<path d="M50.583 17.984c-0.331 0.382-0.658 0.76-0.997 1.151-0.102-0.048-0.207-0.071-0.273-0.134-0.341-0.324-0.8-0.376-1.214-0.509-0.283-0.091-0.603-0.014-0.928 0.16-0.056 0.122-0.132 0.284-0.192 0.413 0.112 0.363 0.42 0.375 0.657 0.459 0.385 0.136 0.793 0.208 1.184 0.328 0.416 0.128 0.81 0.309 1.1 0.654 0.221 0.263 0.37 0.582 0.333 0.91-0.056 0.486-0.17 0.984-0.47 1.381-0.339 0.449-0.806 0.764-1.34 0.954-0.585 0.208-1.203 0.291-1.808 0.196-0.382-0.060-0.773-0.137-1.153-0.258-0.365-0.116-0.646-0.324-0.94-0.538-0.093-0.068-0.192-0.128-0.293-0.195 0-0.062 0-0.132 0-0.215 0.193-0.191 0.413-0.372 0.587-0.59 0.155-0.195 0.433-0.256 0.522-0.556 0.36 0.309 0.744 0.521 1.161 0.685 0.439 0.173 0.888 0.057 1.325 0.108 0.135-0.078 0.263-0.153 0.4-0.232 0-0.16 0-0.313 0-0.525-0.206-0.093-0.436-0.224-0.683-0.301-0.407-0.126-0.827-0.212-1.237-0.327-0.067-0.019-0.117-0.1-0.238-0.208 0.246 0 0.412 0 0.572 0 0.010-0.071 0.014-0.104 0.023-0.166-0.194-0.055-0.392-0.111-0.611-0.172-0.019 0.132-0.033 0.229-0.053 0.362-0.078-0.033-0.135-0.054-0.19-0.080-0.252-0.117-0.445-0.283-0.557-0.551-0.122-0.292-0.263-0.685-0.163-0.869 0.109-0.201 0.062-0.398 0.095-0.551 0.209-0.386 0.375-0.758 0.682-1.027 0.365-0.32 0.798-0.504 1.262-0.647 0.548-0.17 1.099-0.066 1.647-0.093 0.255-0.013 1.357 0.395 1.558 0.56 0.129 0.107 0.292 0.213 0.233 0.421zM47.847 23.427c-0.007 0.007-0.014 0.014-0.021 0.021 0.025 0.029 0.049 0.057 0.074 0.086 0.011-0.011 0.022-0.022 0.033-0.033-0.029-0.024-0.057-0.049 0.053-0.077-0.181-0.068-0.265-0.1-0.349-0.132-0.169-0.095-0.409-0.006-0.572-0.112-0.071 0.032-0.131 0.060-0.208 0.095 0.343 0.162 0.658 0.185 0.989 0.153zM44.964 22.891c0.007-0.025 0.014-0.050 0.021-0.074-0.092-0.042-0.184-0.085-0.306-0.14 0 0.103 0 0.149 0 0.215 0.099 0 0.192 0 0.285 0zM48.674 21.405c-0.056 0.018-0.135 0.043-0.215 0.068 0.011 0.015 0.022 0.031 0.033 0.046 0.058 0 0.116 0 0.182 0 0-0.065 0-0.111 0-0.114zM45.133 23.13c0.035 0.075 0.068 0.147 0.102 0.219 0.017-0.012 0.034-0.025 0.050-0.037 0-0.058 0-0.116 0-0.182-0.065 0-0.111 0-0.152 0zM45.62 22.673c0-0.018 0-0.035 0-0.053-0.070 0-0.141 0-0.211 0 0 0.018 0 0.035 0 0.053 0.070 0 0.141 0 0.211 0zM45.304 19.25c0 0.012 0 0.023 0 0.035 0.035 0 0.070 0 0.106 0 0-0.012 0-0.023 0-0.035-0.035 0-0.070 0-0.106 0z"></path>
<path d="M37.069 17.948c-0.28-0.056-0.559-0.112-0.842-0.169 0.048 0.196 0.094 0.387 0.154 0.631 0.061-0.119 0.108-0.211 0.152-0.298 0.338 0.142 0.589 0.349 0.897 0.25 0.091 0.091 0.166 0.165 0.25 0.25 0.076 0.324 0.201 0.657 0.22 0.996 0.020 0.348-0.065 0.702-0.094 0.97-0.121 0.322-0.373 0.157-0.575 0.289 0.142 0.023 0.235 0.038 0.347 0.056 0 0.149 0 0.303 0 0.469-0.104 0.163-0.219 0.343-0.352 0.552-0.198 0.038-0.427 0.057-0.637-0.141-0.030 0.103-0.043 0.15-0.061 0.213 0.146 0.091 0.398 0.017 0.429 0.226-0.149 0.149-0.282 0.282-0.459 0.459-0.168 0.005-0.415-0.001-0.521-0.306-0.28-0.027-0.562-0.055-0.805 0.156 0.129 0.084 0.357-0.012 0.406 0.257-0.207 0-0.41 0-0.612 0 0.308 0.168 0.672 0.13 0.971 0.37-0.151 0.095-0.277 0.175-0.413 0.26-0.216 0-0.444 0-0.667-0.010-0.024-0.036-0.052-0.082-0.090-0.093-0.142-0.042-0.286-0.073-0.43-0.108s-0.285-0.082-0.431-0.103c-0.441-0.066-0.836-0.285-1.27-0.374-0.075-0.015-0.153-0.061-0.211-0.113-0.385-0.345-0.578-0.339-0.922 0.040 0.238 0.058 0.476 0.116 0.688 0.168 0 0.102 0 0.184 0 0.258-0.069 0.019-0.117 0.031-0.163 0.047-0.008 0.003-0.011 0.024-0.016 0.036 0.43 0.228 0.43 0.228 0.615 0.208-0.105-0.069-0.21-0.138-0.357-0.233 0.152-0.031 0.256-0.052 0.401-0.081-0.111-0.052-0.176-0.082-0.321-0.149 0.185 0 0.28 0 0.372 0 0.017 0.114 0.030 0.209 0.043 0.294 0.107 0 0.176 0 0.246 0 0.033-0.069 0.066-0.134 0.080-0.163 0.285 0.077 0.55 0.149 0.805 0.218 0.006 0.098 0.011 0.18 0.018 0.296 0.337-0.055 0.635-0.104 0.942-0.146 0.027 0.065 0.059 0.12 0.089 0.172-1.301 0.422-2.645 0.204-3.963 0.265-0.144-0.478 0.081-0.899 0.080-1.357 0.093-0.014 0.19-0.028 0.295-0.044 0-0.058 0-0.105 0-0.15-0.067-0.027-0.126-0.051-0.197-0.080 0.043-0.153 0.086-0.307 0.133-0.472 0.21-0.056 0.365 0.039 0.655 0.275 0.020 0.027-0.121-0.029-0.265-0.076-0.024-0.008-0.059 0.022-0.089 0.034-0.005 0.033-0.011 0.066-0.024 0.148 0.185-0.015 0.304 0.245 0.531 0.090 0.002-0.040 0.004-0.074-0.153-0.196 0.068-0.079 0.349-0.162 0.506-0.057 0.185 0.123 0.43-0.025 0.555 0.189 0.004 0.008 0.033-0 0.051 0.001 0.386 0.035 0.772 0.070 1.166 0.112 0.13 0.105 0.13 0.105 0.305 0.007-0.118 0-0.216 0-0.305-0.007 0.089-0.082 0.187-0.157 0.286-0.234 0.086 0.048 0.156 0.088 0.218 0.123 0.261-0.238 0.549-0.443 0.759-0.709 0.199-0.252 0.315-0.569 0.473-0.865 0.068-0.008 0.151-0.018 0.332-0.039-0.138-0.057-0.196-0.081-0.285-0.118 0.070-0.458-0.118-0.867-0.331-1.254 0.052-0.058 0.086-0.095 0.113-0.125-0.699-0.226-1.395-0.503-2.161-0.349-0.086 0.33-0.178 0.678-0.269 1.026-0.592 0.039-1.090-0.254-1.684-0.326 0.037-0.346 0.038-0.702 0.123-1.037 0.086-0.338 0.21-0.664 0.211-0.994 0.099-0.099 0.186-0.186 0.278-0.278 0.622 0 1.255 0.004 1.888-0.001 0.603-0.005 1.205-0.014 1.816 0.149 0.352 0.205 0.864 0.224 1.076 0.697zM35.301 18.159c0 0.070 0 0.141 0 0.224 0.076-0.015 0.123-0.025 0.192-0.039-0.015-0.073-0.028-0.132-0.039-0.185-0.059 0-0.094 0-0.153 0zM33.612 22.287c0 0.166 0 0.236 0 0.32 0.076-0.015 0.123-0.025 0.224-0.045-0.072-0.088-0.12-0.147-0.224-0.274zM34.19 17.737c0-0.070 0-0.141 0-0.224-0.076 0.015-0.123 0.025-0.192 0.039 0.015 0.073 0.028 0.132 0.039 0.185 0.059 0 0.094 0 0.153 0zM35.047 22.469c-0.002-0.030-0.005-0.060-0.007-0.090-0.127 0.008-0.255 0.017-0.382 0.025 0.001 0.022 0.003 0.044 0.004 0.065 0.129 0 0.257 0 0.386 0zM32.001 23.466c-0.070 0-0.141 0-0.224 0 0.015 0.076 0.025 0.123 0.039 0.192 0.073-0.015 0.132-0.027 0.185-0.039 0-0.059 0-0.094 0-0.153zM34.851 18.133c0-0.018 0-0.035 0-0.053-0.106 0-0.211 0-0.317 0 0 0.018 0 0.035 0 0.053 0.106 0 0.211 0 0.317 0zM36.884 21.404c-0.081-0.079-0.135-0.132-0.268-0.261 0.037 0.178 0.050 0.236 0.063 0.3 0.069-0.013 0.116-0.022 0.205-0.039zM36.207 22.047c-0.003-0.030-0.007-0.061-0.011-0.091-0.058 0.014-0.115 0.028-0.173 0.041 0.003 0.017 0.005 0.033 0.008 0.050 0.058-0 0.117-0 0.175-0z"></path>
<path d="M21.021 22.066c-0.179 0.413-0.854 1.088-1.267 1.267-0.163-0.095-0.329-0.165-0.502-0.078 0.097 0.097 0.194 0.193 0.291 0.29-0.513 0.204-1.005 0.438-1.562 0.553-0.486 0.1-0.969 0.119-1.429 0.061-0.76-0.095-1.488-0.336-2.129-0.812-0.65-0.483-1.172-1.057-1.549-1.77-0.012-0.022-0.058-0.026-0.087-0.038 0.038-0.329-0.216-0.586-0.224-0.906-0.001-0.040-0.089-0.078-0.089-0.117-0-0.513-0.189-1.013-0.107-1.529 0.020-0.126 0.078-0.247 0.117-0.367 0.207-0.145 0.414 0.061 0.641-0.022 0.201-0.073 0.449-0.015 0.676-0.015 0.244 0 0.488 0 0.77 0-0.009 0.285 0.089 0.569-0.107 0.849 0.245 0.23 0.025 0.574 0.213 0.847 0.159 0.231 0.18 0.549 0.431 0.732 0.114 0.241 0.349 0.345 0.544 0.5 0.774 0.617 2.185 0.643 2.96-0.039 0.042-0.037 0.127-0.027 0.191-0.039 0.027 0.035 0.049 0.096 0.081 0.101 0.26 0.042 0.525 0.061 0.781 0.118 0.076 0.017 0.13 0.133 0.363 0.42-0.038-0.219-0.154-0.269-0.64-0.13 0.287 0.123 0.526 0.225 0.64 0.13 0.206-0.176 0.582-0.136 0.956-0.091 0.015 0.002 0.024 0.055 0.035 0.084zM18.477 23.863c0.006-0.024 0.012-0.048 0.018-0.072-0.084-0.047-0.163-0.125-0.251-0.137-0.429-0.060-0.825-0.307-1.279-0.22-0.020 0.004-0.047-0.053-0.077-0.063-0.637-0.212-1.252-0.225-1.644 0.044 0.272 0.024 0.543 0.048 0.807 0.072 0.011-0.049 0.022-0.097 0.033-0.149 0.281 0.071 0.571 0.094 0.808 0.217 0.248 0.129 0.516 0.070 0.767 0.183 0.242 0.109 0.543 0.088 0.817 0.124zM15.919 22.612c-0.121-0.121-0.171-0.171-0.197-0.197-0.191-0.035-0.356-0.094-0.518-0.088-0.147 0.005-0.289 0.056-0.426-0.044-0.007-0.005-0.077 0.073-0.122 0.118 0.374 0.298 0.776 0.157 1.263 0.212zM13.504 21.696c0.131 0.057 0.224 0.097 0.368 0.159-0.040-0.103-0.049-0.17-0.086-0.209-0.053-0.055-0.127-0.089-0.206-0.141-0.029 0.072-0.046 0.116-0.076 0.191zM15.315 21.789c0.127 0.176 0.255 0.213 0.419 0.134-0.102-0.178-0.231-0.215-0.419-0.134zM18.314 22.692c-0.19 0.012-0.317 0.021-0.54 0.035 0.215 0.096 0.33 0.147 0.456 0.203 0.023-0.065 0.039-0.11 0.084-0.239zM14.536 21.634c-0.132-0.108-0.204-0.168-0.322-0.265-0.029 0.118-0.045 0.182-0.066 0.265 0.126 0 0.207 0 0.387 0zM14.011 20.221c0.020-0.257 0.020-0.257-0.112-0.229 0.021 0.043 0.056 0.114 0.112 0.229zM19.101 23.209c-0.002-0.030-0.004-0.060-0.006-0.090-0.059 0.013-0.118 0.026-0.176 0.038 0.002 0.017 0.005 0.035 0.007 0.052 0.058 0 0.117 0 0.175 0zM17.026 23.034c0.003 0.030 0.007 0.061 0.011 0.091 0.058-0.014 0.115-0.028 0.173-0.041-0.003-0.017-0.005-0.033-0.008-0.050-0.058 0-0.117 0-0.175 0zM14.079 20.482c0.018 0 0.035 0 0.053 0 0-0.070 0-0.141 0-0.211-0.018 0-0.035 0-0.053 0 0 0.070 0 0.141 0 0.211z"></path>
<path d="M34.528 11.297c0.919 0 1.762 0.008 2.605-0.004 0.296-0.004 0.561 0.097 0.802 0.227 0.164 0.089 0.269 0.286 0.384 0.415 0.093 0.885-0.146 1.559-1.030 1.89-0.011 0.232 0.039 0.432 0.071 0.645 0.035 0.232 0.128 0.451 0.138 0.69 0.009 0.211 0.076 0.42 0.123 0.657-0.552 0-1.069 0-1.564 0-0.092-0.557-0.181-1.1-0.273-1.655-0.16 0-0.314 0-0.458 0-0.125 0.559-0.25 1.12-0.371 1.661-0.481 0-0.915 0-1.392 0 0.324-1.518 0.642-3.013 0.965-4.525zM36.728 12.965c0.046-0.124 0.102-0.276 0.146-0.395-0.117-0.137-0.205-0.24-0.266-0.312-0.327 0-0.605 0-0.931 0 0.125 0.295-0.207 0.536-0.047 0.838 0.362-0.036 0.729 0.077 1.097-0.132z"></path>
<path d="M43.086 12.519c0 0.279 0.001 0.576-0 0.873-0.003 0.614-0.265 1.125-0.661 1.569-0.462 0.519-1.052 0.76-1.74 0.894-0.781 0.152-1.549 0.013-2.375 0.106 0.139-0.816 0.273-1.583 0.401-2.35 0.126-0.756 0.247-1.513 0.378-2.315 0.74 0 1.494-0.048 2.237 0.021 0.352 0.033 0.72 0.139 1.062 0.355 0.344 0.217 0.446 0.566 0.697 0.847zM40.614 14.772c0.879-0.275 1.268-0.799 1.205-1.584-0.098-0.194-0.178-0.354-0.259-0.513-0.615-0.255-0.642-0.258-1.391-0.18-0.123 0.758-0.245 1.51-0.369 2.277 0.325 0 0.602 0 0.813 0z"></path>
<path d="M43.581 15.178c-0.021-0.216-0.064-0.483-0.066-0.751-0.001-0.161 0.068-0.321 0.098-0.483 0.132-0.699 0.289-1.393 0.425-2.091 0.034-0.176 0.095-0.347 0.149-0.541 0.447 0 0.917 0 1.433 0-0.070 0.348-0.173 0.693-0.203 1.045-0.032 0.386-0.2 0.734-0.236 1.123-0.032 0.353-0.239 0.686-0.182 1.071 0.118 0.072 0.231 0.141 0.356 0.217 0.275 0.034 0.558 0.037 0.858-0.199 0.071-0.207 0.172-0.464 0.248-0.729 0.054-0.191 0.074-0.391 0.109-0.588s0.064-0.394 0.107-0.588c0.099-0.448 0.205-0.895 0.309-1.346 0.51 0 0.992 0 1.472 0-0.104 0.467-0.203 0.914-0.305 1.361-0.14 0.609-0.219 1.232-0.418 1.829-0.197 0.591-0.596 0.987-1.152 1.218-0.472 0.196-1.163 0.297-1.647 0.207-0.487-0.091-0.987-0.21-1.355-0.754z"></path>
<path d="M25.666 23.649c-0.277 0.113-0.547 0.235-0.861 0.215-0.262-0.017-0.529 0.017-0.79-0.009-0.297-0.029-0.589-0.1-0.883-0.155-0.003-0.001-0-0.033-0-0.051 0-0.035 0-0.070-0.272-0.245-0.034-0.005 0.201 0.096 0.46 0.146 0.012-0.076 0.017-0.109 0.025-0.159-0.137-0.069-0.279-0.141-0.431-0.217 0.077-0.036 0.147-0.069 0.165-0.077-0.032-0.066-0.071-0.146-0.134-0.273-0.139 0.17-0.232 0.286-0.086 0.58 0.166 0.14 0.061 0.14-0.045 0.14-0.392 0.041-0.623-0.259-0.906-0.439-0.128-0.082-0.223-0.215-0.351-0.343 0.1-0.124 0.204-0.252 0.307-0.379 0.045 0.035 0.086 0.088 0.137 0.102 0.142 0.039 0.288 0.062 0.443 0.094 0.272-0.284 0.559 0.192 0.88-0.041 0.101 0.14 0.193 0.268 0.293 0.406 0.095-0.056 0.165-0.097 0.253-0.149 0.186 0.161 0.4 0.141 0.65 0.077-0.080-0.076-0.124-0.152-0.182-0.167-0.413-0.102-0.828-0.214-1.241-0.298-0.364-0.074-0.677-0.244-1.022-0.34 0.016-0.228 0.112-0.409 0.271-0.529 0.314 0.189 0.577 0.413 0.882 0.517 0.531 0.182 1.075 0.362 1.642 0.326 0.096-0.075 0.181-0.142 0.267-0.209 0.077-0.024 0.166-0.033 0.23-0.077 0.135-0.095 0.258-0.209 0.383-0.312-0.037-0.013-0.14-0.019-0.152-0.056-0.176-0.515-0.676-0.479-1.059-0.598-0.497-0.155-1.006-0.244-1.464-0.527-0.24-0.148-0.421-0.324-0.578-0.545-0.106-0.148-0.122-0.307-0.097-0.479 0.389 0.037 0.758 0.197 1.155 0.167 0.071 0.224 0.273 0.038 0.436 0.076 0.108 0.108 0.216 0.217 0.331 0.333 0.14-0.14 0.401-0.163 0.539-0.074 0.209 0.135 0.402 0.045 0.595 0.088 0.024 0.203 0.206 0.049 0.31 0.151 0.003 0.057 0.008 0.14 0.014 0.26 0.078 0.005 0.159 0.009 0.252 0.015 0.034-0.070 0.069-0.141 0.103-0.211 0.447 0.112 0.89 0.223 1.326 0.332 0 0.102 0 0.172 0 0.279-0.233 0-0.47 0-0.706 0-0.004 0.026-0.009 0.052-0.013 0.079 0.058 0.015 0.117 0.041 0.175 0.042 0.107 0.001 0.194 0.012 0.281 0.096 0.047 0.045 0.16 0.020 0.238 0.027 0.109 0.532-0.092 0.955-0.357 1.381-0.241 0.388-0.565 0.647-0.973 0.823-0.149 0.064-0.294 0.14-0.44 0.21zM26.396 21.296c-0.089-0.181-0.219-0.223-0.403-0.15 0.089 0.181 0.219 0.223 0.403 0.15zM24.427 23.342c0 0.166 0 0.236 0 0.32 0.076-0.015 0.123-0.025 0.224-0.045-0.072-0.088-0.12-0.147-0.224-0.274z"></path>
<path d="M23.348 18.154c0.062-0.153 0.22-0.179 0.353-0.2 0.53-0.086 0.973-0.325 1.346-0.705 0.111-0.113 0.224-0.224 0.341-0.342 0.716-0.078 1.393 0.056 1.99 0.366 0.193 0.255 0.043 0.449-0.035 0.611-0.088 0.186-0.164 0.42-0.411 0.485-0.033 0.009-0.070 0.001-0.055-0.005-0.199-0.094-0.364-0.152-0.562-0.222-0.005 0.086-0.008 0.145-0.013 0.216 0.191 0 0.358 0 0.575 0.006-0.094 0.145-0.138 0.285-0.181 0.423-0.085 0-0.153 0-0.248 0 0-0.188-0.209-0.189-0.283-0.279-0.343-0.048-0.658-0.098-0.974-0.136-0.363-0.044-0.669 0.066-0.898 0.378 0 0.090 0 0.195 0 0.35 0.211 0.102 0.433 0.265 0.678 0.315 0.418 0.086 0.82 0.219 1.226 0.338 0.155 0.046 0.366 0.087 0.417 0.307-0.297-0.040-0.595-0.080-0.902-0.121-0.024 0.072-0.045 0.132-0.077 0.227-0.052 0-0.117 0-0.182 0-0.012-0.030-0.016-0.076-0.038-0.087-0.198-0.101-0.407-0.158-0.633-0.124-0.125-0.215-0.372-0.067-0.559-0.189-0.159-0.105-0.442-0.022-0.67-0.022-0.1-0.070-0.191-0.179-0.301-0.204-0.273-0.062-0.555-0.086-0.835-0.126-0.117-0.518 0.131-0.934 0.344-1.365 0.194 0.037 0.387 0.074 0.585 0.106-0.002 0.001-0.009 0.008-0.016 0.015 0.024 0.029 0.049 0.058 0.074 0.086 0.011-0.011 0.022-0.022 0.033-0.033-0.029-0.025-0.057-0.049-0.091-0.068zM26.4 17.565c0.127 0.176 0.256 0.214 0.419 0.135-0.101-0.18-0.231-0.214-0.419-0.135zM24.842 17.861c0.001 0.031 0.001 0.062 0.002 0.093 0.094-0.013 0.188-0.025 0.283-0.038-0.001-0.018-0.003-0.037-0.004-0.055-0.093-0-0.187-0-0.28-0zM23.782 18.6c0.003 0.031 0.006 0.062 0.009 0.094 0.092-0.013 0.184-0.027 0.277-0.040-0.002-0.018-0.004-0.036-0.006-0.054-0.093 0-0.187 0-0.28 0z"></path>
<path d="M28.467 20.692c0.1-0.062 0.174-0.108 0.254-0.158-0.041-0.044-0.086-0.092-0.132-0.14-0.049 0.025-0.097 0.050-0.196 0.1 0.108-1.153 0.366-2.24 0.552-3.364 0.582 0 1.17 0 1.76 0 0.151 0.343-0.132 0.651-0.069 0.991-0.077 0.028-0.138 0.050-0.16 0.058 0.016 0.188 0.102 0.403 0.031 0.534-0.112 0.205-0.085 0.399-0.085 0.598-0.001 0.206-0.131 0.371-0.123 0.589 0.010 0.28-0.079 0.563-0.132 0.887-0.025 0.026-0.088 0.088-0.15 0.15 0.009 0.097 0.213 0.215-0.066 0.307-0.048-0.135-0.094-0.262-0.152-0.424-0.108-0.007-0.21-0.002-0.305-0.024-0.094-0.022-0.181-0.072-0.294-0.119-0.024 0.067-0.045 0.125-0.073 0.204-0.23 0.090-0.424-0.019-0.659-0.188zM29.12 18.474c-0.033 0.002-0.096 0.007-0.182 0.014 0.008 0.077 0.014 0.135 0.022 0.205 0.116-0.010 0.207-0.019 0.314-0.028-0.063-0.078-0.102-0.126-0.127-0.267 0.002 0.030 0.004 0.060 0.006 0.090 0.104-0.014 0.207-0.027 0.311-0.041-0.047-0.057-0.092-0.075-0.137-0.075-0.060 0.001-0.12 0.017-0.206 0.102z"></path>
<path d="M28.199 22.020c0-0.32 0-0.636 0-0.96 0.049-0.044 0.1-0.091 0.173-0.157 0.309 0.18 0.748 0.059 1.029 0.418 0.177 0 0.365 0 0.602 0-0.148 0.776-0.139 1.547-0.376 2.329-0.15 0.166-0.383 0.224-0.653 0.214-0.385-0.014-0.77-0.003-1.16-0.003-0.137-0.304 0.090-0.512 0.181-0.761-0.036-0.051-0.074-0.104-0.123-0.174 0.213-0.259 0.017-0.67 0.326-0.906zM28.941 23.461c-0.234-0.003-0.432-0.189-0.687-0.126-0.023 0.006-0.037 0.052-0.074 0.109 0.056 0.066 0.119 0.14 0.154 0.181 0.227 0 0.415 0 0.598 0 0.003-0.058 0.005-0.092-0.516-0.572-0.011 0.017-0.022 0.034-0.033 0.051 0.107 0.084 0.215 0.169 0.319 0.25 0.131-0.069 0.233-0.123 0.441-0.233-0.225 0-0.327 0.009-0.426-0.002-0.101-0.012-0.2-0.043 0.224 0.342zM28.573 21.642c-0.137 0.018-0.211 0.028-0.285 0.037 0.012 0.016 0.024 0.033 0.037 0.049 0.333 0.073 0.666 0.147 1.014 0.224 0.011-0.052 0.020-0.1 0.021-0.103-0.228-0.364-0.632-0.082-0.786-0.207zM29.387 22.708c0.043 0.080 0.080 0.149 0.168 0.311 0-0.186 0-0.244 0-0.311-0.064 0-0.11 0-0.168 0z"></path>
<path d="M31.462 21.47c-0.106-0.114 0.005-0.152 0.142-0.2-0.084-0.028-0.144-0.048-0.221-0.074 0-0.077 0-0.159 0-0.253 0.054-0.026 0.122-0.058 0.212-0.101-0.084-0.030-0.145-0.052-0.206-0.074 0.079-0.4 0.158-0.801 0.24-1.213 0.555 0.145 1.135 0.297 1.739 0.455-0.108 0.626-0.221 1.275-0.338 1.956-0.582-0.203-1.197-0.24-1.568-0.497 0.648 0.045 0.909 0.321 1.268 0.272 0-0.075 0-0.122 0-0.187-0.092 0-0.174 0-0.297 0-0.050-0.072-0.109-0.158-0.141-0.204-0.196 0-0.346 0-0.495 0-0.004 0.057-0.006 0.091-0.335 0.12z"></path>
<path d="M24.066 14.891c0.053 0.583 0.073 1.117-0.627 1.367-0.114 0-0.29 0-0.486 0-0.173-0.137-0.359-0.284-0.546-0.433 0-0.291 0-0.569 0-0.911 0.151-0.128 0.341-0.29 0.52-0.441 0.202 0 0.375 0 0.591 0 0.169 0.129 0.37 0.282 0.548 0.418z"></path>
<path d="M17.941 19.726c-0.058 0.423-0.387 0.488-0.643 0.615-0.325 0.162-0.548-0.154-0.811-0.216-0.217-0.367-0.217-0.367-0.217-1.018 0.172-0.172 0.333-0.331 0.525-0.522 0.186 0 0.431 0 0.695 0 0.131 0.141 0.274 0.295 0.451 0.486 0 0.205 0 0.464 0 0.654z"></path>
<path d="M26.616 20.165c0-0.035 0-0.070 0-0.106 0.353 0.005 0.379 0.024 0.422 0.317-0.087 0-0.173 0-0.256 0-0.056-0.072-0.111-0.141-0.166-0.211z"></path>
<path d="M35.817 22.823c0.164 0 0.328 0 0.503 0-0.020 0.039-0.031 0.084-0.044 0.084-0.152 0.005-0.304 0.003-0.456 0.003-0.001-0.029-0.002-0.058-0.003-0.087z"></path>
<path d="M26.621 20.152c-0.006 0.076-0.011 0.139-0.017 0.218-0.113-0.054-0.205-0.099-0.352-0.17 0.155-0.020 0.259-0.034 0.369-0.048z"></path>
<path d="M37.064 17.944c0.068 0.005 0.131 0.010 0.201 0.016 0.005 0.064 0.009 0.109 0.015 0.18-0.064 0.007-0.122 0.013-0.199 0.022-0.007-0.086-0.012-0.149-0.017-0.217z"></path>
<path d="M26.295 11.82c0.068 0.005 0.131 0.010 0.201 0.016 0.005 0.063 0.009 0.109 0.015 0.18-0.064 0.007-0.122 0.013-0.199 0.022-0.007-0.086-0.012-0.149-0.017-0.217z"></path>
<path d="M38.863 22.699c0.104 0.040 0.267-0.098 0.317 0.106-0.104-0.040-0.267 0.098-0.317-0.106z"></path>
<path d="M39.436 22.926c-0.129-0.037-0.192-0.055-0.256-0.073 0.049-0.016 0.098-0.038 0.148-0.046 0.015-0.002 0.036 0.038 0.108 0.118z"></path>
<path d="M25.788 20.078c0.058 0 0.117 0 0.175 0 0.003 0.017 0.006 0.033 0.008 0.050-0.058 0.014-0.115 0.027-0.173 0.041-0.003-0.031-0.007-0.061-0.011-0.092z"></path>
<path d="M27.295 20.498c-0.129-0.037-0.192-0.055-0.256-0.073 0.049-0.016 0.098-0.038 0.148-0.046 0.015-0.002 0.036 0.038 0.108 0.118z"></path>
<path d="M13.872 14.992c0.284 0 0.598 0.002 0.912-0.001 0.101-0.001 0.223 0.014 0.297-0.036 0.158-0.107 0.273-0.089 0.404 0.035 0.056 0.053 0.142 0.103 0.216 0.104 0.405 0.006 0.429 0.299 0.461 0.588 0.008 0.069 0.001 0.139 0.001 0.208-0.217 0.27-0.513 0.365-0.843 0.369-0.454 0.005-0.909 0.007-1.362-0.003-0.108-0.002-0.215-0.059-0.325-0.091 0.101-0.27 0.363-0.474 0.108-0.723 0.046-0.158 0.088-0.298 0.131-0.448z"></path>
<path d="M16.27 13.092c0 0.087 0 0.173 0 0.265-0.121 0.117-0.245 0.238-0.335 0.325-0.593 0.209-1.169 0.136-1.777 0.151 0-0.084 0-0.149 0-0.213 0.065-0.012 0.159-0.001 0.19-0.040 0.219-0.27 0.514-0.429 0.857-0.593 0.146 0 0.339-0.014 0.53 0.004 0.18 0.017 0.357 0.066 0.535 0.102z"></path>
<path d="M17.070 12.043c-0.194-0.069-0.389-0.137-0.598-0.211-0.078 0.031-0.176 0.069-0.389 0.153 0.119-0.201 0.173-0.292 0.241-0.406 0.266 0.165 0.647 0.034 0.816 0.35-0.023 0.038-0.046 0.076-0.069 0.115z"></path>
<path d="M15.531 16.488c0 0.070 0 0.105 0 0.177 0.097 0.005 0.199-0.002 0.294 0.020 0.093 0.022 0.179 0.075 0.266 0.113 0.048-0.043 0.086-0.078 0.146-0.132 0.014 0.072 0.025 0.13 0.046 0.236-0.364-0.051-0.693-0.098-1.047-0.148 0-0.072 0-0.168 0-0.289 0.107 0.008 0.202 0.015 0.295 0.022z"></path>
<path d="M13.548 16.219c-0.259 0.093-0.383 0.004-0.461-0.197 0.273-0.088 0.273-0.088 0.461 0.197z"></path>
<path d="M13.621 15.538c0 0.062 0 0.109 0 0.174-0.135 0-0.264 0-0.403 0 0-0.062 0-0.109 0-0.174 0.135 0 0.264 0 0.403 0z"></path>
<path d="M13.636 12.264c0.143 0 0.271 0 0.408 0 0 0.064 0 0.111 0 0.167-0.18 0.063-0.315 0.032-0.408-0.167z"></path>
<path d="M15.97 16.488c0.093 0 0.187 0 0.28 0 0.002 0.018 0.004 0.036 0.006 0.054-0.092 0.013-0.184 0.027-0.277 0.040-0.003-0.031-0.006-0.062-0.009-0.094z"></path>
<path d="M14.765 13.964c0.089-0.017 0.136-0.026 0.205-0.039 0.013 0.064 0.026 0.122 0.063 0.3-0.133-0.129-0.186-0.181-0.268-0.261z"></path>
<path d="M16.265 12.891c0.005-0.073 0.010-0.135 0.014-0.198 0.018-0.012 0.035-0.024 0.053-0.036 0.017 0.082 0.034 0.163 0.044 0.211 0.033-0.007-0.035 0.007-0.111 0.022z"></path>
<path d="M16.349 11.325c0.089-0.017 0.136-0.026 0.205-0.039 0.013 0.064 0.026 0.122 0.063 0.3-0.133-0.129-0.187-0.182-0.268-0.261z"></path>
<path d="M14.388 16.559c0-0.058 0-0.117 0-0.175 0.017-0.003 0.033-0.006 0.050-0.008 0.014 0.058 0.027 0.115 0.041 0.173-0.030 0.003-0.061 0.007-0.091 0.010z"></path>
<path d="M15.339 14.060c0.058 0 0.117 0 0.175 0 0.002 0.017 0.005 0.035 0.007 0.052-0.059 0.013-0.118 0.026-0.176 0.038-0.002-0.030-0.004-0.060-0.006-0.090z"></path>
<path d="M13.586 14.87c0.129 0.037 0.192 0.055 0.256 0.073-0.049 0.016-0.097 0.039-0.148 0.046-0.015 0.002-0.036-0.038-0.108-0.118z"></path>
<path d="M14.036 11.595c-0.058 0-0.117 0-0.175 0-0.003-0.017-0.005-0.033-0.008-0.050 0.058-0.014 0.115-0.027 0.173-0.041 0.003 0.030 0.007 0.061 0.011 0.091z"></path>
<path d="M16.683 15.108c-0.029-0.024-0.058-0.049-0.086-0.074 0.011-0.011 0.022-0.022 0.033-0.033 0.024 0.029 0.049 0.058 0.074 0.086-0.007 0.007-0.014 0.014-0.021 0.021z"></path>
<path d="M18.804 21.432c0.035-0.035 0.070-0.070 0.106-0.106 0.502 0.054 0.981 0.205 1.461 0.35 0.248 0.074 0.487 0.19 0.756 0.178-0.016 0.080 0.052 0.202-0.106 0.211-0.012-0.029-0.020-0.082-0.035-0.084-0.375-0.046-0.75-0.086-1.126-0.127-0.064-0.070-0.118-0.186-0.194-0.203-0.256-0.057-0.521-0.076-0.781-0.118-0.032-0.005-0.054-0.066-0.081-0.101z"></path>
<path d="M19.543 12.581c0.205 0 0.411 0 0.633 0 0.010 0.225-0.176 0.288-0.3 0.443-0.116-0.055-0.232-0.111-0.333-0.159 0-0.126 0-0.214 0-0.284z"></path>
<path d="M19.959 21.119c0.331 0.048 0.633 0.092 0.947 0.138 0 0.080 0 0.162 0 0.272-0.218-0.156-0.45-0.080-0.648-0.096-0.099-0.104-0.186-0.196-0.299-0.314z"></path>
<path d="M26.61 13.915c-0.187 0-0.374 0-0.596 0-0.037-0.044-0.1-0.119-0.18-0.214 0.073-0.040 0.111-0.073 0.152-0.079 0.264-0.043 0.394 0.227 0.625 0.293z"></path>
<path d="M20.868 12.407c0.092 0.065 0.134 0.089 0.168 0.121 0.068 0.062 0.131 0.129 0.214 0.213-0.391 0.021-0.421-0.006-0.382-0.333z"></path>
<path d="M23.238 10.769c0.158 0 0.316 0 0.477 0 0.047 0.049 0.096 0.099 0.145 0.15-0.052 0.123-0.232 0.080-0.622-0.15z"></path>
<path d="M21.331 11.055c0.153 0.064 0.289 0.122 0.527 0.222-0.236 0-0.363 0-0.509 0-0.005-0.063-0.010-0.127-0.018-0.222z"></path>
<path d="M23.656 12.5c0.188-0.086 0.315-0.045 0.418 0.132-0.164 0.080-0.292 0.042-0.418-0.132z"></path>
<path d="M20.636 13.353c-0.019-0.106-0.030-0.164-0.045-0.244 0.119 0 0.212 0 0.379 0-0.137 0.1-0.219 0.16-0.334 0.244z"></path>
<path d="M23.506 11.521c-0.126-0.053-0.252-0.107-0.386-0.164 0.199-0.156 0.318-0.032 0.386 0.164z"></path>
<path d="M26.19 13.624c0.005-0.068 0.010-0.131 0.016-0.201 0.064-0.005 0.109-0.009 0.18-0.015 0.007 0.064 0.013 0.122 0.022 0.199-0.086 0.007-0.149 0.012-0.217 0.017z"></path>
<path d="M19.421 16.246c-0.081 0-0.179 0-0.297 0 0.175-0.098 0.175-0.098 0.297 0z"></path>
<path d="M19.64 15.294c0 0.097 0 0.143 0 0.173-0.056-0.037-0.121-0.080-0.205-0.136 0.066-0.012 0.113-0.021 0.205-0.038z"></path>
<path d="M24.23 12.153c-0.028-0.077-0.055-0.155-0.079-0.219 0.097-0.040 0.149 0.016 0.079 0.219z"></path>
<path d="M22.684 11.536c0.089-0.017 0.136-0.026 0.205-0.039 0.014 0.064 0.026 0.122 0.063 0.3-0.133-0.129-0.186-0.181-0.268-0.261z"></path>
<path d="M19.693 16.381c-0.129-0.037-0.192-0.055-0.256-0.073 0.049-0.016 0.098-0.038 0.148-0.046 0.015-0.002 0.036 0.038 0.108 0.118z"></path>
<path d="M25.676 13.714c0.029 0.024 0.058 0.049 0.086 0.074-0.011 0.011-0.022 0.022-0.033 0.033-0.024-0.029-0.049-0.058-0.074-0.086 0.007-0.007 0.014-0.014 0.021-0.021z"></path>
<path d="M22.077 22.066c0.345 0.096 0.658 0.266 1.022 0.34 0.413 0.084 0.828 0.196 1.241 0.298 0.059 0.015 0.102 0.091 0.182 0.167-0.25 0.064-0.464 0.084-0.65-0.077-0.088 0.052-0.158 0.093-0.253 0.149-0.099-0.138-0.191-0.265-0.293-0.406-0.321 0.233-0.608-0.243-0.88 0.041-0.156-0.032-0.302-0.055-0.443-0.094-0.051-0.014-0.092-0.067-0.137-0.102 0.070-0.106 0.141-0.211 0.211-0.317z"></path>
<path d="M19.543 23.544c-0.097-0.096-0.194-0.193-0.291-0.29 0.173-0.086 0.339-0.017 0.502 0.078-0.070 0.070-0.141 0.141-0.211 0.211z"></path>
<path d="M22.816 23.544c0.106 0 0.211 0 0.317 0 0 0.035 0 0.070 0 0.106-0.104-0.040-0.267 0.098-0.317-0.106z"></path>
<path d="M40.556 17.994c-0.009 0.088-0.018 0.181-0.033 0.334-0.154-0.116-0.258-0.194-0.385-0.289-0.086 0.026-0.191 0.057-0.307 0.092-0.007-0.034-0.016-0.082-0.036-0.181-0.121 0.021-0.25 0.044-0.424 0.074 0.056-0.109 0.103-0.203 0.145-0.283 0.36 0.088 0.691 0.168 1.040 0.254z"></path>
<path d="M39.286 23.438c-0.263 0-0.526 0-0.794 0-0.046-0.049-0.095-0.099-0.144-0.151 0.056-0.134 0.591-0.050 0.938 0.151z"></path>
<path d="M42.333 22.681c0.016-0.084 0.026-0.131 0.039-0.2 0.286 0.084 0.556 0.164 0.856 0.252-0.347 0.195-0.6-0.054-0.896-0.052z"></path>
<path d="M43.158 23.678c-0.141-0.065-0.256-0.117-0.391-0.179 0.010-0.053 0.021-0.112 0.037-0.196 0.141 0.065 0.256 0.117 0.391 0.179-0.010 0.054-0.021 0.112-0.037 0.196z"></path>
<path d="M42.277 20.173c0.187 0 0.268 0 0.395 0-0.018 0.081-0.032 0.146-0.059 0.265-0.12-0.095-0.196-0.154-0.336-0.265z"></path>
<path d="M40.517 19.523c-0.187 0-0.268 0-0.395 0 0.018-0.081 0.032-0.146 0.059-0.265 0.12 0.095 0.196 0.154 0.336 0.265z"></path>
<path d="M39.699 18.804c0.016-0.105 0.025-0.164 0.040-0.264 0.113 0.069 0.194 0.119 0.341 0.209-0.161 0.023-0.253 0.037-0.381 0.055z"></path>
<path d="M47.986 23.423c-0.47 0.036-0.785 0.013-1.128-0.149 0.077-0.035 0.136-0.063 0.208-0.095 0.163 0.106 0.403 0.017 0.572 0.112 0.084 0.032 0.168 0.064 0.349 0.132z"></path>
<path d="M44.964 22.891c-0.093 0-0.186 0-0.285 0 0-0.065 0-0.112 0-0.215 0.121 0.056 0.213 0.098 0.306 0.14-0.007 0.025-0.014 0.050-0.021 0.074z"></path>
<path d="M48.674 21.405c0 0.003 0 0.050 0 0.114-0.066 0-0.124 0-0.182 0-0.011-0.015-0.022-0.031-0.033-0.046 0.080-0.025 0.159-0.050 0.215-0.068z"></path>
<path d="M45.133 23.13c0.041 0 0.087 0 0.152 0 0 0.066 0 0.124 0 0.182-0.017 0.012-0.033 0.025-0.050 0.037-0.033-0.072-0.067-0.144-0.101-0.219z"></path>
<path d="M45.62 22.673c-0.070 0-0.141 0-0.211 0 0-0.018 0-0.035 0-0.053 0.070 0 0.141 0 0.211 0 0 0.018 0 0.035 0 0.053z"></path>
<path d="M45.304 19.25c0.035 0 0.070 0 0.106 0 0 0.012 0 0.023 0 0.035-0.035 0-0.070 0-0.106 0 0-0.012 0-0.023 0-0.035z"></path>
<path d="M47.847 23.427c0.029 0.024 0.057 0.049 0.086 0.073-0.011 0.011-0.022 0.022-0.033 0.033-0.025-0.029-0.049-0.058-0.074-0.086 0.007-0.007 0.014-0.014 0.021-0.021z"></path>
<path d="M34.862 23.419c-0.313 0.051-0.611 0.1-0.948 0.156-0.007-0.116-0.012-0.198-0.018-0.296-0.255-0.069-0.52-0.141-0.805-0.218-0.014 0.029-0.046 0.095-0.080 0.163-0.070 0-0.139 0-0.246 0-0.012-0.085-0.026-0.179-0.043-0.294-0.092 0-0.187 0-0.372 0 0.145 0.068 0.209 0.098 0.321 0.149-0.144 0.029-0.248 0.051-0.401 0.081 0.146 0.095 0.251 0.164 0.357 0.233-0.185 0.020-0.185 0.020-0.615-0.208 0.005-0.012 0.008-0.033 0.016-0.036 0.046-0.016 0.094-0.028 0.163-0.047 0-0.074 0-0.156 0-0.258-0.213-0.052-0.451-0.11-0.688-0.168 0.344-0.379 0.537-0.385 0.922-0.040 0.058 0.052 0.136 0.097 0.211 0.113 0.434 0.089 0.829 0.308 1.27 0.374 0.146 0.022 0.288 0.068 0.431 0.103s0.288 0.066 0.43 0.108c0.038 0.012 0.066 0.057 0.096 0.084z"></path>
<path d="M32.107 22.117c-0.002 0.043-0.004 0.078-0.006 0.117-0.227 0.155-0.346-0.106-0.531-0.090 0.013-0.082 0.019-0.115 0.024-0.148 0.030-0.012 0.066-0.042 0.089-0.034 0.143 0.047 0.284 0.102 0.423 0.154z"></path>
<path d="M35.301 18.159c0.059 0 0.094 0 0.153 0 0.011 0.053 0.023 0.112 0.039 0.185-0.069 0.014-0.116 0.023-0.192 0.039 0-0.083 0-0.154 0-0.224z"></path>
<path d="M33.612 22.287c0.104 0.128 0.152 0.186 0.224 0.274-0.101 0.020-0.148 0.030-0.224 0.045 0-0.083 0-0.154 0-0.32z"></path>
<path d="M34.19 17.737c-0.059 0-0.094 0-0.153 0-0.011-0.053-0.023-0.112-0.039-0.185 0.069-0.014 0.116-0.023 0.192-0.039 0 0.083 0 0.154 0 0.224z"></path>
<path d="M35.047 22.469c-0.129 0-0.257 0-0.386 0-0.001-0.022-0.003-0.043-0.004-0.065 0.127-0.008 0.255-0.017 0.382-0.025 0.002 0.030 0.005 0.060 0.007 0.090z"></path>
<path d="M32.001 23.466c0 0.059 0 0.094 0 0.153-0.053 0.011-0.112 0.023-0.185 0.039-0.014-0.069-0.023-0.116-0.039-0.192 0.083 0 0.154 0 0.224 0z"></path>
<path d="M34.851 18.133c-0.106 0-0.211 0-0.317 0 0-0.018 0-0.035 0-0.053 0.106 0 0.211 0 0.317 0 0 0.018 0 0.035 0 0.053z"></path>
<path d="M36.884 21.404c-0.089 0.017-0.136 0.026-0.205 0.039-0.014-0.064-0.026-0.122-0.063-0.3 0.133 0.129 0.187 0.182 0.268 0.261z"></path>
<path d="M34.234 22.29c0.081 0 0.179 0 0.297 0-0.175 0.098-0.175 0.098-0.297 0z"></path>
<path d="M36.207 22.047c-0.058 0-0.117 0-0.175 0-0.003-0.017-0.005-0.033-0.008-0.050 0.058-0.014 0.115-0.027 0.173-0.041 0.003 0.031 0.007 0.061 0.011 0.092z"></path>
<path d="M18.477 23.863c-0.275-0.036-0.575-0.015-0.817-0.124-0.251-0.113-0.519-0.054-0.767-0.183-0.237-0.124-0.527-0.147-0.808-0.217-0.012 0.052-0.023 0.1-0.033 0.149-0.264-0.024-0.536-0.048-0.807-0.072 0.391-0.269 1.007-0.256 1.644-0.044 0.030 0.010 0.056 0.067 0.077 0.063 0.454-0.087 0.851 0.16 1.279 0.22 0.088 0.012 0.168 0.090 0.251 0.137-0.006 0.024-0.012 0.048-0.018 0.072z"></path>
<path d="M15.919 22.612c-0.488-0.055-0.889 0.087-1.263-0.212 0.045-0.044 0.115-0.123 0.122-0.118 0.137 0.101 0.278 0.049 0.426 0.044 0.163-0.005 0.328 0.053 0.518 0.088 0.026 0.026 0.076 0.076 0.197 0.197z"></path>
<path d="M20.199 22.289c-0.284-0.122-0.523-0.224-0.81-0.347 0.486-0.139 0.603-0.089 0.81 0.347z"></path>
<path d="M13.504 21.696c0.030-0.075 0.047-0.119 0.076-0.191 0.079 0.052 0.153 0.086 0.206 0.141 0.038 0.039 0.046 0.106 0.086 0.209-0.144-0.062-0.237-0.102-0.368-0.159z"></path>
<path d="M15.315 21.789c0.188-0.081 0.317-0.044 0.419 0.134-0.163 0.079-0.292 0.042-0.419-0.134z"></path>
<path d="M18.314 22.692c-0.045 0.128-0.061 0.173-0.084 0.239-0.126-0.056-0.241-0.107-0.456-0.203 0.223-0.015 0.35-0.023 0.54-0.035z"></path>
<path d="M14.536 21.634c-0.181 0-0.262 0-0.387 0 0.021-0.083 0.036-0.147 0.066-0.265 0.118 0.097 0.19 0.157 0.322 0.265z"></path>
<path d="M14.011 20.221c-0.056-0.116-0.091-0.186-0.112-0.229 0.132-0.028 0.132-0.028 0.112 0.229z"></path>
<path d="M19.101 23.209c-0.058 0-0.117 0-0.175 0-0.002-0.017-0.005-0.035-0.007-0.052 0.059-0.013 0.118-0.026 0.176-0.038 0.002 0.030 0.004 0.060 0.006 0.090z"></path>
<path d="M17.026 23.034c0.058 0 0.117 0 0.175 0 0.003 0.017 0.005 0.033 0.008 0.050-0.058 0.014-0.115 0.027-0.173 0.041-0.003-0.031-0.007-0.061-0.011-0.092z"></path>
<path d="M14.079 20.482c0-0.070 0-0.141 0-0.211 0.018 0 0.035 0 0.053 0 0 0.070 0 0.141 0 0.211-0.018 0-0.035 0-0.053 0z"></path>
<path d="M36.728 12.965c-0.368 0.208-0.735 0.096-1.097 0.132-0.16-0.303 0.171-0.543 0.047-0.838 0.326 0 0.604 0 0.931 0 0.061 0.071 0.149 0.175 0.266 0.312-0.044 0.119-0.1 0.271-0.146 0.395z"></path>
<path d="M40.614 14.772c-0.211 0-0.489 0-0.813 0 0.124-0.767 0.246-1.518 0.369-2.277 0.749-0.078 0.776-0.075 1.391 0.179 0.081 0.16 0.161 0.319 0.259 0.513 0.063 0.785-0.326 1.309-1.205 1.584z"></path>
<path d="M23.555 19.743c0.228 0 0.511-0.083 0.67 0.022 0.186 0.122 0.433-0.026 0.559 0.189 0.226-0.034 0.434 0.023 0.633 0.124 0.022 0.011 0.026 0.057 0.038 0.087-0.193-0.042-0.386 0.047-0.595-0.088-0.138-0.090-0.399-0.067-0.539 0.074-0.115-0.116-0.223-0.224-0.331-0.333-0.163-0.038-0.365 0.148-0.436-0.076z"></path>
<path d="M22.589 23.264c0.125-0.154 0.219-0.27 0.357-0.44 0.062 0.128 0.101 0.207 0.134 0.273-0.017 0.008-0.088 0.041-0.165 0.077 0.152 0.077 0.294 0.148 0.431 0.217-0.008 0.050-0.013 0.083-0.025 0.159-0.259-0.050-0.494-0.151-0.732-0.286z"></path>
<path d="M26.396 21.296c-0.184 0.073-0.314 0.030-0.403-0.15 0.184-0.073 0.314-0.030 0.403 0.15z"></path>
<path d="M24.427 23.342c0.104 0.128 0.152 0.186 0.224 0.274-0.101 0.020-0.148 0.030-0.224 0.045 0-0.083 0-0.154 0-0.32z"></path>
<path d="M26.929 18.358c-0.268 0-0.434 0-0.626 0 0.004-0.072 0.008-0.13 0.013-0.216 0.198 0.070 0.364 0.128 0.613 0.216z"></path>
<path d="M26.4 17.565c0.188-0.080 0.318-0.046 0.419 0.135-0.163 0.079-0.292 0.041-0.419-0.135z"></path>
<path d="M24.842 17.861c0.094 0 0.187 0 0.28 0 0.001 0.018 0.003 0.037 0.004 0.055-0.094 0.013-0.188 0.025-0.283 0.038-0.001-0.031-0.001-0.062-0.002-0.093z"></path>
<path d="M23.782 18.6c0.093 0 0.187 0 0.28 0 0.002 0.018 0.004 0.036 0.006 0.054-0.092 0.013-0.184 0.027-0.277 0.040-0.003-0.031-0.006-0.062-0.009-0.094z"></path>
<path d="M23.353 18.148c0.029 0.024 0.058 0.049 0.086 0.073-0.011 0.011-0.022 0.022-0.033 0.033-0.024-0.029-0.049-0.058-0.074-0.086 0.007-0.007 0.014-0.014 0.021-0.020z"></path>
<path d="M29.12 18.474c0.052 0.064 0.091 0.113 0.154 0.191-0.107 0.010-0.198 0.018-0.314 0.028-0.008-0.070-0.014-0.128-0.022-0.205 0.086-0.007 0.149-0.012 0.182-0.014z"></path>
<path d="M29.146 18.398c0.060-0.009 0.12-0.025 0.18-0.026 0.045-0.001 0.090 0.018 0.137 0.075-0.104 0.014-0.207 0.027-0.311 0.041-0.002-0.030-0.004-0.060-0.006-0.090z"></path>
<path d="M28.573 21.642c0.154 0.125 0.558-0.157 0.786 0.207-0.001 0.003-0.010 0.051-0.021 0.103-0.348-0.077-0.681-0.15-1.014-0.224-0.012-0.016-0.024-0.033-0.037-0.049 0.074-0.010 0.148-0.019 0.285-0.037z"></path>
<path d="M28.941 23.461c-0.004 0.072-0.006 0.106-0.009 0.164-0.184 0-0.371 0-0.598 0-0.035-0.041-0.098-0.115-0.154-0.181 0.038-0.058 0.051-0.104 0.074-0.109 0.255-0.063 0.453 0.123 0.687 0.126z"></path>
<path d="M28.417 23.053c0.1 0.023 0.199 0.054 0.3 0.066 0.099 0.011 0.201 0.002 0.426 0.002-0.208 0.11-0.311 0.164-0.441 0.233-0.104-0.081-0.211-0.166-0.319-0.25 0.011-0.017 0.022-0.034 0.034-0.051z"></path>
<path d="M29.387 22.708c0.058 0 0.104 0 0.168 0 0 0.067 0 0.125 0 0.311-0.088-0.162-0.125-0.231-0.168-0.311z"></path>
<path d="M31.787 21.508c0.004-0.067 0.007-0.101 0.010-0.158 0.148 0 0.298 0 0.495 0 0.032 0.046 0.091 0.132 0.141 0.204 0.124 0 0.206 0 0.297 0 0 0.065 0 0.112 0 0.187-0.359 0.049-0.62-0.227-0.944-0.234z"></path>
</svg>
