<!-- Generated by IcoMoon.io -->
<svg version="1.1" xmlns="http://www.w3.org/2000/svg" width="37" height="32" viewBox="0 0 37 32">
<title>bsides-s-circles</title>
<path d="M0 20.466c0.018-0.066 0.049-0.132 0.052-0.199 0.020-0.488 0.080-0.972 0.166-1.452 0.002-0.010 0.010-0.019 0.022-0.039 1.71 0 3.426 0 5.15 0 0.030 0.126-0.041 0.234-0.072 0.345-0.121 0.423-0.197 0.855-0.212 1.293-0.012 0.361-0.001 0.725 0.034 1.084 0.040 0.408 0.134 0.809 0.267 1.199 0.246 0.717 0.601 1.374 1.087 1.958 0.716 0.861 1.6 1.482 2.656 1.862 0.504 0.181 1.022 0.293 1.552 0.34 0.582 0.051 1.16 0.008 1.734-0.113 0.447-0.094 0.879-0.231 1.294-0.421 0.581-0.266 1.107-0.614 1.581-1.046 0.728-0.662 1.258-1.456 1.604-2.373 0.214-0.567 0.331-1.154 0.371-1.763 0.051-0.767-0.054-1.508-0.277-2.237-0.111-0.362-0.277-0.702-0.445-1.042-0.257-0.521-0.502-1.048-0.749-1.573-0.143-0.303-0.288-0.604-0.419-0.912-0.296-0.698-0.515-1.422-0.651-2.167-0.094-0.517-0.174-1.037-0.174-1.566 0.001-0.439-0.022-0.877-0.023-1.316-0-0.138 0.039-0.276 0.061-0.413 0.061-0.373 0.109-0.749 0.187-1.119 0.171-0.813 0.438-1.595 0.788-2.349 0.368-0.795 0.828-1.532 1.369-2.22 0.404-0.514 0.864-0.974 1.346-1.414 0.496-0.452 1.037-0.843 1.61-1.189 0.687-0.416 1.412-0.747 2.174-1.008 0.678-0.232 1.37-0.391 2.075-0.497 0.308-0.046 0.622-0.054 0.933-0.082 0.063-0.006 0.124-0.024 0.186-0.036 0.242 0 0.483 0 0.725 0 0.052 0.015 0.102 0.038 0.155 0.042 0.29 0.022 0.581 0.028 0.87 0.062 0.283 0.033 0.564 0.085 0.843 0.141 0.984 0.198 1.925 0.527 2.82 0.982 0.804 0.409 1.553 0.905 2.228 1.503 0.319 0.283 0.618 0.591 0.914 0.899 0.724 0.752 1.29 1.616 1.762 2.544 0.365 0.717 0.636 1.471 0.833 2.248 0.254 1.004 0.351 2.027 0.32 3.065-0.024 0.788-0.137 1.56-0.316 2.326-0.015 0.064-0.037 0.126-0.059 0.203-0.74-0.389-1.506-0.699-2.305-0.915-0.794-0.215-1.604-0.355-2.452-0.391 0.019-0.071 0.037-0.126 0.047-0.183 0.112-0.6 0.183-1.2 0.131-1.815-0.056-0.662-0.204-1.295-0.452-1.911-0.239-0.595-0.568-1.133-0.976-1.623-0.35-0.422-0.76-0.779-1.209-1.095-0.373-0.263-0.774-0.471-1.192-0.647s-0.857-0.286-1.305-0.362c-0.467-0.079-0.937-0.095-1.407-0.062-0.234 0.016-0.468 0.050-0.698 0.091-0.321 0.058-0.636 0.143-0.944 0.254-0.491 0.177-0.947 0.416-1.379 0.707-0.341 0.23-0.661 0.489-0.941 0.788-0.481 0.512-0.878 1.084-1.17 1.729-0.202 0.446-0.344 0.908-0.442 1.385-0.080 0.388-0.124 0.783-0.123 1.177 0.001 0.327 0.048 0.655 0.091 0.98 0.080 0.609 0.269 1.186 0.546 1.733 0.207 0.41 0.433 0.81 0.637 1.222 0.299 0.604 0.62 1.198 0.85 1.833 0.009 0.025 0.024 0.049 0.034 0.074 0.054 0.141 0.134 0.269 0.144 0.431 0.008 0.128 0.076 0.25 0.109 0.378 0.156 0.6 0.285 1.205 0.347 1.823 0.061 0.612 0.081 1.226 0.051 1.84-0.015 0.311-0.050 0.623-0.101 0.931-0.070 0.421-0.155 0.84-0.25 1.256-0.056 0.245-0.14 0.484-0.218 0.724-0.261 0.808-0.628 1.566-1.067 2.291-0.325 0.535-0.693 1.038-1.109 1.505-0.23 0.258-0.463 0.514-0.714 0.75-0.736 0.694-1.548 1.285-2.444 1.759-0.774 0.41-1.582 0.73-2.431 0.947-0.59 0.151-1.186 0.271-1.795 0.314-0.169 0.012-0.339 0.018-0.508 0.032-0.064 0.005-0.127 0.023-0.191 0.034-0.253 0-0.505 0-0.758 0-0.040-0.011-0.079-0.029-0.119-0.032-0.24-0.018-0.482-0.019-0.721-0.051-0.691-0.092-1.374-0.223-2.040-0.432-1.004-0.316-1.95-0.757-2.828-1.339-0.511-0.339-1.001-0.707-1.44-1.137-0.238-0.234-0.49-0.456-0.709-0.707-0.294-0.338-0.57-0.692-0.837-1.051-0.373-0.503-0.683-1.046-0.951-1.611-0.323-0.678-0.584-1.381-0.758-2.114-0.076-0.32-0.154-0.641-0.199-0.966-0.055-0.401-0.076-0.807-0.116-1.21-0.005-0.055-0.038-0.107-0.059-0.16 0-0.242 0-0.483 0-0.725z"></path>
<path d="M23.524 11.236c-0.002-1.175 0.908-2.12 2.048-2.151 1.253-0.034 2.186 0.871 2.222 2.073 0.035 1.174-0.83 2.151-2.053 2.195-1.228 0.044-2.175-0.872-2.218-2.117z"></path>
<path d="M11.14 22.97c-1.238-0.055-2.066-1.076-2.028-2.144 0.047-1.337 1.151-2.118 2.195-2.057 1.271 0.075 2.077 1.099 2.009 2.209-0.080 1.3-1.155 2.033-2.176 1.991z"></path>
</svg>
