<svg aria-hidden="true" style="position: absolute; width: 0; height: 0; overflow: hidden;" version="1.1" xmlns="http://www.w3.org/2000/svg" xmlns:xlink="http://www.w3.org/1999/xlink">
<defs>
<symbol id="icon-new-window" viewBox="0 0 32 32">
<path d="M27.2 27.2h-22.4v-22.4h8v-3.2h-8c-1.76 0-3.2 1.44-3.2 3.2v22.4c0 1.76 1.44 3.2 3.2 3.2h22.4c1.76 0 3.2-1.44 3.2-3.2v-8h-3.2v8z"></path>
<path d="M30.4 1.6h-12.8l5.28 5.28-9.12 9.12 2.24 2.24 9.12-9.12 5.28 5.28v-12.8z"></path>
</symbol>
<symbol id="icon-bsides-logo-small" viewBox="0 0 62 32">
<path fill="#000" style="fill: var(--color1, #000)" d="M59.52 12.8c-0.56-0.16-0.88-0.56-1.36-0.88 0 0.080 0 0.16 0 0.24 0.24 0.16 0.080 0.080 0.24 0.32 0 0 0.080 0 0.080 0 0.16 0.16 0.16 0.24 0.24 0.56-0.24 0.16-0.56 0.24-0.88 0.4-0.56 0.16-0.88-0.24-1.28 0-0.080 0.080-0.16 0.24-0.24 0.32-0.32 0.32-0.64 0.4-1.36 0.4-0.24-0.32-0.56-0.32-0.72-0.8 0 0-0.080 0-0.080 0 0 0.16 0 0.24 0 0.4 0 0 0.080 0 0.080 0 0 0.16 0 0.32 0 0.56 0.080 0 0.16 0.080 0.24 0.080 0 0.24 0.080 0.4 0.080 0.64 0 0 0.080 0 0.080 0 0.32-0.32 0.56-0.080 1.040-0.24 0 0 0-0.080 0-0.080 0.32 0 0.64 0 0.96 0 0 0 0-0.080 0-0.080 0.24 0 0.56 0 0.88 0 0 0 0-0.080 0-0.080 0.4 0 0.88-0.080 1.28-0.080 0.24 0.72 0.080 2.080 0.080 2.96 0.080 0 0.16 0 0.24 0 0-0.16 0.080-0.24 0.080-0.4 0 0 0.080 0 0.080 0 0.24-0.56-0.16-1.2 0.24-1.68 0 0 0.080 0 0.080 0 0.32-0.32 0.48-0.16 0.64-0.64 0.4 0.080 0.32 0.24 0.56 0.56 0 0 0.080 0 0.080 0 0 0.16 0.080 0.24 0.080 0.4 0 0 0.080 0 0.080 0 0 0.080 0 0.24 0 0.32 0 0 0.080 0 0.080 0 0.24 0.72-0.24 1.36-0.32 1.92-0.16 0.080-0.32 0.080-0.64 0.080-0.16-0.16 0-0.080-0.24-0.080-0.080 0.24-0.16 0.32-0.32 0.56 0 0-0.080 0-0.080 0 0 0.080 0 0.16 0 0.24-0.080 0.080-0.24 0.16-0.32 0.24 0 0.080 0 0.16 0 0.24-0.16 0.16-0.32 0.24-0.56 0.4 0 0.080 0 0.16 0 0.24-0.080 0.080-0.24 0.16-0.32 0.24 0 0 0 0.080 0 0.080-0.16 0-0.32 0-0.56 0-0.080 0.080 0 0.16-0.24 0.080 0 0 0-0.080 0-0.080-0.080 0-0.24 0-0.32 0 0 0 0-0.080 0-0.080-0.32 0-0.64-0.080-0.96-0.080 0 0 0-0.080 0-0.080-0.080 0-0.24 0-0.32 0 0 0 0-0.080 0-0.080-0.24 0-0.48 0-0.72 0 0 0 0-0.080 0-0.080-0.080 0-0.16 0-0.24 0 0 0 0-0.080 0-0.080-0.24 0-0.4-0.080-0.64-0.080 0 0 0-0.080 0-0.080-0.4 0-0.8 0-1.12 0 0 0 0-0.080 0-0.080-0.48-0.080-0.88-0.24-1.36-0.32 0 0 0 0.080 0 0.080s0.080 0 0.080 0c0.24 0.24 0.4 0.16 0.72 0.32 0 0 0 0.080 0 0.080 0.080 0 0.16 0 0.24 0 0 0 0 0.080 0 0.080 0.16 0 0.24 0.080 0.4 0.080 0 0 0 0.080 0 0.080 0.080 0 0.24 0 0.32 0 0 0 0 0.080 0 0.080 0.24 0.080 0.4 0.16 0.64 0.24 0 0.080 0.080 0.24 0.080 0.32 0.080 0 0.16 0.080 0.24 0.080 0.080 0.32 0.24 0.64 0.32 0.96-0.24 0-0.4 0.080-0.64 0.080 0 0 0 0.080 0 0.080-0.16 0.16-0.080 0-0.080 0.24 0.32 0 0.64 0 0.96 0 0 0.080 0 0.24 0 0.32-0.080 0.080-0.24 0.16-0.32 0.24 0 0 0 0.080 0 0.080-0.080 0-0.16 0-0.24 0 0 0.080-0.080 0.16-0.080 0.24-0.4 0.24-0.72 0.32-1.36 0.32-0.32-0.16-0.72-0.24-1.040-0.4 0 0 0 0.080 0 0.080s0.080 0 0.080 0c0 0.080 0 0.24 0 0.32 0 0 0.080 0 0.080 0s0 0.080 0 0.080c0.080 0.080 0.16 0.16 0.24 0.24 0.080 0 0.16 0 0.24 0 0 0 0 0.080 0 0.080 0.080 0 0.24 0 0.32 0 0 0 0 0.080 0 0.080 0.080 0 0.16 0 0.24 0 0 0 0 0.080 0 0.080 0.080 0 0.16 0 0.24 0 0 0.080 0.080 0.16 0.080 0.24 0.24 0.080 0.16-0.080 0.24-0.080 0.16 0 0.24-0.080 0.4-0.080 0-0.080 0.080-0.16 0.080-0.24 0.16 0 0.24-0.080 0.4-0.080 0.4-0.24 0.48-0.48 1.12-0.56 0.16 0.64 0.56 0.8 0.64 1.44-0.48 0.24-0.96 0.72-1.12 1.12-0.080 0-0.16 0-0.24 0-0.080-0.16-0.24-0.32-0.4-0.4-0.080 0.48-0.16 0.56-0.64 0.64 0-0.16 0.080-0.24 0.080-0.4 0 0-0.080 0-0.080 0-0.32 0.24-0.8 0.080-1.28 0.24 0 0 0 0.080 0 0.080-0.080 0-0.24 0-0.32 0 0 0 0 0.080 0 0.080-0.16 0-0.24 0.080-0.4 0.080 0 0 0 0.080 0 0.080-0.080 0-0.16 0-0.24 0 0 0 0 0.080 0 0.080-0.080 0-0.24 0-0.32 0 0 0.080-0.080 0.16-0.080 0.24-0.080 0-0.24 0-0.32 0 0 0 0 0.080 0 0.080-0.080 0-0.16 0-0.24 0 0 0.080-0.080 0.16-0.080 0.24-0.080 0-0.24 0-0.32 0 0 0.080-0.080 0.16-0.080 0.24-0.24 0.080-0.4 0.16-0.64 0.24 0 0 0 0.080 0 0.080-0.080 0-0.24 0.080-0.32 0.080 0 0.080-0.080 0.16-0.080 0.24-0.16 0-0.24 0.080-0.4 0.080 0 0 0 0.080 0 0.080-0.080 0-0.24 0.080-0.32 0.080 0 0.080-0.080 0.16-0.080 0.24-0.080 0-0.16 0-0.24 0 0 0.080-0.080 0.16-0.080 0.24-0.080 0-0.16 0-0.24 0 0.080-0.32 0-0.16 0-0.080-0.080 0-0.16 0-0.24 0-0.16 0.24-0.32 0.4-0.56 0.64-0.080 0-0.16 0.080-0.24 0.080 0 0.080 0 0.16 0 0.24-0.080 0.080-0.24 0.16-0.32 0.24-0.32 0.48-0.4 0.96-0.96 1.12 0-0.24-0.080-0.4-0.080-0.64 0 0-0.080 0-0.080 0 0 0.48 0.080 0.96 0.080 1.44 0 0-0.080 0-0.080 0 0 0.16-0.080 0.32-0.080 0.56-0.72 0.32-2 0.32-3.040 0.32-0.4 0-0.8 0-1.12 0-0.48-0.16-0.64-0.88-1.28-1.040 0-0.080 0-0.16 0-0.24-0.080 0-0.16 0-0.24 0 0-0.080 0-0.16 0-0.24-0.56-0.16-1.28-1.2-1.68-1.6-1.040-1.040-2.080-2-3.12-3.040-0.4-0.48-0.88-0.88-1.28-1.36-0.56-0.32-1.6-0.24-2.4-0.24-1.84 0-3.6 0-5.44 0-0.080-0.24-0.16-0.4-0.24-0.64-0.88 0.16-1.84 0.32-2.72 0 0 0 0-0.080 0-0.080-0.16 0-0.24 0-0.4 0 0 0 0-0.080 0-0.080-0.24-0.16-0.4-0.24-0.72-0.32 0-0.16-0.080-0.32-0.080-0.56 0.4-0.24 0.4-0.8 0.72-1.040 0.48 0.56 1.76 0.96 2.72 0.72 0 0 0-0.080 0-0.080-0.16-0.16-0.16-0.16-0.24-0.4-0.32 0.080-0.72 0.4-0.96 0.24 0 0-0.080 0-0.080 0 0-0.24 0-0.4 0-0.64-0.8 0-1.6-0.080-2.4-0.080 0 0.080 0 0.24 0 0.32 0 0-0.080 0-0.080 0-0.080 0.24-0.080 0.24-0.24 0.4 0 0-0.080 0-0.080 0 0 0.080-0.080 0.24-0.080 0.32-0.080 0.080-0.16 0.080-0.24 0.080 0 0.080 0 0.16 0 0.24-0.080 0-0.16 0.080-0.24 0.080-0.080 0.16-0.24 0.24-0.32 0.4-0.080 0-0.16 0-0.24 0-0.080 0.080-0.16 0.24-0.24 0.32-0.16 0-0.24 0.080-0.4 0.080 0 0 0 0.080 0 0.080-0.24 0.080-0.4 0.16-0.64 0.24 0 0 0 0.080 0 0.080-0.16 0-0.24 0-0.4 0-1.36 0.48-2.4 0.080-3.36-0.4-0.16 0-0.24-0.080-0.4-0.080-0.080-0.080-0.16-0.24-0.24-0.32-0.080 0-0.16 0-0.24 0-0.16-0.16-0.24-0.32-0.4-0.56-0.080 0-0.16-0.080-0.24-0.080 0-0.080 0-0.16 0-0.24-0.080-0.080-0.24-0.16-0.32-0.24 0-0.080 0-0.16 0-0.24 0 0-0.080 0-0.080 0-0.16-0.24 0-0.24-0.24-0.4-0.24 0.4-0.64 0.24-1.040 0.4 0 0 0 0.080 0 0.080-0.080 0-0.24 0-0.32 0 0 0 0 0.080 0 0.080-0.16 0-0.24 0-0.4 0 0 0 0 0.080 0 0.080-0.16 0-0.24 0-0.4 0 0 0 0 0.080 0 0.080-0.16 0-0.32 0-0.56 0 0 0 0 0.080 0 0.080-0.16 0-0.32 0-0.56 0 0 0 0 0.080 0 0.080-0.32 0-0.72 0-1.040 0 0 0 0 0.080 0 0.080-0.48 0-0.96 0-1.44 0-0.16 0.080-0.64 0.16-0.96 0.080 0 0 0-0.080 0-0.080-1.68 0-3.44 0-5.12 0 0-0.64 0.080-1.28 0.24-1.92 0.080 0 0.24-0.080 0.32-0.080 0 0 0-0.080 0-0.080 0.24 0 0.48 0.080 0.72 0.080 0 0 0-0.080 0-0.080 0.16 0 0.24-0.080 0.4-0.080 0.080-0.32 0.32-0.48 0.4-0.72 0-0.080 0-0.24 0-0.32 0 0 0.080 0 0.080 0 0.16 0.16 0.16 0.080 0.16 0.080 0.080 0 0.16-0.080 0.24-0.080 0-0.080 0-0.16 0-0.24 0.080 0 0.16-0.080 0.24-0.080 0.080-0.24 0.24-0.4 0.32-0.56 0.24-0.080 0.4-0.16 0.64-0.24 0 0 0-0.080 0-0.080 0.16 0 0.24 0 0.4 0 0 0 0-0.080 0-0.080 0.48 0 0.96 0 1.44 0 0 0 0-0.080 0-0.080 0.080 0 0.16 0 0.24 0 0 0 0-0.080 0-0.080 0.080 0 0.24 0 0.32 0 0-0.080 0.080-0.16 0.080-0.24 0.080 0 0.24-0.080 0.32-0.080 0 0 0-0.080 0-0.080 0.16 0 0.24-0.080 0.4-0.080 0 0 0-0.080 0-0.080 0.080 0 0.16 0 0.24 0 0 0 0-0.080 0-0.080 0.080 0 0.16 0 0.24 0 0 0 0-0.080 0-0.080 0.080 0 0.16 0 0.24 0 0 0 0-0.080 0-0.080 0.080 0 0.16 0 0.24 0 0 0 0-0.080 0-0.080 0.080 0 0.16 0 0.24 0 0.080-0.080 0.16-0.24 0.24-0.32 0.080 0 0.16 0 0.24 0 0 0 0-0.080 0-0.080 0.080 0 0.24 0 0.32 0 0 0 0-0.080 0-0.080 0.080 0 0.24 0 0.32 0 0 0 0-0.080 0-0.080 0.24-0.080 0.4-0.16 0.64-0.24 0.080-0.32 0.24-0.72 0.32-1.040 0.24 0 0.4 0 0.64 0 0.16-0.24 0.64-0.64 0.96-0.72 0.16-0.88 0.24-1.76 0.4-2.64 1.28 0 2.56 0 3.92 0 0 0 0 0.080 0 0.080 0.24 0 0.4 0.080 0.64 0.080 0 0 0 0.080 0 0.080 0.080 0 0.16 0 0.24 0 0 0.080 0.080 0.16 0.080 0.24 0 0 0.080 0 0.080 0s0-0.080 0-0.080c0.4-0.24 0.56-0.48 1.12-0.56 0-0.16 0.080-0.32 0.080-0.56 0 0 0.080 0 0.080 0 0.16-0.4 0-0.88 0.080-1.12 0.080 0 0.24-0.080 0.32-0.080 0 0 0-0.080 0-0.080 0.48 0 0.96 0 1.44 0 0 0 0 0.080 0 0.080 0.56 0.16 1.52-0.080 2 0.080 2.48 0 4.96 0.080 7.44 0.080 4.16 0 8.32 0 12.48 0 2 0 4 0 6 0 0 0 0 0.080 0 0.080 0.56 0.16 2.48 0 2.96-0.080 0.64 0 1.28 0 1.92 0 1.44 0 2.88 0 4.32 0 0 0 0 0.080 0 0.080 0.16 0 0.32 0 0.56 0 0.16 0.24 0.32 0.48 0.56 0.72 0.080 0 0.16 0.080 0.24 0.080 0 0.080 0 0.16 0 0.24 0.080 0.080 0.24 0.16 0.32 0.24 0 0.080 0 0.16 0 0.24 0 0 0.080 0 0.080 0 0.080 0.24 0.16 0.4 0.24 0.64 0 0 0.080 0 0.080 0 0 0.16 0.080 0.32 0.080 0.56 0 0 0.080 0 0.080 0 0 0.080 0 0.24 0 0.32 0.080 0.16 0.24 0.48 0.32 0.72 0 0-0.080 0-0.080 0-0.080 0.080 0 0.16-0.24 0.080 0 0 0-0.080 0-0.080-0.24-0.24-0.48-0.8-0.64-1.12 0 0-0.080 0-0.080 0-0.24-0.16-0.24 0-0.32 0.24zM16.32 13.2c0-0.080 0-0.16 0-0.24-0.32-0.080-0.16-0.16-0.64-0.16-0.16-0.16-0.8-0.080-1.12-0.080 0 0.080-0.080 0.24-0.080 0.32-0.16 0.16-0.16 0.56-0.24 0.88 0 0 0.080 0 0.080 0 0.32-0.56 0.8-0.72 1.76-0.72 0.16 0 0-0.080 0.24 0zM15.68 21.52c0 0.080 0 0.16 0 0.24 0.4 0.080 0.56 0.24 0.88 0.32 0.56 0.16 1.68-0.16 2-0.32 0 0 0-0.080 0-0.080 0.16-0.080 0.24-0.24 0.4-0.32 0 0 0-0.080 0-0.080-0.96 0-1.92 0-2.96 0 0 0 0-0.080 0-0.080-0.24 0-0.56 0-0.88 0 0 0 0 0.080 0 0.080 0.16 0.080 0 0 0.080 0.080 0.24 0.080 0.24 0.080 0.48 0.16z"></path>
<path fill="#f00" style="fill: var(--color2, #f00)" d="M32.96 25.040h-24.48l3.92-2.32c-0.64-0.88-0.64-0.88-1.040-2.080v0c-6.56 3.84-11.36 6.72-11.36 6.72 12.16 0 23.12 0 35.28 0-0.16-0.16-1.2-1.2-1.28-1.2 0-0.080-0.96-1.040-1.040-1.12zM50.16 27.36h11.44l-15.12-27.36c0 0-19.12 11.2-19.12 11.2 0.4 0.32 1.2 1.52 1.28 2.080 8.8-5.040 17.040-9.84 17.040-9.84l11.84 21.6h-2c-1.44 0.4-3.68 1.12-5.36 2.32zM28.72 13.28v0 0c0 0 0 0 0 0z"></path>
<path fill="#f00" style="fill: var(--color2, #f00)" d="M23.76 11.040c0 0.080 0 0.16 0 0.24 0.16 0 0.24 0.080 0.4 0.080 0-0.080 0-0.16 0-0.24 0.080 0 0.16 0 0.24 0-0.24-0.24-0.48-0.080-0.72-0.4 0.080 0 0.16 0 0.24 0 0.16 0.080 0.48 0 0.88 0.080 0.48 0.16 1.28 0.56 1.44 0.96 0 0 0.080 0 0.080 0 0 0.080-0.080 0.24-0.080 0.32 0 0 0.080 0 0.080 0s0 0.080 0 0.080c0.080 0 0.24-0.080 0.32-0.080 0.16 0.080-0.080 0.080 0.080 0.080 0.080 0.16 0.24 0.24 0.32 0.4 0 0 0.080 0 0.080 0 0 0.080 0 0.16 0 0.24 0.080 0 0.16 0.080 0.24 0.080 0.48 0.8 0.8 2.64 0.4 3.68-0.56-0.24-1.12-0.48-2-0.56 0-0.32 0.080-0.64 0.080-0.96 0 0-0.080 0-0.080 0 0-0.16 0-0.32 0-0.56 0 0-0.080 0-0.080 0 0-0.16-0.080-0.32-0.080-0.56 0 0-0.080 0-0.080 0 0-0.080-0.080-0.24-0.080-0.32 0.4 0.080 0.64 0.16 1.12 0.24 0 0 0-0.080 0-0.080-0.16-0.080-0.32-0.080-0.56-0.080 0 0 0-0.080 0-0.080s-0.080 0-0.080 0c0 0 0 0.080 0 0.080-0.24 0-0.24-0.080-0.24-0.080-0.16 0-0.32 0-0.56 0-0.080-0.16-0.24-0.24-0.32-0.4-0.080 0-0.16 0-0.24 0 0-0.080-0.080-0.16-0.080-0.24-0.080 0-0.24 0-0.32 0 0 0 0-0.080 0-0.080-0.080 0-0.24 0-0.32 0 0 0 0-0.080 0-0.080-0.48-0.16-1.2 0-1.6 0.080 0 0 0 0.080 0 0.080-0.16 0-0.32-0.080-0.56-0.080 0 0 0 0.080 0 0.080 0.080 0 0.16 0 0.24 0 0 0 0 0.080 0 0.080s-0.080 0-0.080 0c-0.16 0.24-0.48 0.32-0.64 0.56 0 0.080 0 0.16 0 0.24-0.080 0-0.16 0.080-0.24 0.080 0 0.080 0 0.16 0 0.24 0 0-0.080 0-0.080 0 0 0.080 0 0.16 0 0.24 0 0-0.080 0-0.080 0 0 0.080 0 0.24 0 0.32 0 0-0.080 0-0.080 0-0.24 0.8 0.32 2.16 0.56 2.56 0.080 0 0.16 0.080 0.24 0.080 0 0.24 0.080 0.4 0.080 0.64 0 0 0.080 0 0.080 0 0 0.080 0 0.16 0 0.24 0 0 0.080 0 0.080 0 0.080 0.24-0.080 0.48 0.080 0.64 0 0 0 0.080 0 0.080-0.080 0.16-0.080-0.080-0.24 0.080 0.080 0 0.16 0 0.24 0 0 0.8-0.080 1.36-0.32 1.92 0 0.080 0 0.24 0 0.32 0 0-0.080 0-0.080 0-0.080 0.24-0.16 0.4-0.24 0.64-0.88 0-1.6-0.4-2.32-0.56 0 0 0-0.080 0-0.080 0.4-0.24 0.72-1.12 0.88-1.6 0-0.24-0.080-0.48-0.080-0.72 0.4 0.080 1.28 0.48 1.6 0.24-0.4 0-1.44-0.24-1.6-0.4 0 0-0.080 0-0.080 0 0-0.16 0-0.24 0-0.4-0.080 0-0.16-0.080-0.24-0.080 0-0.16-0.080-0.24-0.080-0.4 0.16-0.080 0.16-0.080 0.4-0.080 0.16 0.16 0.56 0.4 0.88 0.24-0.48 0-0.72-0.16-1.12-0.32 0 0 0-0.080 0-0.080-0.080 0-0.24 0.080-0.32 0.080 0 0 0-0.080 0-0.080s-0.080 0-0.080 0c0-0.24-0.080-0.4-0.080-0.64 0.080 0 0.56 0.24 0.72 0.080 0 0 0-0.080 0-0.080-0.080 0-0.16 0-0.24 0 0-0.16 0.080-0.24 0.080-0.4 0.080 0 0.16 0 0.24 0-0.16-0.16-0.24-0.16-0.56-0.24 0 0 0 0.080 0 0.080 0.080 0 0.16 0 0.24 0 0 0.16-0.080 0.24-0.080 0.4-0.080 0-0.24 0-0.32 0-0.080-0.32 0-0.24-0.32-0.32 0-0.48-0.080-0.96-0.080-1.36 0 0 0.080 0 0.080 0 0-0.24 0-0.4 0-0.64 0.16-0.56 0.56-1.68 1.040-2 0 0 0-0.080 0-0.080 0.080 0 0.24 0.080 0.32 0.080 0 0 0-0.080 0-0.080 0.080 0 0.16 0 0.24 0-0.080-0.32-0.080-0.080 0-0.4 0.080 0 0.32 0.24 0.56 0.080 0 0 0-0.080 0-0.080-0.32 0-0.32 0-0.4-0.24 0.16-0.080 0 0 0.080-0.080 0.080 0 0.24 0.080 0.32 0.080 0-0.080 0-0.24 0-0.32 0.080 0 0.24-0.080 0.32-0.080 0 0 0-0.080 0-0.080 0.080 0 0.16 0 0.24 0 0 0 0-0.080 0-0.080 0.24 0 0.4-0.080 0.64-0.080 0 0 0-0.080 0-0.080 0.24 0 0.4 0 0.64 0 0 0 0.080-0.16 0.32-0.080 0 0 0 0.080 0 0.080 0.080-0.24 0.4-0.16 0.72-0.080zM12.96 11.2c0.56 0 1.12 0 1.68 0 0 0 0 0.080 0 0.080s0.080 0 0.080 0c0 0 0-0.080 0-0.080 0.72 0 1.44 0 2.24 0 0 0 0 0.080 0 0.080 0.24 0.080 0.48 0.16 0.72 0.24 0.080 0.16 0.32 0.4 0.4 0.56 0 1.36-0.32 1.84-1.12 2.24 0.16 0.24 0.24 0.080 0.4 0.24 0.16 0.24 0.32 0.4 0.56 0.64 0 0.24-0.080 0.24-0.080 0.4 0 0-0.080 0-0.080 0 0 0.16 0.24 0.16 0.24 0.24 0 0.16-0.080 0.32-0.080 0.56-0.080 0-0.16-0.080-0.24-0.080 0.32 0.24-0.080 0.48-0.24 0.64 0 0 0 0.080 0 0.080-0.16 0-0.32 0-0.56 0 0-0.080 0.080-0.24 0.080-0.32-0.080 0-0.16 0-0.24 0 0 0.080 0 0.24 0 0.32-0.24 0-0.24 0.080-0.4 0.080 0-0.080 0-0.24 0-0.32 0 0-0.080 0-0.080 0s0 0.080 0 0.080c0 0-0.080 0-0.080 0s-0.080 0-0.080 0c0 0 0-0.080 0-0.080-0.16 0-0.32 0-0.56 0 0-0.080-0.080-0.16-0.080-0.24 0 0-0.080 0-0.080 0 0 0.080 0 0.16 0 0.24 0.32 0.080 0.64 0.16 0.96 0.24 0 0.080 0 0.16 0 0.24-0.32 0.080-0.56 0.16-0.72 0.32 0 0.080-0.080 0.16-0.080 0.24-0.080 0-0.16 0-0.24 0 0 0 0 0.080 0 0.080-1.12 0-2.16 0-3.28 0-0.080-0.16 0 0-0.080-0.080 0 0 0-0.080 0-0.080s0.080 0 0.080 0c0-0.24 0-0.4 0-0.64 0 0 0.080 0 0.080 0 0-0.24 0-0.4 0-0.64 0.16-0.56 0.32-0.96 0.32-1.68 0.080 0 0.16 0 0.24 0-0.24-0.64 0.16-1.68 0.24-2.56 0.080 0 0.24 0 0.32 0 0 0 0-0.080 0-0.080-0.080 0-0.16 0-0.24 0-0.080-0.4-0.080-0.64 0-0.96zM21.44 11.2c0.080 0.080 0.16 0.16 0.32 0.080 0 0 0-0.080 0-0.080-0.080 0-0.24 0-0.32 0zM23.36 11.44c0 0.32-0.24 0.16 0.080 0.32 0-0.080 0.080-0.24 0.080-0.32-0.16 0-0.24-0.080-0.4-0.080 0 0 0 0.080 0 0.080 0.080 0 0.16 0 0.24 0zM22.96 11.52c-0.080 0-0.16 0-0.24 0 0 0 0 0.080 0 0.080s0.080 0 0.080 0c0 0 0 0.080 0 0.080s0.080 0 0.080 0 0.080-0.080 0.080-0.16zM16.32 11.68c0 0.080 0 0.24 0 0.32 0 0 0.080 0 0.080 0s0-0.080 0-0.080c0.24 0 0.4 0.080 0.64 0.080 0 0 0-0.080 0-0.080-0.24-0.080-0.48-0.16-0.72-0.24zM24.32 12c-0.080 0-0.16 0-0.24 0 0.080 0.16 0 0 0.080 0.080 0 0 0 0.080 0 0.080 0.16-0.080 0.080 0 0.16-0.16zM14.080 12.48c0-0.080 0-0.16 0-0.24-0.16 0-0.24 0-0.4 0 0 0 0 0.080 0 0.080s0.080 0 0.080 0c0 0 0 0.080 0 0.080 0.16 0.080 0.24 0.080 0.32 0.080zM14.32 12.4c0.16 0.16 0 0.080 0.24 0.080-0.16-0.080 0 0-0.24-0.080zM23.68 12.48c0.16 0.16 0.16 0.16 0.4 0.24-0.16-0.16-0.16-0.16-0.4-0.24zM19.6 12.96c0.080 0 0.16 0 0.24 0 0 0 0 0.080 0 0.080 0.080 0 0.24-0.080 0.32-0.080 0-0.080 0.080-0.16 0.080-0.24-0.16-0.080 0 0-0.080-0.080-0.24 0.080-0.24 0.16-0.4 0 0 0 0 0.080 0 0.080-0.24 0.080-0.16 0-0.16 0.24zM21.040 12.64c-0.080 0-0.16 0-0.24 0 0.080 0.16 0 0 0.080 0.080 0 0 0 0.080 0 0.080s0.080 0 0.080 0c0.080-0.080 0.080-0.080 0.080-0.16zM14.4 12.72c-0.080 0.32-0.24 0.88-0.080 1.040s0.8 0.080 1.12 0.080c0 0 0-0.080 0-0.080 0.24 0 0.4-0.080 0.64-0.080 0-0.080 0.080-0.24 0.080-0.32 0 0 0.080 0 0.080 0 0-0.16 0-0.24 0-0.4 0.080 0 0.16 0 0.24 0 0 0 0-0.080 0-0.080-0.080 0-0.24 0.080-0.32 0.080 0-0.080-0.080-0.16-0.080-0.24-0.56 0-1.12 0-1.68 0zM20.64 13.12c0.16 0.16 0 0.080 0.24 0.080-0.16-0.080-0.080 0-0.24-0.080zM26.16 13.44c0 0.080 0 0.16 0 0.24 0 0 0.080 0 0.080 0 0-0.080 0-0.16 0-0.24 0 0 0 0-0.080 0zM15.040 14c-0.080 0-0.16 0-0.24 0 0.080 0.16 0 0 0.080 0.080 0 0 0 0.080 0 0.080s0.080 0 0.080 0 0.080-0.080 0.080-0.16zM22.96 14.56c-0.16 0.080-0.4 0.32-0.48 0.4 0 0.32 0 0.64 0 0.96 0 0.16 0.72 0.56 1.12 0.4 0 0 0-0.080 0-0.080 0.080 0 0.16 0 0.24 0 0 0 0-0.080 0-0.080 0.080-0.080 0.24-0.16 0.32-0.24 0-0.64 0.080-1.12-0.56-1.28 0 0 0-0.080 0-0.080-0.24 0-0.4 0-0.64 0zM14 15.040c0 0.32-0.080 0.64-0.080 0.96-0.080 0-0.16 0.080-0.24 0.080 0 0 0 0.080 0 0.080s0.080 0 0.080 0c0 0 0 0.080 0 0.080 0.24 0 0.4 0 0.64 0 0 0.080 0 0.24 0 0.32 0 0 0.080 0 0.080 0 0-0.080 0-0.24 0-0.32 0.32 0 0.72 0 1.040 0 0 0 0-0.080 0-0.080 0.080 0 0.16 0 0.24 0 0 0 0-0.080 0-0.080 0.080 0 0.16 0.080 0.24 0.080 0-0.080 0-0.16 0-0.24 0.080 0 0.16 0 0.24 0-0.080-0.4-0.080-0.24-0.080-0.72-0.16 0-0.32-0.080-0.56-0.080 0-0.080-0.080-0.16-0.080-0.24-0.080 0.080-1.28 0.16-1.52 0.16zM16.8 15.36c0.16 0 0.24 0.080 0.4 0.080-0.080-0.16-0.24-0.24-0.4-0.32 0 0.080 0 0.16 0 0.24zM19.68 15.36c-0.080 0-0.16 0-0.24 0 0.080 0.16 0 0 0.080 0.080 0 0 0 0.080 0 0.080s0.080 0 0.080 0 0.080-0.080 0.080-0.16zM17.36 15.44c0.16 0.16 0 0.080 0.24 0.080-0.16-0.080 0 0-0.24-0.080zM13.28 15.6c0.080 0.16 0.080 0.16 0.32 0.24 0.080-0.16 0 0 0.080-0.080 0 0 0-0.080 0-0.080-0.16-0.080-0.32-0.080-0.4-0.080zM20 15.68c0.16 0.16 0 0.080 0.24 0.080-0.16-0.080-0.080 0-0.24-0.080zM13.28 16c0 0 0 0.080 0 0.080s-0.080 0-0.080 0c-0.16 0.080 0.24 0.080 0.24 0.080 0.080 0.16 0 0 0.080 0.080-0.16-0.16-0.080-0.080-0.24-0.24zM20.32 16.4c0.16 0.16 0 0.080 0.24 0.080-0.16-0.080-0.080 0-0.24-0.080zM16.080 16.56c0.16 0.16 0 0.080 0.24 0.080-0.16-0.16 0-0.080-0.24-0.080zM26.72 18.88c-0.080 0-0.24 0-0.32 0 0-0.080 0-0.16 0-0.24-0.64-0.16-1.2-0.24-1.92-0.080-0.16 0.24-0.16 0.16-0.24 0.64 0.080 0 0.24 0.080 0.32 0.080 0 0 0 0.080 0 0.080 0.080 0 0.16 0 0.24 0 0 0 0 0.080 0 0.080 0.16 0 0.24 0 0.4 0 0.56 0.24 1.6 0.48 1.92 0.96 0.16 0.080 0 0 0.080 0.080-0.080 0-0.24 0-0.32 0 0 0 0 0.080 0 0.080 0.56 0 0.56 0.080 0.56 0.64 0 0 0.080 0 0.080 0 0 0.080-0.24 1.2-0.32 1.28s-0.24 0.16-0.32 0.24c0 0.080 0 0.16 0 0.24 0 0-0.080 0-0.080 0-0.080 0.080-0.16 0.24-0.24 0.32-0.56 0.4-1.92 0.8-2.72 0.56-0.16 0-0.32 0-0.56 0 0 0 0-0.080 0-0.080-0.080 0-0.16 0-0.24 0 0 0 0-0.080 0-0.080-0.4-0.16-0.56 0.080-0.88-0.24-0.16-0.16-0.080 0-0.080-0.24-0.080 0-0.16 0-0.24 0 0-0.080 0.080-0.16 0.080-0.24 0 0-0.080 0-0.080 0-0.080 0.080 0 0.16-0.24 0.080 0 0 0-0.080 0-0.080s-0.080 0-0.080 0c0-0.080 0-0.24 0-0.32 0.16-0.080 0.16-0.080 0.24-0.24 0.16 0 0.24 0 0.4 0 0 0.080 0 0.16 0 0.24 0.24 0 0.4-0.080 0.64-0.080 0 0 0-0.080 0-0.080-0.4-0.080-0.4-0.16-0.88-0.24 0.080-0.24 0.16-0.4 0.24-0.64 0.32 0.24 0.72 0.4 1.040 0.64 0.24 0 0.56 0.080 0.88 0.080 0 0 0 0.080 0 0.080 0.8 0.24 1.36-0.24 1.36-0.88-0.080-0.080-0.16-0.16-0.24-0.24-0.080 0-0.24 0-0.32 0-0.8-0.32-2-0.4-2.4-1.2 0 0-0.080 0-0.080 0 0-0.24-0.080-0.4-0.080-0.64 0.24 0 0.48 0.080 0.72 0.080 0 0 0-0.080 0-0.080-0.24 0-0.48-0.080-0.72-0.080 0-0.72 0.16-0.88 0.32-1.36 0.16 0 0.24 0 0.4 0 0 0 0 0.080 0 0.080s0.080 0 0.080 0c0-0.080 0.080-0.16 0.080-0.24 0.24 0 0.4 0 0.64 0 0 0 0-0.080 0-0.080 0.080 0 0.24 0 0.32 0 0 0 0-0.080 0-0.080 0.080 0 0.16 0 0.24 0 0-0.080 0.080-0.16 0.080-0.24 0.080 0 0.16 0 0.24 0 0.16-0.24 0.32-0.4 0.56-0.64 0.32 0 0.72 0 1.040 0 0 0 0 0.080 0 0.080 0.24 0 0.48 0.080 0.72 0.080 0 0 0 0.080 0 0.080 0.080 0 0.16 0 0.24 0s0.080 0.16 0.24 0.24c0 0.080-0.080 0.24-0.080 0.32 0 0-0.080 0-0.080 0 0 0.080 0 0.16 0 0.24 0 0-0.080 0-0.080 0 0 0.080 0 0.16 0 0.24 0 0-0.080 0-0.080 0-0.24 0.4-0.4 0.48-0.48 0.8zM46.96 18.8c0 0.16-0.080 0.32-0.080 0.56 0.24 0.16 0.56 0.24 0.88 0.4 0.16 0 0.24 0 0.4 0 0.64 0.24 1.6 0.48 1.76 1.2 0.080 0.080 0.32 0.56 0.24 0.88 0 0-0.080 0-0.080 0 0 0.16 0 0.32 0 0.56 0 0-0.080 0-0.080 0 0 0.16-0.080 0.24-0.080 0.4 0 0-0.080 0-0.080 0 0 0.080 0 0.16 0 0.24-0.080 0-0.16 0.080-0.24 0.080-0.16 0.16-0.24 0.32-0.4 0.56-0.080 0-0.16 0-0.24 0 0 0 0 0.080 0 0.080-0.16 0-0.24 0.080-0.4 0.080 0 0 0 0.080 0 0.080-0.32 0.16-1.6 0.4-2.080 0.24 0 0 0-0.080 0-0.080-0.24 0-0.4 0-0.64 0 0 0 0-0.080 0-0.080-0.080 0-0.24 0-0.32 0 0 0 0-0.080 0-0.080-0.080 0-0.24 0-0.32 0 0 0 0-0.080 0-0.080-0.080 0-0.16 0-0.24 0 0 0 0-0.080 0-0.080-0.080 0-0.16 0-0.24 0 0 0 0-0.080 0-0.080-0.16-0.16-0.24-0.24-0.56-0.32 0-0.080 0-0.24 0-0.32 0.4-0.24 0.56-0.72 1.040-0.88 0-0.080 0-0.16 0-0.24 0.080 0 0.24 0.080 0.32 0.080 0 0 0 0.080 0 0.080 0.080 0 0.16 0 0.24 0 0 0.080 0.080 0.16 0.080 0.24 0.16 0 0.24 0.080 0.4 0.080 0 0 0 0.080 0 0.080 0.48 0.24 1.28 0.080 1.76 0 0.080-0.16 0.080-0.32 0.080-0.64-0.080 0-0.24-0.080-0.32-0.080 0 0 0-0.080 0-0.080-0.080 0-0.16 0-0.24 0 0 0 0-0.080 0-0.080-0.16 0-0.24 0-0.4 0-0.64-0.24-1.84-0.48-2-1.2-0.24-0.16-0.24-0.56-0.24-0.96 0.080 0 0.24 0.080 0.32 0.080 0 0 0-0.080 0-0.080-0.24-0.16-0.16-0.16-0.24-0.56 0 0 0.080 0 0.080 0 0-0.080 0-0.24 0-0.32 0.080 0 0.16-0.080 0.24-0.080 0-0.080 0-0.16 0-0.24 0.16-0.16 0.32-0.24 0.56-0.4 0 0 0-0.080 0-0.080 0.080 0 0.16 0 0.24 0 0 0 0-0.080 0-0.080 0.24-0.080 0.4-0.16 0.64-0.24 0 0 0-0.080 0-0.080 0.24-0.080 1.76-0.24 2.24-0.080 0 0 0 0.080 0 0.080 0.16 0 0.24 0 0.4 0 0 0 0 0.080 0 0.080 0.24 0.080 0.4 0.16 0.64 0.24 0 0 0 0.080 0 0.080 0.080 0 0.16 0 0.24 0 0 0 0 0.080 0 0.080 0.080 0.080 0.24 0.16 0.32 0.24-0.080 0.16 0 0-0.080 0.080-0.32 0.4-0.64 0.8-0.96 1.2-0.24 0.080-0.88-0.48-1.040-0.56-0.16 0-0.24 0-0.4 0-0.64-0.32-0.56-0.16-1.12 0zM28.96 17.2c0.56 0 1.2 0 1.76 0 0 0.32-0.080 0.72-0.080 1.040-0.080 0-0.16 0-0.24 0 0.16 0.48-0.080 1.52-0.24 2 0 0.24 0 0.4 0 0.64 0 0-0.080 0-0.080 0s0 0.080 0 0.080c-0.080 0-0.24 0-0.32 0 0 0 0-0.080 0-0.080-0.24 0-0.4-0.080-0.64-0.080 0 0 0 0.080 0 0.080 0.16 0.16 0.080 0 0.080 0.24-0.16 0-0.32-0.080-0.56-0.080 0 0 0 0.080 0 0.080 0.4 0 0.4 0.080 0.72 0.24 0 0 0 0.080 0 0.080s0.080 0 0.080 0c0 0 0-0.080 0-0.080 0.16 0 0.24 0.080 0.4 0.080-0.080 0.8-0.24 1.52-0.32 2.32-0.080 0-0.24 0.080-0.32 0.080-0.24 0.24-1.12 0.080-1.6 0.080 0-0.32 0.080-0.72 0.080-1.040 0.080 0 0.16-0.080 0.24-0.080 0-0.16-0.16-0.16-0.080-0.4 0 0 0.080 0 0.080 0 0-0.080 0-0.16 0-0.24 0 0 0.080 0 0.080 0 0.080-0.24-0.080-0.24-0.080-0.32 0 0 0-0.080 0-0.080s0.080 0 0.080 0c0-0.24 0-0.4 0-0.64 0 0 0.080 0 0.080 0 0.080-0.16 0.16-0.16 0.24-0.4 0.080 0 0.16 0 0.24 0 0 0 0-0.080 0-0.080-0.24-0.16-0.32-0.24-0.32-0.64 0.32-0.96 0.48-1.92 0.72-2.8zM37.36 18.32c-0.080 0-0.16 0-0.24 0 0 0 0 0.080 0 0.080 0.32 0 0.32 0 0.4 0.24 0.48 0.48 0.24 1.44 0.24 2.24-0.16 0-0.32 0-0.56 0 0 0 0 0.080 0 0.080 0.24 0 0.24 0.080 0.4 0.080-0.080 0.24-0.16 0.4-0.24 0.64-0.080 0-0.16 0.080-0.24 0.080 0 0.080-0.080 0.24-0.080 0.32-0.16 0-0.32-0.080-0.56-0.080 0 0 0 0.080 0 0.080 0.080 0 0.24 0 0.32 0 0 0.080 0 0.24 0 0.32-0.32 0.16-0.32 0.32-0.88 0.32-0.16-0.16 0-0.080-0.24-0.080 0-0.080 0-0.16 0-0.24-0.24 0-0.4 0.080-0.64 0.080 0.16 0.16 0 0.080 0.24 0.080 0 0.080 0 0.16 0 0.24-0.16 0-0.32 0-0.56 0 0 0 0 0.080 0 0.080 0.4 0 0.72 0.080 1.040 0.24-0.16 0.16 0 0.080-0.24 0.080-0.16 0.16-0.56 0.32-0.96 0.24-0.88-0.24-1.68-0.48-2.56-0.72 0-0.080 0-0.16 0-0.24-0.080 0-0.24 0-0.32 0 0 0 0-0.080 0-0.080-0.16 0.080-0.32 0.16-0.56 0.24 0 0 0 0.080 0 0.080 0.16 0 0.24 0 0.4 0 0 0 0 0.080 0 0.080 0.16 0 0.24 0 0.4 0 0 0.16-0.080 0.32-0.080 0.56 0.080 0 0.24 0.080 0.32 0.080 0-0.16 0-0.24 0-0.4 0.080 0 0.16 0 0.24 0 0 0.080 0.080 0.16 0.080 0.24 0.16 0 0.24 0 0.4 0 0 0 0-0.080 0-0.080 0.24 0 0.4 0.080 0.64 0.080 0 0.080 0.080 0.24 0.080 0.32 0.080 0 0.24 0 0.32 0 0-0.080 0-0.16 0-0.24 0.24 0.080 0.4 0.16 0.64 0.24 0 0 0 0.080 0 0.080-0.96 0.080-3.040 0.48-4.080 0.080 0.16-0.4 0.16-0.8 0.24-1.28 0.080 0 0.24 0 0.32 0 0-0.080 0-0.16 0-0.24-0.080 0-0.16 0-0.24 0 0-0.24 0.080-0.4 0.080-0.64 0 0 0.080 0 0.080 0 0.24 0.24 0.24 0.080 0.64 0.24 0 0 0 0.080 0 0.080 0.080 0 0.24-0.080 0.32-0.080 0 0 0 0.080 0 0.080 0.24 0 0.4 0.080 0.64 0.080 0 0 0 0.080 0 0.080 0.24 0 0.48 0 0.72 0 0.080 0 0.72 0.24 0.88 0.24 0 0 0-0.080 0-0.080-0.080 0-0.16 0-0.24 0-0.080-0.16 0.080-0.080 0.080-0.080s0-0.080 0-0.080c0.16-0.080 0.24 0 0.32 0.080 0 0 0.080 0 0.080 0 0-0.080 0.080-0.24 0.080-0.32 0.080 0 0.24-0.080 0.32-0.080 0.24-0.16 0.56-0.8 0.64-1.2 0.080 0 0.24 0 0.32 0 0 0 0-0.080 0-0.080-0.080 0-0.24-0.080-0.32-0.080 0 0 0-0.080 0-0.080s0.080 0 0.080 0c0-0.24-0.080-0.48-0.080-0.72 0 0-0.080 0-0.080 0 0-0.080 0-0.16 0-0.24 0 0-0.080 0-0.080 0 0-0.080-0.080-0.24-0.080-0.32-0.64-0.16-0.96-0.32-1.92-0.32-0.080 0.16 0 0-0.080 0.080-0.080 0.32-0.16 0.72-0.24 1.040-0.56-0.080-1.12-0.32-1.68-0.4 0-0.88 0.32-1.28 0.32-2.16 0.72-0.4 2.4-0.24 3.44-0.24 0 0 0 0.080 0 0.080 0.16 0 0.32 0 0.56 0 0 0 0 0.080 0 0.080 0.080 0 0.16 0 0.24 0 0 0 0 0.080 0 0.080 0.080 0 0.24 0 0.32 0 0 0 0 0.080 0 0.080 0.72 0.4 1.040 0.48 1.2 0.96zM44.16 18.8c-0.64 0-1.52 0-2-0.080-0.24-0.080-0.32 0.080-0.32 0.080-0.4 0-0.88 0-1.28 0 0 0.32-0.080 0.72-0.080 1.040-0.080 0-0.16 0-0.24 0 0 0 0 0.080 0 0.080 0.080 0 0.24 0 0.32 0 0 0 0-0.080 0-0.080 0.24-0.16 0.4 0.16 0.56 0.080 0 0 0-0.080 0-0.080 0.24 0 0.48 0 0.72 0 0 0 0 0.080 0 0.080s0.080 0 0.080 0c0 0 0-0.080 0-0.080 0.56 0 1.12 0 1.68 0-0.080 0.48-0.16 0.96-0.24 1.36-1.040 0-2.080 0-3.12 0 0 0.080-0.080 0.24-0.080 0.32 0 0-0.080 0-0.080 0 0 0.24 0 0.56 0 0.88 0.48 0 0.96 0 1.44 0 0 0 0 0.080 0 0.080 0.16 0 0.24 0.080 0.4 0.080 0-0.080 0-0.16 0-0.24 0.56 0 1.040 0 1.6 0-0.080 0.56-0.16 1.040-0.24 1.6-0.8 0-1.52 0-2.32 0 0 0 0-0.080 0-0.080-0.16 0-0.24 0-0.4 0 0 0 0-0.080 0-0.080s-0.080 0-0.080 0c-0.16 0.080 0.080 0.080-0.080 0.080-0.4-0.16-0.96-0.4-1.44-0.4 0 0 0 0.080 0 0.080 0.4 0 0.64 0.24 0.96 0.32 0.16 0 0.24 0 0.4 0 0 0 0 0.080 0 0.080-0.8 0-1.52 0-2.32 0 0-0.24 0-0.4 0-0.64 0.080 0 0.16 0 0.24 0 0-0.080-0.24-0.4-0.080-0.64 0 0 0.080 0 0.080 0s0-0.080 0-0.080c0.080 0 0.24 0 0.32 0 0.16 0.16 0 0.080 0.24 0.080 0 0.080-0.080 0.16-0.080 0.24 0 0 0.080 0 0.080 0 0 0.080 0 0.16 0 0.24 0.080 0.080 0.080-0.080 0.080-0.080 0.24 0.080 0.4 0.16 0.64 0.24 0-0.080 0-0.24 0-0.32 0 0 0.080 0 0.080 0 0.080 0.080 1.52 0.56 1.76 0.4 0 0 0-0.080 0-0.080-0.4 0-0.8-0.24-1.12-0.32-0.16 0-0.24 0-0.4 0 0 0 0-0.080 0-0.080-0.080 0-0.16 0-0.24 0 0 0 0-0.080 0-0.080-0.16 0-0.32 0-0.56 0 0 0 0-0.080 0-0.080-0.24 0-0.48-0.080-0.72-0.080 0 0 0-0.080 0-0.080s-0.080 0-0.080 0c0-0.080 0-0.24 0-0.32 0 0 0.080 0 0.080 0 0-0.16 0-0.32 0-0.56 0 0 0.080 0 0.080 0 0-0.080 0-0.16 0-0.24 0 0 0.080 0 0.080 0 0.080-0.16-0.080-0.24-0.080-0.24 0-0.24 0.080-0.24 0.080-0.24 0-0.24 0-0.4 0-0.64 0 0 0.080 0 0.080 0 0-0.24 0.080-0.4 0.080-0.64 0.080 0 0.16 0 0.24 0-0.16-0.16 0-0.080-0.24-0.080 0-0.32 0.32-2.080 0.4-2.24 0.24-0.24 1.040-0.080 1.44-0.080 1.28 0 2.56 0 3.92 0 0 0 0 0.080 0 0.080s-0.24 1.12-0.24 1.44zM26.4 17.6c0.16 0.16 0.16 0.16 0.4 0.24 0 0 0-0.080 0-0.080-0.16-0.080 0 0-0.080-0.080s-0.24-0.080-0.32-0.080zM34 17.84c0.080 0 0.16 0 0.24 0 0 0 0-0.080 0-0.080-0.16-0.080 0 0-0.080-0.080 0 0-0.080 0-0.080 0-0.080 0-0.080 0.080-0.080 0.16zM36.24 18.32c0.080 0 0.16 0 0.24 0 0-0.080 0-0.16 0-0.24 0.080 0 0.16 0 0.24 0 0 0.080 0 0.16 0 0.24 0.080 0 0.24 0 0.32 0 0 0 0-0.080 0-0.080-0.16-0.16-0.080 0-0.080-0.24-0.24 0-0.48-0.080-0.72-0.080 0 0 0 0.080 0 0.080 0.24 0.16 0.080 0 0 0.32zM40.4 18.24c0-0.080 0-0.16 0-0.24-0.4 0-0.8-0.24-1.040 0 0.32 0.080 0.64 0.16 1.040 0.24zM34.56 18.16c0.16 0.16 0 0.080 0.24 0.080-0.080-0.16 0-0.080-0.24-0.080zM26.48 18.24c-0.080 0-0.16 0-0.24 0 0.080 0.16 0 0 0.080 0.080 0 0 0 0.080 0 0.080s0.080 0 0.080 0 0.080-0.080 0.080-0.16zM35.2 18.24c0 0.080 0 0.16 0 0.24 0.080 0 0.16 0 0.24 0 0-0.080 0-0.16 0-0.24-0.080 0-0.16 0-0.24 0zM28.96 18.56c0 0.080 0 0.16 0 0.24 0.080 0 0.24 0 0.32 0 0 0 0-0.080 0-0.080s-0.080 0-0.080 0c0.16-0.24 0.16 0 0.32-0.080 0 0 0-0.080 0-0.080-0.24-0.080-0.4-0.080-0.56 0zM14.64 18.64c0 0.24-0.080 0.88-0.080 0.96 0 0 0.080 0 0.080 0 0 0.24 0 0.4 0 0.64 0 0 0.080 0 0.080 0 0 0.080 0 0.16 0 0.24 0 0 0.080 0 0.080 0 0.24 0.48 0.24 0.88 0.88 1.040 0 0.080 0 0.16 0 0.24 0.56 0.080 1.28 0.56 2.080 0.32 0 0 0-0.080 0-0.080 0.080 0 0.24 0 0.32 0 0 0 0-0.080 0-0.080 0.080 0 0.16 0 0.24 0 0 0 0-0.080 0-0.080 0.080 0 0.16 0 0.24 0 0-0.080 0.080-0.16 0.080-0.24 0.24-0.080 0.32 0.080 0.4 0.080 0 0 0-0.080 0-0.080s0.080 0 0.080 0c0 0 0 0.080 0 0.080 0.080 0 0.24 0 0.32 0 0 0 0 0.080 0 0.080 0.16 0 0.24 0 0.4 0 0 0.080 0.080 0.16 0.080 0.24 0.080 0 0.16-0.080 0.24-0.080 0.32 0.080 0.32 0.16 0.88 0.24-0.080 0.48-0.88 1.36-1.44 1.36 0 0.080 0 0.16 0 0.24-0.080 0-0.24 0.080-0.32 0.080 0 0 0 0.080 0 0.080-0.080 0-0.24 0-0.32 0 0 0 0 0.080 0 0.080-0.080 0-0.16 0-0.24 0 0 0 0 0.080 0 0.080-0.16 0-0.24 0-0.4 0 0 0 0 0.080 0 0.080-0.16 0-0.24 0-0.4 0 0 0 0 0.080 0 0.080-0.4 0.16-2-0.080-2.32-0.24 0 0 0-0.080 0-0.080-0.16 0-0.24-0.080-0.4-0.080 0 0 0-0.080 0-0.080-0.080 0-0.24 0-0.32 0 0-0.080-0.080-0.16-0.080-0.24-0.080 0-0.16 0-0.24 0 0-0.080-0.080-0.16-0.080-0.24-0.080 0-0.16 0-0.24 0 0-0.080-0.080-0.16-0.080-0.24-0.24-0.16-0.4-0.32-0.64-0.56 0-0.080 0-0.16 0-0.24-0.080-0.080-0.24-0.16-0.32-0.24 0-0.16-0.080-0.24-0.080-0.4-0.48-0.96-0.64-1.52-0.64-2.96 0.16-0.080 0.24-0.080 0.56-0.080 0 0 0 0.080 0 0.080 0.16 0-0.080-0.080 0.080-0.080 0.48 0.080 0.96 0.080 1.52 0.080zM16.72 18.64c-0.080 0.16-0.16 0.32-0.24 0.4 0 0-0.080 0-0.080 0 0 0.32 0 0.64 0 0.88 0 0 0.080 0 0.080 0 0.16 0.8 0.96 0.48 1.44 0.24 0-0.24-0.080-0.080 0.080-0.24 0-1.040-0.080-0.72-0.4-1.28-0.32 0-0.64 0-0.88 0zM23.76 18.64c0.080 0.080 0.16 0.16 0.32 0.080 0 0 0-0.080 0-0.080-0.080 0-0.24 0-0.32 0zM39.68 18.88c0.080 0 0.16 0 0.24 0 0 0 0-0.080 0-0.080-0.16-0.080 0 0-0.080-0.080 0 0-0.080 0-0.080 0-0.080 0-0.080 0.080-0.080 0.16zM21.44 19.28c0.16 0.16 0 0.080 0.24 0.080-0.16-0.080 0 0-0.24-0.080zM40.24 19.44c-0.080 0-0.16 0-0.24 0 0.080 0.16 0 0 0.080 0.080 0 0 0 0.080 0 0.080s0.080 0 0.080 0c0.080-0.080 0.080-0.16 0.080-0.16zM31.52 19.6c0 0.8-0.16 0.8-0.24 1.68 0.080 0 0.16 0 0.24 0 0 0 0 0.080 0 0.080-0.080 0-0.24 0-0.32 0 0 0.080 0 0.16 0 0.24 0.24 0.080 0.48 0.16 0.72 0.24 0-0.080 0-0.16 0-0.24-0.080 0-0.16 0-0.24 0 0-0.080 0-0.16 0-0.24 0.32 0.080 0.64 0.16 0.96 0.24-0.16 0.24-0.080 0.16-0.32 0.24 0 0 0 0.080 0 0.080 0.24 0 0.4 0.080 0.64 0.080 0.080-0.64 0.24-1.36 0.32-2-0.56-0.16-1.2-0.24-1.76-0.4zM36.48 19.6c0.16 0.16 0 0.080 0.24 0.080-0.16-0.080 0 0-0.24-0.080zM23.36 19.68c0.16 0.16 0 0.080 0.24 0.080-0.16-0.080-0.080 0-0.24-0.080zM24 19.84c0.16 0.24 0.16 0.24 0.4 0.32 0.080-0.16 0 0 0.080-0.080 0 0 0-0.080 0-0.080-0.24-0.080-0.32-0.080-0.48-0.16zM13.92 20c0.16 0.16 0 0.080 0.24 0.080-0.16-0.080-0.080 0-0.24-0.080zM24.64 20c0 0 0 0.080 0 0.080 0.16 0 0.24 0 0.4 0 0 0 0-0.080 0-0.080-0.16 0-0.32 0-0.4 0zM25.68 20c0 0.080-0.080 0.24-0.080 0.32 0 0 0.080 0 0.080 0 0.16-0.16 0-0.080 0.24-0.080 0 0.16 0 0.24 0 0.4 0 0 0.080 0 0.080 0 0-0.080 0-0.24 0-0.32 0 0 0.080 0 0.080 0s0 0.080 0 0.080c0.24 0 0.4 0.080 0.64 0.080 0 0 0-0.080 0-0.080-0.32 0-0.56-0.080-0.4-0.32-0.24 0-0.48 0-0.64-0.080zM25.12 20.16c0.080 0.080 0.16 0.16 0.32 0.080 0 0 0-0.080 0-0.080-0.080 0-0.16 0-0.32 0zM42.24 20.24c0.080 0.080 0.16 0.16 0.32 0.080 0 0 0-0.080 0-0.080-0.080 0-0.16 0-0.32 0zM14.4 20.56c0.16 0.16 0 0.080 0.24 0.080-0.16-0.080 0 0-0.24-0.080zM43.2 20.56c0.16 0.16 0 0.080 0.24 0.080-0.16-0.080 0 0-0.24-0.080zM46.16 20.56c0 0 0 0.080 0 0.080s-0.4-0.080-0.24 0.080c0 0 0.080 0 0.080 0 0.080 0.080 0 0.16 0.24 0.080 0 0 0-0.080 0-0.080 0.080 0 0.16 0 0.24 0 0 0 0-0.080 0-0.080-0.080 0-0.24 0-0.32-0.080zM36.24 20.64c0.16 0.16 0 0.080 0.24 0.080-0.080-0.080 0 0-0.24-0.080zM36.88 20.8c0.16 0.16 0 0.080 0.24 0.080-0.16-0.16 0 0-0.24-0.080zM27.040 21.12c0.080 0.080 0.16 0.16 0.32 0.080 0 0 0-0.080 0-0.080-0.080 0-0.24 0-0.32 0zM20.96 21.28c-0.16 0-0.24 0.080-0.4 0.080 0 0 0-0.080 0-0.080-0.16 0-0.24-0.080-0.4-0.080 0 0 0 0.080 0 0.080s0.080 0 0.080 0c0.16 0.16 0.56 0.24 0.72 0.32 0-0.080 0-0.16 0-0.32zM26.32 21.2c-0.080 0-0.24 0-0.32 0 0 0 0 0.080 0 0.080 0.080 0 0.16 0 0.24 0 0 0 0 0.080 0 0.080 0.080 0.24 0.080-0.16 0.080-0.16zM38.56 21.2c0.080 0.080 0.16 0.16 0.32 0.080 0 0 0-0.080 0-0.080-0.080 0-0.16 0-0.32 0zM39.12 21.28c0.16 0.16 0 0.080 0.24 0.080-0.16-0.080 0 0-0.24-0.080zM36.56 21.44c0.16 0.16 0 0.080 0.24 0.080-0.080-0.16 0-0.080-0.24-0.080zM39.52 21.44c0.080 0.080 0.16 0.16 0.32 0.080 0 0 0-0.080 0-0.080-0.080 0-0.16 0-0.32 0zM14.24 21.52c0.080 0.080 0.16 0.16 0.32 0.24-0.16-0.24-0.080-0.16-0.32-0.24zM48.4 21.52c0.16 0.16 0 0.080 0.24 0.080-0.16-0.080-0.080 0-0.24-0.080zM26.48 21.6c0.16 0.16 0 0.080 0.24 0.080-0.16-0.080 0 0-0.24-0.080zM13.68 21.76c0.16 0.16 0 0.080 0.24 0.080-0.16-0.16 0-0.080-0.24-0.080zM28.32 21.76c0.080 0.080 0.8 0.32 0.96 0.24 0 0 0-0.080 0-0.080-0.32-0.16-0.56-0.16-0.96-0.16zM15.36 21.84c0.16 0.16 0.16 0.16 0.4 0.24-0.080-0.16-0.16-0.16-0.4-0.24zM19.6 22.16c0.16 0 0.32 0.080 0.56 0.080 0 0 0-0.080 0-0.080-0.16-0.080 0 0-0.080-0.080-0.24 0-0.24-0.080-0.4-0.080-0.080 0-0.080 0.080-0.080 0.16zM32 22.16c-0.080 0-0.24 0-0.32 0 0 0 0 0.080 0 0.080 0.080 0 0.16 0 0.24 0 0.080 0.16 0 0 0.080 0.080 0 0 0-0.080 0-0.16zM15.44 22.72c0-0.080 0-0.16 0-0.24-0.32-0.080-0.32-0.080-0.72-0.080 0 0 0 0.080 0 0.080 0.16 0.080 0 0 0.080 0.080 0.080 0 0.24 0.080 0.32 0.080 0.16 0-0.080-0.080 0.080-0.080 0 0 0 0.080 0 0.080 0.16 0.080 0.16 0.080 0.24 0.080zM15.6 22.48c0 0.080 0 0.16 0 0.24 0.080 0 0.24 0 0.32 0 0 0 0-0.080 0-0.080-0.16-0.080-0.24-0.16-0.32-0.16zM34.56 22.48c0 0 0 0.080 0 0.080 0.16 0 0.24 0 0.4 0 0 0 0-0.080 0-0.080-0.080 0-0.24 0-0.4 0zM23.040 22.56c0.080 0.080 0.16 0.16 0.32 0.080 0 0 0-0.080 0-0.080-0.080 0-0.24 0-0.32 0zM23.44 22.72c0.080 0.080 0.16 0.24 0.24 0.32 0.16 0.080 0-0.080 0.080-0.080 0.24-0.080 0.32 0.080 0.32 0.080s0.080 0 0.080 0c0 0 0-0.080 0-0.080 0.080 0 0.16 0.080 0.24 0.080-0.32-0.48-0.24-0.16-0.64-0.24 0 0 0-0.080 0-0.080-0.080 0-0.24 0-0.32 0zM42.24 22.72c0.16 0.16 0 0.080 0.24 0.080-0.080-0.16 0-0.080-0.24-0.080zM42.56 22.72c0.080 0.16 0.080 0.16 0.32 0.24 0 0 0-0.080 0-0.080-0.080-0.16-0.16-0.16-0.32-0.16zM29.52 22.8c-0.080 0-0.16 0-0.24 0 0.080 0.16 0 0 0.080 0.080 0 0 0 0.080 0 0.080s0.080 0 0.080 0 0.080-0.080 0.080-0.16zM44.8 22.8c-0.080 0-0.16 0-0.24 0 0.080 0.16 0 0 0.080 0.080 0 0 0 0.080 0 0.080s0.080 0 0.080 0 0.080-0.080 0.080-0.16zM35.76 22.88c0 0.080 0 0.080 0.080 0.080s0.24 0 0.32 0c0.080 0-0.080 0 0.080 0.080 0 0 0-0.080 0-0.080s0.080 0 0.080 0c0 0 0-0.080 0-0.080-0.24 0-0.4 0-0.56 0zM22.8 23.12c0 0 0 0.080 0 0.080s-0.4-0.080-0.24 0.080c0 0 0.080 0 0.080 0 0.16 0.16 0.24 0.16 0.56 0.24 0 0 0-0.080 0-0.080-0.16-0.080-0.32-0.16-0.080-0.32-0.080 0-0.16 0-0.32 0zM24.64 23.12c0 0.080-0.080 0.16-0.080 0.24 0 0 0.32-0.16 0.24-0.24-0.16 0-0.16 0-0.16 0zM28 23.12c0 0.080 0 0.16 0 0.24 0 0 0.080 0 0.080 0 0-0.080 0-0.16 0-0.24 0 0-0.080 0-0.080 0zM28.4 23.2c0.080 0.080 0.24 0.32 0.4 0.24 0 0 0-0.080 0-0.080 0.080 0 0.16 0 0.24 0 0 0 0-0.080 0-0.080-0.24-0.080-0.4-0.080-0.64-0.080zM34.88 23.2c0.16 0.16 0 0.080 0.24 0.080-0.16-0.080 0 0-0.24-0.080zM44.96 23.2c0.16 0.16 0 0.080 0.24 0.080-0.080-0.080 0 0-0.24-0.080zM16.080 23.36c0 0 0 0.080 0 0.080 0.8 0.16 1.52 0.32 2.32 0.56 0 0 0-0.080 0-0.080-0.16-0.080 0 0-0.080-0.080-0.24 0-0.48-0.080-0.72-0.080 0 0 0-0.080 0-0.080-0.080 0-0.16 0.080-0.24 0.080-0.4-0.24-0.72-0.4-1.28-0.4zM38.56 23.36c-0.080 0-0.16 0-0.24 0 0.080 0.16 0 0 0.080 0.080 0 0 0 0.080 0 0.080s0.080 0 0.080 0c0.080-0.080 0.080-0.16 0.080-0.16zM46.88 23.36c0.080 0.080 0.64 0.32 0.88 0.24 0 0 0-0.080 0-0.080-0.32-0.16-0.56-0.16-0.88-0.16zM15.68 23.44c0.080 0.080 0.16 0.16 0.32 0.080 0 0 0-0.080 0-0.080-0.080 0-0.24 0-0.32 0zM28.8 23.76c0-0.080 0-0.16 0-0.24-0.4 0-0.32-0.080-0.64 0 0.16 0.16 0 0.080 0.24 0.080 0 0 0 0.080 0 0.080 0.16 0.080 0.24 0.080 0.4 0.080zM31.76 23.52c0.16 0.24 0.16 0.24 0.4 0.32-0.080-0.080-0.24-0.24-0.4-0.32zM24.4 23.68c0.16 0.16 0 0.080 0.24 0.080-0.16-0.16 0-0.080-0.24-0.080zM42.88 23.68c0.16 0.16 0 0.080 0.24 0.080-0.16-0.16 0-0.080-0.24-0.080z"></path>
<path fill="#f00" style="fill: var(--color2, #f00)" d="M34.56 11.28h1.92c0.4 0 0.8 0.080 1.040 0.24s0.48 0.32 0.56 0.64c0.080 0.24 0.080 0.56 0 0.96-0.080 0.24-0.16 0.48-0.32 0.64s-0.4 0.4-0.64 0.48l0.64 1.68h-1.44l-0.48-1.52h-0.56l-0.32 1.52h-1.36l0.96-4.64zM36.080 13.36c0.16 0 0.32 0 0.48-0.080 0.080-0.080 0.16-0.16 0.24-0.24 0.080-0.16 0-0.32-0.080-0.48-0.080-0.080-0.24-0.16-0.48-0.16h-0.48l-0.24 0.96h0.56z"></path>
<path fill="#f00" style="fill: var(--color2, #f00)" d="M39.2 11.28h1.76c0.56 0 0.96 0.080 1.28 0.32s0.56 0.56 0.72 0.96c0.16 0.4 0.16 0.88 0 1.36-0.080 0.4-0.24 0.72-0.48 1.040s-0.56 0.56-0.96 0.72c-0.4 0.16-0.8 0.24-1.28 0.24h-2.080l1.040-4.64zM40.4 14.64c0.24 0 0.48-0.080 0.72-0.24 0.16-0.16 0.32-0.4 0.4-0.72 0.080-0.24 0.080-0.4 0-0.64 0-0.16-0.080-0.32-0.24-0.4s-0.32-0.16-0.48-0.16h-0.4l-0.48 2.16h0.48z"></path>
<path fill="#f00" style="fill: var(--color2, #f00)" d="M47.68 14.16c-0.24 1.2-1.040 1.84-2.24 1.84-0.4 0-0.72-0.080-1.040-0.16-0.24-0.080-0.48-0.24-0.56-0.48-0.16-0.24-0.24-0.48-0.24-0.72s0-0.56 0.080-0.88l0.56-2.48h1.52l-0.56 2.72c0 0.16-0.080 0.24 0 0.4 0 0.16 0.080 0.24 0.080 0.32 0.080 0.080 0.16 0.16 0.4 0.16 0.16 0 0.32-0.080 0.48-0.16 0.080-0.16 0.16-0.32 0.24-0.56l0.56-2.72h1.52l-0.8 2.72z"></path>
</symbol>
<symbol id="icon-bsides-logo" viewBox="0 0 62 32">
<path fill="#000" style="fill: var(--color1, #000)" d="M59.704 12.752c-0.589-0.124-0.867-0.599-1.363-0.847 0 0.072 0 0.145 0 0.207 0.258 0.165 0.062 0.114 0.207 0.32 0.031 0 0.072 0 0.103 0 0.145 0.186 0.176 0.207 0.207 0.527-0.279 0.145-0.558 0.279-0.847 0.423-0.558 0.186-0.867-0.217-1.26 0-0.072 0.103-0.145 0.207-0.207 0.32-0.351 0.33-0.651 0.413-1.363 0.423-0.237-0.351-0.599-0.341-0.733-0.836-0.031 0-0.072 0-0.103 0 0 0.145 0 0.279 0 0.423 0.031 0 0.072 0 0.103 0 0 0.176 0 0.351 0 0.527 0.072 0.031 0.145 0.072 0.207 0.103 0.031 0.207 0.072 0.423 0.103 0.63 0.031 0 0.072 0 0.103 0 0.32-0.31 0.578-0.072 1.053-0.207 0-0.031 0-0.072 0-0.103 0.32 0 0.63 0 0.95 0 0-0.031 0-0.072 0-0.103 0.279 0 0.558 0 0.847 0 0-0.031 0-0.072 0-0.103 0.423-0.031 0.847-0.072 1.26-0.103 0.268 0.713 0.114 2.045 0.103 2.943 0.072 0 0.145 0 0.207 0 0.031-0.145 0.072-0.279 0.103-0.423 0.031 0 0.072 0 0.103 0 0.207-0.599-0.145-1.208 0.207-1.683 0.031 0 0.072 0 0.103 0 0.289-0.299 0.485-0.134 0.63-0.63 0.392 0.093 0.351 0.227 0.527 0.527 0.031 0 0.072 0 0.103 0 0.031 0.145 0.072 0.279 0.103 0.423 0.031 0 0.072 0 0.103 0 0 0.103 0 0.207 0 0.32 0.031 0 0.072 0 0.103 0 0.227 0.712-0.207 1.384-0.32 1.89-0.186 0.072-0.33 0.103-0.63 0.103-0.124-0.124 0-0.041-0.207-0.103-0.062 0.268-0.165 0.341-0.32 0.527-0.031 0-0.072 0-0.103 0 0 0.072 0 0.145 0 0.207-0.103 0.072-0.207 0.145-0.32 0.207 0 0.072 0 0.145 0 0.207-0.176 0.145-0.351 0.279-0.527 0.423 0 0.072 0 0.145 0 0.207-0.103 0.072-0.207 0.145-0.32 0.207 0 0.031 0 0.072 0 0.103-0.176 0-0.351 0-0.527 0-0.083 0.062 0 0.134-0.207 0.103 0-0.031 0-0.072 0-0.103-0.103 0-0.207 0-0.32 0 0-0.031 0-0.072 0-0.103-0.32-0.031-0.63-0.072-0.95-0.103 0-0.031 0-0.072 0-0.103-0.103 0-0.207 0-0.32 0 0-0.031 0-0.072 0-0.103-0.248 0-0.496 0-0.733 0 0-0.031 0-0.072 0-0.103-0.072 0-0.145 0-0.207 0 0-0.031 0-0.072 0-0.103-0.207-0.031-0.423-0.072-0.63-0.103 0-0.031 0-0.072 0-0.103-0.382 0-0.774 0-1.157 0 0-0.031 0-0.072 0-0.103-0.454-0.103-0.909-0.207-1.363-0.32 0 0.031 0 0.072 0 0.103 0.031 0 0.072 0 0.103 0 0.248 0.268 0.392 0.165 0.733 0.32 0 0.031 0 0.072 0 0.103 0.072 0 0.145 0 0.207 0 0 0.031 0 0.072 0 0.103 0.145 0.031 0.279 0.072 0.423 0.103 0 0.031 0 0.072 0 0.103 0.103 0 0.207 0 0.32 0 0 0.031 0 0.072 0 0.103 0.207 0.072 0.423 0.145 0.63 0.207 0.031 0.103 0.072 0.207 0.103 0.32 0.072 0.031 0.145 0.072 0.207 0.103 0.103 0.32 0.207 0.63 0.32 0.95-0.207 0.031-0.423 0.072-0.63 0.103 0 0.031 0 0.072 0 0.103-0.124 0.124-0.041 0-0.103 0.207 0.32 0 0.63 0 0.95 0 0 0.103 0 0.207 0 0.32-0.103 0.072-0.207 0.145-0.32 0.207 0 0.031 0 0.072 0 0.103-0.072 0-0.145 0-0.207 0-0.031 0.072-0.072 0.145-0.103 0.207-0.372 0.248-0.743 0.31-1.363 0.32-0.351-0.145-0.702-0.279-1.053-0.423 0 0.031 0 0.072 0 0.103 0.031 0 0.072 0 0.103 0 0 0.103 0 0.207 0 0.32 0.031 0 0.072 0 0.103 0 0 0.031 0 0.072 0 0.103 0.114 0.062 0.165 0.186 0.207 0.207 0.072 0 0.145 0 0.207 0 0 0.031 0 0.072 0 0.103 0.103 0 0.207 0 0.32 0 0 0.031 0 0.072 0 0.103 0.072 0 0.145 0 0.207 0 0 0.031 0 0.072 0 0.103 0.072 0 0.145 0 0.207 0 0.031 0.072 0.072 0.145 0.103 0.207 0.207 0.052 0.134-0.062 0.207-0.103 0.145-0.031 0.279-0.072 0.423-0.103 0.031-0.072 0.072-0.145 0.103-0.207 0.145-0.031 0.279-0.072 0.423-0.103 0.423-0.227 0.506-0.475 1.157-0.527 0.124 0.651 0.547 0.805 0.63 1.477-0.444 0.248-0.94 0.681-1.157 1.157-0.072 0-0.145 0-0.207 0-0.103-0.186-0.237-0.31-0.423-0.423-0.041 0.444-0.196 0.589-0.63 0.63 0.031-0.145 0.072-0.279 0.103-0.423-0.031 0-0.072 0-0.103 0-0.32 0.279-0.805 0.062-1.26 0.207 0 0.031 0 0.072 0 0.103-0.103 0-0.207 0-0.32 0 0 0.031 0 0.072 0 0.103-0.145 0.031-0.279 0.072-0.423 0.103 0 0.031 0 0.072 0 0.103-0.072 0-0.145 0-0.207 0 0 0.031 0 0.072 0 0.103-0.103 0-0.207 0-0.32 0-0.031 0.072-0.072 0.145-0.103 0.207-0.103 0-0.207 0-0.32 0 0 0.031 0 0.072 0 0.103-0.072 0-0.145 0-0.207 0-0.031 0.072-0.072 0.145-0.103 0.207-0.103 0-0.207 0-0.32 0-0.031 0.072-0.072 0.145-0.103 0.207-0.207 0.072-0.423 0.145-0.63 0.207 0 0.031 0 0.072 0 0.103-0.103 0.031-0.207 0.072-0.32 0.103-0.031 0.072-0.072 0.145-0.103 0.207-0.145 0.031-0.279 0.072-0.423 0.103 0 0.031 0 0.072 0 0.103-0.103 0.031-0.207 0.072-0.32 0.103-0.031 0.072-0.072 0.145-0.103 0.207-0.072 0-0.145 0-0.207 0-0.031 0.072-0.072 0.145-0.103 0.207-0.072 0-0.145 0-0.207 0-0.072 0.103-0.145 0.207-0.207 0.32-0.072 0-0.145 0-0.207 0-0.176 0.207-0.351 0.423-0.527 0.63-0.072 0.031-0.145 0.072-0.207 0.103 0 0.072 0 0.145 0 0.207-0.103 0.072-0.207 0.145-0.32 0.207-0.31 0.444-0.361 0.991-0.95 1.157-0.031-0.207-0.072-0.423-0.103-0.63-0.031 0-0.072 0-0.103 0 0.031 0.496 0.072 0.981 0.103 1.477-0.031 0-0.072 0-0.103 0-0.031 0.176-0.072 0.351-0.103 0.527-0.723 0.32-2.034 0.32-3.056 0.32-0.382 0-0.774 0-1.157 0-0.496-0.186-0.681-0.888-1.26-1.053 0-0.072 0-0.145 0-0.207-0.072 0-0.145 0-0.207 0 0-0.072 0-0.145 0-0.207-0.537-0.145-1.291-1.187-1.683-1.58-1.053-1.012-2.106-2.034-3.16-3.046-0.423-0.454-0.847-0.909-1.26-1.363-0.527-0.299-1.601-0.207-2.416-0.207-1.828 0-3.645 0-5.473 0-0.072-0.207-0.145-0.423-0.207-0.63-0.878 0.176-1.838 0.31-2.736 0 0-0.031 0-0.072 0-0.103-0.145 0-0.279 0-0.423 0 0-0.031 0-0.072 0-0.103-0.279-0.134-0.413-0.238-0.733-0.32-0.031-0.176-0.072-0.351-0.103-0.527 0.392-0.248 0.403-0.764 0.733-1.053 0.496 0.599 1.776 0.919 2.736 0.733 0-0.031 0-0.072 0-0.103-0.145-0.124-0.165-0.196-0.207-0.423-0.341 0.083-0.702 0.382-0.95 0.207-0.031 0-0.072 0-0.103 0 0-0.207 0-0.423 0-0.63-0.805-0.031-1.611-0.072-2.416-0.103 0 0.103 0 0.207 0 0.32-0.031 0-0.072 0-0.103 0-0.062 0.238-0.093 0.268-0.207 0.423-0.031 0-0.072 0-0.103 0-0.031 0.103-0.072 0.207-0.103 0.32-0.072 0.031-0.145 0.072-0.207 0.103 0 0.072 0 0.145 0 0.207-0.072 0.031-0.145 0.072-0.207 0.103-0.103 0.145-0.207 0.279-0.32 0.423-0.072 0-0.145 0-0.207 0-0.072 0.103-0.145 0.207-0.207 0.32-0.145 0.031-0.279 0.072-0.423 0.103 0 0.031 0 0.072 0 0.103-0.207 0.072-0.423 0.145-0.63 0.207 0 0.031 0 0.072 0 0.103-0.145 0-0.279 0-0.423 0-1.342 0.444-2.375 0.114-3.366-0.423-0.145-0.031-0.279-0.072-0.423-0.103-0.072-0.103-0.145-0.207-0.207-0.32-0.072 0-0.145 0-0.207 0-0.145-0.176-0.279-0.351-0.423-0.527-0.072-0.031-0.145-0.072-0.207-0.103 0-0.072 0-0.145 0-0.207-0.103-0.072-0.207-0.145-0.32-0.207 0-0.072 0-0.145 0-0.207-0.031 0-0.072 0-0.103 0-0.124-0.217 0-0.238-0.207-0.423-0.248 0.361-0.62 0.248-1.053 0.423 0 0.031 0 0.072 0 0.103-0.103 0-0.207 0-0.32 0 0 0.031 0 0.072 0 0.103-0.145 0-0.279 0-0.423 0 0 0.031 0 0.072 0 0.103-0.145 0-0.279 0-0.423 0 0 0.031 0 0.072 0 0.103-0.176 0-0.351 0-0.527 0 0 0.031 0 0.072 0 0.103-0.176 0-0.351 0-0.527 0 0 0.031 0 0.072 0 0.103-0.351 0-0.702 0-1.053 0 0 0.031 0 0.072 0 0.103-0.496 0-0.981 0-1.477 0-0.155 0.041-0.63 0.196-0.95 0.103 0-0.031 0-0.072 0-0.103-1.714 0-3.439 0-5.153 0-0.010-0.671 0.103-1.311 0.207-1.89 0.103-0.031 0.207-0.072 0.32-0.103 0-0.031 0-0.072 0-0.103 0.248 0.031 0.496 0.072 0.733 0.103 0-0.031 0-0.072 0-0.103 0.145-0.031 0.279-0.072 0.423-0.103 0.083-0.33 0.31-0.485 0.423-0.733 0-0.103 0-0.207 0-0.32 0.031 0 0.072 0 0.103 0 0-0.072 0-0.145 0-0.207 0.072-0.031 0.145-0.072 0.207-0.103 0-0.072 0-0.145 0-0.207 0.072-0.031 0.145-0.072 0.207-0.103 0.145-0.176 0.279-0.351 0.423-0.527 0.207-0.072 0.423-0.145 0.63-0.207 0-0.031 0-0.072 0-0.103 0.145 0 0.279 0 0.423 0 0-0.031 0-0.072 0-0.103 0.496 0 0.981 0 1.477 0 0-0.031 0-0.072 0-0.103 0.072 0 0.145 0 0.207 0 0-0.031 0-0.072 0-0.103 0.103 0 0.207 0 0.32 0 0.031-0.072 0.072-0.145 0.103-0.207 0.103-0.031 0.207-0.072 0.32-0.103 0-0.031 0-0.072 0-0.103 0.145-0.031 0.279-0.072 0.423-0.103 0-0.031 0-0.072 0-0.103 0.072 0 0.145 0 0.207 0 0-0.031 0-0.072 0-0.103 0.072 0 0.145 0 0.207 0 0-0.031 0-0.072 0-0.103 0.072 0 0.145 0 0.207 0 0-0.031 0-0.072 0-0.103 0.072 0 0.145 0 0.207 0 0-0.031 0-0.072 0-0.103 0.072 0 0.145 0 0.207 0 0.072-0.103 0.145-0.207 0.207-0.32 0.072 0 0.145 0 0.207 0 0-0.031 0-0.072 0-0.103 0.103 0 0.207 0 0.32 0 0-0.031 0-0.072 0-0.103 0.103 0 0.207 0 0.32 0 0-0.031 0-0.072 0-0.103 0.207-0.072 0.423-0.145 0.63-0.207 0.103-0.351 0.207-0.702 0.32-1.053 0.207 0 0.423 0 0.63 0 0.155-0.268 0.609-0.651 0.95-0.733 0.145-0.878 0.279-1.755 0.423-2.633 1.301 0 2.592 0 3.893 0 0 0.031 0 0.072 0 0.103 0.207 0.031 0.423 0.072 0.63 0.103 0 0.031 0 0.072 0 0.103 0.072 0 0.145 0 0.207 0 0.031 0.072 0.072 0.145 0.103 0.207 0.031 0 0.072 0 0.103 0 0-0.031 0-0.072 0-0.103 0.392-0.227 0.527-0.496 1.157-0.527 0.031-0.176 0.072-0.351 0.103-0.527 0.031 0 0.072 0 0.103 0 0.124-0.372 0-0.878 0.103-1.156 0.103-0.031 0.207-0.072 0.32-0.103 0-0.031 0-0.072 0-0.103 0.496 0 0.981 0 1.477 0 0 0.031 0 0.072 0 0.103 0.578 0.165 1.487-0.041 2.003 0.103 2.489 0.031 4.977 0.072 7.476 0.103 4.172 0 8.354 0 12.525 0 2.003 0 3.996 0 5.999 0 0 0.031 0 0.072 0 0.103 0.599 0.165 2.468-0.021 2.943-0.103 0.63 0 1.26 0 1.89 0 1.435 0 2.881 0 4.316 0 0 0.031 0 0.072 0 0.103 0.176 0 0.351 0 0.527 0 0.176 0.248 0.351 0.496 0.527 0.733 0.072 0.031 0.145 0.072 0.207 0.103 0 0.072 0 0.145 0 0.207 0.103 0.072 0.207 0.145 0.32 0.207 0 0.072 0 0.145 0 0.207 0.031 0 0.072 0 0.103 0 0.072 0.207 0.145 0.423 0.207 0.63 0.031 0 0.072 0 0.103 0 0.031 0.176 0.072 0.351 0.103 0.527 0.031 0 0.072 0 0.103 0 0 0.103 0 0.207 0 0.32 0.083 0.196 0.227 0.516 0.32 0.733-0.031 0-0.072 0-0.103 0-0.062 0.041-0.010 0.176-0.207 0.103 0-0.031 0-0.072 0-0.103-0.237-0.217-0.485-0.836-0.63-1.156-0.031 0-0.072 0-0.103 0-0.041 0.196-0.072 0.372-0.103 0.547zM16.346 13.176c0-0.072 0-0.145 0-0.207-0.279-0.145-0.176-0.186-0.63-0.207-0.196-0.176-0.795-0.114-1.156-0.103-0.031 0.103-0.072 0.207-0.103 0.32-0.124 0.134-0.196 0.599-0.207 0.847 0.031 0 0.072 0 0.103 0 0.32-0.589 0.836-0.754 1.786-0.733 0.114 0.093 0 0.021 0.207 0.083zM15.716 21.478c0 0.072 0 0.145 0 0.207 0.392 0.052 0.558 0.227 0.847 0.32 0.578 0.186 1.724-0.134 2.003-0.32 0-0.031 0-0.072 0-0.103 0.145-0.103 0.279-0.207 0.423-0.32 0-0.031 0-0.072 0-0.103-0.981 0-1.962 0-2.943 0 0-0.031 0-0.072 0-0.103-0.279 0-0.558 0-0.847 0 0 0.031 0 0.072 0 0.103 0.124 0.093 0.010-0.010 0.103 0.103 0.176 0.114 0.155 0.155 0.413 0.217z"></path>
<path fill="#f00" style="fill: var(--color2, #f00)" d="M33.074 24.978h-24.545c0 0-0.021 0-0.021 0s3.914-2.303 3.914-2.303c-0.651-0.847-0.651-0.857-1.012-2.055h-0.010c-6.567 3.831-11.4 6.66-11.4 6.66 12.185 0 23.171 0.010 35.356 0.010-0.165-0.155-1.239-1.218-1.249-1.218 0-0.021-0.95-1.002-1.033-1.095zM50.328 27.281h11.431l-15.148-27.281c0 0-19.165 11.193-19.155 11.204 0.434 0.33 1.187 1.518 1.311 2.075 8.756-5.060 17.038-9.841 17.038-9.841l11.834 21.54h-2.003c-1.425 0.423-3.686 1.167-5.308 2.303zM28.768 13.279c0 0 0 0 0 0s0 0 0 0c0 0.010 0 0.010 0 0z"></path>
<path fill="#f00" style="fill: var(--color2, #f00)" d="M23.832 10.997c0 0.072 0 0.145 0 0.217 0.145 0.031 0.279 0.072 0.423 0.103 0-0.072 0-0.145 0-0.217 0.072 0 0.145 0 0.207 0-0.268-0.238-0.485-0.041-0.733-0.423 0.072 0 0.145 0 0.207 0 0.124 0.083 0.485-0.021 0.847 0.103 0.444 0.165 1.249 0.568 1.477 0.95 0.031 0 0.072 0 0.103 0-0.031 0.103-0.072 0.217-0.103 0.32 0.031 0 0.072 0 0.103 0 0 0.031 0 0.072 0 0.103 0.103-0.031 0.207-0.072 0.32-0.103 0.134 0.062-0.041 0.062 0.103 0.103 0.103 0.145 0.207 0.279 0.32 0.423 0.031 0 0.072 0 0.103 0 0 0.072 0 0.145 0 0.217 0.072 0.031 0.145 0.072 0.207 0.103 0.516 0.816 0.826 2.602 0.423 3.707-0.599-0.268-1.115-0.516-2.003-0.527 0.031-0.32 0.072-0.64 0.103-0.95-0.031 0-0.072 0-0.103 0 0-0.176 0-0.351 0-0.527-0.031 0-0.072 0-0.103 0-0.031-0.176-0.072-0.351-0.103-0.527-0.031 0-0.072 0-0.103 0-0.031-0.103-0.072-0.217-0.103-0.32 0.413 0.072 0.651 0.196 1.157 0.217 0-0.031 0-0.072 0-0.103-0.176-0.062-0.289-0.041-0.527-0.103 0-0.031 0-0.072 0-0.103-0.031 0-0.072 0-0.103 0 0 0.031 0 0.072 0 0.103-0.238 0.021-0.207-0.103-0.207-0.103-0.176 0-0.351 0-0.527 0-0.103-0.145-0.207-0.279-0.32-0.423-0.072 0-0.145 0-0.207 0-0.031-0.072-0.072-0.145-0.103-0.217-0.103 0-0.207 0-0.32 0 0-0.031 0-0.072 0-0.103-0.103 0-0.207 0-0.32 0 0-0.031 0-0.072 0-0.103-0.454-0.155-1.229-0.010-1.58 0.103 0 0.031 0 0.072 0 0.103-0.176-0.031-0.351-0.072-0.527-0.103 0 0.031 0 0.072 0 0.103 0.072 0 0.145 0 0.207 0 0 0.031 0 0.072 0 0.103-0.031 0-0.072 0-0.103 0-0.155 0.238-0.475 0.31-0.63 0.527 0 0.072 0 0.145 0 0.217-0.072 0.031-0.145 0.072-0.207 0.103 0 0.072 0 0.145 0 0.217-0.031 0-0.072 0-0.103 0 0 0.072 0 0.145 0 0.217-0.031 0-0.072 0-0.103 0 0 0.103 0 0.217 0 0.32-0.031 0-0.072 0-0.103 0-0.258 0.785 0.299 2.179 0.527 2.54 0.072 0.031 0.145 0.072 0.207 0.103 0.031 0.217 0.072 0.423 0.103 0.64 0.031 0 0.072 0 0.103 0 0 0.072 0 0.145 0 0.217 0.031 0 0.072 0 0.103 0 0.093 0.258-0.114 0.506 0.103 0.64 0 0.031 0 0.072 0 0.103-0.103 0.145-0.083-0.093-0.207 0.103 0.072 0 0.145 0 0.207 0 0.010 0.785-0.114 1.384-0.32 1.91 0 0.103 0 0.217 0 0.32-0.031 0-0.072 0-0.103 0-0.072 0.217-0.145 0.423-0.207 0.64-0.867 0-1.57-0.372-2.323-0.527 0-0.031 0-0.072 0-0.103 0.361-0.238 0.723-1.105 0.847-1.59-0.031-0.248-0.072-0.496-0.103-0.743 0.434 0.052 1.301 0.444 1.58 0.217-0.382 0-1.404-0.248-1.58-0.423-0.031 0-0.072 0-0.103 0 0-0.145 0-0.279 0-0.423-0.072-0.031-0.145-0.072-0.207-0.103-0.031-0.145-0.072-0.279-0.103-0.423 0.165-0.062 0.176-0.083 0.423-0.103 0.155 0.196 0.589 0.434 0.847 0.217-0.475-0.031-0.712-0.186-1.157-0.32 0-0.031 0-0.072 0-0.103-0.103 0.031-0.207 0.072-0.32 0.103 0-0.031 0-0.072 0-0.103-0.031 0-0.072 0-0.103 0-0.031-0.217-0.072-0.423-0.103-0.64 0.114 0.021 0.568 0.207 0.733 0.103 0-0.031 0-0.072 0-0.103-0.072 0-0.145 0-0.207 0 0.031-0.145 0.072-0.279 0.103-0.423 0.072 0 0.145 0 0.207 0-0.145-0.165-0.227-0.186-0.527-0.217 0 0.031 0 0.072 0 0.103 0.072 0 0.145 0 0.207 0-0.031 0.145-0.072 0.279-0.103 0.423-0.103 0-0.207 0-0.32 0-0.072-0.289-0.031-0.238-0.32-0.32-0.031-0.454-0.072-0.919-0.103-1.373 0.031 0 0.072 0 0.103 0 0-0.217 0-0.423 0-0.64 0.186-0.599 0.589-1.714 1.053-2.014 0-0.031 0-0.072 0-0.103 0.103 0.031 0.207 0.072 0.32 0.103 0-0.031 0-0.072 0-0.103 0.072 0 0.145 0 0.207 0-0.103-0.33-0.103-0.103 0-0.423 0.083 0.031 0.33 0.217 0.527 0.103 0-0.031 0-0.072 0-0.103-0.32-0.031-0.289-0.010-0.423-0.217 0.124-0.093 0.010 0.010 0.103-0.103 0.103 0.031 0.207 0.072 0.32 0.103 0-0.103 0-0.217 0-0.32 0.103-0.031 0.207-0.072 0.32-0.103 0-0.031 0-0.072 0-0.103 0.072 0 0.145 0 0.207 0 0-0.031 0-0.072 0-0.103 0.207-0.031 0.423-0.072 0.63-0.103 0-0.031 0-0.072 0-0.103 0.207 0 0.423 0 0.63 0 0 0 0.093-0.165 0.32-0.103 0 0.031 0 0.072 0 0.103 0.299 0.031 0.62 0.103 0.94 0.165zM12.98 11.214c0.558 0 1.126 0 1.683 0 0 0.031 0 0.072 0 0.103 0.031 0 0.072 0 0.103 0 0-0.031 0-0.072 0-0.103 0.733 0 1.477 0 2.21 0 0 0.031 0 0.072 0 0.103 0.248 0.072 0.496 0.145 0.733 0.217 0.083 0.155 0.289 0.423 0.423 0.527 0.031 1.322-0.289 1.828-1.157 2.22 0.186 0.217 0.248 0.093 0.423 0.217 0.176 0.217 0.351 0.423 0.527 0.64-0.021 0.248-0.041 0.258-0.103 0.423-0.031 0-0.072 0-0.103 0 0.021 0.176 0.207 0.196 0.207 0.217-0.031 0.176-0.072 0.351-0.103 0.527-0.072-0.031-0.145-0.072-0.207-0.103 0.299 0.268-0.041 0.506-0.207 0.64 0 0.031 0 0.072 0 0.103-0.176 0-0.351 0-0.527 0 0.031-0.103 0.072-0.217 0.103-0.32-0.072 0-0.145 0-0.207 0 0 0.103 0 0.217 0 0.32-0.248 0.021-0.258 0.041-0.423 0.103 0-0.103 0-0.217 0-0.32-0.031 0-0.072 0-0.103 0 0 0.031 0 0.072 0 0.103-0.031 0-0.072 0-0.103 0s-0.072 0-0.103 0c0-0.031 0-0.072 0-0.103-0.176 0-0.351 0-0.527 0-0.031-0.072-0.072-0.145-0.103-0.217-0.031 0-0.072 0-0.103 0 0 0.072 0 0.145 0 0.217 0.32 0.072 0.63 0.145 0.95 0.217 0 0.072 0 0.145 0 0.217-0.33 0.041-0.527 0.145-0.733 0.32-0.031 0.072-0.072 0.145-0.103 0.217-0.072 0-0.145 0-0.207 0 0 0.031 0 0.072 0 0.103-1.084 0-2.179 0-3.263 0-0.093-0.124 0.010-0.010-0.103-0.103 0-0.031 0-0.072 0-0.103 0.031 0 0.072 0 0.103 0 0-0.217 0-0.423 0-0.64 0.031 0 0.072 0 0.103 0 0-0.217 0-0.423 0-0.64 0.165-0.537 0.31-0.96 0.32-1.693 0.072 0 0.145 0 0.207 0-0.248-0.661 0.186-1.693 0.207-2.54 0.103 0 0.207 0 0.32 0 0-0.031 0-0.072 0-0.103-0.072 0-0.145 0-0.207 0 0-0.268 0.031-0.516 0.072-0.764zM21.509 11.214c0.052 0.041 0.134 0.196 0.32 0.103 0-0.031 0-0.072 0-0.103-0.103 0-0.217 0-0.32 0zM23.409 11.42c-0.010 0.33-0.207 0.196 0.103 0.32 0.031-0.103 0.072-0.217 0.103-0.32-0.145-0.031-0.279-0.072-0.423-0.103 0 0.031 0 0.072 0 0.103 0.072 0 0.145 0 0.217 0zM22.985 11.534c-0.072 0-0.145 0-0.207 0 0 0.031 0 0.072 0 0.103 0.031 0 0.072 0 0.103 0 0 0.031 0 0.072 0 0.103 0.031 0 0.072 0 0.103 0 0-0.072 0-0.145 0-0.207zM16.346 11.637c0 0.103 0 0.217 0 0.32 0.031 0 0.072 0 0.103 0 0-0.031 0-0.072 0-0.103 0.207 0.031 0.423 0.072 0.63 0.103 0-0.031 0-0.072 0-0.103-0.238-0.072-0.485-0.145-0.733-0.217zM24.359 11.957c-0.072 0-0.145 0-0.207 0 0.093 0.124-0.010 0.010 0.103 0.103 0 0.031 0 0.072 0 0.103 0.114-0.114 0.041 0 0.103-0.207zM14.136 12.484c0-0.072 0-0.145 0-0.217-0.145 0-0.279 0-0.423 0 0 0.031 0 0.072 0 0.103 0.031 0 0.072 0 0.103 0 0 0.031 0 0.072 0 0.103 0.103 0.010 0.217 0.010 0.32 0.010zM14.343 12.381c0.124 0.124 0 0.041 0.207 0.103-0.114-0.124 0.010-0.041-0.207-0.103zM23.729 12.484c0.124 0.145 0.196 0.165 0.423 0.217-0.134-0.155-0.196-0.165-0.423-0.217zM19.619 12.907c0.072 0 0.145 0 0.207 0 0 0.031 0 0.072 0 0.103 0.103-0.031 0.207-0.072 0.32-0.103 0.031-0.072 0.072-0.145 0.103-0.217-0.124-0.093-0.010 0.010-0.103-0.103-0.207 0.072-0.207 0.145-0.423 0 0 0.031 0 0.072 0 0.103-0.124 0.124-0.041 0-0.103 0.217zM21.085 12.587c-0.072 0-0.145 0-0.207 0 0.093 0.124-0.010 0.010 0.103 0.103 0 0.031 0 0.072 0 0.103 0.031 0 0.072 0 0.103 0 0-0.062 0-0.134 0-0.207zM14.446 12.691c-0.062 0.32-0.238 0.878-0.103 1.064 0.196 0.176 0.795 0.114 1.156 0.103 0-0.031 0-0.072 0-0.103 0.207-0.031 0.423-0.072 0.63-0.103 0.031-0.103 0.072-0.217 0.103-0.32 0.031 0 0.072 0 0.103 0 0-0.145 0-0.279 0-0.423 0.072 0 0.145 0 0.207 0 0-0.031 0-0.072 0-0.103-0.103 0.031-0.207 0.072-0.32 0.103-0.031-0.072-0.072-0.145-0.103-0.217-0.547 0-1.105 0-1.673 0zM20.672 13.114c0.124 0.124 0 0.041 0.207 0.103-0.124-0.114 0-0.031-0.207-0.103zM26.248 13.434c0 0.072 0 0.145 0 0.217 0.031 0 0.072 0 0.103 0 0-0.072 0-0.145 0-0.217-0.031 0-0.062 0-0.103 0zM15.086 13.971c-0.072 0-0.145 0-0.207 0 0.093 0.124-0.010 0.010 0.103 0.103 0 0.031 0 0.072 0 0.103 0.031 0 0.072 0 0.103 0 0-0.072 0-0.145 0-0.207zM22.985 14.498c0.207 0 0.423 0 0.63 0 0 0.031 0 0.072 0 0.103 0.671 0.155 0.578 0.64 0.527 1.27-0.103 0.072-0.207 0.145-0.32 0.217 0 0.031 0 0.072 0 0.103-0.072 0-0.145 0-0.207 0 0 0.031 0 0.072 0 0.103-0.413 0.145-1.084-0.268-1.157-0.423 0-0.32 0-0.64 0-0.95 0.155-0.083 0.423-0.299 0.527-0.423zM14.033 15.024c-0.031 0.32-0.072 0.64-0.103 0.95-0.072 0.031-0.145 0.072-0.207 0.103 0 0.031 0 0.072 0 0.103 0.031 0 0.072 0 0.103 0 0 0.031 0 0.072 0 0.103 0.207 0 0.423 0 0.63 0 0 0.103 0 0.217 0 0.32 0.031 0 0.072 0 0.103 0 0-0.103 0-0.217 0-0.32 0.351 0 0.702 0 1.053 0 0-0.031 0-0.072 0-0.103 0.072 0 0.145 0 0.207 0 0-0.031 0-0.072 0-0.103 0.072 0.031 0.145 0.072 0.207 0.103 0-0.072 0-0.145 0-0.217 0.072 0 0.145 0 0.207 0-0.062-0.392-0.062-0.279-0.103-0.743-0.176-0.031-0.351-0.072-0.527-0.103-0.031-0.072-0.072-0.145-0.103-0.217 0.010 0.021-1.208 0.124-1.466 0.124zM16.873 15.344c0.145 0.031 0.279 0.072 0.423 0.103-0.103-0.124-0.268-0.238-0.423-0.32 0 0.072 0 0.145 0 0.217zM19.723 15.344c-0.072 0-0.145 0-0.207 0 0.093 0.124-0.010 0.010 0.103 0.103 0 0.031 0 0.072 0 0.103 0.031 0 0.072 0 0.103 0 0-0.072 0-0.134 0-0.207zM17.399 15.448c0.124 0.124 0 0.041 0.207 0.103-0.114-0.114 0.010-0.041-0.207-0.103zM13.289 15.551c0.114 0.186 0.062 0.145 0.32 0.217 0.093-0.124-0.010-0.010 0.103-0.103 0-0.031 0-0.072 0-0.103-0.145-0.010-0.279-0.010-0.423-0.010zM20.032 15.664c0.124 0.124 0 0.041 0.207 0.103-0.114-0.124 0.010-0.041-0.207-0.103zM13.289 15.974c0 0.031 0 0.072 0 0.103-0.031 0-0.072 0-0.103 0-0.196 0.093 0.207 0.103 0.207 0.103 0.093 0.124-0.010 0.010 0.103 0.103-0.062-0.238-0.031-0.186-0.207-0.31zM20.352 16.398c0.124 0.124 0 0.041 0.207 0.103-0.114-0.114 0-0.031-0.207-0.103zM16.139 16.511c0.124 0.124 0 0.041 0.207 0.103-0.114-0.124 0-0.041-0.207-0.103zM26.775 18.834c-0.103 0-0.207 0-0.32 0 0-0.072 0-0.145 0-0.217-0.671-0.124-1.187-0.238-1.9-0.103-0.145 0.279-0.186 0.176-0.207 0.64 0.103 0.031 0.207 0.072 0.32 0.103 0 0.031 0 0.072 0 0.103 0.072 0 0.145 0 0.207 0 0 0.031 0 0.072 0 0.103 0.145 0 0.279 0 0.423 0 0.599 0.207 1.601 0.454 1.9 0.95 0.124 0.093 0.010-0.010 0.103 0.103-0.103 0-0.207 0-0.32 0 0 0.031 0 0.072 0 0.103 0.527 0.010 0.537 0.103 0.527 0.64 0.031 0 0.072 0 0.103 0 0.010 0.093-0.268 1.187-0.32 1.27-0.103 0.072-0.207 0.145-0.32 0.217 0 0.072 0 0.145 0 0.217-0.031 0-0.072 0-0.103 0-0.072 0.103-0.145 0.217-0.207 0.32-0.547 0.392-1.9 0.795-2.736 0.527-0.176 0-0.351 0-0.527 0 0-0.031 0-0.072 0-0.103-0.072 0-0.145 0-0.207 0 0-0.031 0-0.072 0-0.103-0.372-0.145-0.578 0.062-0.847-0.217-0.124-0.124-0.041 0-0.103-0.217-0.072 0-0.145 0-0.207 0 0.031-0.072 0.072-0.145 0.103-0.217-0.031 0-0.072 0-0.103 0-0.062 0.041-0.010 0.176-0.207 0.103 0-0.031 0-0.072 0-0.103-0.031 0-0.072 0-0.103 0 0-0.103 0-0.217 0-0.32 0.134-0.083 0.124-0.072 0.207-0.217 0.145 0 0.279 0 0.423 0 0 0.072 0 0.145 0 0.217 0.207-0.031 0.423-0.072 0.63-0.103 0-0.031 0-0.072 0-0.103-0.423-0.052-0.372-0.176-0.847-0.217 0.072-0.207 0.145-0.423 0.207-0.64 0.351 0.217 0.702 0.423 1.053 0.64 0.279 0.031 0.558 0.072 0.847 0.103 0 0.031 0 0.072 0 0.103 0.774 0.217 1.342-0.227 1.373-0.847-0.114-0.052-0.186-0.196-0.207-0.217-0.103 0-0.207 0-0.32 0-0.795-0.341-2.003-0.434-2.427-1.167-0.031 0-0.072 0-0.103 0-0.031-0.217-0.072-0.423-0.103-0.64 0.248 0.031 0.496 0.072 0.733 0.103 0-0.031 0-0.072 0-0.103-0.248-0.031-0.496-0.072-0.733-0.103-0.010-0.702 0.196-0.867 0.32-1.373 0.145 0 0.279 0 0.423 0 0 0.031 0 0.072 0 0.103 0.031 0 0.072 0 0.103 0 0.031-0.072 0.072-0.145 0.103-0.217 0.207 0 0.423 0 0.63 0 0-0.031 0-0.072 0-0.103 0.103 0 0.207 0 0.32 0 0-0.031 0-0.072 0-0.103 0.072 0 0.145 0 0.207 0 0.031-0.072 0.072-0.145 0.103-0.217 0.072 0 0.145 0 0.207 0 0.176-0.217 0.351-0.423 0.527-0.64 0.351 0 0.702 0 1.053 0 0 0.031 0 0.072 0 0.103 0.248 0.031 0.496 0.072 0.733 0.103 0 0.031 0 0.072 0 0.103 0.072 0 0.145 0 0.207 0 0.052 0.031 0.093 0.145 0.207 0.217-0.031 0.103-0.072 0.217-0.103 0.32-0.031 0-0.072 0-0.103 0 0 0.072 0 0.145 0 0.217-0.031 0-0.072 0-0.103 0 0 0.072 0 0.145 0 0.217-0.031 0-0.072 0-0.103 0-0.165 0.248-0.32 0.351-0.413 0.661zM47.117 18.731c-0.031 0.176-0.072 0.351-0.103 0.527 0.279 0.145 0.558 0.279 0.847 0.423 0.145 0 0.279 0 0.423 0 0.64 0.217 1.621 0.485 1.786 1.167 0.114 0.114 0.299 0.537 0.207 0.847-0.031 0-0.072 0-0.103 0 0 0.176 0 0.351 0 0.527-0.031 0-0.072 0-0.103 0-0.031 0.145-0.072 0.279-0.103 0.423-0.031 0-0.072 0-0.103 0 0 0.072 0 0.145 0 0.217-0.072 0.031-0.145 0.072-0.207 0.103-0.145 0.176-0.279 0.351-0.423 0.527-0.072 0-0.145 0-0.207 0 0 0.031 0 0.072 0 0.103-0.145 0.031-0.279 0.072-0.423 0.103 0 0.031 0 0.072 0 0.103-0.32 0.134-1.611 0.361-2.106 0.217 0-0.031 0-0.072 0-0.103-0.207 0-0.423 0-0.63 0 0-0.031 0-0.072 0-0.103-0.103 0-0.207 0-0.32 0 0-0.031 0-0.072 0-0.103-0.103 0-0.207 0-0.32 0 0-0.031 0-0.072 0-0.103-0.072 0-0.145 0-0.207 0 0-0.031 0-0.072 0-0.103-0.072 0-0.145 0-0.207 0 0-0.031 0-0.072 0-0.103-0.186-0.155-0.248-0.238-0.527-0.32 0-0.103 0-0.217 0-0.32 0.403-0.238 0.558-0.712 1.053-0.847 0-0.072 0-0.145 0-0.217 0.103 0.031 0.207 0.072 0.32 0.103 0 0.031 0 0.072 0 0.103 0.072 0 0.145 0 0.207 0 0.031 0.072 0.072 0.145 0.103 0.217 0.145 0.031 0.279 0.072 0.423 0.103 0 0.031 0 0.072 0 0.103 0.485 0.207 1.311 0.083 1.786 0 0.072-0.186 0.103-0.33 0.103-0.64-0.103-0.031-0.207-0.072-0.32-0.103 0-0.031 0-0.072 0-0.103-0.072 0-0.145 0-0.207 0 0-0.031 0-0.072 0-0.103-0.145 0-0.279 0-0.423 0-0.64-0.227-1.828-0.485-2.003-1.167-0.207-0.196-0.217-0.537-0.207-0.95 0.103 0.031 0.207 0.072 0.32 0.103 0-0.031 0-0.072 0-0.103-0.217-0.145-0.196-0.176-0.207-0.527 0.031 0 0.072 0 0.103 0 0-0.103 0-0.217 0-0.32 0.072-0.031 0.145-0.072 0.207-0.103 0-0.072 0-0.145 0-0.217 0.176-0.145 0.351-0.279 0.527-0.423 0-0.031 0-0.072 0-0.103 0.072 0 0.145 0 0.207 0 0-0.031 0-0.072 0-0.103 0.207-0.072 0.423-0.145 0.63-0.217 0-0.031 0-0.072 0-0.103 0.279-0.114 1.797-0.238 2.21-0.103 0 0.031 0 0.072 0 0.103 0.145 0 0.279 0 0.423 0 0 0.031 0 0.072 0 0.103 0.207 0.072 0.423 0.145 0.63 0.217 0 0.031 0 0.072 0 0.103 0.072 0 0.145 0 0.207 0 0 0.031 0 0.072 0 0.103 0.103 0.072 0.207 0.145 0.32 0.217-0.093 0.124 0.010 0.010-0.103 0.103-0.32 0.392-0.63 0.774-0.95 1.167-0.227 0.072-0.888-0.465-1.053-0.527-0.145 0-0.279 0-0.423 0-0.609-0.196-0.537 0-1.053 0.103zM28.995 17.141c0.599 0 1.198 0 1.786 0-0.031 0.351-0.072 0.702-0.103 1.064-0.072 0-0.145 0-0.207 0 0.196 0.496-0.052 1.508-0.207 2.014 0 0.217 0 0.423 0 0.64-0.031 0-0.072 0-0.103 0 0 0.031 0 0.072 0 0.103-0.103 0-0.207 0-0.32 0 0-0.031 0-0.072 0-0.103-0.207-0.031-0.423-0.072-0.63-0.103 0 0.031 0 0.072 0 0.103 0.124 0.124 0.041 0 0.103 0.217-0.176-0.031-0.351-0.072-0.527-0.103 0 0.031 0 0.072 0 0.103 0.361 0.031 0.434 0.103 0.733 0.217 0 0.031 0 0.072 0 0.103 0.031 0 0.072 0 0.103 0 0-0.031 0-0.072 0-0.103 0.145 0.031 0.279 0.072 0.423 0.103-0.103 0.774-0.207 1.549-0.32 2.334-0.103 0.031-0.207 0.072-0.32 0.103-0.238 0.217-1.146 0.114-1.58 0.103 0.031-0.351 0.072-0.702 0.103-1.064 0.072-0.031 0.145-0.072 0.207-0.103-0.021-0.134-0.186-0.186-0.103-0.423 0.031 0 0.072 0 0.103 0 0-0.072 0-0.145 0-0.217 0.031 0 0.072 0 0.103 0 0.083-0.248-0.072-0.258-0.103-0.32 0-0.031 0-0.072 0-0.103 0.031 0 0.072 0 0.103 0 0-0.217 0-0.423 0-0.64 0.031 0 0.072 0 0.103 0 0.114-0.176 0.145-0.176 0.207-0.423 0.072 0 0.145 0 0.207 0 0-0.031 0-0.072 0-0.103-0.268-0.155-0.299-0.217-0.32-0.64 0.207-0.919 0.382-1.838 0.558-2.757zM37.421 18.308c-0.072 0-0.145 0-0.207 0 0 0.031 0 0.072 0 0.103 0.32 0.031 0.289 0.010 0.423 0.217 0.475 0.465 0.237 1.477 0.207 2.22-0.176 0-0.351 0-0.527 0 0 0.031 0 0.072 0 0.103 0.248 0.021 0.258 0.041 0.423 0.103-0.072 0.217-0.145 0.423-0.207 0.64-0.072 0.031-0.145 0.072-0.207 0.103-0.031 0.103-0.072 0.217-0.103 0.32-0.176-0.031-0.351-0.072-0.527-0.103 0 0.031 0 0.072 0 0.103 0.103 0 0.207 0 0.32 0 0 0.103 0 0.217 0 0.32-0.31 0.186-0.299 0.31-0.847 0.32-0.124-0.124 0-0.041-0.207-0.103 0-0.072 0-0.145 0-0.217-0.207 0.031-0.423 0.072-0.63 0.103 0.124 0.124 0 0.041 0.207 0.103 0 0.072 0 0.145 0 0.217-0.176 0-0.351 0-0.527 0 0 0.031 0 0.072 0 0.103 0.392 0.010 0.754 0.093 1.053 0.217-0.124 0.124 0 0.041-0.207 0.103-0.134 0.165-0.558 0.33-0.95 0.217-0.847-0.248-1.683-0.496-2.53-0.743 0-0.072 0-0.145 0-0.217-0.103 0-0.207 0-0.32 0 0-0.031 0-0.072 0-0.103-0.176 0.072-0.351 0.145-0.527 0.217 0 0.031 0 0.072 0 0.103 0.145 0 0.279 0 0.423 0 0 0.031 0 0.072 0 0.103 0.145 0 0.279 0 0.423 0-0.031 0.176-0.072 0.351-0.103 0.527 0.103 0.031 0.207 0.072 0.32 0.103 0-0.145 0-0.279 0-0.423 0.072 0 0.145 0 0.207 0 0.031 0.072 0.072 0.145 0.103 0.217 0.145 0 0.279 0 0.423 0 0-0.031 0-0.072 0-0.103 0.207 0.031 0.423 0.072 0.63 0.103 0.031 0.103 0.072 0.217 0.103 0.32 0.103 0 0.207 0 0.32 0 0-0.072 0-0.145 0-0.217 0.207 0.072 0.423 0.145 0.63 0.217 0 0.031 0 0.072 0 0.103-0.991 0.093-3.036 0.506-4.11 0.103 0.134-0.361 0.196-0.805 0.207-1.27 0.103 0 0.207 0 0.32 0 0-0.072 0-0.145 0-0.217-0.072 0-0.145 0-0.207 0 0.031-0.217 0.072-0.423 0.103-0.64 0.031 0 0.072 0 0.103 0 0.227 0.258 0.258 0.103 0.63 0.217 0 0.031 0 0.072 0 0.103 0.103-0.031 0.207-0.072 0.32-0.103 0 0.031 0 0.072 0 0.103 0.207 0.031 0.423 0.072 0.63 0.103 0 0.031 0 0.072 0 0.103 0.248 0 0.496 0 0.733 0 0.083 0.021 0.712 0.279 0.847 0.217 0-0.031 0-0.072 0-0.103-0.072 0-0.145 0-0.207 0-0.083-0.124 0.062-0.093 0.103-0.103 0-0.031 0-0.072 0-0.103 0.165-0.093 0.279 0.031 0.32 0.103 0.031 0 0.072 0 0.103 0 0.031-0.103 0.072-0.217 0.103-0.32 0.103-0.031 0.207-0.072 0.32-0.103 0.248-0.186 0.558-0.805 0.63-1.167 0.103 0 0.207 0 0.32 0 0-0.031 0-0.072 0-0.103-0.103-0.031-0.207-0.072-0.32-0.103 0-0.031 0-0.072 0-0.103 0.031 0 0.072 0 0.103 0-0.031-0.248-0.072-0.496-0.103-0.743-0.031 0-0.072 0-0.103 0 0-0.072 0-0.145 0-0.217-0.031 0-0.072 0-0.103 0-0.031-0.103-0.072-0.217-0.103-0.32-0.671-0.124-0.981-0.31-1.9-0.32-0.093 0.124 0.010 0.010-0.103 0.103-0.072 0.351-0.145 0.702-0.207 1.064-0.589-0.093-1.146-0.31-1.683-0.423 0-0.857 0.289-1.301 0.32-2.117 0.743-0.392 2.385-0.217 3.48-0.217 0 0.031 0 0.072 0 0.103 0.176 0 0.351 0 0.527 0 0 0.031 0 0.072 0 0.103 0.072 0 0.145 0 0.207 0 0 0.031 0 0.072 0 0.103 0.103 0 0.207 0 0.32 0 0 0.031 0 0.072 0 0.103 0.351 0.227 0.681 0.289 0.805 0.764zM44.278 18.731c-0.661 0-1.497 0-2.003-0.103-0.227-0.052-0.32 0.103-0.32 0.103-0.423 0-0.847 0-1.26 0-0.031 0.351-0.072 0.702-0.103 1.064-0.072 0-0.145 0-0.207 0 0 0.031 0 0.072 0 0.103 0.103 0 0.207 0 0.32 0 0-0.031 0-0.072 0-0.103 0.217-0.124 0.434 0.124 0.527 0.103 0-0.031 0-0.072 0-0.103 0.248 0 0.496 0 0.733 0 0 0.031 0 0.072 0 0.103 0.031 0 0.072 0 0.103 0 0-0.031 0-0.072 0-0.103 0.558 0 1.126 0 1.683 0-0.072 0.454-0.145 0.919-0.207 1.373-1.053 0-2.106 0-3.16 0-0.031 0.103-0.072 0.217-0.103 0.32-0.031 0-0.072 0-0.103 0 0 0.279 0 0.568 0 0.847 0.496 0 0.981 0 1.477 0 0 0.031 0 0.072 0 0.103 0.145 0.031 0.279 0.072 0.423 0.103 0-0.072 0-0.145 0-0.217 0.527 0 1.053 0 1.58 0-0.072 0.527-0.145 1.064-0.207 1.59-0.774 0-1.549 0-2.323 0 0-0.031 0-0.072 0-0.103-0.145 0-0.279 0-0.423 0 0-0.031 0-0.072 0-0.103-0.031 0-0.072 0-0.103 0-0.145 0.041 0.041 0.083-0.103 0.103-0.403-0.186-0.94-0.372-1.477-0.423 0 0.031 0 0.072 0 0.103 0.382 0.031 0.651 0.207 0.95 0.32 0.145 0 0.279 0 0.423 0 0 0.031 0 0.072 0 0.103-0.774 0-1.549 0-2.323 0 0-0.217 0-0.423 0-0.64 0.072 0 0.145 0 0.207 0-0.031-0.083-0.227-0.434-0.103-0.64 0.031 0 0.072 0 0.103 0 0-0.031 0-0.072 0-0.103 0.103 0 0.207 0 0.32 0 0.124 0.124 0 0.041 0.207 0.103-0.031 0.072-0.072 0.145-0.103 0.217 0.031 0 0.072 0 0.103 0 0 0.072 0 0.145 0 0.217 0.103 0.114 0.103-0.103 0.103-0.103 0.207 0.072 0.423 0.145 0.63 0.217 0-0.103 0-0.217 0-0.32 0.031 0 0.072 0 0.103 0 0.072 0.072 1.539 0.568 1.786 0.423 0-0.031 0-0.072 0-0.103-0.403-0.031-0.826-0.207-1.157-0.32-0.145 0-0.279 0-0.423 0 0-0.031 0-0.072 0-0.103-0.072 0-0.145 0-0.207 0 0-0.031 0-0.072 0-0.103-0.176 0-0.351 0-0.527 0 0-0.031 0-0.072 0-0.103-0.248-0.031-0.496-0.072-0.733-0.103 0-0.031 0-0.072 0-0.103-0.031 0-0.072 0-0.103 0 0-0.103 0-0.217 0-0.32 0.031 0 0.072 0 0.103 0 0-0.176 0-0.351 0-0.527 0.031 0 0.072 0 0.103 0 0-0.072 0-0.145 0-0.217 0.031 0 0.072 0 0.103 0 0.041-0.155-0.103-0.217-0.103-0.217-0.021-0.227 0.103-0.217 0.103-0.217 0-0.217 0-0.423 0-0.64 0.031 0 0.072 0 0.103 0 0.031-0.217 0.072-0.423 0.103-0.64 0.072 0 0.145 0 0.207 0-0.124-0.124 0-0.041-0.207-0.103 0-0.341 0.299-2.086 0.423-2.22 0.237-0.217 1.053-0.103 1.477-0.103 1.301 0 2.602 0 3.903 0 0 0.031 0 0.072 0 0.103-0.114 0.124-0.299 1.239-0.32 1.487zM26.465 17.564c0.124 0.145 0.196 0.165 0.423 0.217 0-0.031 0-0.072 0-0.103-0.124-0.093-0.010 0.010-0.103-0.103-0.114-0.010-0.217-0.010-0.32-0.010zM34.055 17.781c0.072 0 0.145 0 0.207 0 0-0.031 0-0.072 0-0.103-0.124-0.093-0.010 0.010-0.103-0.103-0.031 0-0.072 0-0.103 0 0 0.062 0 0.134 0 0.207zM36.368 18.308c0.072 0 0.145 0 0.207 0 0-0.072 0-0.145 0-0.217 0.072 0 0.145 0 0.207 0 0 0.072 0 0.145 0 0.217 0.103 0 0.207 0 0.32 0 0-0.031 0-0.072 0-0.103-0.124-0.124-0.041 0-0.103-0.217-0.248-0.031-0.496-0.072-0.733-0.103 0 0.031 0 0.072 0 0.103 0.32 0.103 0.114-0.010 0.103 0.32zM40.478 18.205c0-0.072 0-0.145 0-0.217-0.372-0.031-0.795-0.227-1.053 0 0.351 0.072 0.702 0.145 1.053 0.217zM34.685 18.091c0.124 0.124 0 0.041 0.207 0.103-0.114-0.114 0-0.031-0.207-0.103zM26.569 18.205c-0.072 0-0.145 0-0.207 0 0.093 0.124-0.010 0.010 0.103 0.103 0 0.031 0 0.072 0 0.103 0.031 0 0.072 0 0.103 0 0-0.072 0-0.134 0-0.207zM35.315 18.205c0 0.072 0 0.145 0 0.217 0.072 0 0.145 0 0.207 0 0-0.072 0-0.145 0-0.217-0.062 0-0.134 0-0.207 0zM28.995 18.514c0 0.072 0 0.145 0 0.217 0.103 0 0.207 0 0.32 0 0-0.031 0-0.072 0-0.103-0.031 0-0.072 0-0.103 0 0.165-0.238 0.176 0.010 0.32-0.103 0-0.031 0-0.072 0-0.103-0.186 0.031-0.361 0.062-0.537 0.093zM14.663 18.628c-0.010 0.238-0.114 0.909-0.103 0.95 0.031 0 0.072 0 0.103 0 0 0.217 0 0.423 0 0.64 0.031 0 0.072 0 0.103 0 0 0.072 0 0.145 0 0.217 0.031 0 0.072 0 0.103 0 0.248 0.475 0.248 0.909 0.847 1.064 0 0.072 0 0.145 0 0.217 0.547 0.052 1.301 0.578 2.107 0.32 0-0.031 0-0.072 0-0.103 0.103 0 0.207 0 0.32 0 0-0.031 0-0.072 0-0.103 0.072 0 0.145 0 0.207 0 0-0.031 0-0.072 0-0.103 0.072 0 0.145 0 0.207 0 0.031-0.072 0.072-0.145 0.103-0.217 0.238-0.093 0.289 0.103 0.423 0.103 0-0.031 0-0.072 0-0.103 0.031 0 0.072 0 0.103 0 0 0.031 0 0.072 0 0.103 0.103 0 0.207 0 0.32 0 0 0.031 0 0.072 0 0.103 0.145 0 0.279 0 0.423 0 0.031 0.072 0.072 0.145 0.103 0.217 0.072-0.031 0.145-0.072 0.207-0.103 0.32 0.114 0.31 0.196 0.847 0.217-0.114 0.516-0.878 1.322-1.477 1.373 0 0.072 0 0.145 0 0.217-0.103 0.031-0.207 0.072-0.32 0.103 0 0.031 0 0.072 0 0.103-0.103 0-0.207 0-0.32 0 0 0.031 0 0.072 0 0.103-0.072 0-0.145 0-0.207 0 0 0.031 0 0.072 0 0.103-0.145 0-0.279 0-0.423 0 0 0.031 0 0.072 0 0.103-0.145 0-0.279 0-0.423 0 0 0.031 0 0.072 0 0.103-0.423 0.124-2.045-0.103-2.323-0.217 0-0.031 0-0.072 0-0.103-0.145-0.031-0.279-0.072-0.423-0.103 0-0.031 0-0.072 0-0.103-0.103 0-0.207 0-0.32 0-0.031-0.072-0.072-0.145-0.103-0.217-0.072 0-0.145 0-0.207 0-0.031-0.072-0.072-0.145-0.103-0.217-0.072 0-0.145 0-0.207 0-0.031-0.072-0.072-0.145-0.103-0.217-0.207-0.176-0.423-0.351-0.63-0.527 0-0.072 0-0.145 0-0.217-0.103-0.072-0.207-0.145-0.32-0.217-0.031-0.145-0.072-0.279-0.103-0.423-0.496-0.919-0.64-1.497-0.63-2.964 0.165-0.062 0.248-0.093 0.527-0.103 0 0.031 0 0.072 0 0.103 0.145 0-0.041-0.093 0.103-0.103 0.537 0 1.064 0 1.59 0zM16.769 18.628c0.279 0 0.558 0 0.847 0 0.33 0.547 0.434 0.279 0.423 1.27-0.124 0.124-0.041 0-0.103 0.217-0.475 0.238-1.26 0.589-1.477-0.217-0.031 0-0.072 0-0.103 0 0-0.279 0-0.568 0-0.847 0.031 0 0.072 0 0.103 0 0.103-0.145 0.207-0.289 0.31-0.423zM23.832 18.628c0.052 0.041 0.134 0.196 0.32 0.103 0-0.031 0-0.072 0-0.103-0.114 0-0.217 0-0.32 0zM39.744 18.834c0.072 0 0.145 0 0.207 0 0-0.031 0-0.072 0-0.103-0.124-0.093-0.010 0.010-0.103-0.103-0.031 0-0.072 0-0.103 0 0 0.072 0 0.134 0 0.207zM21.509 19.258c0.124 0.124 0 0.041 0.207 0.103-0.114-0.114 0.010-0.041-0.207-0.103zM40.374 19.371c-0.072 0-0.145 0-0.207 0 0.093 0.124-0.010 0.010 0.103 0.103 0 0.031 0 0.072 0 0.103 0.031 0 0.072 0 0.103 0 0-0.072 0-0.145 0-0.207zM31.628 19.578c0.599 0.145 1.198 0.279 1.786 0.423-0.103 0.671-0.207 1.342-0.32 2.014-0.207-0.031-0.423-0.072-0.63-0.103 0-0.031 0-0.072 0-0.103 0.248-0.062 0.196-0.031 0.32-0.217-0.32-0.072-0.63-0.145-0.95-0.217 0 0.072 0 0.145 0 0.217 0.072 0 0.145 0 0.207 0 0 0.072 0 0.145 0 0.217-0.248-0.072-0.496-0.145-0.733-0.217 0-0.072 0-0.145 0-0.217 0.103 0 0.207 0 0.32 0 0-0.031 0-0.072 0-0.103-0.072 0-0.145 0-0.207 0-0.010-0.878 0.186-0.919 0.207-1.693zM36.585 19.578c0.124 0.124 0 0.041 0.207 0.103-0.124-0.114 0-0.041-0.207-0.103zM23.409 19.681c0.124 0.124 0 0.041 0.207 0.103-0.114-0.114 0-0.041-0.207-0.103zM24.039 19.795c0.124 0.207 0.145 0.248 0.423 0.32 0.093-0.124-0.010-0.010 0.103-0.103 0-0.031 0-0.072 0-0.103-0.279-0.021-0.361-0.052-0.527-0.114zM13.919 20.001c0.124 0.124 0 0.041 0.207 0.103-0.114-0.114 0.010-0.041-0.207-0.103zM24.669 20.001c0 0.031 0 0.072 0 0.103 0.145 0 0.279 0 0.423 0 0-0.031 0-0.072 0-0.103-0.134 0-0.279 0-0.423 0zM25.722 20.001c-0.031 0.103-0.072 0.217-0.103 0.32 0.031 0 0.072 0 0.103 0 0.124-0.124 0-0.041 0.207-0.103 0 0.145 0 0.279 0 0.423 0.031 0 0.072 0 0.103 0 0-0.103 0-0.217 0-0.32 0.031 0 0.072 0 0.103 0 0 0.031 0 0.072 0 0.103 0.207 0.031 0.423 0.072 0.63 0.103 0-0.031 0-0.072 0-0.103-0.351-0.031-0.578-0.052-0.423-0.32-0.196-0.031-0.403-0.072-0.62-0.103zM25.195 20.105c0.052 0.041 0.134 0.196 0.32 0.103 0-0.031 0-0.072 0-0.103-0.103 0-0.207 0-0.32 0zM42.378 20.218c0.052 0.041 0.134 0.196 0.32 0.103 0-0.031 0-0.072 0-0.103-0.114 0-0.217 0-0.32 0zM14.446 20.528c0.124 0.124 0 0.041 0.207 0.103-0.114-0.114 0.010-0.041-0.207-0.103zM43.328 20.528c0.124 0.124 0 0.041 0.207 0.103-0.124-0.114 0-0.041-0.207-0.103zM46.27 20.528c0 0.031 0 0.072 0 0.103-0.021 0.021-0.361-0.062-0.207 0.103 0.031 0 0.072 0 0.103 0 0.062 0.041 0.010 0.176 0.207 0.103 0-0.031 0-0.072 0-0.103 0.072 0 0.145 0 0.207 0 0-0.031 0-0.072 0-0.103-0.093-0.031-0.196-0.062-0.31-0.103zM36.368 20.642c0.124 0.124 0 0.041 0.207 0.103-0.114-0.124 0-0.041-0.207-0.103zM36.998 20.745c0.124 0.124 0 0.041 0.207 0.103-0.114-0.124 0.010-0.041-0.207-0.103zM27.095 21.065c0.052 0.041 0.134 0.196 0.32 0.103 0-0.031 0-0.072 0-0.103-0.103 0-0.217 0-0.32 0zM20.982 21.271c-0.145 0.031-0.279 0.072-0.423 0.103 0-0.031 0-0.072 0-0.103-0.145-0.031-0.279-0.072-0.423-0.103 0 0.031 0 0.072 0 0.103 0.031 0 0.072 0 0.103 0 0.155 0.155 0.527 0.227 0.733 0.32 0.010-0.103 0.010-0.217 0.010-0.32zM26.362 21.168c-0.103 0-0.207 0-0.32 0 0 0.031 0 0.072 0 0.103 0.072 0 0.145 0 0.207 0 0 0.031 0 0.072 0 0.103 0.103 0.196 0.114-0.207 0.114-0.207zM38.691 21.168c0.052 0.041 0.134 0.196 0.32 0.103 0-0.031 0-0.072 0-0.103-0.114 0-0.217 0-0.32 0zM39.218 21.271c0.124 0.124 0 0.041 0.207 0.103-0.124-0.114 0-0.041-0.207-0.103zM36.688 21.375c0.124 0.124 0 0.041 0.207 0.103-0.114-0.114 0-0.041-0.207-0.103zM39.631 21.375c0.052 0.041 0.134 0.196 0.32 0.103 0-0.031 0-0.072 0-0.103-0.103 0-0.207 0-0.32 0zM14.239 21.488c0.093 0.114 0.186 0.145 0.32 0.217-0.124-0.196-0.072-0.155-0.32-0.217zM48.49 21.488c0.124 0.124 0 0.041 0.207 0.103-0.124-0.124 0-0.041-0.207-0.103zM26.569 21.591c0.124 0.124 0 0.041 0.207 0.103-0.114-0.124 0-0.041-0.207-0.103zM13.713 21.695c0.124 0.124 0 0.041 0.207 0.103-0.114-0.114 0-0.041-0.207-0.103zM28.365 21.695c0.052 0.052 0.816 0.289 0.95 0.217 0-0.031 0-0.072 0-0.103-0.289-0.062-0.547-0.114-0.95-0.114zM15.396 21.798c0.124 0.145 0.196 0.165 0.423 0.217-0.124-0.145-0.186-0.165-0.423-0.217zM19.619 22.118c0.176 0.031 0.351 0.072 0.527 0.103 0-0.031 0-0.072 0-0.103-0.124-0.093-0.010 0.010-0.103-0.103-0.248-0.021-0.258-0.041-0.423-0.103 0 0.062 0 0.134 0 0.207zM32.052 22.118c-0.103 0-0.207 0-0.32 0 0 0.031 0 0.072 0 0.103 0.072 0 0.145 0 0.207 0 0.093 0.124-0.010 0.010 0.103 0.103 0.010-0.062 0.010-0.134 0.010-0.207zM15.51 22.645c0-0.072 0-0.145 0-0.217-0.372-0.052-0.341-0.041-0.733-0.103 0 0.031 0 0.072 0 0.103 0.124 0.093 0.010-0.010 0.103 0.103 0.103 0.031 0.207 0.072 0.32 0.103 0.145 0-0.041-0.114 0.103-0.103 0 0.031 0 0.072 0 0.103 0.062 0.010 0.134 0.010 0.207 0.010zM15.613 22.438c0 0.072 0 0.145 0 0.217 0.103 0 0.207 0 0.32 0 0-0.031 0-0.072 0-0.103-0.114-0.041-0.217-0.083-0.32-0.114zM34.685 22.438c0 0.031 0 0.072 0 0.103 0.145 0 0.279 0 0.423 0 0-0.031 0-0.072 0-0.103-0.145 0-0.289 0-0.423 0zM23.089 22.541c0.052 0.041 0.134 0.196 0.32 0.103 0-0.031 0-0.072 0-0.103-0.103 0-0.207 0-0.32 0zM23.512 22.645c0.072 0.103 0.145 0.217 0.207 0.32 0.134 0.062-0.021-0.072 0.103-0.103 0.227-0.052 0.32 0.103 0.32 0.103 0.031 0 0.072 0 0.103 0 0-0.031 0-0.072 0-0.103 0.072 0.031 0.145 0.072 0.207 0.103-0.31-0.475-0.279-0.124-0.63-0.217 0-0.031 0-0.072 0-0.103-0.093 0-0.207 0-0.31 0zM42.378 22.645c0.124 0.124 0 0.041 0.207 0.103-0.114-0.114 0-0.031-0.207-0.103zM42.687 22.645c0.114 0.186 0.062 0.145 0.32 0.217 0-0.031 0-0.072 0-0.103-0.103-0.041-0.207-0.072-0.32-0.114zM29.625 22.758c-0.072 0-0.145 0-0.207 0 0.093 0.124-0.010 0.010 0.103 0.103 0 0.031 0 0.072 0 0.103 0.031 0 0.072 0 0.103 0 0-0.072 0-0.145 0-0.207zM44.907 22.758c-0.072 0-0.145 0-0.207 0 0.093 0.124-0.010 0.010 0.103 0.103 0 0.031 0 0.072 0 0.103 0.031 0 0.072 0 0.103 0 0-0.072 0-0.145 0-0.207zM35.841 22.862c0.176 0 0.351 0 0.527 0 0 0.031 0 0.072 0 0.103-0.031 0-0.072 0-0.103 0 0 0.031 0 0.072 0 0.103-0.134-0.052 0.031-0.041-0.103-0.103-0.103 0-0.207 0-0.32 0 0-0.031 0-0.072 0-0.103zM22.882 23.068c0 0.031 0 0.072 0 0.103-0.021 0.021-0.361-0.062-0.207 0.103 0.031 0 0.072 0 0.103 0 0.145 0.165 0.227 0.186 0.527 0.217 0-0.031 0-0.072 0-0.103-0.155-0.103-0.289-0.145-0.103-0.32-0.114 0-0.217 0-0.32 0zM24.669 23.068c-0.031 0.072-0.072 0.145-0.103 0.217 0.010 0 0.31-0.165 0.207-0.217-0.031 0-0.062 0-0.103 0zM28.045 23.068c0 0.072 0 0.145 0 0.217 0.031 0 0.072 0 0.103 0 0-0.072 0-0.145 0-0.217-0.031 0-0.072 0-0.103 0zM28.469 23.182c0.062 0.072 0.248 0.289 0.423 0.217 0-0.031 0-0.072 0-0.103 0.072 0 0.145 0 0.207 0 0-0.031 0-0.072 0-0.103-0.207-0.010-0.423-0.010-0.63-0.010zM34.995 23.182c0.124 0.124 0 0.041 0.207 0.103-0.114-0.124 0.010-0.041-0.207-0.103zM45.114 23.182c0.124 0.124 0 0.041 0.207 0.103-0.114-0.124 0.010-0.041-0.207-0.103zM16.139 23.285c0 0.031 0 0.072 0 0.103 0.774 0.176 1.549 0.351 2.323 0.527 0-0.031 0-0.072 0-0.103-0.124-0.093-0.010 0.010-0.103-0.103-0.248-0.031-0.496-0.072-0.733-0.103 0-0.031 0-0.072 0-0.103-0.072 0.031-0.145 0.072-0.207 0.103-0.423-0.114-0.764-0.289-1.28-0.32zM38.691 23.285c-0.072 0-0.145 0-0.207 0 0.093 0.124-0.010 0.010 0.103 0.103 0 0.031 0 0.072 0 0.103 0.031 0 0.072 0 0.103 0 0-0.062 0-0.134 0-0.207zM47.014 23.285c0.062 0.062 0.62 0.351 0.847 0.217 0-0.031 0-0.072 0-0.103-0.289-0.041-0.568-0.083-0.847-0.114zM15.716 23.388c0.052 0.041 0.134 0.196 0.32 0.103 0-0.031 0-0.072 0-0.103-0.114 0-0.217 0-0.32 0zM28.892 23.708c0-0.072 0-0.145 0-0.217-0.413-0.031-0.31-0.103-0.63 0 0.124 0.124 0 0.041 0.207 0.103 0 0.031 0 0.072 0 0.103 0.134 0.010 0.279 0.010 0.423 0.010zM31.835 23.491c0.124 0.207 0.145 0.248 0.423 0.32-0.103-0.124-0.268-0.238-0.423-0.32zM24.462 23.605c0.124 0.124 0 0.041 0.207 0.103-0.114-0.124 0-0.041-0.207-0.103zM43.007 23.605c0.124 0.124 0 0.041 0.207 0.103-0.114-0.124 0-0.041-0.207-0.103z"></path>
<path fill="#f00" style="fill: var(--color2, #f00)" d="M34.654 11.235h1.921c0.423 0 0.774 0.072 1.053 0.217s0.475 0.351 0.578 0.62c0.103 0.268 0.114 0.589 0.031 0.95-0.062 0.248-0.176 0.475-0.351 0.671s-0.392 0.361-0.661 0.475l0.64 1.693h-1.477l-0.465-1.487h-0.547l-0.32 1.487h-1.394l0.991-4.626zM36.161 13.31c0.186 0 0.33-0.031 0.444-0.103 0.114-0.062 0.186-0.165 0.217-0.279 0.052-0.196 0.031-0.341-0.062-0.444s-0.237-0.155-0.444-0.155h-0.496l-0.217 0.981h0.558z"></path>
<path fill="#f00" style="fill: var(--color2, #f00)" d="M39.28 11.235h1.776c0.537 0 0.981 0.114 1.322 0.351s0.568 0.547 0.692 0.95c0.124 0.403 0.134 0.847 0.021 1.342-0.083 0.403-0.248 0.743-0.496 1.043s-0.568 0.527-0.94 0.702c-0.382 0.165-0.805 0.248-1.28 0.248h-2.086l0.991-4.636zM40.488 14.632c0.279 0 0.516-0.093 0.712-0.268s0.33-0.413 0.392-0.692c0.052-0.227 0.062-0.423 0.031-0.609s-0.103-0.33-0.227-0.434c-0.124-0.103-0.299-0.165-0.516-0.165h-0.392l-0.465 2.168h0.465z"></path>
<path fill="#f00" style="fill: var(--color2, #f00)" d="M47.768 14.157c-0.258 1.218-1.012 1.828-2.251 1.828-0.413 0-0.754-0.062-1.012-0.176s-0.465-0.279-0.599-0.496c-0.134-0.207-0.217-0.454-0.237-0.723s0-0.558 0.062-0.867l0.537-2.489h1.497l-0.578 2.695c-0.031 0.124-0.041 0.238-0.031 0.361s0.041 0.217 0.114 0.299c0.072 0.083 0.196 0.124 0.361 0.124 0.196 0 0.341-0.062 0.454-0.186 0.103-0.124 0.186-0.32 0.248-0.599l0.578-2.695h1.487l-0.63 2.922z"></path>
</symbol>
<symbol id="icon-facebook" viewBox="0 0 32 32">
<path d="M12 10.667h-4v5.333h4v16h6.667v-16h4.856l0.477-5.333h-5.333v-2.223c0-1.273 0.256-1.777 1.487-1.777h3.847v-6.667h-5.077c-4.795 0-6.923 2.111-6.923 6.153v4.513z"></path>
</symbol>
<symbol id="icon-twitter" viewBox="0 0 39 32">
<path d="M35.014 8.116c0.020 0.354 0.031 0.768 0.031 1.185 0 12.486-10.122 22.609-22.609 22.609-4.485 0-8.664-1.306-12.179-3.558l0.090 0.054c0.323 0.023 0.7 0.035 1.080 0.035 3.853 0 7.396-1.323 10.201-3.54l-0.035 0.026c-3.146-0.385-5.709-2.523-6.707-5.392l-0.017-0.057c0.387 0.065 0.833 0.103 1.288 0.103 0.822 0 1.616-0.122 2.364-0.35l-0.057 0.015c-3.683-0.712-6.452-3.837-6.608-7.636l-0.001-0.016c0.894 0.369 1.932 0.583 3.020 0.583 0.080 0 0.159-0.001 0.238-0.003l-0.012 0c-1.924-1.499-3.15-3.816-3.15-6.419 0-1.477 0.394-2.862 1.084-4.055l-0.021 0.039c3.926 4.821 9.735 7.979 16.289 8.345l0.059 0.003c-0.218-0.683-0.344-1.469-0.344-2.285 0-4.29 3.478-7.768 7.768-7.768 2.424 0 4.589 1.111 6.014 2.851l0.011 0.014c1.885-0.346 3.561-1.034 5.037-2.003l-0.051 0.032c-0.598 1.911-1.882 3.458-3.556 4.386l-0.039 0.020c1.674-0.174 3.205-0.626 4.602-1.311l-0.080 0.035c-0.701 1.788-2.010 3.209-3.667 4.038l-0.044 0.020z"></path>
</symbol>
</defs>
</svg>
